<?xml version="1.0" encoding="utf-8"?>
<!-- Generator: Adobe Illustrator 23.0.4, SVG Export Plug-In . SVG Version: 6.00 Build 0)  -->
<svg version="1.1" xmlns="http://www.w3.org/2000/svg" xmlns:xlink="http://www.w3.org/1999/xlink" x="0px" y="0px"
	 viewBox="0 0 1250 400" style="enable-background:new 0 0 1250 400;" xml:space="preserve">
<style type="text/css">
	.st0{display:none;}
	.st1{display:inline;fill-rule:evenodd;clip-rule:evenodd;fill:none;stroke:#E80A89;stroke-miterlimit:10;}
	.st2{display:inline;fill-rule:evenodd;clip-rule:evenodd;fill:none;stroke:#60C6D1;stroke-miterlimit:10;}
	.st3{display:inline;fill:#231F20;}
	.st4{display:inline;fill-rule:evenodd;clip-rule:evenodd;fill:none;stroke:#46B449;stroke-miterlimit:10;}
	.st5{fill:#FFFFFF;}
	.st6{fill:#E1E1E1;}
	.st7{fill:#646464;}
	.st8{display:inline;fill:none;stroke:#221F1F;stroke-width:8;stroke-miterlimit:10;}
	.st9{display:inline;fill-rule:evenodd;clip-rule:evenodd;fill:none;stroke:#221F1F;stroke-width:8;stroke-miterlimit:10;}
	.st10{display:inline;}
	.st11{fill:#221F1F;}
	.st12{display:inline;fill-rule:evenodd;clip-rule:evenodd;fill:#00A04A;}
	.st13{fill:#1E8CC3;}
	.st14{fill:url(#SVGID_1_);}
	.st15{fill:url(#SVGID_2_);}
	.st16{fill:url(#SVGID_3_);}
	.st17{fill:url(#SVGID_4_);}
</style>
<g id="L_CIRCLES" class="st0">
</g>
<g id="M_CIRCLES" class="st0">
</g>
<g id="S_CIRCLES" class="st0">
</g>
<g id="TEXT">
	<g>
		<g>
			<path class="st5" d="M5,40.04V10.62h153.08v29.42H98.72v183.28H64.36V40.04H5z"/>
			<path class="st5" d="M166.41,223.32V73.1h31.76v16.14c3.29-5.55,8.03-10.41,14.19-14.58c6.16-4.17,13.49-6.25,22-6.25
				c7.98,0,14.49,1.13,19.53,3.38v29.94c-6.6-2.08-13.11-3.12-19.53-3.12c-11.28,0-19.92,4.38-25.9,13.15
				c-5.99,8.77-8.98,20.44-8.98,35.02v76.54H166.41z"/>
			<path class="st5" d="M269.24,168.91V73.1h33.06v91.64c0,23.43,8.24,35.15,24.73,35.15c9.89,0,17.61-4.21,23.17-12.63
				c5.55-8.42,8.33-18.44,8.33-30.07V73.1h32.8v150.22h-31.76v-17.44h-0.26c-2.43,5.38-7.07,10.41-13.93,15.1
				c-6.86,4.69-15.4,7.03-25.64,7.03c-6.08,0-11.85-0.91-17.31-2.73c-5.47-1.82-10.8-4.77-16.01-8.85
				c-5.21-4.08-9.37-10.19-12.5-18.35C270.81,189.91,269.24,180.19,269.24,168.91z"/>
			<path class="st5" d="M416.08,192.08l23.69-13.8c10.41,15.27,23.95,22.91,40.61,22.91c8.15,0,14.62-1.6,19.39-4.82
				c4.77-3.21,7.16-7.5,7.16-12.89c0-4.34-1.95-8.16-5.86-11.45c-3.91-3.3-8.03-5.77-12.37-7.42c-4.34-1.65-10.85-3.86-19.53-6.64
				c-1.56-0.52-2.69-0.87-3.38-1.04c-6.25-2.08-11.5-4.12-15.75-6.12c-4.25-1.99-8.72-4.69-13.41-8.07s-8.25-7.64-10.67-12.76
				c-2.43-5.12-3.64-11.06-3.64-17.83c0-13.19,5.55-23.78,16.66-31.76c11.1-7.98,24.9-11.98,41.39-11.98
				c12.32,0,23.95,3.25,34.89,9.76c10.93,6.51,19.09,14.8,24.47,24.86l-21.87,13.28c-10.24-14.06-22.65-21.09-37.23-21.09
				c-7.99,0-14.1,1.61-18.35,4.82c-4.25,3.21-6.38,7.42-6.38,12.63c0,4.34,1.86,8.2,5.6,11.59c3.73,3.38,7.59,5.86,11.59,7.42
				c3.99,1.56,9.63,3.56,16.92,5.99c1.91,0.52,3.29,0.96,4.17,1.3c30.89,9.89,46.34,24.82,46.34,44.78
				c0,12.33-5.17,22.78-15.49,31.37c-10.33,8.59-24.95,12.89-43.87,12.89c-14.58,0-27.56-3.21-38.92-9.63
				C430.87,211.95,422.15,203.19,416.08,192.08z"/>
			<path class="st5" d="M553.02,78.83V50.71h23.17V10.62h32.8v40.09h34.36v28.12h-34.36v96.33c0,7.12,1.43,12.24,4.29,15.36
				c2.86,3.12,7.24,4.69,13.15,4.69h17.18v28.12h-21.35c-30.72,0-46.08-15.27-46.08-45.82V78.83H553.02z"/>
			<path class="st5" d="M672.25,223.32V10.62h32.8v212.7H672.25z"/>
			<g>
				<rect x="745.41" y="10.62" class="st5" width="35.41" height="36.19"/>
				<rect x="746.97" y="69.2" class="st5" width="32.54" height="154.12"/>
			</g>
			<path class="st5" d="M818.56,223.32V73.1h32.02v19h0.26c2.6-5.55,7.42-10.89,14.45-16.01c7.03-5.12,16.1-7.68,27.21-7.68
				c14.92,0,26.82,4.6,35.67,13.8c8.85,9.2,13.28,24.04,13.28,44.52v96.59h-33.06v-92.16c0-23.08-7.81-34.63-23.43-34.63
				c-9.55,0-17.49,3.82-23.82,11.45c-6.34,7.64-9.5,17.1-9.5,28.38v86.95H818.56z"/>
			<path class="st5" d="M966.7,147.56c0-24.12,6.64-43.35,19.92-57.67s29.98-21.48,50.12-21.48c19.79,0,36.1,7.2,48.94,21.61
				c12.84,14.41,19.27,33.15,19.27,56.23c0,4.52-0.26,8.94-0.78,13.28h-104.14c0,11.45,3.42,21.31,10.28,29.55
				c6.86,8.25,16.27,12.37,28.25,12.37c8.33,0,15.66-2.04,22-6.12c6.33-4.08,11.15-9.33,14.45-15.75l27.6,9.37
				c-4.86,11.11-12.76,20.4-23.69,27.86c-10.93,7.46-24.56,11.19-40.87,11.19c-21,0-38.14-7.29-51.42-21.87
				S966.7,172.03,966.7,147.56z M1000.54,136.37h70.81c0-11.45-3.04-21.22-9.11-29.29c-6.08-8.07-14.58-12.11-25.51-12.11
				c-10.93,0-19.66,4.12-26.17,12.37C1004.05,115.58,1000.71,125.26,1000.54,136.37z"/>
			<path class="st5" d="M1120.56,192.08l23.69-13.8c10.41,15.27,23.95,22.91,40.61,22.91c8.15,0,14.62-1.6,19.39-4.82
				c4.77-3.21,7.16-7.5,7.16-12.89c0-4.34-1.95-8.16-5.86-11.45c-3.91-3.3-8.03-5.77-12.37-7.42c-4.34-1.65-10.85-3.86-19.53-6.64
				c-1.56-0.52-2.69-0.87-3.38-1.04c-6.25-2.08-11.5-4.12-15.75-6.12c-4.25-1.99-8.72-4.69-13.41-8.07
				c-4.69-3.38-8.25-7.64-10.67-12.76c-2.43-5.12-3.64-11.06-3.64-17.83c0-13.19,5.55-23.78,16.66-31.76
				c11.1-7.98,24.9-11.98,41.39-11.98c12.32,0,23.95,3.25,34.89,9.76c10.93,6.51,19.09,14.8,24.47,24.86l-21.87,13.28
				c-10.24-14.06-22.65-21.09-37.23-21.09c-7.99,0-14.1,1.61-18.35,4.82c-4.25,3.21-6.38,7.42-6.38,12.63c0,4.34,1.86,8.2,5.6,11.59
				c3.73,3.38,7.59,5.86,11.59,7.42c3.99,1.56,9.63,3.56,16.92,5.99c1.91,0.52,3.29,0.96,4.17,1.3
				c30.89,9.89,46.34,24.82,46.34,44.78c0,12.33-5.17,22.78-15.49,31.37c-10.33,8.59-24.95,12.89-43.87,12.89
				c-14.58,0-27.56-3.21-38.92-9.63C1135.35,211.95,1126.63,203.19,1120.56,192.08z"/>
		</g>
		<g>
			<path class="st5" d="M139.36,387.24v-90.91h56.12v9.89h-44.56v30.38h39.91v9.77h-39.91v40.87H139.36z"/>
			<path class="st5" d="M227.27,341.84c0-14.3,3.47-25.81,10.43-34.55c6.95-8.74,16.22-13.11,27.82-13.11
				c11.68,0,20.95,4.37,27.82,13.11c6.87,8.74,10.31,20.29,10.31,34.67c0,14.46-3.48,25.97-10.43,34.55
				c-6.95,8.58-16.18,12.87-27.7,12.87c-11.6,0-20.87-4.31-27.82-12.93C230.74,367.84,227.27,356.3,227.27,341.84z M239.18,341.84
				c0,11.52,2.36,20.65,7.09,27.4c4.73,6.75,11.14,10.13,19.24,10.13c8.02,0,14.4-3.32,19.12-9.95c4.72-6.63,7.09-15.79,7.09-27.46
				c0-11.51-2.3-20.71-6.91-27.58c-4.61-6.87-11.04-10.31-19.3-10.31c-8.1,0-14.52,3.42-19.24,10.25
				C241.54,321.15,239.18,330.33,239.18,341.84z"/>
			<path class="st5" d="M345.19,354v-57.67h11.68v57.43c0,8.66,1.93,15.09,5.78,19.3c3.85,4.21,8.91,6.31,15.19,6.31
				c6.43,0,11.56-2.18,15.37-6.55c3.81-4.37,5.72-10.72,5.72-19.06v-57.43h11.68V354c0,11.2-2.8,19.9-8.4,26.09
				c-5.6,6.2-13.72,9.29-24.36,9.29c-10.33,0-18.35-3.04-24.07-9.11C348.05,374.19,345.19,365.43,345.19,354z"/>
			<path class="st5" d="M458.12,387.24v-90.91h12.75l31.45,55.28l10.6,18.82h0.72c-1.03-7.39-1.55-16-1.55-25.85v-48.25h11.56v90.91
				H510.9l-31.45-55.16l-10.6-18.82h-0.48c0.87,8.26,1.31,16.88,1.31,25.85v48.13H458.12z"/>
			<path class="st5" d="M571.64,387.24v-90.91h25.38c13.26,0,23.65,3.89,31.16,11.68c7.51,7.78,11.26,19.06,11.26,33.84
				c0,13.82-3.57,24.84-10.72,33.06c-7.15,8.22-17.79,12.33-31.93,12.33H571.64z M583.19,377.47h12.03
				c10.09,0,17.99-2.84,23.71-8.52c5.72-5.68,8.58-14.72,8.58-27.11c0-23.75-10.68-35.62-32.05-35.62h-12.27V377.47z"/>
			<path class="st5" d="M668.24,387.24l33.6-90.91h13.58l33.48,90.91h-12.51l-8.58-24.9h-38.36l-8.7,24.9H668.24z M692.66,353.04
				h31.81l-9.65-28.24c-0.48-1.43-1.41-4.25-2.8-8.46c-1.39-4.21-2.4-7.27-3.04-9.17h-0.71c-0.56,1.75-1.53,4.69-2.92,8.82
				c-1.39,4.13-2.36,7.07-2.92,8.82L692.66,353.04z"/>
			<path class="st5" d="M770.2,306.22v-9.89h65.89v9.89h-27.16v81.02h-11.56v-81.02H770.2z"/>
			<path class="st5" d="M873.35,387.24v-90.91h11.56v90.91H873.35z"/>
			<path class="st5" d="M926.82,341.84c0-14.3,3.47-25.81,10.42-34.55c6.95-8.74,16.22-13.11,27.82-13.11
				c11.68,0,20.95,4.37,27.82,13.11c6.87,8.74,10.31,20.29,10.31,34.67c0,14.46-3.48,25.97-10.42,34.55
				c-6.95,8.58-16.18,12.87-27.7,12.87c-11.6,0-20.87-4.31-27.82-12.93C930.3,367.84,926.82,356.3,926.82,341.84z M938.74,341.84
				c0,11.52,2.36,20.65,7.09,27.4c4.73,6.75,11.14,10.13,19.24,10.13c8.02,0,14.4-3.32,19.12-9.95c4.72-6.63,7.09-15.79,7.09-27.46
				c0-11.51-2.3-20.71-6.91-27.58c-4.61-6.87-11.04-10.31-19.3-10.31c-8.1,0-14.52,3.42-19.24,10.25
				C941.1,321.15,938.74,330.33,938.74,341.84z"/>
			<path class="st5" d="M1045.11,387.24v-90.91h12.75l31.45,55.28l10.6,18.82h0.72c-1.03-7.39-1.55-16-1.55-25.85v-48.25h11.56
				v90.91h-12.75l-31.45-55.16l-10.6-18.82h-0.48c0.87,8.26,1.31,16.88,1.31,25.85v48.13H1045.11z"/>
		</g>
	</g>
</g>
<g id="OUTLINE" class="st0">
</g>
<g id="INLINE" class="st0">
</g>
<g id="HORSE" class="st0">
</g>
<g id="ALL">
</g>
<g id="Layer_9">
</g>
<g id="Layer_10">
</g>
</svg>
