<?xml version="1.0" encoding="utf-8"?>
<!-- Generator: Adobe Illustrator 23.0.4, SVG Export Plug-In . SVG Version: 6.00 Build 0)  -->
<svg version="1.1" xmlns="http://www.w3.org/2000/svg" xmlns:xlink="http://www.w3.org/1999/xlink" x="0px" y="0px"
	 viewBox="0 0 800 850" style="enable-background:new 0 0 800 850;" xml:space="preserve">
<style type="text/css">
	.st0{display:none;}
	.st1{display:inline;fill-rule:evenodd;clip-rule:evenodd;fill:none;stroke:#E80A89;stroke-miterlimit:10;}
	.st2{display:inline;fill-rule:evenodd;clip-rule:evenodd;fill:none;stroke:#60C6D1;stroke-miterlimit:10;}
	.st3{display:inline;fill:#231F20;}
	.st4{display:inline;fill-rule:evenodd;clip-rule:evenodd;fill:none;stroke:#46B449;stroke-miterlimit:10;}
	.st5{fill:#FFFFFF;}
	.st6{fill:#E1E1E1;}
	.st7{fill:#646464;}
	.st8{display:inline;fill:none;stroke:#221F1F;stroke-width:8;stroke-miterlimit:10;}
	.st9{display:inline;fill-rule:evenodd;clip-rule:evenodd;fill:none;stroke:#221F1F;stroke-width:8;stroke-miterlimit:10;}
	.st10{display:inline;}
	.st11{fill:#221F1F;}
	.st12{display:inline;fill-rule:evenodd;clip-rule:evenodd;fill:#00A04A;}
	.st13{fill:#1E8CC3;}
	.st14{fill:url(#SVGID_1_);}
	.st15{fill:url(#SVGID_2_);}
	.st16{fill:url(#SVGID_3_);}
	.st17{fill:url(#SVGID_4_);}
</style>
<g id="L_CIRCLES" class="st0">
</g>
<g id="M_CIRCLES" class="st0">
</g>
<g id="S_CIRCLES" class="st0">
</g>
<g id="TEXT">
</g>
<g id="OUTLINE" class="st0">
</g>
<g id="INLINE" class="st0">
</g>
<g id="HORSE" class="st0">
</g>
<g id="ALL">
</g>
<g id="Layer_9">
</g>
<g id="Layer_10">
	<g>
		<path class="st7" d="M780.05,428.45l-0.01-0.26c-0.08-3.13-0.19-6.26-0.35-9.31l-0.03-0.51c-0.15-2.93-0.34-5.92-0.58-9.11
			l-0.04-0.61c-0.22-2.82-0.48-5.74-0.79-8.92l-0.07-0.76c-0.3-2.91-0.64-5.82-1-8.72l-0.11-0.88c-0.37-2.88-0.77-5.75-1.19-8.52
			l-0.15-1.03c-0.43-2.81-0.9-5.59-1.39-8.37l-0.18-1.05c-0.5-2.76-1.03-5.51-1.59-8.24l-0.23-1.16c-0.56-2.71-1.15-5.41-1.77-8.1
			l-0.26-1.16c-0.63-2.7-1.29-5.39-1.97-8.07l-0.27-1.05c-0.69-2.68-1.41-5.34-2.16-7.99l-0.32-1.14c-0.75-2.63-1.54-5.27-2.35-7.87
			l-0.34-1.1c-0.89-2.83-1.71-5.38-2.53-7.77l-0.4-1.18c-0.87-2.55-1.77-5.1-2.69-7.64l-0.41-1.12c-0.94-2.56-1.91-5.1-2.9-7.64
			l-0.41-1.02c-1.02-2.59-2.06-5.13-3.08-7.54l-0.46-1.1c-1.07-2.5-2.16-5-3.28-7.48l-0.42-0.93c-1.13-2.51-2.3-5-3.49-7.48
			l-0.42-0.86c-1.21-2.5-2.44-4.98-3.7-7.44l-0.4-0.78c-1.27-2.47-2.56-4.92-3.89-7.37l-0.45-0.81c-1.33-2.44-2.68-4.87-4.07-7.28
			l-0.38-0.65c-1.41-2.44-2.84-4.87-4.3-7.28l-0.36-0.59c-1.5-2.45-3.01-4.89-4.56-7.29l-0.17-0.27c-1.59-2.47-3.22-4.94-4.86-7.38
			l-0.19-0.28c-1.79-2.64-3.41-4.98-4.95-7.13l-0.1-0.14c-0.03-0.05-0.07-0.1-0.11-0.15c-1.68-2.37-3.39-4.7-5.12-7.03l-0.25-0.33
			c-1.7-2.27-3.42-4.51-5.16-6.73l-0.46-0.6c-1.76-2.23-3.54-4.45-5.35-6.64l-0.35-0.42c-1.78-2.16-3.6-4.3-5.43-6.42l-0.55-0.64
			c-1.79-2.05-3.6-4.09-5.42-6.11l-0.7-0.77c-1.81-1.99-3.65-3.96-5.51-5.92l-0.74-0.78c-1.84-1.92-3.7-3.83-5.58-5.71l-0.87-0.87
			c-2.01-2.01-4.05-4-6.14-5.98c-0.03-0.03-0.08-0.08-0.11-0.11c-4.8-4.57-9.97-9.22-15.34-13.82c-0.42-0.36-1-0.45-1.5-0.25
			c-0.51,0.2-0.86,0.67-0.91,1.22c-1.08,11.01,1.78,13.69,8.02,19.56l1.62,1.53c35.8,34.09,63.96,74.22,83.71,119.3
			c20.44,46.66,30.8,96.36,30.8,147.71c0,98.44-38.35,191-107.98,260.63C591.01,768.34,498.44,806.68,400,806.68
			c-98.44,0-191.01-38.35-260.64-107.98S31.39,536.52,31.39,438.07c0-98.44,38.35-191.01,107.98-260.64S301.56,69.46,400,69.46
			c27.59,0,55.09,3.06,81.8,9.11c10.64,2.41,15.98,3.63,25.65-2.73c0.48-0.31,0.73-0.88,0.65-1.44c-0.08-0.57-0.49-1.03-1.04-1.19
			c-7.18-2.1-14.28-3.97-21.09-5.54l-0.24-0.06c-2.85-0.66-5.79-1.3-8.97-1.95l-0.32-0.06c-2.68-0.55-5.62-1.11-9.01-1.73
			l-0.28-0.05c-3.01-0.54-6.08-1.05-9.11-1.51l-0.31-0.05c-2.93-0.45-6.04-0.89-9.18-1.29c-0.02,0-0.17-0.03-0.19-0.03
			c-3.2-0.4-6.36-0.76-9.37-1.06l-0.21-0.02c-2.77-0.28-5.78-0.55-9.55-0.85c-9.62-0.74-19.45-1.11-29.22-1.11
			c-3.47,0-6.68,0.04-9.81,0.12c-3.33,0.09-6.62,0.21-9.75,0.37c-3.15,0.16-6.4,0.36-9.68,0.61c-3.06,0.23-6.29,0.52-9.62,0.86
			c-3.14,0.32-6.35,0.69-9.55,1.09c-3.14,0.4-6.32,0.85-9.48,1.33c-3.49,0.54-6.56,1.05-9.4,1.56c-3.16,0.57-6.3,1.17-9.32,1.79
			c-3.12,0.64-6.23,1.32-9.24,2.01c-3,0.69-6.08,1.44-9.15,2.23c-3.07,0.79-6.12,1.62-9.06,2.45c-2.89,0.82-5.8,1.68-8.9,2.65
			c-0.03,0.01-0.06,0.02-0.08,0.02c-2.76,0.86-5.67,1.8-8.88,2.88c-2.99,1.02-5.94,2.06-8.78,3.1c-2.81,1.03-5.65,2.11-8.69,3.3
			c-3.04,1.2-5.85,2.35-8.58,3.5c-0.03,0.01-0.06,0.03-0.09,0.04c-2.79,1.18-5.61,2.41-8.39,3.67c-2.87,1.3-5.68,2.61-8.36,3.91
			c-2.85,1.38-5.62,2.75-8.25,4.1c-5.3,2.71-10.74,5.67-16.16,8.79c-2.55,1.46-5.19,3.02-7.84,4.63c-0.02,0.01-0.04,0.02-0.06,0.04
			c-2.66,1.62-5.26,3.24-7.71,4.81c-0.02,0.01-0.04,0.03-0.06,0.04c-12.76,8.18-25.18,17.24-36.92,26.93
			c-2.52,2.08-4.8,4.01-6.97,5.89c-2.24,1.94-4.53,3.97-6.83,6.05c-8.94,8.13-17.62,16.81-25.79,25.79
			c-1.98,2.18-4.02,4.48-6.05,6.83c-1.84,2.12-3.75,4.38-5.83,6.9c-0.02,0.02-0.04,0.05-0.06,0.07
			c-9.67,11.72-18.73,24.14-26.92,36.92c-1.67,2.6-3.3,5.22-4.85,7.77c-0.01,0.02-0.03,0.04-0.04,0.06
			c-1.62,2.67-3.18,5.31-4.64,7.84c-3.07,5.33-6.02,10.77-8.78,16.16c-1.43,2.8-2.82,5.57-4.11,8.25c-1.3,2.7-2.62,5.52-3.91,8.36
			c-1.26,2.8-2.49,5.61-3.66,8.38c-0.02,0.03-0.03,0.07-0.05,0.1c-1.29,3.06-2.44,5.86-3.5,8.58c-1.13,2.87-2.24,5.8-3.3,8.69
			c-1.07,2.92-2.11,5.88-3.1,8.79c-1.03,3.06-2,6.05-2.88,8.88c-0.95,3.08-1.85,6.1-2.67,8.97c-0.81,2.85-1.61,5.81-2.46,9.07
			c-0.82,3.21-1.55,6.2-2.23,9.15c-0.72,3.12-1.39,6.22-2.01,9.24c-0.62,3.02-1.22,6.15-1.79,9.32c-0.54,3.02-1.07,6.19-1.56,9.4
			c0,0.01,0,0.03-0.01,0.04c-0.45,2.96-0.88,6.04-1.32,9.43c-0.39,3.05-0.75,6.27-1.09,9.55c-0.32,3.14-0.61,6.38-0.86,9.62
			c-0.26,3.35-0.46,6.61-0.61,9.69c-0.16,3.2-0.29,6.48-0.37,9.74c-0.08,3.11-0.12,6.32-0.12,9.81c0,3.49,0.04,6.7,0.12,9.81
			c0.09,3.27,0.21,6.55,0.37,9.74c0.15,3.1,0.35,6.27,0.61,9.69c0.24,3.21,0.53,6.45,0.86,9.62c0.33,3.29,0.7,6.5,1.09,9.55
			c0.44,3.35,0.87,6.44,1.32,9.43c0,0.02,0,0.03,0.01,0.05c0.51,3.35,1.02,6.42,1.56,9.4c0.57,3.19,1.17,6.31,1.78,9.26
			c0,0.02,0.01,0.03,0.01,0.05c0.61,2.97,1.28,6.07,2.01,9.23c0.67,2.92,1.4,5.92,2.23,9.16c0.85,3.27,1.65,6.24,2.46,9.06
			c0.82,2.88,1.71,5.9,2.67,8.98c0.88,2.81,1.82,5.71,2.88,8.88c0.98,2.91,2.03,5.86,3.1,8.79c1.07,2.92,2.18,5.84,3.3,8.68
			c2.19,5.57,4.61,11.28,7.18,16.97c0.01,0.03,0.02,0.06,0.04,0.09c2.49,5.52,5.18,11.08,7.97,16.53c0.01,0.03,0.03,0.06,0.04,0.09
			c4.15,8.1,8.66,16.16,13.41,23.98c0.01,0.03,0.03,0.05,0.04,0.08c1.57,2.59,3.21,5.21,4.85,7.77
			c9.86,15.37,20.9,30.13,32.82,43.89c1.96,2.26,3.97,4.52,5.97,6.74c0.03,0.03,0.05,0.06,0.08,0.09
			c10.21,11.23,21.19,21.94,32.62,31.84c2.24,1.94,4.58,3.92,6.97,5.89c11.71,9.67,24.13,18.73,36.92,26.92
			c0.02,0.01,0.04,0.03,0.06,0.04c4.95,3.18,10.17,6.35,15.5,9.42c0.04,0.03,0.08,0.05,0.12,0.08c5.49,3.15,10.93,6.1,16.16,8.77
			c2.7,1.39,5.43,2.75,8.13,4.04c0.04,0.02,0.08,0.05,0.12,0.07c2.73,1.32,5.54,2.63,8.36,3.9c2.46,1.12,5.07,2.26,8.48,3.72
			c3.02,1.28,5.83,2.42,8.58,3.5c2.63,1.04,5.48,2.12,8.69,3.3c2.97,1.08,5.93,2.12,8.78,3.09c2.95,1,5.94,1.97,8.87,2.88
			c0.03,0.01,0.06,0.02,0.08,0.02c3.15,0.97,6.07,1.84,8.9,2.64c3.04,0.87,6.09,1.7,9.07,2.46c3.16,0.81,6.23,1.56,9.15,2.23
			c2.93,0.68,6.04,1.36,9.24,2.01c2.83,0.58,5.88,1.17,9.32,1.79c3.14,0.56,6.3,1.08,9.4,1.55c2.99,0.46,6.08,0.89,9.48,1.33
			c3.49,0.43,6.61,0.79,9.54,1.09c3.29,0.33,6.53,0.62,9.62,0.86c3.44,0.26,6.61,0.46,9.68,0.61c3.2,0.16,6.48,0.29,9.75,0.37
			c3.15,0.08,6.45,0.12,9.81,0.12c3.35,0,6.65-0.04,9.81-0.12c3.29-0.09,6.57-0.21,9.75-0.37c3.06-0.15,6.23-0.35,9.68-0.61
			c3.08-0.23,6.31-0.52,9.62-0.86c2.92-0.3,6.05-0.65,9.55-1.09c3.39-0.44,6.47-0.87,9.43-1.32c0.01,0,0.03,0,0.04-0.01
			c3.14-0.48,6.3-1,9.4-1.56c3.44-0.62,6.49-1.2,9.32-1.79c3.56-0.74,6.5-1.38,9.24-2.01c2.94-0.68,5.94-1.4,9.16-2.23
			c2.96-0.76,6-1.59,9.06-2.46c2.81-0.79,5.74-1.66,8.98-2.66c2.92-0.91,5.91-1.88,8.88-2.89c2.84-0.96,5.79-2,8.78-3.09
			c3.19-1.17,6.03-2.25,8.68-3.3c2.74-1.08,5.55-2.22,8.59-3.51c3.4-1.45,6.01-2.59,8.47-3.71c5.57-2.52,11.16-5.21,16.62-8.01
			c10.86-5.56,21.57-11.72,31.83-18.31c2.46-1.57,5.03-3.26,7.65-5.03c12.6-8.51,24.77-17.84,36.18-27.73
			c0.02-0.02,0.04-0.03,0.06-0.05c2.23-1.93,4.53-3.97,6.82-6.05c0.03-0.03,0.06-0.06,0.09-0.09c2.09-1.9,4.25-3.9,6.58-6.13
			c2.21-2.11,4.41-4.26,6.53-6.38c2.37-2.37,4.45-4.51,6.37-6.53c4.19-4.39,8.32-8.93,12.27-13.5c2-2.3,3.99-4.65,5.9-6.97
			c9.68-11.74,18.73-24.16,26.92-36.92c6.58-10.27,12.74-20.97,18.31-31.83c0.02-0.03,0.03-0.06,0.04-0.09
			c2.82-5.51,5.5-11.07,7.96-16.54c0.01-0.03,0.02-0.06,0.04-0.09c2.54-5.62,4.95-11.33,7.18-16.97c1.11-2.82,2.22-5.74,3.3-8.68
			c1.05-2.87,2.09-5.82,3.1-8.79c1.02-3.01,1.99-5.99,2.88-8.88c0.94-3.05,1.84-6.07,2.67-8.97c0.85-2.98,1.67-6.03,2.45-9.06
			c0.75-2.88,1.48-5.87,2.24-9.16c0.72-3.14,1.4-6.24,2.01-9.23c0-0.02,0.01-0.03,0.01-0.05c0.61-2.97,1.21-6.09,1.78-9.27
			c0.57-3.21,1.09-6.37,1.55-9.4c0-0.01,0-0.03,0.01-0.04c0.45-2.92,0.88-6.01,1.32-9.44c0.39-3.06,0.75-6.19,1.09-9.55
			c0.34-3.39,0.62-6.54,0.85-9.62c0.25-3.25,0.45-6.51,0.61-9.69c0.16-3.13,0.29-6.41,0.37-9.75c0.08-3.17,0.12-6.47,0.12-9.81
			C780.18,434.8,780.14,431.56,780.05,428.45z"/>
		<path class="st7" d="M696.15,468.93c0.01-0.25,0.01-0.49-0.02-0.74c-0.01-0.14-0.03-0.27-0.05-0.4c-0.04-0.23-0.11-0.47-0.21-0.78
			c-0.03-0.11-0.07-0.21-0.1-0.29l-0.06-0.16c-0.08-0.17-0.18-0.33-0.27-0.48l-0.09-0.15c-0.04-0.07-0.08-0.14-0.13-0.21
			c-0.21-0.29-0.45-0.57-0.71-0.81L492.65,286.81L650.27,39.66c1.36-2.14,0.95-5-0.97-6.67c-1.92-1.66-4.81-1.67-6.74-0.01
			l-218.8,188.3l-21.03-74.63c-0.42-1.48-1.47-2.69-2.87-3.31c-1.41-0.62-3.01-0.59-4.38,0.1l-44.79,22.32l-0.01,0c0,0,0,0,0,0
			l0.27,0.7l0,0l-0.37-0.65c0.02-0.02,0.05-0.03,0.06-0.04l-0.07,0.04l0,0c-0.06,0.03-0.12,0.07-0.21,0.13l-0.26,0.16
			c-0.11,0.06-0.21,0.12-0.31,0.19l-0.09,0.07c-0.03,0.02-0.06,0.05-0.09,0.08c-0.07,0.06-0.14,0.12-0.2,0.19l0.53,0.53l-0.62-0.44
			l-0.1,0.1c-0.08,0.07-0.15,0.13-0.21,0.21c-0.05,0.06-0.1,0.13-0.18,0.24c-0.08,0.1-0.15,0.2-0.26,0.37
			c-0.05,0.07-0.1,0.14-0.14,0.21c-0.05,0.08-0.09,0.17-0.16,0.34l-0.04,0.09c-0.04,0.07-0.08,0.13-0.11,0.21l-16.55,41.67
			l-48.48,2.92c-1.89,0.12-3.57,1.26-4.39,3.03c-1.05,2.27-10.53,22.75-21.49,46.74l-56.18,3.62c-2,0.13-3.75,1.42-4.48,3.29
			c-0.65,1.68-7.99,20.67-15.91,41.25l-45.7,3.11c-1.98,0.13-3.73,1.42-4.45,3.27C121.18,341.25,90.55,419.81,87.78,429l-0.13,0.46
			c-0.03,0.13-0.06,0.24-0.08,0.37c-0.03,0.2-0.04,0.4-0.05,0.65l-0.01,0.14c0,0.26,0.02,0.52,0.06,0.81
			c0.01,0.05,0.01,0.1,0.02,0.17c0.04,0.23,0.1,0.45,0.19,0.73c0.02,0.07,0.04,0.14,0.08,0.24c0.07,0.18,0.16,0.35,0.26,0.54
			c0.06,0.11,0.11,0.21,0.18,0.32l0.06,0.09c0.04,0.07,0.08,0.14,0.12,0.2l46.08,63.05l-29.44,46.81c-1.46,2.33-0.85,5.38,1.4,6.96
			l56.08,39.37l-19.91,43.31c-0.59,1.27-0.62,2.75-0.11,4.05c0.52,1.3,1.56,2.35,2.86,2.88l208.95,84.25
			c0.06,0.02,0.12,0.04,0.16,0.05c0.21,0.08,0.42,0.14,0.58,0.17l0.15,0.04c0.35,0.07,0.66,0.11,0.95,0.12l0.1,0
			c0.29,0,0.6-0.04,0.97-0.11c0.18-0.04,0.35-0.08,0.53-0.14l0.23-0.07c0.12-0.04,0.25-0.07,0.36-0.12
			c0.06-0.03,0.12-0.06,0.13-0.07c0.09-0.04,0.18-0.1,0.22-0.12c0.08-0.03,0.16-0.06,0.23-0.11c0.06-0.04,0.11-0.08,0.12-0.1
			c0.06-0.04,0.12-0.09,0.21-0.16c0.17-0.12,0.34-0.25,0.5-0.39c0.06-0.05,0.12-0.1,0.16-0.15c0.08-0.08,0.15-0.17,0.22-0.26
			l0.12-0.14c0.08-0.08,0.15-0.15,0.21-0.25c0.03-0.05,0.06-0.1,0.06-0.1l0.09-0.12c0.05-0.07,0.08-0.15,0.13-0.27
			c0.11-0.21,0.22-0.42,0.28-0.58l0.06-0.13c0.03-0.08,0.05-0.16,0.08-0.3c0.07-0.24,0.13-0.48,0.17-0.75l0.03-0.13l24.3-241.92
			l209.12,37.87l29.51,40.35c1.41,1.92,4.13,2.64,6.31,1.64l56.92-26.14c0.09-0.04,0.16-0.1,0.13-0.08
			c0.31-0.15,0.61-0.34,0.88-0.55c0.1-0.08,0.19-0.15,0.28-0.23c0.22-0.2,0.44-0.43,0.67-0.73c0.05-0.06,0.1-0.12,0.14-0.17
			c0.23-0.34,0.42-0.7,0.56-1.06c0.03-0.07,0.04-0.13,0.06-0.2l-0.73-0.18l0.76,0.08c0.07-0.21,0.13-0.41,0.18-0.63
			c0.01-0.08,0.02-0.15,0.02-0.21l0.04-0.15l5.54-58.7C696.16,469.11,696.16,469.03,696.15,468.93z M265.04,270.55
			c9.96-21.83,18.89-41.16,21.75-47.35l33.81-2.04L265.04,270.55z M428.84,230.51L622.77,63.62L484.83,279.91L428.84,230.51z
			 M583.96,486.79l-96.51-115.71l46.36-30.71L583.96,486.79z M362.07,171.61l32.43-16.16l16.79,59.59L362.07,171.61z M439.64,402.74
			l39.16-25.94l93.29,111.85L439.64,402.74z M573.41,501.8l-183.35-33.2l41.53-58.79L573.41,501.8z M467.47,312.99l-79.3-104.61
			l139.9,123.42l-45.36,30.04l-14.45-47.3c-0.07-0.22-0.16-0.44-0.24-0.61l-0.04-0.11c-0.13-0.26-0.29-0.52-0.46-0.75L467.47,312.99
			z M430.84,318.65l28.59,2.27l9.98,32.67L430.84,318.65z M416.58,307.18c-2.2-0.17-4.26,1.07-5.14,3.09
			c-0.87,2.03-0.36,4.38,1.27,5.86l58.71,53.19l-39.21,25.97L340.8,214.86l13.53-34.06l97.95,129.21L416.58,307.18z M374.76,472.6
			l-69.55,105.22l-5.94-194.68L374.76,472.6z M99.57,431.43l102.17-90.82l-68.17,137.35L99.57,431.43z M104.47,413.28
			c8.65-22.8,23.74-61.68,34.45-89.1l37.65-2.56c-8.95,23.25-14.32,37.3-15.96,41.77L104.47,413.28z M177.25,348.59
			c7.4-19.31,19-49.4,27.74-72.04l47.38-3.05c-2.11,4.63-4.23,9.3-6.32,13.93L177.25,348.59z M299.35,367.25l34.78-128.6
			l38.59,215.56L299.35,367.25z M148.66,470.73l65.39-131.74l4.22,79.59L148.66,470.73z M141.58,488.91l77.69-58.21l21.94,194.51
			L141.58,488.91z M294.61,568.15l-64.67-145.44l58.89-44.12L294.61,568.15z M228.2,411.14l-4.35-82.14l60.85,39.81L228.2,411.14z
			 M226.62,318.49l99.05-88.05l-35.12,129.87L226.62,318.49z M141.11,505.73l84.83,116.06l-109.48-76.86L141.11,505.73z
			 M316.67,698.08l-162.35-65.46l16.86-36.68L316.67,698.08z M344.06,704.72l-90.7-63.68l-21.2-187.96L344.06,704.72z
			 M373.97,492.49l-20.83,207.3L306.42,594.7L373.97,492.49z M424.24,402.35l-40.15,56.84l-37.68-210.45L424.24,402.35z
			 M681.68,467.32l-80.77,37.14l-53.2-155.33L681.68,467.32z M685.05,477.11l-4.17,44.14L615,509.33L685.05,477.11z M668.45,529.48
			l-38.22,17.55l-20.63-28.2L668.45,529.48z M350.68,166.64L350.68,166.64L350.68,166.64L350.68,166.64z M350.16,166.99
			L350.16,166.99L350.16,166.99L350.16,166.99z M88.32,431.46L88.32,431.46L88.32,431.46L88.32,431.46z M359.45,722.73
			C359.45,722.73,359.45,722.73,359.45,722.73L359.45,722.73L359.45,722.73z"/>
	</g>
</g>
</svg>
