<svg xmlns="http://www.w3.org/2000/svg" viewBox="0 0 2150 850"><defs><style>.cls-1{fill:#98989d;}</style></defs><g id="Layer_10" data-name="Layer 10"><path class="cls-1" d="M598.38,453.48v-.17c0-2.05-.13-4.09-.23-6.08v-.33c-.1-1.92-.22-3.86-.38-5.95l0-.4c-.14-1.83-.31-3.74-.51-5.81l-.05-.5q-.3-2.85-.65-5.69l-.07-.57c-.25-1.88-.51-3.75-.78-5.56l-.1-.67c-.28-1.83-.59-3.65-.91-5.46l-.11-.69q-.49-2.7-1-5.37l-.15-.76c-.36-1.77-.75-3.53-1.15-5.28l-.17-.76q-.62-2.64-1.29-5.26l-.18-.69q-.67-2.61-1.41-5.21l-.21-.74c-.49-1.72-1-3.44-1.53-5.14l-.22-.72c-.58-1.85-1.12-3.51-1.65-5.07l-.26-.77c-.56-1.66-1.15-3.33-1.75-5l-.27-.72q-.91-2.5-1.89-5l-.27-.66c-.67-1.69-1.35-3.35-2-4.92l-.3-.72q-1-2.44-2.14-4.88l-.27-.6c-.74-1.64-1.5-3.26-2.28-4.88l-.27-.56c-.79-1.63-1.59-3.25-2.42-4.85l-.26-.51q-1.24-2.42-2.53-4.81l-.3-.53q-1.29-2.38-2.65-4.75l-.24-.42q-1.38-2.39-2.81-4.75l-.23-.38q-1.47-2.4-3-4.75l-.11-.18c-1-1.61-2.1-3.22-3.17-4.81L556,321c-1.17-1.72-2.23-3.25-3.23-4.65l-.07-.1a.28.28,0,0,0-.07-.09c-1.1-1.55-2.21-3.07-3.34-4.59l-.16-.21q-1.67-2.22-3.37-4.4l-.3-.39c-1.15-1.45-2.31-2.9-3.49-4.33l-.23-.28c-1.16-1.41-2.35-2.8-3.54-4.18l-.35-.42q-1.75-2-3.54-4l-.45-.51c-1.19-1.3-2.38-2.58-3.6-3.86l-.48-.5q-1.8-1.89-3.64-3.73l-.56-.57c-1.31-1.31-2.64-2.61-4-3.9a.46.46,0,0,0-.07-.07c-3.13-3-6.5-6-10-9a1,1,0,0,0-1-.16,1,1,0,0,0-.59.8c-.71,7.18,1.15,8.93,5.23,12.76l1.05,1a239.68,239.68,0,1,1-112.38-60.32c6.94,1.57,10.42,2.36,16.73-1.78a1,1,0,0,0,.42-1,1,1,0,0,0-.68-.77c-4.68-1.37-9.31-2.59-13.75-3.62l-.16,0c-1.86-.43-3.77-.84-5.85-1.27l-.21,0c-1.74-.36-3.67-.73-5.87-1.13l-.19,0c-2-.35-4-.69-5.94-1l-.2,0c-1.91-.29-3.94-.57-6-.84l-.13,0c-2.08-.26-4.14-.49-6.11-.69h-.14c-1.8-.19-3.77-.37-6.22-.56-6.28-.48-12.69-.72-19.06-.72-2.27,0-4.36,0-6.4.08s-4.32.14-6.37.24-4.17.24-6.31.4-4.1.34-6.28.56-4.14.45-6.22.71-4.13.55-6.19.87c-2.27.35-4.28.68-6.13,1-2.06.37-4.1.76-6.07,1.17s-4.07.86-6,1.31-4,.94-6,1.46-4,1-5.91,1.6-3.78,1.1-5.81,1.72l-.05,0c-1.8.56-3.7,1.17-5.79,1.88s-3.88,1.34-5.73,2-3.68,1.38-5.66,2.15-3.82,1.54-5.6,2.29l-.06,0c-1.82.76-3.66,1.57-5.47,2.39s-3.7,1.7-5.45,2.55-3.67,1.79-5.38,2.67c-3.46,1.77-7,3.7-10.55,5.73-1.66,1-3.38,2-5.11,3l0,0c-1.74,1.05-3.43,2.11-5,3.13l0,0a252.7,252.7,0,0,0-24.08,17.56c-1.64,1.36-3.13,2.62-4.55,3.85s-3,2.59-4.45,3.94c-5.83,5.31-11.49,11-16.82,16.83-1.3,1.42-2.62,2.92-3.95,4.45-1.2,1.38-2.45,2.86-3.81,4.5l0,0a249.41,249.41,0,0,0-17.56,24.08c-1.09,1.69-2.15,3.4-3.16,5.07l0,0c-1,1.74-2.07,3.46-3,5.11-2,3.48-3.93,7-5.72,10.54-.94,1.83-1.84,3.64-2.68,5.39s-1.71,3.59-2.55,5.45-1.63,3.66-2.39,5.46l0,.07c-.84,2-1.59,3.82-2.29,5.59s-1.46,3.78-2.15,5.67-1.38,3.83-2,5.73-1.31,3.95-1.88,5.79c-.62,2-1.21,4-1.74,5.86s-1,3.79-1.6,5.91-1,4-1.46,6-.91,4.06-1.31,6-.79,4-1.17,6.08-.69,4-1,6.13v0c-.29,1.93-.57,3.94-.86,6.15-.25,2-.49,4.09-.71,6.23s-.39,4.16-.56,6.28-.3,4.31-.39,6.31-.19,4.23-.25,6.36-.08,4.12-.08,6.4,0,4.37.08,6.4.14,4.27.25,6.36.22,4.09.39,6.32.35,4.2.56,6.27.46,4.24.71,6.23c.29,2.19.57,4.2.86,6.15v0c.33,2.19.67,4.19,1,6.13s.77,4.12,1.16,6.05v0c.4,1.93.84,4,1.31,6,.44,1.91.92,3.86,1.46,6s1.08,4.07,1.6,5.91,1.12,3.84,1.74,5.85c.57,1.84,1.19,3.73,1.88,5.79.64,1.9,1.32,3.83,2,5.73s1.42,3.81,2.15,5.67c1.43,3.63,3,7.35,4.69,11.06a.14.14,0,0,0,0,.06c1.63,3.6,3.38,7.23,5.2,10.79l0,.06c2.7,5.28,5.64,10.54,8.74,15.64l0,.05c1,1.69,2.09,3.39,3.16,5.07A249.35,249.35,0,0,0,163,622c1.28,1.47,2.59,3,3.9,4.4l.05.06a251,251,0,0,0,21.27,20.76c1.46,1.27,3,2.56,4.55,3.85a249.41,249.41,0,0,0,24.08,17.56l0,0c3.23,2.08,6.63,4.15,10.11,6.15l.07,0c3.59,2,7.13,4,10.54,5.72,1.76.9,3.55,1.79,5.31,2.63l.08,0c1.78.86,3.61,1.71,5.45,2.54,1.6.73,3.31,1.48,5.53,2.43,2,.83,3.8,1.58,5.6,2.28s3.57,1.38,5.66,2.16c1.94.7,3.87,1.38,5.73,2s3.87,1.29,5.79,1.88l.05,0c2.06.64,4,1.2,5.81,1.72s4,1.11,5.91,1.61,4.07,1,6,1.45,3.94.89,6,1.32c1.85.38,3.84.76,6.09,1.16,2,.36,4.1.71,6.13,1s4,.58,6.18.86,4.31.52,6.22.71c2.15.22,4.26.41,6.28.56,2.25.17,4.31.3,6.31.4s4.23.19,6.37.24,4.2.08,6.4.08,4.33,0,6.39-.08,4.29-.13,6.36-.24,4.07-.23,6.32-.4c2-.15,4.12-.34,6.27-.56,1.91-.19,3.95-.42,6.23-.71s4.22-.57,6.15-.86h0c2.05-.32,4.11-.66,6.13-1,2.25-.4,4.23-.78,6.08-1.16,2.33-.48,4.24-.9,6-1.32s3.88-.91,6-1.45c1.93-.5,3.91-1,5.91-1.61,1.83-.51,3.74-1.08,5.86-1.74,1.9-.59,3.85-1.22,5.79-1.88s3.77-1.3,5.73-2,3.93-1.47,5.66-2.15,3.62-1.45,5.6-2.29c2.22-.94,3.92-1.69,5.52-2.42,3.63-1.64,7.28-3.4,10.84-5.22,7.09-3.63,14.07-7.65,20.77-11.94,1.6-1,3.28-2.13,5-3.28a249.67,249.67,0,0,0,23.59-18.09l0,0c1.45-1.26,3-2.58,4.45-3.94l0-.06c1.37-1.24,2.77-2.55,4.3-4s2.87-2.77,4.26-4.16c1.54-1.54,2.9-2.94,4.15-4.25,2.74-2.87,5.43-5.83,8-8.81,1.3-1.5,2.6-3,3.84-4.54a251,251,0,0,0,17.56-24.08c4.3-6.7,8.31-13.68,11.94-20.76l0-.06c1.84-3.6,3.59-7.23,5.2-10.79a.08.08,0,0,1,0,0c1.65-3.67,3.23-7.39,4.68-11.07.73-1.84,1.45-3.75,2.16-5.67s1.36-3.8,2-5.73,1.3-3.91,1.89-5.79,1.2-4,1.74-5.85,1.09-3.94,1.59-5.91,1-3.83,1.47-6,.91-4.07,1.31-6v0c.4-1.94.79-4,1.17-6.05s.71-4.16,1-6.13v0c.29-1.9.58-3.92.86-6.15.26-2,.49-4,.72-6.23s.4-4.27.55-6.27.3-4.25.4-6.32.19-4.18.25-6.36.08-4.22.08-6.4S598.43,455.51,598.38,453.48Z"/><path class="cls-1" d="M543.65,479.88a4,4,0,0,0,0-.49c0-.08,0-.17,0-.26a4.07,4.07,0,0,0-.14-.51c0-.07,0-.14-.06-.19l0-.11a1.92,1.92,0,0,0-.18-.31l-.06-.1-.08-.14a3.35,3.35,0,0,0-.47-.52v0L410.91,361.09l102.81-161.2a3.36,3.36,0,0,0-5-4.36L366,318.35l-13.71-48.67a3.36,3.36,0,0,0-4.74-2.1l-29.21,14.56-.07,0-.13.08-.17.11a1.23,1.23,0,0,0-.22.15l-.1.08a1.72,1.72,0,0,0-.18.16l-.08.08-.13.14a.82.82,0,0,0-.12.16l-.17.23a.8.8,0,0,0-.09.14,1.25,1.25,0,0,0-.11.23l0,.06-.07.14-10.8,27.17L274.23,313a3.4,3.4,0,0,0-2.86,2c-.68,1.48-6.86,14.82-14,30.49l-36.65,2.36a3.36,3.36,0,0,0-2.92,2.14c-.42,1.1-5.21,13.48-10.38,26.9l-29.8,2A3.39,3.39,0,0,0,174.7,381c-6.08,15.57-26.06,66.81-27.87,72.8l-.08.31a1.69,1.69,0,0,0-.05.24c0,.13,0,.26,0,.43v.09a3.28,3.28,0,0,0,0,.52.53.53,0,0,0,0,.12,3.78,3.78,0,0,0,.13.47,1.42,1.42,0,0,0,0,.16c.05.12.11.23.17.35a2.25,2.25,0,0,0,.12.21l0,.06.08.13,30,41.12-19.2,30.53a3.36,3.36,0,0,0,.91,4.54l36.58,25.68-13,28.25a3.39,3.39,0,0,0-.06,2.65,3.32,3.32,0,0,0,1.86,1.87l136.29,55,.1,0a3.31,3.31,0,0,0,.42.12l.06,0a2.57,2.57,0,0,0,.61.07H322a3,3,0,0,0,.63-.07,2,2,0,0,0,.35-.09l.15-.05a.9.9,0,0,0,.23-.08l.09,0,.15-.09a.42.42,0,0,0,.14-.06l.09-.07.13-.1a3,3,0,0,0,.32-.25l.11-.11a1.22,1.22,0,0,0,.15-.17l.07-.09a1.07,1.07,0,0,0,.14-.16l0-.06.06-.08a1.38,1.38,0,0,0,.08-.17,2.74,2.74,0,0,0,.19-.39l0-.08s0-.1,0-.2a3.22,3.22,0,0,0,.11-.49l0-.08L341.19,486l136.41,24.7L496.85,537a3.34,3.34,0,0,0,4.11,1.07L538.09,521c.06,0,.1,0,.09,0a3.41,3.41,0,0,0,.57-.36l.18-.15a3.37,3.37,0,0,0,.44-.47l.09-.12a3.29,3.29,0,0,0,.37-.69s0-.09,0-.14l-.48-.12.5.06a3.11,3.11,0,0,0,.11-.41.76.76,0,0,0,0-.15l0-.09L543.65,480A.85.85,0,0,0,543.65,479.88ZM262.45,350.49c6.5-14.25,12.33-26.85,14.19-30.89l22.06-1.33Zm106.84-26.12,126.5-108.86-90,141.08ZM470.47,491.53l-63-75.48,30.24-20ZM325.74,286l21.16-10.54,11,38.87Zm50.6,150.76,25.54-16.92,60.86,73Zm18.15-58.54-51.72-68.24L434,390.44,404.43,410,395,379.18a2.87,2.87,0,0,0-.16-.39l0-.08a4.19,4.19,0,0,0-.29-.49Zm-23.89,3.69,18.65,1.48,6.51,21.31Zm-9.3-7.48a3.36,3.36,0,0,0-2.52,5.84l38.29,34.69L371.5,431.85,311.87,314.16,320.7,292l63.89,84.28ZM463.59,501.32,344,479.66l27.09-38.35ZM334,482.27l-45.36,68.64-3.87-127ZM296.13,629.35l-105.9-42.7,11-23.93ZM154.52,455.42l66.65-59.24-44.46,89.58Zm3.2-11.84c5.64-14.87,15.48-40.23,22.47-58.12l24.56-1.67C198.91,399,195.4,408.14,194.34,411Zm47.47-42.19c4.8-12.54,12.38-32.19,18.1-47l30.9-2c-1.37,3-2.76,6.06-4.12,9.09Zm-18.64,79.66,42.65-85.93L232,447Zm46-26.11,14.31,126.88-65-88.91Zm5.82-12.76-2.84-53.58,39.7,26ZM281.74,544.6l-42.18-94.87L278,421ZM237.4,381.75,302,324.32,279.1,409ZM181.62,503.88,237,579.59l-71.41-50.14ZM314,633.68l-59.16-41.54L241,469.54ZM284.84,413.56l22.68-83.89L332.7,470.28Zm48.67,81.68L319.92,630.46l-30.48-68.55Zm32.78-58.79-26.18,37.08L315.53,336.25Zm167.92,42.38-52.68,24.22L446.82,401.73Zm2.2,6.39L533.69,514l-43-7.78Zm-10.83,34.15-24.93,11.45-13.45-18.4ZM318.31,282.71ZM147.22,454.26Zm0,1.18Z"/><path class="cls-1" d="M715.5,269.43V237.75H882v31.68h-64.5v177H780v-177Z"/><path class="cls-1" d="M887.13,446.42V289.92h35.76V316h1.62q4.29-13.54,14.74-20.94a40.28,40.28,0,0,1,23.89-7.38q3,0,6.87.24a52.17,52.17,0,0,1,6.37.77v33.93a40.07,40.07,0,0,0-7.39-1.47,75.1,75.1,0,0,0-9.73-.67,37.29,37.29,0,0,0-18.08,4.33,32.28,32.28,0,0,0-12.58,12A33.62,33.62,0,0,0,924,354.42v92Z"/><path class="cls-1" d="M1101.09,380.59V289.92H1138v156.5h-35.76V418.6h-1.64a47.16,47.16,0,0,1-17.37,21.5q-12.08,8.36-29.7,8.35-15.39,0-27.15-6.87A47,47,0,0,1,1008,421.5q-6.63-13.19-6.62-31.94V289.92h36.88v93.94q0,14.86,8.15,23.63t21.4,8.76a33.79,33.79,0,0,0,15.79-4,32.42,32.42,0,0,0,12.58-11.88Q1101.09,392.52,1101.09,380.59Z"/><path class="cls-1" d="M1292.39,331.28,1258.76,335a27.52,27.52,0,0,0-4.93-9.58,25.36,25.36,0,0,0-9.43-7.23,34.2,34.2,0,0,0-14.47-2.76q-11.52,0-19.31,5t-7.69,12.93a13.53,13.53,0,0,0,5,11.12q5.15,4.27,17.07,7l26.7,5.71q22.2,4.79,33.06,15.19t11,27.2a42.47,42.47,0,0,1-8.61,26q-8.51,11.25-23.58,17.57t-34.65,6.33q-28.73,0-46.25-12.08t-20.89-33.67l36-3.47q2.44,10.61,10.39,16t20.69,5.41q13.15,0,21.15-5.41t8-13.34a14,14,0,0,0-5.15-11.11q-5.13-4.38-15.94-6.73l-26.69-5.6q-22.53-4.67-33.32-15.84t-10.7-28.27q-.11-14.46,7.9-25.12t22.3-16.51q14.33-5.85,33.07-5.85,27.51,0,43.35,11.71T1292.39,331.28Z"/><path class="cls-1" d="M1401.49,289.92v28.52h-90V289.92Zm-67.75-37.49h36.87V399.34q0,7.44,2.3,11.36a11.81,11.81,0,0,0,6.07,5.36,23.41,23.41,0,0,0,8.35,1.42,37,37,0,0,0,6.37-.51c1.94-.34,3.41-.64,4.43-.91l6.21,28.82a81.34,81.34,0,0,1-8.4,2.25,70.06,70.06,0,0,1-13.3,1.43,59.45,59.45,0,0,1-25-4.24,38.21,38.21,0,0,1-17.58-14.41q-6.48-9.78-6.36-24.46Z"/><path class="cls-1" d="M1467.12,237.75V446.42h-36.88V237.75Z"/><path class="cls-1" d="M1523.92,267.71a21.15,21.15,0,0,1-15-5.92,18.78,18.78,0,0,1-6.26-14.16,18.55,18.55,0,0,1,6.31-14.11,21.41,21.41,0,0,1,15.08-5.86,21.14,21.14,0,0,1,15,5.91,19.09,19.09,0,0,1,0,28.27A21.31,21.31,0,0,1,1523.92,267.71Zm-18.44,178.71V289.92h36.88v156.5Z"/><path class="cls-1" d="M1617.6,354.72v91.7h-36.88V289.92H1616V316.5h1.83a44.58,44.58,0,0,1,17.27-20.88q11.87-7.74,29.39-7.74,16.2,0,28.28,6.93a46.9,46.9,0,0,1,18.74,20.07q6.67,13.14,6.57,31.88v99.66h-36.88V352.48q0-15.71-8.1-24.56t-22.36-8.86a34.38,34.38,0,0,0-17.17,4.22,29.56,29.56,0,0,0-11.72,12.18Q1617.6,343.41,1617.6,354.72Z"/><path class="cls-1" d="M1824.61,449.48q-23.53,0-40.61-9.84a65.85,65.85,0,0,1-26.24-27.91q-9.16-18.09-9.16-42.65,0-24.15,9.22-42.44a69.4,69.4,0,0,1,25.83-28.52q16.61-10.25,39-10.24a80.25,80.25,0,0,1,27.36,4.63,63,63,0,0,1,22.82,14.32,67.2,67.2,0,0,1,15.64,24.61q5.71,14.93,5.71,35.5v11.31H1765.92V353.39h92.92a40.13,40.13,0,0,0-4.58-18.9,33.79,33.79,0,0,0-12.48-13.09,35.55,35.55,0,0,0-18.6-4.79,36.17,36.17,0,0,0-19.86,5.45,38,38,0,0,0-13.3,14.26,41,41,0,0,0-4.84,19.31v21.71q0,13.65,5,23.38a35.17,35.17,0,0,0,13.95,14.87,41.5,41.5,0,0,0,21,5.14,43.76,43.76,0,0,0,14.57-2.28,31.74,31.74,0,0,0,11.3-6.78,28.28,28.28,0,0,0,7.24-11.11l34.44,3.88a53.57,53.57,0,0,1-12.38,23.78A60.14,60.14,0,0,1,1857,443.91Q1842.84,449.48,1824.61,449.48Z"/><path class="cls-1" d="M2041.89,331.28,2008.27,335a27.55,27.55,0,0,0-4.94-9.58,25.36,25.36,0,0,0-9.43-7.23,34.16,34.16,0,0,0-14.46-2.76q-11.54,0-19.31,5t-7.7,12.93a13.54,13.54,0,0,0,5,11.12q5.13,4.27,17.07,7l26.69,5.71q22.21,4.79,33.06,15.19t11,27.2a42.41,42.41,0,0,1-8.61,26q-8.51,11.25-23.58,17.57t-34.65,6.33q-28.73,0-46.25-12.08t-20.88-33.67l36-3.47q2.44,10.61,10.39,16t20.69,5.41q13.14,0,21.14-5.41t8-13.34a14,14,0,0,0-5.15-11.11q-5.14-4.38-15.94-6.73l-26.7-5.6q-22.53-4.67-33.32-15.84t-10.7-28.27q-.09-14.46,7.9-25.12t22.31-16.51q14.33-5.85,33.06-5.85,27.51,0,43.36,11.71T2041.89,331.28Z"/><path class="cls-1" d="M833.76,551.54v79.4h-11l-40.36-58.23h-.74v58.23h-12v-79.4h11.09l40.39,58.31h.74V551.54Z"/><path class="cls-1" d="M860.48,630.94v-79.4h49.78v10.31H872.45v24.2h35.21v10.27H872.45v24.31h38.27v10.31Z"/><path class="cls-1" d="M931.14,561.85V551.54H992.6v10.31H967.83v69.09H955.89V561.85Z"/><path class="cls-1" d="M1032.87,630.94l-22-79.4h12.59L1038.93,613h.73l16.09-61.49h12.48l16.1,61.52h.73l15.44-61.52h12.64l-22.06,79.4H1079l-16.72-59.47h-.62L1045,630.94Z"/><path class="cls-1" d="M1200.34,591.24q0,12.72-4.65,21.85a34,34,0,0,1-12.74,14,36.9,36.9,0,0,1-36.75,0,34.17,34.17,0,0,1-12.74-14.07q-4.65-9.13-4.65-21.82t4.65-21.85a34.06,34.06,0,0,1,12.74-14,36.84,36.84,0,0,1,36.75,0,33.93,33.93,0,0,1,12.74,14Q1200.34,578.53,1200.34,591.24Zm-11.86,0q0-9.69-3.12-16.35a23.22,23.22,0,0,0-8.53-10.07,23.51,23.51,0,0,0-24.49,0,23.25,23.25,0,0,0-8.51,10.07q-3.12,6.66-3.11,16.35t3.11,16.34a23.36,23.36,0,0,0,8.51,10.09,23.63,23.63,0,0,0,24.49,0,23.33,23.33,0,0,0,8.53-10.09Q1188.48,600.93,1188.48,591.24Z"/><path class="cls-1" d="M1224.32,630.94v-79.4h28.3q9.23,0,15.33,3.18a21,21,0,0,1,9.13,8.78,26.72,26.72,0,0,1,3,12.92,26.09,26.09,0,0,1-3,12.83,20.66,20.66,0,0,1-9.15,8.58q-6.09,3.06-15.33,3.07h-21.44V590.58h20.36a23,23,0,0,0,9.47-1.67,11,11,0,0,0,5.38-4.85,16,16,0,0,0,1.7-7.64,16.73,16.73,0,0,0-1.72-7.79,11.52,11.52,0,0,0-5.39-5,22.24,22.24,0,0,0-9.6-1.77h-15v69.13Zm39.19-35.82,19.62,35.82h-13.64l-19.24-35.82Z"/><path class="cls-1" d="M1304.07,630.94v-79.4h12v37.91h1l33.31-37.91h15.08l-32,35.75,32.15,43.65H1351.1l-25.67-35.47L1316,606.24v24.7Z"/></g></svg>