<svg xmlns="http://www.w3.org/2000/svg" viewBox="0 0 760.35 786.5"><defs><style>.cls-1{fill:#1e8cc3;}</style></defs><g id="Layer_10" data-name="Layer 10"><path class="cls-1" d="M760.23,396.7v-.26c-.07-3.13-.19-6.26-.35-9.31l0-.51c-.15-2.94-.34-5.92-.58-9.11l0-.62c-.22-2.82-.48-5.74-.79-8.92l-.07-.76c-.31-2.92-.64-5.82-1-8.72l-.11-.88c-.37-2.88-.77-5.75-1.19-8.52l-.16-1q-.64-4.21-1.39-8.37l-.17-1.05c-.5-2.77-1-5.51-1.59-8.24l-.23-1.16q-.84-4.07-1.77-8.1L750.5,320q-.94-4.05-2-8.07l-.28-1.05c-.69-2.68-1.41-5.34-2.15-8l-.33-1.14c-.75-2.63-1.54-5.27-2.34-7.87l-.34-1.1c-.89-2.84-1.72-5.38-2.53-7.77l-.4-1.19q-1.3-3.82-2.69-7.64l-.41-1.12q-1.41-3.82-2.91-7.64l-.4-1c-1-2.59-2.07-5.13-3.09-7.54l-.46-1.1c-1.07-2.5-2.15-5-3.27-7.48l-.43-.92q-1.69-3.77-3.49-7.48l-.41-.87c-1.22-2.49-2.44-5-3.71-7.43l-.39-.78c-1.28-2.47-2.57-4.93-3.89-7.38l-.45-.81c-1.33-2.43-2.68-4.86-4.07-7.27l-.38-.65c-1.4-2.44-2.84-4.87-4.3-7.28l-.35-.58q-2.25-3.69-4.56-7.3l-.17-.27c-1.6-2.47-3.22-4.94-4.87-7.38l-.19-.28c-1.79-2.64-3.41-5-4.94-7.14l-.1-.14-.11-.15c-1.69-2.37-3.39-4.7-5.13-7l-.24-.33q-2.57-3.41-5.17-6.73l-.46-.6c-1.76-2.23-3.55-4.45-5.35-6.64l-.35-.43c-1.78-2.16-3.6-4.3-5.42-6.41l-.55-.65c-1.79-2-3.6-4.09-5.42-6.1l-.7-.78q-2.72-3-5.51-5.91l-.74-.78c-1.84-1.92-3.69-3.83-5.57-5.71l-.87-.87q-3-3-6.14-6l-.11-.11c-4.8-4.57-10-9.22-15.33-13.82a1.48,1.48,0,0,0-1.51-.24,1.46,1.46,0,0,0-.91,1.22c-1.07,11,1.78,13.69,8,19.56l1.62,1.52A367.29,367.29,0,1,1,462,46.82c10.64,2.42,16,3.63,25.65-2.72a1.47,1.47,0,0,0-.39-2.64c-7.18-2.1-14.28-4-21.09-5.54l-.24-.06c-2.85-.66-5.79-1.3-9-2l-.32-.06c-2.68-.55-5.62-1.11-9-1.73l-.28,0c-3-.54-6.08-1-9.11-1.51l-.31,0c-2.93-.45-6-.89-9.18-1.29l-.2,0c-3.2-.4-6.35-.76-9.37-1.06l-.21,0c-2.76-.28-5.78-.55-9.55-.85-9.62-.73-19.45-1.1-29.22-1.1-3.47,0-6.68,0-9.81.12-3.33.09-6.62.21-9.75.37s-6.41.37-9.68.61c-3.06.24-6.3.52-9.63.86-3.14.32-6.35.69-9.55,1.09s-6.32.85-9.48,1.33c-3.48.53-6.56,1-9.39,1.55-3.16.57-6.3,1.17-9.32,1.79s-6.23,1.32-9.24,2-6.08,1.45-9.15,2.24-6.12,1.61-9.06,2.45-5.8,1.68-8.9,2.65l-.09,0c-2.76.86-5.66,1.8-8.87,2.88-3,1-5.95,2.06-8.79,3.1s-5.65,2.11-8.68,3.3-5.85,2.35-8.58,3.51l-.09,0c-2.79,1.18-5.61,2.41-8.39,3.66s-5.68,2.62-8.36,3.91c-2.85,1.38-5.62,2.76-8.25,4.1-5.3,2.72-10.74,5.67-16.16,8.79-2.55,1.46-5.19,3-7.84,4.63l-.07,0c-2.66,1.62-5.25,3.24-7.71,4.81l-.06,0A382.6,382.6,0,0,0,138.36,113c-2.52,2.08-4.8,4-7,5.89s-4.53,4-6.82,6c-8.95,8.13-17.63,16.81-25.8,25.79-2,2.18-4,4.48-6,6.83-1.84,2.12-3.75,4.38-5.83,6.9l-.07.07A382.64,382.64,0,0,0,59.9,201.43c-1.67,2.6-3.3,5.22-4.85,7.77l0,.07c-1.62,2.67-3.18,5.3-4.63,7.83-3.07,5.33-6,10.77-8.78,16.16-1.43,2.8-2.81,5.58-4.1,8.26s-2.62,5.51-3.91,8.36-2.5,5.62-3.67,8.38a1,1,0,0,0,0,.1c-1.29,3.05-2.44,5.86-3.51,8.58-1.13,2.87-2.24,5.79-3.3,8.68S21,281.5,20,284.41s-2,6-2.89,8.88c-.95,3.07-1.85,6.09-2.67,9s-1.61,5.82-2.45,9.07-1.56,6.2-2.23,9.15c-.72,3.12-1.4,6.22-2,9.24S6.51,335.87,5.94,339s-1.07,6.19-1.56,9.41v0c-.45,3-.88,6-1.32,9.43-.39,3-.75,6.27-1.08,9.55s-.62,6.38-.86,9.62-.46,6.61-.61,9.69-.29,6.48-.38,9.74S0,402.83,0,406.32s0,6.71.12,9.82.21,6.54.38,9.74.35,6.27.61,9.69c.24,3.21.53,6.45.85,9.62s.7,6.5,1.09,9.55c.44,3.35.87,6.44,1.32,9.43a.43.43,0,0,1,0,.05c.51,3.34,1,6.42,1.56,9.4.57,3.19,1.17,6.3,1.78,9.26a.07.07,0,0,0,0,.05c.6,3,1.28,6.07,2,9.23.67,2.93,1.4,5.92,2.23,9.17s1.65,6.24,2.45,9.06,1.72,5.89,2.67,9c.88,2.81,1.82,5.71,2.89,8.87,1,2.91,2,5.87,3.09,8.79s2.18,5.84,3.3,8.68c2.2,5.57,4.61,11.28,7.18,17a.36.36,0,0,0,0,.09c2.49,5.52,5.17,11.08,8,16.53l0,.09c4.15,8.1,8.66,16.17,13.41,24,0,0,0,0,0,.08,1.57,2.59,3.21,5.2,4.85,7.77a383.5,383.5,0,0,0,32.82,43.89c2,2.26,4,4.52,6,6.73l.08.1a384.29,384.29,0,0,0,32.62,31.84c2.24,1.94,4.58,3.92,7,5.89a382.64,382.64,0,0,0,36.92,26.92l.06,0c4.95,3.19,10.17,6.36,15.5,9.42a.5.5,0,0,0,.12.08c5.49,3.15,10.93,6.1,16.16,8.77,2.7,1.39,5.43,2.75,8.13,4l.12.07c2.73,1.31,5.55,2.63,8.36,3.9,2.46,1.12,5.07,2.26,8.48,3.71,3,1.28,5.83,2.43,8.58,3.51s5.47,2.12,8.69,3.3c3,1.08,5.92,2.12,8.78,3.1s5.94,2,8.87,2.88l.08,0c3.16,1,6.07,1.84,8.9,2.64,3.05.87,6.1,1.7,9.07,2.47,3.16.81,6.24,1.56,9.15,2.22s6,1.37,9.24,2c2.83.58,5.88,1.17,9.32,1.79,3.14.55,6.3,1.08,9.4,1.55s6.08.89,9.48,1.33,6.61.79,9.54,1.09c3.29.33,6.53.62,9.62.85,3.45.27,6.62.47,9.68.62s6.48.28,9.76.37,6.45.12,9.81.12,6.65,0,9.81-.12,6.57-.21,9.75-.37,6.23-.35,9.68-.62c3.08-.23,6.31-.52,9.62-.85,2.93-.3,6-.65,9.55-1.09s6.47-.87,9.43-1.32h.05c3.14-.48,6.3-1,9.39-1.55,3.45-.62,6.49-1.21,9.33-1.79,3.56-.74,6.49-1.38,9.23-2,2.94-.68,5.94-1.41,9.16-2.24,2.95-.76,6-1.59,9.06-2.46,2.8-.79,5.74-1.66,9-2.66,2.92-.91,5.91-1.88,8.88-2.89s5.79-2,8.78-3.09c3.19-1.18,6-2.26,8.68-3.3s5.55-2.22,8.59-3.51c3.4-1.45,6-2.59,8.47-3.71,5.56-2.52,11.16-5.21,16.62-8,10.86-5.56,21.57-11.72,31.83-18.31,2.46-1.57,5-3.26,7.65-5a381.08,381.08,0,0,0,36.18-27.73l.07-.05c2.23-1.93,4.52-4,6.82-6l.09-.09c2.09-1.9,4.24-3.91,6.58-6.13s4.41-4.25,6.53-6.38c2.37-2.37,4.45-4.5,6.37-6.52,4.19-4.39,8.32-8.94,12.27-13.5,2-2.31,4-4.65,5.9-7a383.42,383.42,0,0,0,26.92-36.92c6.58-10.26,12.74-21,18.31-31.83l0-.09c2.82-5.51,5.5-11.07,8-16.53a.36.36,0,0,0,0-.09c2.54-5.62,5-11.33,7.18-17,1.11-2.82,2.22-5.74,3.3-8.68s2.09-5.83,3.1-8.79,2-6,2.88-8.88c1-3.05,1.84-6.07,2.67-9s1.67-6,2.45-9.06c.75-2.88,1.48-5.88,2.24-9.17.72-3.13,1.4-6.24,2-9.23v-.05c.61-3,1.21-6.09,1.78-9.27s1.09-6.37,1.55-9.39v-.05c.45-2.92.88-6,1.32-9.44.39-3.06.75-6.18,1.09-9.54s.62-6.54.86-9.62c.24-3.25.45-6.51.61-9.69s.29-6.4.37-9.74c.08-3.18.12-6.48.12-9.82S760.31,399.82,760.23,396.7Z"/><path class="cls-1" d="M676.33,437.18a4.58,4.58,0,0,0,0-.74c0-.14,0-.27,0-.4a5.91,5.91,0,0,0-.21-.79c0-.1-.07-.21-.11-.29l-.06-.16a2.82,2.82,0,0,0-.27-.48l-.09-.15a2.39,2.39,0,0,0-.13-.21,5,5,0,0,0-.71-.81L472.83,255.06,630.45,7.92a5.16,5.16,0,0,0-7.71-6.68l-218.8,188.3-21-74.63a5.14,5.14,0,0,0-7.26-3.21L330.87,134h0l.27.7h0l-.36-.65.06,0-.07,0h0l-.2.13-.26.15a2,2,0,0,0-.31.2l-.09.07-.09.08-.2.19.53.53-.62-.44-.11.1a2.08,2.08,0,0,0-.21.21,2.43,2.43,0,0,0-.18.24l-.26.37-.14.21a2.26,2.26,0,0,0-.16.34l0,.1a.7.7,0,0,0-.11.21l-16.56,41.66-48.47,2.93a5.15,5.15,0,0,0-4.39,3c-1.05,2.27-10.54,22.75-21.49,46.74l-56.19,3.62a5.18,5.18,0,0,0-4.47,3.28c-.65,1.68-8,20.67-15.91,41.25l-45.7,3.11a5.17,5.17,0,0,0-4.45,3.27c-9.32,23.86-40,102.43-42.73,111.61l-.13.46c0,.13-.06.24-.08.38a5.75,5.75,0,0,0,0,.65v.14a5.84,5.84,0,0,0,.06.81c0,.05,0,.1,0,.18a5.68,5.68,0,0,0,.19.73c0,.07.05.14.08.23s.16.36.26.54a3.3,3.3,0,0,0,.18.32l.06.09a.82.82,0,0,0,.12.2l46.08,63L85.3,511.84a5.15,5.15,0,0,0,1.4,7l56.08,39.37-19.91,43.31a5.15,5.15,0,0,0,2.76,6.93l209,84.25a.37.37,0,0,0,.15.05,5.34,5.34,0,0,0,.59.18l.15,0a4.93,4.93,0,0,0,.95.12h.09a4.43,4.43,0,0,0,1-.11,4.58,4.58,0,0,0,.53-.14l.23-.07.36-.12.13-.07.22-.13a1.2,1.2,0,0,0,.23-.11.56.56,0,0,0,.13-.09l.21-.16a6.25,6.25,0,0,0,.5-.4l.16-.15a2.75,2.75,0,0,0,.22-.26l.12-.14a2.57,2.57,0,0,0,.21-.24c0-.05.06-.1,0-.1l.09-.12a1.33,1.33,0,0,0,.14-.27,5.91,5.91,0,0,0,.28-.58l.06-.14a1.58,1.58,0,0,0,.08-.29,5.32,5.32,0,0,0,.17-.76l0-.13,24.31-241.91,209.12,37.86,29.52,40.35a5.25,5.25,0,0,0,6.31,1.64l56.92-26.13.13-.08a5,5,0,0,0,.88-.56,3.11,3.11,0,0,0,.28-.23,5.42,5.42,0,0,0,.67-.73l.14-.18a4.89,4.89,0,0,0,.56-1.06,1.52,1.52,0,0,0,.06-.2l-.73-.18.76.08a4.3,4.3,0,0,0,.18-.64.76.76,0,0,0,0-.21l0-.15,5.54-58.7A1,1,0,0,0,676.33,437.18ZM245.22,238.8c10-21.83,18.89-41.16,21.75-47.35l33.81-2Zm163.8-40L602.94,31.87,465,248.16ZM564.14,455,467.63,339.33,514,308.62ZM342.25,139.86l32.43-16.16,16.79,59.58ZM419.82,371,459,345.05l93.29,111.86Zm133.77,99.06-183.35-33.2,41.53-58.79ZM447.65,281.24l-79.3-104.6,139.9,123.42-45.36,30-14.45-47.3a5.18,5.18,0,0,0-.24-.61l0-.11a5.19,5.19,0,0,0-.46-.75ZM411,286.9l28.59,2.27,10,32.67Zm-14.26-11.47a5.16,5.16,0,0,0-3.87,9l58.71,53.19-39.21,26L321,183.11l13.53-34.05,97.95,129.21ZM354.94,440.86,285.39,546.07l-5.94-194.68ZM79.74,399.68l102.18-90.82L113.75,446.2Zm4.9-18.15c8.65-22.8,23.74-61.68,34.45-89.1l37.65-2.56c-9,23.25-14.31,37.3-16,41.77Zm72.78-64.69c7.4-19.31,19-49.41,27.74-72l47.39-3.05c-2.11,4.63-4.23,9.3-6.33,13.93ZM279.53,335.5l34.78-128.6L352.9,422.46ZM128.84,439l65.39-131.75,4.22,79.59Zm-7.08,18.18L199.45,399l21.93,194.51Zm153,79.24L210.12,391,269,346.84Zm-66.42-157L204,297.24l60.86,39.81Zm-1.57-92.65,99.05-88L270.73,328.56ZM121.29,474,206.11,590,96.63,513.18ZM296.84,666.34,134.49,600.87l16.86-36.68Zm27.4,6.64-90.7-63.68-21.2-188Zm29.91-212.24L333.32,668,286.6,563Zm50.26-90.14-40.14,56.84L326.59,217Zm257.44,65-80.77,37.14-53.2-155.33Zm3.38,9.8-4.17,44.14-65.88-11.93Zm-16.6,52.36-38.22,17.55-20.63-28.2ZM330.85,134.89Zm-.51.35ZM68.5,399.71ZM339.63,691Z"/></g></svg>