<?xml version="1.0" encoding="utf-8"?>
<!-- Generator: Adobe Illustrator 23.0.4, SVG Export Plug-In . SVG Version: 6.00 Build 0)  -->
<svg version="1.1" xmlns="http://www.w3.org/2000/svg" xmlns:xlink="http://www.w3.org/1999/xlink" x="0px" y="0px"
	 viewBox="0 0 1250 400" style="enable-background:new 0 0 1250 400;" xml:space="preserve">
<style type="text/css">
	.st0{display:none;}
	.st1{display:inline;fill-rule:evenodd;clip-rule:evenodd;fill:none;stroke:#E80A89;stroke-miterlimit:10;}
	.st2{display:inline;fill-rule:evenodd;clip-rule:evenodd;fill:none;stroke:#60C6D1;stroke-miterlimit:10;}
	.st3{display:inline;fill:#231F20;}
	.st4{display:inline;fill-rule:evenodd;clip-rule:evenodd;fill:none;stroke:#46B449;stroke-miterlimit:10;}
	.st5{fill:url(#SVGID_1_);}
	.st6{fill:#FFFFFF;}
	.st7{fill:#1E8CC3;}
	.st8{fill:url(#SVGID_2_);}
	.st9{display:inline;fill:none;stroke:#221F1F;stroke-width:8;stroke-miterlimit:10;}
	.st10{display:inline;fill-rule:evenodd;clip-rule:evenodd;fill:none;stroke:#221F1F;stroke-width:8;stroke-miterlimit:10;}
	.st11{display:inline;}
	.st12{fill:#221F1F;}
	.st13{display:inline;fill-rule:evenodd;clip-rule:evenodd;fill:#00A04A;}
	.st14{fill:url(#SVGID_3_);}
	.st15{fill:url(#SVGID_4_);}
	.st16{fill:url(#SVGID_5_);}
</style>
<g id="L_CIRCLES" class="st0">
</g>
<g id="M_CIRCLES" class="st0">
</g>
<g id="S_CIRCLES" class="st0">
</g>
<g id="TEXT">
	<g>
		<g>
			<path class="st7" d="M5,40.34V10.92h153.08v29.42H98.72v183.28H64.36V40.34H5z"/>
			<path class="st7" d="M166.41,223.61V73.4h31.76v16.14c3.29-5.55,8.03-10.41,14.19-14.58c6.16-4.17,13.49-6.25,22-6.25
				c7.98,0,14.49,1.13,19.53,3.38v29.94c-6.6-2.08-13.11-3.12-19.53-3.12c-11.28,0-19.92,4.38-25.9,13.15
				c-5.99,8.77-8.98,20.44-8.98,35.02v76.54H166.41z"/>
			<path class="st7" d="M269.24,169.2V73.4h33.06v91.64c0,23.43,8.24,35.15,24.73,35.15c9.89,0,17.61-4.21,23.17-12.63
				c5.55-8.42,8.33-18.44,8.33-30.07V73.4h32.8v150.22h-31.76v-17.44h-0.26c-2.43,5.38-7.07,10.41-13.93,15.1
				c-6.86,4.69-15.4,7.03-25.64,7.03c-6.08,0-11.85-0.91-17.31-2.73c-5.47-1.82-10.8-4.77-16.01-8.85
				c-5.21-4.08-9.37-10.19-12.5-18.35C270.81,190.21,269.24,180.49,269.24,169.2z"/>
			<path class="st7" d="M416.08,192.37l23.69-13.8c10.41,15.27,23.95,22.91,40.61,22.91c8.15,0,14.62-1.6,19.39-4.82
				c4.77-3.21,7.16-7.5,7.16-12.89c0-4.34-1.95-8.16-5.86-11.45c-3.91-3.3-8.03-5.77-12.37-7.42c-4.34-1.65-10.85-3.86-19.53-6.64
				c-1.56-0.52-2.69-0.87-3.38-1.04c-6.25-2.08-11.5-4.12-15.75-6.12c-4.25-1.99-8.72-4.69-13.41-8.07
				c-4.69-3.38-8.25-7.64-10.67-12.76c-2.43-5.12-3.64-11.06-3.64-17.83c0-13.19,5.55-23.78,16.66-31.76
				c11.1-7.98,24.9-11.98,41.39-11.98c12.32,0,23.95,3.25,34.89,9.76c10.93,6.51,19.09,14.8,24.47,24.86l-21.87,13.28
				c-10.24-14.06-22.65-21.09-37.23-21.09c-7.99,0-14.1,1.61-18.35,4.82c-4.25,3.21-6.38,7.42-6.38,12.63c0,4.34,1.86,8.2,5.6,11.59
				c3.73,3.38,7.59,5.86,11.59,7.42c3.99,1.56,9.63,3.56,16.92,5.99c1.91,0.52,3.29,0.96,4.17,1.3
				c30.89,9.89,46.34,24.82,46.34,44.78c0,12.33-5.17,22.78-15.49,31.37c-10.33,8.59-24.95,12.89-43.87,12.89
				c-14.58,0-27.56-3.21-38.92-9.63C430.87,212.25,422.15,203.48,416.08,192.37z"/>
			<path class="st7" d="M553.02,79.13V51.01h23.17V10.92h32.8v40.09h34.36v28.12h-34.36v96.33c0,7.12,1.43,12.24,4.29,15.36
				c2.86,3.12,7.24,4.69,13.15,4.69h17.18v28.12h-21.35c-30.72,0-46.08-15.27-46.08-45.82V79.13H553.02z"/>
			<path class="st7" d="M672.25,223.61V10.92h32.8v212.7H672.25z"/>
			<rect x="745.41" y="10.92" class="st7" width="35.41" height="36.19"/>
			<rect x="746.97" y="69.49" class="st7" width="32.54" height="154.12"/>
			<path class="st7" d="M818.56,223.61V73.4h32.02v19h0.26c2.6-5.55,7.42-10.89,14.45-16.01c7.03-5.12,16.1-7.68,27.21-7.68
				c14.92,0,26.82,4.6,35.67,13.8c8.85,9.2,13.28,24.04,13.28,44.52v96.59h-33.06v-92.16c0-23.08-7.81-34.63-23.43-34.63
				c-9.55,0-17.49,3.82-23.82,11.45c-6.34,7.64-9.5,17.1-9.5,28.38v86.95H818.56z"/>
			<path class="st7" d="M966.7,147.86c0-24.12,6.64-43.35,19.92-57.67s29.98-21.48,50.12-21.48c19.79,0,36.1,7.2,48.94,21.61
				c12.84,14.41,19.27,33.15,19.27,56.23c0,4.52-0.26,8.94-0.78,13.28h-104.14c0,11.45,3.42,21.31,10.28,29.55
				c6.86,8.25,16.27,12.37,28.25,12.37c8.33,0,15.66-2.04,22-6.12c6.33-4.08,11.15-9.33,14.45-15.75l27.6,9.37
				c-4.86,11.11-12.76,20.4-23.69,27.86c-10.93,7.46-24.56,11.19-40.87,11.19c-21,0-38.14-7.29-51.42-21.87
				C973.33,191.85,966.7,172.33,966.7,147.86z M1000.54,136.66h70.81c0-11.45-3.04-21.22-9.11-29.29
				c-6.08-8.07-14.58-12.11-25.51-12.11c-10.93,0-19.66,4.12-26.17,12.37C1004.05,115.88,1000.71,125.56,1000.54,136.66z"/>
			<path class="st7" d="M1120.56,192.37l23.69-13.8c10.41,15.27,23.95,22.91,40.61,22.91c8.15,0,14.62-1.6,19.39-4.82
				c4.77-3.21,7.16-7.5,7.16-12.89c0-4.34-1.95-8.16-5.86-11.45c-3.91-3.3-8.03-5.77-12.37-7.42c-4.34-1.65-10.85-3.86-19.53-6.64
				c-1.56-0.52-2.69-0.87-3.38-1.04c-6.25-2.08-11.5-4.12-15.75-6.12c-4.25-1.99-8.72-4.69-13.41-8.07
				c-4.69-3.38-8.25-7.64-10.67-12.76c-2.43-5.12-3.64-11.06-3.64-17.83c0-13.19,5.55-23.78,16.66-31.76
				c11.1-7.98,24.9-11.98,41.39-11.98c12.32,0,23.95,3.25,34.89,9.76s19.09,14.8,24.47,24.86l-21.87,13.28
				c-10.24-14.06-22.65-21.09-37.23-21.09c-7.99,0-14.1,1.61-18.35,4.82c-4.25,3.21-6.38,7.42-6.38,12.63c0,4.34,1.86,8.2,5.6,11.59
				c3.73,3.38,7.59,5.86,11.59,7.42c3.99,1.56,9.63,3.56,16.92,5.99c1.91,0.52,3.29,0.96,4.17,1.3
				c30.89,9.89,46.34,24.82,46.34,44.78c0,12.33-5.17,22.78-15.49,31.37c-10.33,8.59-24.95,12.89-43.87,12.89
				c-14.58,0-27.56-3.21-38.92-9.63C1135.35,212.25,1126.63,203.48,1120.56,192.37z"/>
			<path class="st7" d="M5,40.34V10.92h153.08v29.42H98.72v183.28H64.36V40.34H5z"/>
			<path class="st7" d="M166.41,223.61V73.4h31.76v16.14c3.29-5.55,8.03-10.41,14.19-14.58c6.16-4.17,13.49-6.25,22-6.25
				c7.98,0,14.49,1.13,19.53,3.38v29.94c-6.6-2.08-13.11-3.12-19.53-3.12c-11.28,0-19.92,4.38-25.9,13.15
				c-5.99,8.77-8.98,20.44-8.98,35.02v76.54H166.41z"/>
			<path class="st7" d="M269.24,169.2V73.4h33.06v91.64c0,23.43,8.24,35.15,24.73,35.15c9.89,0,17.61-4.21,23.17-12.63
				c5.55-8.42,8.33-18.44,8.33-30.07V73.4h32.8v150.22h-31.76v-17.44h-0.26c-2.43,5.38-7.07,10.41-13.93,15.1
				c-6.86,4.69-15.4,7.03-25.64,7.03c-6.08,0-11.85-0.91-17.31-2.73c-5.47-1.82-10.8-4.77-16.01-8.85
				c-5.21-4.08-9.37-10.19-12.5-18.35C270.81,190.21,269.24,180.49,269.24,169.2z"/>
			<path class="st7" d="M416.08,192.37l23.69-13.8c10.41,15.27,23.95,22.91,40.61,22.91c8.15,0,14.62-1.6,19.39-4.82
				c4.77-3.21,7.16-7.5,7.16-12.89c0-4.34-1.95-8.16-5.86-11.45c-3.91-3.3-8.03-5.77-12.37-7.42c-4.34-1.65-10.85-3.86-19.53-6.64
				c-1.56-0.52-2.69-0.87-3.38-1.04c-6.25-2.08-11.5-4.12-15.75-6.12c-4.25-1.99-8.72-4.69-13.41-8.07
				c-4.69-3.38-8.25-7.64-10.67-12.76c-2.43-5.12-3.64-11.06-3.64-17.83c0-13.19,5.55-23.78,16.66-31.76
				c11.1-7.98,24.9-11.98,41.39-11.98c12.32,0,23.95,3.25,34.89,9.76c10.93,6.51,19.09,14.8,24.47,24.86l-21.87,13.28
				c-10.24-14.06-22.65-21.09-37.23-21.09c-7.99,0-14.1,1.61-18.35,4.82c-4.25,3.21-6.38,7.42-6.38,12.63c0,4.34,1.86,8.2,5.6,11.59
				c3.73,3.38,7.59,5.86,11.59,7.42c3.99,1.56,9.63,3.56,16.92,5.99c1.91,0.52,3.29,0.96,4.17,1.3
				c30.89,9.89,46.34,24.82,46.34,44.78c0,12.33-5.17,22.78-15.49,31.37c-10.33,8.59-24.95,12.89-43.87,12.89
				c-14.58,0-27.56-3.21-38.92-9.63C430.87,212.25,422.15,203.48,416.08,192.37z"/>
			<path class="st7" d="M553.02,79.13V51.01h23.17V10.92h32.8v40.09h34.36v28.12h-34.36v96.33c0,7.12,1.43,12.24,4.29,15.36
				c2.86,3.12,7.24,4.69,13.15,4.69h17.18v28.12h-21.35c-30.72,0-46.08-15.27-46.08-45.82V79.13H553.02z"/>
			<path class="st7" d="M672.25,223.61V10.92h32.8v212.7H672.25z"/>
			<rect x="745.41" y="10.92" class="st7" width="35.41" height="36.19"/>
			<rect x="746.97" y="69.49" class="st7" width="32.54" height="154.12"/>
			<path class="st7" d="M818.56,223.61V73.4h32.02v19h0.26c2.6-5.55,7.42-10.89,14.45-16.01c7.03-5.12,16.1-7.68,27.21-7.68
				c14.92,0,26.82,4.6,35.67,13.8c8.85,9.2,13.28,24.04,13.28,44.52v96.59h-33.06v-92.16c0-23.08-7.81-34.63-23.43-34.63
				c-9.55,0-17.49,3.82-23.82,11.45c-6.34,7.64-9.5,17.1-9.5,28.38v86.95H818.56z"/>
			<path class="st7" d="M966.7,147.86c0-24.12,6.64-43.35,19.92-57.67s29.98-21.48,50.12-21.48c19.79,0,36.1,7.2,48.94,21.61
				c12.84,14.41,19.27,33.15,19.27,56.23c0,4.52-0.26,8.94-0.78,13.28h-104.14c0,11.45,3.42,21.31,10.28,29.55
				c6.86,8.25,16.27,12.37,28.25,12.37c8.33,0,15.66-2.04,22-6.12c6.33-4.08,11.15-9.33,14.45-15.75l27.6,9.37
				c-4.86,11.11-12.76,20.4-23.69,27.86c-10.93,7.46-24.56,11.19-40.87,11.19c-21,0-38.14-7.29-51.42-21.87
				C973.33,191.85,966.7,172.33,966.7,147.86z M1000.54,136.66h70.81c0-11.45-3.04-21.22-9.11-29.29
				c-6.08-8.07-14.58-12.11-25.51-12.11c-10.93,0-19.66,4.12-26.17,12.37C1004.05,115.88,1000.71,125.56,1000.54,136.66z"/>
			<path class="st7" d="M1120.56,192.37l23.69-13.8c10.41,15.27,23.95,22.91,40.61,22.91c8.15,0,14.62-1.6,19.39-4.82
				c4.77-3.21,7.16-7.5,7.16-12.89c0-4.34-1.95-8.16-5.86-11.45c-3.91-3.3-8.03-5.77-12.37-7.42c-4.34-1.65-10.85-3.86-19.53-6.64
				c-1.56-0.52-2.69-0.87-3.38-1.04c-6.25-2.08-11.5-4.12-15.75-6.12c-4.25-1.99-8.72-4.69-13.41-8.07
				c-4.69-3.38-8.25-7.64-10.67-12.76c-2.43-5.12-3.64-11.06-3.64-17.83c0-13.19,5.55-23.78,16.66-31.76
				c11.1-7.98,24.9-11.98,41.39-11.98c12.32,0,23.95,3.25,34.89,9.76s19.09,14.8,24.47,24.86l-21.87,13.28
				c-10.24-14.06-22.65-21.09-37.23-21.09c-7.99,0-14.1,1.61-18.35,4.82c-4.25,3.21-6.38,7.42-6.38,12.63c0,4.34,1.86,8.2,5.6,11.59
				c3.73,3.38,7.59,5.86,11.59,7.42c3.99,1.56,9.63,3.56,16.92,5.99c1.91,0.52,3.29,0.96,4.17,1.3
				c30.89,9.89,46.34,24.82,46.34,44.78c0,12.33-5.17,22.78-15.49,31.37c-10.33,8.59-24.95,12.89-43.87,12.89
				c-14.58,0-27.56-3.21-38.92-9.63C1135.35,212.25,1126.63,203.48,1120.56,192.37z"/>
		</g>
		<g>
			<path class="st7" d="M186.69,386.98V296.3h35.01c9.26,0,16.51,2.49,21.76,7.47c5.25,4.98,7.88,11.59,7.88,19.84
				c0,8.48-2.68,15.17-8.05,20.07c-5.37,4.9-12.49,7.35-21.36,7.35H200v35.94H186.69z M200,339.72h19.96c5.6,0,9.94-1.36,13.01-4.08
				c3.07-2.72,4.61-6.73,4.61-12.02c0-5.21-1.52-9.16-4.55-11.85c-3.03-2.68-7.43-4.03-13.19-4.03H200V339.72z"/>
			<path class="st7" d="M302.37,386.98V296.3h36.3c9.18,0,16.24,2.43,21.18,7.29c4.94,4.86,7.41,10.91,7.41,18.15
				c0,6.22-1.48,11.32-4.43,15.29c-2.96,3.97-6.26,6.57-9.92,7.82c3.03,1.95,5.21,4.08,6.54,6.42c1.32,2.33,2.45,5.76,3.38,10.27
				c1.01,4.82,2.18,9.1,3.5,12.84c1.32,3.73,3.34,7.94,6.07,12.6h-14.94c-3.42-5.76-6.3-13.93-8.64-24.51
				c-0.86-4.12-2.2-7.27-4.03-9.45c-1.83-2.18-4.69-3.27-8.58-3.27h-20.54v37.23H302.37z M315.68,338.43h20.89
				c5.44,0,9.63-1.38,12.54-4.14c2.92-2.76,4.38-6.59,4.38-11.49c0-4.51-1.52-8.15-4.55-10.91c-3.03-2.76-7.35-4.14-12.95-4.14
				h-20.31V338.43z"/>
			<path class="st7" d="M414.66,341.7c0-14.24,3.52-25.71,10.56-34.43c7.04-8.71,16.4-13.07,28.07-13.07s20.99,4.36,27.95,13.07
				c6.96,8.72,10.45,20.23,10.45,34.54c0,14.39-3.5,25.87-10.5,34.43c-7,8.56-16.3,12.84-27.89,12.84c-11.67,0-21.03-4.3-28.07-12.9
				C418.18,367.59,414.66,356.1,414.66,341.7z M428.55,341.7c0,11.05,2.2,19.8,6.59,26.26c4.4,6.46,10.45,9.69,18.15,9.69
				c7.62,0,13.63-3.19,18.03-9.57c4.4-6.38,6.59-15.13,6.59-26.26c0-10.97-2.16-19.74-6.48-26.32c-4.32-6.57-10.37-9.86-18.15-9.86
				c-7.7,0-13.75,3.25-18.15,9.74C430.75,321.88,428.55,330.65,428.55,341.7z"/>
			<path class="st7" d="M531.51,307.74V296.3h66.64v11.44h-26.61v79.24h-13.3v-79.24H531.51z"/>
			<path class="st7" d="M638.67,341.7c0-14.24,3.52-25.71,10.56-34.43c7.04-8.71,16.4-13.07,28.07-13.07
				c11.67,0,20.99,4.36,27.95,13.07c6.96,8.72,10.45,20.23,10.45,34.54c0,14.39-3.5,25.87-10.5,34.43
				c-7,8.56-16.3,12.84-27.89,12.84c-11.67,0-21.03-4.3-28.07-12.9C642.19,367.59,638.67,356.1,638.67,341.7z M652.55,341.7
				c0,11.05,2.2,19.8,6.59,26.26c4.4,6.46,10.45,9.69,18.15,9.69c7.62,0,13.63-3.19,18.03-9.57c4.4-6.38,6.59-15.13,6.59-26.26
				c0-10.97-2.16-19.74-6.48-26.32c-4.32-6.57-10.37-9.86-18.15-9.86c-7.7,0-13.75,3.25-18.15,9.74
				C654.75,321.88,652.55,330.65,652.55,341.7z"/>
			<path class="st7" d="M762.05,341.7c0-14.63,3.69-26.2,11.09-34.72c7.39-8.52,16.96-12.78,28.71-12.78
				c7.55,0,13.96,2.06,19.26,6.19c5.29,4.12,9.22,9.14,11.79,15.05l-11.44,3.85c-5.13-9.1-11.75-13.65-19.84-13.65
				c-7.86,0-14.12,3.29-18.79,9.86c-4.67,6.57-7,15.31-7,26.2c0,11.05,2.37,19.8,7.12,26.26c4.74,6.46,10.97,9.69,18.67,9.69
				c5.06,0,9.47-1.48,13.25-4.43c3.77-2.96,6.55-6.57,8.35-10.85l12.02,3.73c-1.17,2.8-2.65,5.43-4.43,7.88
				c-1.79,2.45-4.01,4.88-6.65,7.29c-2.65,2.41-5.89,4.32-9.75,5.72c-3.85,1.4-8.03,2.1-12.54,2.1c-11.52,0-21.03-4.2-28.54-12.6
				C765.8,368.08,762.05,356.48,762.05,341.7z"/>
			<path class="st7" d="M879.12,341.7c0-14.24,3.52-25.71,10.56-34.43c7.04-8.71,16.4-13.07,28.07-13.07
				c11.67,0,20.99,4.36,27.95,13.07c6.96,8.72,10.45,20.23,10.45,34.54c0,14.39-3.5,25.87-10.5,34.43
				c-7,8.56-16.3,12.84-27.89,12.84c-11.67,0-21.03-4.3-28.07-12.9C882.64,367.59,879.12,356.1,879.12,341.7z M893.01,341.7
				c0,11.05,2.2,19.8,6.59,26.26c4.4,6.46,10.45,9.69,18.15,9.69c7.62,0,13.63-3.19,18.03-9.57c4.4-6.38,6.59-15.13,6.59-26.26
				c0-10.97-2.16-19.74-6.48-26.32c-4.32-6.57-10.37-9.86-18.15-9.86c-7.7,0-13.75,3.25-18.15,9.74
				C895.21,321.88,893.01,330.65,893.01,341.7z"/>
			<path class="st7" d="M1008.22,386.98V296.3h13.3v79.24h41.78v11.44H1008.22z"/>
		</g>
	</g>
</g>
<g id="OUTLINE" class="st0">
</g>
<g id="INLINE" class="st0">
</g>
<g id="HORSE" class="st0">
</g>
<g id="ALL">
</g>
<g id="Layer_9">
</g>
<g id="Layer_10">
</g>
</svg>
