<?xml version="1.0" encoding="utf-8"?>
<!-- Generator: Adobe Illustrator 23.0.4, SVG Export Plug-In . SVG Version: 6.00 Build 0)  -->
<svg version="1.1" xmlns="http://www.w3.org/2000/svg" xmlns:xlink="http://www.w3.org/1999/xlink" x="0px" y="0px"
	 viewBox="0 0 2150 850" style="enable-background:new 0 0 2150 850;" xml:space="preserve">
<style type="text/css">
	.st0{display:none;}
	.st1{display:inline;fill-rule:evenodd;clip-rule:evenodd;fill:none;stroke:#E80A89;stroke-miterlimit:10;}
	.st2{display:inline;fill-rule:evenodd;clip-rule:evenodd;fill:none;stroke:#60C6D1;stroke-miterlimit:10;}
	.st3{display:inline;fill:#231F20;}
	.st4{display:inline;fill-rule:evenodd;clip-rule:evenodd;fill:none;stroke:#46B449;stroke-miterlimit:10;}
	.st5{fill:url(#SVGID_1_);}
	.st6{fill:#FFFFFF;}
	.st7{fill:#1E8CC3;}
	.st8{fill:url(#SVGID_2_);}
	.st9{display:inline;fill:none;stroke:#221F1F;stroke-width:8;stroke-miterlimit:10;}
	.st10{display:inline;fill-rule:evenodd;clip-rule:evenodd;fill:none;stroke:#221F1F;stroke-width:8;stroke-miterlimit:10;}
	.st11{display:inline;}
	.st12{fill:#221F1F;}
	.st13{display:inline;fill-rule:evenodd;clip-rule:evenodd;fill:#00A04A;}
	.st14{fill:url(#SVGID_3_);}
	.st15{fill:url(#SVGID_4_);}
	.st16{fill:url(#SVGID_5_);}
</style>
<g id="L_CIRCLES" class="st0">
</g>
<g id="M_CIRCLES" class="st0">
</g>
<g id="S_CIRCLES" class="st0">
</g>
<g id="TEXT">
	<g>
		<g>
			<path class="st7" d="M786.93,428.09l-0.01-0.26c-0.08-3.13-0.2-6.27-0.35-9.33l-0.03-0.51c-0.15-2.94-0.34-5.92-0.58-9.12
				l-0.04-0.61c-0.22-2.82-0.48-5.75-0.79-8.93l-0.07-0.77c-0.3-2.92-0.64-5.83-1-8.73l-0.11-0.88c-0.37-2.88-0.77-5.75-1.19-8.53
				l-0.16-1.03c-0.43-2.81-0.9-5.6-1.39-8.38l-0.18-1.05c-0.5-2.77-1.03-5.51-1.59-8.25l-0.23-1.16c-0.56-2.72-1.15-5.42-1.77-8.12
				l-0.26-1.16c-0.63-2.7-1.29-5.4-1.97-8.08l-0.27-1.05c-0.69-2.68-1.41-5.35-2.16-8l-0.33-1.14c-0.75-2.64-1.54-5.28-2.35-7.88
				l-0.34-1.1c-0.89-2.84-1.72-5.38-2.53-7.78l-0.4-1.19c-0.87-2.56-1.77-5.11-2.7-7.66l-0.41-1.12c-0.94-2.56-1.91-5.11-2.91-7.65
				l-0.41-1.02c-1.03-2.6-2.07-5.14-3.09-7.55l-0.46-1.1c-1.07-2.5-2.16-5-3.28-7.49l-0.42-0.93c-1.13-2.51-2.3-5-3.49-7.49
				l-0.42-0.86c-1.21-2.5-2.44-4.99-3.71-7.45l-0.4-0.78c-1.27-2.47-2.56-4.93-3.9-7.38l-0.45-0.81c-1.33-2.44-2.69-4.87-4.07-7.29
				l-0.38-0.65c-1.41-2.45-2.85-4.87-4.31-7.29l-0.36-0.59c-1.5-2.46-3.02-4.89-4.56-7.3l-0.17-0.27c-1.6-2.48-3.22-4.94-4.87-7.39
				l-0.19-0.28c-1.79-2.65-3.42-4.99-4.96-7.14l-0.1-0.14c-0.03-0.05-0.07-0.1-0.11-0.15c-1.69-2.37-3.39-4.71-5.13-7.04l-0.25-0.33
				c-1.7-2.27-3.43-4.52-5.17-6.74l-0.47-0.6c-1.77-2.23-3.55-4.45-5.36-6.65l-0.35-0.42c-1.79-2.17-3.61-4.31-5.44-6.43l-0.55-0.64
				c-1.79-2.05-3.6-4.1-5.43-6.12l-0.7-0.77c-1.82-1.99-3.65-3.97-5.52-5.92l-0.74-0.78c-1.84-1.93-3.7-3.83-5.58-5.72l-0.87-0.87
				c-2.02-2.01-4.05-4.01-6.15-5.99c-0.03-0.03-0.08-0.08-0.11-0.11c-4.81-4.58-9.98-9.23-15.36-13.84c-0.42-0.36-1-0.45-1.51-0.25
				c-0.51,0.2-0.86,0.68-0.91,1.22c-1.08,11.03,1.78,13.71,8.03,19.59l1.62,1.53c35.85,34.13,64.05,74.32,83.82,119.46
				c20.47,46.73,30.84,96.49,30.84,147.91c0,98.58-38.4,191.26-108.12,260.99c-69.72,69.72-162.41,108.12-260.99,108.12
				c-98.58,0-191.27-38.4-260.99-108.12S37.25,536.3,37.25,437.72c0-98.58,38.4-191.26,108.12-260.99S307.78,68.61,406.36,68.61
				c27.62,0,55.16,3.06,81.91,9.12c10.66,2.42,16,3.63,25.68-2.73c0.48-0.31,0.73-0.88,0.65-1.45c-0.08-0.57-0.49-1.03-1.04-1.19
				c-7.19-2.1-14.3-3.97-21.12-5.55l-0.24-0.06c-2.86-0.66-5.79-1.3-8.98-1.96l-0.32-0.06c-2.68-0.55-5.63-1.12-9.02-1.73
				l-0.28-0.05c-3.02-0.54-6.09-1.05-9.12-1.51l-0.31-0.05c-2.94-0.45-6.05-0.89-9.2-1.29c-0.02,0-0.17-0.03-0.19-0.03
				c-3.2-0.4-6.36-0.76-9.38-1.06l-0.21-0.02c-2.77-0.28-5.79-0.56-9.56-0.85c-9.63-0.74-19.48-1.11-29.26-1.11
				c-3.47,0-6.69,0.04-9.82,0.12c-3.34,0.09-6.62,0.21-9.77,0.37c-3.15,0.16-6.41,0.36-9.69,0.61c-3.06,0.23-6.3,0.52-9.64,0.86
				c-3.14,0.32-6.36,0.69-9.56,1.09c-3.14,0.4-6.33,0.85-9.49,1.33c-3.49,0.54-6.57,1.05-9.41,1.56c-3.17,0.57-6.31,1.17-9.33,1.79
				c-3.13,0.64-6.24,1.32-9.25,2.01c-3,0.69-6.08,1.44-9.16,2.24c-3.07,0.79-6.13,1.62-9.07,2.46c-2.89,0.82-5.81,1.69-8.91,2.65
				c-0.03,0.01-0.06,0.02-0.08,0.02c-2.77,0.86-5.67,1.8-8.89,2.89c-2.99,1.02-5.95,2.06-8.79,3.1c-2.81,1.03-5.66,2.11-8.7,3.31
				c-3.04,1.21-5.85,2.35-8.59,3.51c-0.03,0.01-0.06,0.03-0.09,0.04c-2.79,1.18-5.62,2.41-8.4,3.67c-2.87,1.3-5.69,2.62-8.37,3.91
				c-2.85,1.38-5.63,2.76-8.26,4.1c-5.31,2.72-10.76,5.68-16.18,8.8c-2.55,1.47-5.19,3.03-7.85,4.64c-0.02,0.01-0.04,0.02-0.06,0.04
				c-2.67,1.62-5.26,3.24-7.72,4.82c-0.02,0.01-0.04,0.03-0.06,0.04c-12.77,8.19-25.21,17.27-36.97,26.96
				c-2.52,2.09-4.8,4.02-6.98,5.9c-2.24,1.94-4.54,3.98-6.84,6.06c-8.96,8.14-17.65,16.83-25.83,25.83
				c-1.98,2.19-4.02,4.49-6.06,6.84c-1.84,2.12-3.75,4.38-5.84,6.91c-0.02,0.02-0.04,0.05-0.06,0.07
				c-9.69,11.74-18.76,24.17-26.96,36.97c-1.67,2.61-3.31,5.23-4.86,7.78c-0.01,0.02-0.03,0.04-0.04,0.06
				c-1.63,2.68-3.19,5.32-4.64,7.85c-3.07,5.34-6.03,10.79-8.79,16.18c-1.44,2.8-2.82,5.58-4.11,8.27c-1.3,2.71-2.62,5.52-3.91,8.38
				c-1.26,2.8-2.5,5.62-3.67,8.39c-0.02,0.03-0.03,0.07-0.05,0.1c-1.29,3.06-2.44,5.87-3.51,8.59c-1.13,2.88-2.24,5.8-3.31,8.7
				c-1.07,2.92-2.11,5.88-3.1,8.8c-1.03,3.07-2.01,6.06-2.89,8.89c-0.95,3.08-1.85,6.1-2.67,8.99c-0.81,2.85-1.62,5.82-2.46,9.08
				c-0.82,3.21-1.56,6.21-2.23,9.16c-0.72,3.12-1.4,6.23-2.01,9.25c-0.62,3.02-1.22,6.16-1.79,9.33c-0.54,3.03-1.07,6.2-1.56,9.42
				c0,0.01,0,0.03-0.01,0.04c-0.45,2.97-0.88,6.05-1.32,9.44c-0.39,3.06-0.75,6.27-1.09,9.56c-0.32,3.15-0.61,6.39-0.86,9.63
				c-0.26,3.35-0.46,6.62-0.61,9.7c-0.16,3.21-0.29,6.49-0.38,9.76c-0.08,3.11-0.12,6.33-0.12,9.83c0,3.5,0.04,6.71,0.12,9.83
				c0.09,3.27,0.21,6.56,0.37,9.76c0.15,3.1,0.35,6.28,0.61,9.7c0.24,3.22,0.53,6.46,0.86,9.63c0.33,3.29,0.7,6.51,1.09,9.56
				c0.44,3.36,0.87,6.45,1.32,9.44c0,0.02,0,0.03,0.01,0.05c0.51,3.35,1.02,6.43,1.56,9.41c0.57,3.19,1.17,6.32,1.78,9.28
				c0,0.02,0.01,0.03,0.01,0.05c0.61,2.97,1.28,6.08,2.01,9.24c0.67,2.93,1.4,5.93,2.24,9.18c0.85,3.28,1.65,6.25,2.46,9.07
				c0.82,2.88,1.72,5.91,2.67,8.99c0.88,2.81,1.82,5.72,2.89,8.89c0.99,2.91,2.03,5.87,3.1,8.8c1.07,2.92,2.19,5.85,3.31,8.69
				c2.2,5.58,4.61,11.29,7.19,16.99c0.01,0.03,0.02,0.06,0.04,0.09c2.5,5.53,5.18,11.1,7.98,16.56c0.01,0.03,0.03,0.06,0.04,0.09
				c4.15,8.11,8.67,16.18,13.42,24.01c0.01,0.03,0.03,0.05,0.04,0.08c1.57,2.59,3.21,5.21,4.86,7.78
				c9.87,15.39,20.92,30.17,32.86,43.95c1.96,2.26,3.97,4.53,5.98,6.74c0.03,0.03,0.05,0.06,0.08,0.09
				c10.22,11.24,21.21,21.97,32.66,31.88c2.24,1.94,4.59,3.93,6.98,5.9c11.73,9.68,24.17,18.75,36.97,26.96
				c0.02,0.01,0.04,0.03,0.06,0.04c4.96,3.19,10.18,6.36,15.52,9.43c0.04,0.03,0.08,0.05,0.12,0.08c5.5,3.15,10.94,6.11,16.18,8.78
				c2.7,1.39,5.44,2.75,8.14,4.05c0.04,0.02,0.08,0.05,0.12,0.07c2.73,1.32,5.55,2.63,8.37,3.91c2.46,1.12,5.08,2.27,8.49,3.72
				c3.02,1.28,5.83,2.43,8.59,3.51c2.64,1.04,5.48,2.12,8.7,3.31c2.98,1.08,5.93,2.13,8.79,3.1c2.95,1,5.94,1.97,8.89,2.89
				c0.03,0.01,0.06,0.02,0.08,0.02c3.16,0.98,6.08,1.84,8.91,2.64c3.05,0.87,6.1,1.7,9.08,2.47c3.16,0.81,6.24,1.56,9.16,2.23
				c2.94,0.68,6.05,1.36,9.25,2.02c2.83,0.58,5.89,1.17,9.34,1.79c3.14,0.56,6.31,1.08,9.41,1.56c2.99,0.46,6.09,0.89,9.49,1.33
				c3.49,0.43,6.62,0.79,9.56,1.09c3.29,0.33,6.54,0.62,9.63,0.86c3.45,0.26,6.62,0.46,9.69,0.61c3.2,0.16,6.49,0.29,9.77,0.37
				c3.15,0.08,6.46,0.12,9.82,0.12c3.36,0,6.66-0.04,9.82-0.12c3.29-0.09,6.58-0.21,9.76-0.37c3.07-0.15,6.24-0.35,9.7-0.61
				c3.08-0.23,6.32-0.52,9.63-0.86c2.93-0.3,6.05-0.65,9.56-1.09c3.39-0.44,6.48-0.87,9.45-1.33c0.01,0,0.03,0,0.04-0.01
				c3.15-0.48,6.31-1.01,9.41-1.56c3.45-0.62,6.5-1.21,9.33-1.79c3.57-0.74,6.51-1.38,9.25-2.02c2.94-0.68,5.94-1.41,9.17-2.23
				c2.96-0.76,6.01-1.59,9.07-2.46c2.81-0.79,5.75-1.67,8.99-2.67c2.93-0.91,5.92-1.88,8.89-2.89c2.84-0.96,5.8-2.01,8.8-3.1
				c3.19-1.18,6.04-2.26,8.69-3.3c2.75-1.08,5.56-2.23,8.6-3.51c3.4-1.45,6.02-2.6,8.48-3.72c5.57-2.52,11.17-5.22,16.65-8.02
				c10.87-5.57,21.6-11.74,31.88-18.33c2.46-1.57,5.04-3.27,7.66-5.04c12.62-8.52,24.8-17.87,36.23-27.77
				c0.02-0.02,0.04-0.03,0.06-0.05c2.23-1.94,4.53-3.97,6.83-6.06c0.03-0.03,0.06-0.06,0.09-0.09c2.09-1.9,4.25-3.91,6.59-6.13
				c2.21-2.11,4.41-4.26,6.54-6.39c2.37-2.38,4.46-4.52,6.38-6.53c4.2-4.4,8.33-8.95,12.28-13.52c2.01-2.31,3.99-4.66,5.91-6.97
				c9.69-11.75,18.76-24.19,26.96-36.97c6.59-10.28,12.76-21,18.33-31.87c0.02-0.03,0.03-0.06,0.04-0.09
				c2.82-5.52,5.5-11.09,7.97-16.56c0.01-0.03,0.02-0.06,0.04-0.09c2.54-5.62,4.96-11.34,7.19-16.99c1.11-2.83,2.23-5.75,3.31-8.69
				c1.05-2.87,2.09-5.83,3.1-8.8c1.02-3.01,1.99-6,2.89-8.89c0.95-3.05,1.84-6.08,2.67-8.99c0.85-2.99,1.67-6.04,2.45-9.07
				c0.75-2.88,1.48-5.88,2.24-9.17c0.72-3.14,1.4-6.25,2.01-9.25c0-0.02,0.01-0.03,0.01-0.05c0.61-2.98,1.21-6.1,1.78-9.28
				c0.57-3.22,1.09-6.38,1.55-9.41c0-0.01,0-0.03,0.01-0.04c0.45-2.93,0.88-6.02,1.33-9.45c0.39-3.07,0.75-6.19,1.09-9.56
				c0.34-3.4,0.62-6.55,0.85-9.63c0.25-3.25,0.45-6.52,0.61-9.7c0.16-3.13,0.29-6.41,0.37-9.76c0.08-3.18,0.12-6.48,0.12-9.82
				C787.05,434.44,787.01,431.2,786.93,428.09z"/>
			<path class="st7" d="M702.16,468.6c0.01-0.22,0.01-0.43-0.02-0.65c-0.01-0.12-0.02-0.23-0.04-0.34c-0.04-0.2-0.09-0.4-0.16-0.6
				c-0.04-0.11-0.07-0.23-0.12-0.34c-0.02-0.04-0.02-0.08-0.04-0.12c-0.08-0.18-0.19-0.33-0.29-0.49c-0.05-0.08-0.08-0.16-0.14-0.23
				c-0.19-0.27-0.41-0.51-0.65-0.72c-0.01-0.01-0.01-0.01-0.02-0.02L498.15,286.39L656.33,38.37c1.18-1.84,0.82-4.27-0.83-5.7
				c-1.65-1.43-4.11-1.44-5.76-0.01L429.75,221.98l-21.38-75.86c-0.36-1.26-1.26-2.3-2.46-2.84c-1.2-0.53-2.58-0.5-3.75,0.09
				l-44.85,22.35c0,0-0.01,0-0.01,0l-0.06,0.03c-0.01,0.01-0.02,0.01-0.03,0.02c-0.06,0.03-0.12,0.08-0.18,0.11
				c-0.04,0.03-0.09,0.05-0.13,0.08c-0.12,0.07-0.25,0.13-0.36,0.22c-0.01,0.01-0.02,0.02-0.02,0.02c-0.04,0.03-0.08,0.07-0.12,0.11
				c-0.08,0.07-0.15,0.14-0.22,0.21c-0.02,0.02-0.04,0.04-0.06,0.06c-0.08,0.08-0.17,0.15-0.24,0.23c-0.06,0.07-0.1,0.14-0.15,0.21
				c-0.07,0.08-0.13,0.17-0.18,0.26c-0.05,0.08-0.12,0.15-0.16,0.23c-0.05,0.09-0.09,0.2-0.13,0.29c-0.01,0.03-0.02,0.05-0.04,0.08
				c-0.03,0.06-0.07,0.11-0.1,0.18l-16.75,42.17l-49.02,2.96c-1.62,0.1-3.05,1.08-3.73,2.55c-0.13,0.28-10.11,21.82-21.73,47.25
				l-56.71,3.65c-1.72,0.11-3.21,1.21-3.83,2.81c-0.65,1.69-8.1,20.97-16.11,41.75L141,314.35c-1.7,0.12-3.19,1.21-3.81,2.79
				c-9.55,24.43-40,102.55-42.76,111.68c0,0.01-0.01,0.02-0.01,0.03c-0.03,0.1-0.06,0.2-0.08,0.28c-0.01,0.05-0.03,0.1-0.04,0.16
				c-0.03,0.11-0.05,0.19-0.06,0.26c0,0.02,0,0.03,0,0.05c-0.03,0.18-0.04,0.37-0.04,0.56c0,0.03-0.01,0.07-0.01,0.1
				c0,0.01,0,0.01,0,0.02c0,0.22,0.02,0.44,0.05,0.66c0.01,0.05,0.01,0.11,0.02,0.16c0,0.01,0,0.01,0,0.02
				c0.04,0.2,0.09,0.39,0.15,0.58c0.02,0.08,0.05,0.15,0.07,0.23c0,0.01,0.01,0.02,0.01,0.02c0.06,0.15,0.13,0.3,0.21,0.45
				c0.05,0.1,0.1,0.19,0.16,0.28c0.01,0.02,0.02,0.03,0.04,0.05c0.04,0.07,0.07,0.14,0.12,0.2l46.45,63.55l-29.75,47.3
				c-1.25,1.99-0.72,4.61,1.2,5.96l56.66,39.78l-20.19,43.94c-0.5,1.1-0.54,2.35-0.09,3.47c0.44,1.12,1.33,2.01,2.45,2.46
				l209.24,84.37c0.04,0.02,0.09,0.02,0.13,0.04c0.18,0.07,0.36,0.12,0.55,0.16c0,0,0.01,0,0.01,0c0.02,0.01,0.05,0.01,0.07,0.02
				c0.29,0.06,0.58,0.1,0.87,0.1c0.01,0,0.01,0,0.02,0c0.28,0,0.55-0.04,0.83-0.1c0.15-0.03,0.3-0.07,0.45-0.12
				c0.03-0.01,0.06-0.02,0.09-0.03c0.14-0.05,0.28-0.07,0.41-0.13c0.04-0.02,0.07-0.04,0.11-0.06c0.09-0.04,0.17-0.09,0.26-0.14
				c0.04-0.02,0.09-0.03,0.13-0.06c0.04-0.03,0.07-0.06,0.12-0.09c0.06-0.04,0.12-0.09,0.18-0.14c0.15-0.11,0.29-0.21,0.43-0.34
				c0.05-0.04,0.1-0.08,0.14-0.12c0.09-0.09,0.16-0.2,0.24-0.3c0.07-0.09,0.16-0.16,0.23-0.25c0.02-0.03,0.03-0.07,0.06-0.1
				c0.01-0.01,0.02-0.02,0.02-0.03c0.01-0.02,0.03-0.03,0.04-0.05c0.05-0.07,0.07-0.16,0.11-0.23c0.1-0.18,0.19-0.36,0.26-0.54
				c0.01-0.02,0.02-0.05,0.03-0.07c0.03-0.08,0.05-0.17,0.07-0.25c0.06-0.21,0.11-0.41,0.14-0.62c0-0.02,0.01-0.04,0.01-0.06
				c0.01-0.05,0.02-0.09,0.03-0.13l24.41-242.99l210.5,38.12l29.73,40.65c0.85,1.17,2.19,1.81,3.56,1.81c0.62,0,1.25-0.13,1.84-0.4
				l57.01-26.18c0.04-0.02,0.07-0.05,0.1-0.06c0.27-0.13,0.52-0.29,0.75-0.48c0.08-0.06,0.16-0.13,0.24-0.2
				c0.2-0.18,0.38-0.37,0.54-0.58c0.05-0.06,0.11-0.12,0.15-0.19c0.19-0.28,0.36-0.58,0.48-0.91c0.03-0.07,0.04-0.14,0.06-0.2
				c0.06-0.19,0.13-0.39,0.17-0.59c0.01-0.08,0.01-0.15,0.02-0.23c0.01-0.05,0.03-0.09,0.03-0.14l5.54-58.71
				C702.17,468.73,702.16,468.67,702.16,468.6z M632.8,58.87L491.46,280.49l-57.37-50.61L632.8,58.87z M535.83,331.4l-47.08,31.18
				l-14.76-48.32c-0.06-0.19-0.13-0.38-0.22-0.56c-0.01-0.02-0.01-0.04-0.02-0.06c-0.12-0.24-0.26-0.47-0.42-0.68
				c-0.02-0.02-0.03-0.05-0.04-0.07l-83.91-110.69L535.83,331.4z M582.44,491.71l-137.77-89.36l40.73-26.98L582.44,491.71z
				 M477.38,355.51l-42.28-38.3l31.33,2.49L477.38,355.51z M401.33,153.63l17.75,63l-52.04-45.91L401.33,153.63z M360.42,178.59
				l99.9,131.78l-37.42-2.97c-1.88-0.15-3.65,0.92-4.4,2.65c-0.75,1.73-0.31,3.75,1.09,5.02l59.51,53.91l-40.77,27l-92.07-181.73
				L360.42,178.59z M340.55,234.59l39.73,221.91l-75.53-89.52L340.55,234.59z M292.5,221.83l36.47-2.2l-59.92,53.26
				C279.56,249.84,289.29,228.76,292.5,221.83z M333.31,227.58l-36.09,133.47l-65.71-42.98l27.8-24.71c0,0,0,0,0,0L333.31,227.58z
				 M104.51,430.96l105.71-93.97l-70.53,142.11L104.51,430.96z M220.75,335.6l4.39,82.95l-72.55,54.36L220.75,335.6z M146.54,488.47
				l79.44-59.52l22.43,198.89L146.54,488.47z M229.13,327.05l63.07,41.26l-58.56,43.88L229.13,327.05z M295.74,376.68l5.95,195.09
				l-66.56-149.68L295.74,376.68z M210.55,275.26l49.18-3.17c-2.3,5.05-4.62,10.17-6.92,15.24l-31.41,27.92c0,0-0.01,0.01-0.01,0.01
				l-39.89,35.46C189.18,330.64,202.13,297.05,210.55,275.26z M144.39,322.95l39.35-2.68c-7.45,19.36-14.6,37.99-16.47,43.09
				l-58.64,52.12C116.95,393.48,132.59,353.17,144.39,322.95z M121.41,544.92l25.66-40.79l88.28,120.78L121.41,544.92z
				 M159.33,632.93l17.59-38.27l151.78,106.56L159.33,632.93z M258.81,641.39L237,448l65.76,147.87c0,0.01,0.01,0.01,0.01,0.02
				l49.37,111.01L258.81,641.39z M359.9,702.68l-48.11-108.19l69.55-105.23L359.9,702.68z M310.77,580.05l-6.09-199.47l77.34,91.66
				L310.77,580.05z M390,460.76l-38.95-217.54l80.45,158.78L390,460.76z M395.11,468.81l42.68-60.42l145.76,94.54L395.11,468.81z
				 M492.81,370.47l47.94-31.75l51.85,151.38L492.81,370.47z M552.63,346.22l137.14,120.99l-82.68,38.02L552.63,346.22z
				 M636.66,547.76l-22.13-30.25l63.13,11.43L636.66,547.76z M688.29,521.9l-69.13-12.52l73.5-33.8L688.29,521.9z"/>
		</g>
		<g>
			<g>
				<path class="st7" d="M872.57,263.82v-29.7h154.53v29.7h-59.92v185.02h-34.69V263.82H872.57z"/>
				<path class="st7" d="M1035.52,448.84V297.2h32.06v16.29c3.33-5.61,8.1-10.51,14.32-14.72c6.22-4.2,13.62-6.31,22.21-6.31
					c8.06,0,14.63,1.14,19.71,3.42v30.22c-6.66-2.1-13.23-3.15-19.71-3.15c-11.39,0-20.11,4.43-26.15,13.27
					c-6.04,8.85-9.07,20.63-9.07,35.35v77.27H1035.52z"/>
				<path class="st7" d="M1139.33,393.91V297.2h33.38v92.51c0,23.65,8.32,35.48,24.97,35.48c9.99,0,17.78-4.25,23.39-12.75
					c5.6-8.5,8.41-18.61,8.41-30.35V297.2h33.11v151.64h-32.06v-17.61h-0.26c-2.46,5.43-7.14,10.51-14.06,15.24
					c-6.92,4.73-15.55,7.1-25.89,7.1c-6.14,0-11.96-0.92-17.48-2.76c-5.52-1.84-10.91-4.82-16.16-8.94
					c-5.26-4.11-9.46-10.29-12.61-18.53C1140.9,415.11,1139.33,405.3,1139.33,393.91z"/>
				<path class="st7" d="M1287.55,417.3l23.92-13.93c10.51,15.42,24.18,23.13,41,23.13c8.23,0,14.76-1.62,19.58-4.86
					c4.82-3.24,7.23-7.58,7.23-13.01c0-4.38-1.97-8.23-5.91-11.56c-3.94-3.33-8.11-5.82-12.48-7.49c-4.38-1.66-10.95-3.9-19.71-6.7
					c-1.58-0.53-2.72-0.87-3.42-1.05c-6.31-2.1-11.61-4.16-15.9-6.18c-4.29-2.01-8.8-4.73-13.53-8.15
					c-4.73-3.42-8.32-7.71-10.78-12.88c-2.46-5.17-3.68-11.17-3.68-18c0-13.31,5.6-24,16.82-32.06
					c11.21-8.06,25.14-12.09,41.79-12.09c12.44,0,24.18,3.29,35.22,9.86c11.04,6.57,19.27,14.94,24.7,25.1l-22.08,13.4
					c-10.34-14.19-22.86-21.29-37.58-21.29c-8.06,0-14.24,1.62-18.53,4.86c-4.29,3.24-6.44,7.49-6.44,12.75
					c0,4.38,1.88,8.28,5.65,11.7c3.77,3.42,7.66,5.91,11.7,7.49c4.03,1.58,9.72,3.59,17.08,6.04c1.92,0.53,3.33,0.97,4.2,1.31
					c31.18,9.99,46.78,25.06,46.78,45.2c0,12.44-5.22,23-15.64,31.67c-10.43,8.67-25.19,13.01-44.28,13.01
					c-14.72,0-27.82-3.24-39.29-9.72C1302.48,437.37,1293.68,428.52,1287.55,417.3z"/>
				<path class="st7" d="M1425.79,302.98V274.6h23.39v-40.47h33.11v40.47h34.69v28.38h-34.69v97.24c0,7.19,1.44,12.35,4.34,15.51
					c2.89,3.15,7.31,4.73,13.27,4.73h17.35v28.38h-21.55c-31.01,0-46.52-15.42-46.52-46.25v-99.61H1425.79z"/>
				<path class="st7" d="M1546.16,448.84V234.12h33.11v214.72H1546.16z"/>
				<rect x="1620" y="234.12" class="st7" width="35.74" height="36.53"/>
				<rect x="1621.58" y="293.26" class="st7" width="32.85" height="155.58"/>
				<path class="st7" d="M1693.85,448.84V297.2h32.33v19.19h0.26c2.63-5.61,7.49-10.99,14.59-16.16c7.1-5.17,16.25-7.75,27.46-7.75
					c15.07,0,27.07,4.64,36.01,13.93c8.94,9.29,13.4,24.27,13.4,44.94v97.5h-33.38V355.8c0-23.3-7.88-34.95-23.65-34.95
					c-9.64,0-17.65,3.86-24.05,11.56c-6.4,7.71-9.59,17.26-9.59,28.65v87.78H1693.85z"/>
				<path class="st7" d="M1843.39,372.36c0-24.35,6.7-43.76,20.1-58.21s30.26-21.68,50.59-21.68c19.97,0,36.44,7.27,49.41,21.81
					c12.96,14.54,19.45,33.47,19.45,56.77c0,4.56-0.26,9.03-0.79,13.4h-105.12c0,11.56,3.46,21.51,10.38,29.83
					c6.92,8.32,16.43,12.48,28.52,12.48c8.41,0,15.81-2.06,22.21-6.18c6.39-4.11,11.26-9.42,14.59-15.9l27.86,9.46
					c-4.91,11.21-12.88,20.59-23.92,28.12c-11.04,7.53-24.79,11.3-41.26,11.3c-21.2,0-38.5-7.36-51.91-22.08
					S1843.39,397.07,1843.39,372.36z M1877.56,361.06h71.48c0-11.56-3.07-21.42-9.2-29.57c-6.14-8.15-14.72-12.22-25.76-12.22
					c-11.04,0-19.84,4.16-26.41,12.48C1881.11,340.08,1877.73,349.85,1877.56,361.06z"/>
				<path class="st7" d="M1998.71,417.3l23.92-13.93c10.51,15.42,24.18,23.13,41,23.13c8.23,0,14.76-1.62,19.58-4.86
					c4.82-3.24,7.23-7.58,7.23-13.01c0-4.38-1.97-8.23-5.91-11.56c-3.94-3.33-8.11-5.82-12.48-7.49c-4.38-1.66-10.95-3.9-19.71-6.7
					c-1.58-0.53-2.72-0.87-3.42-1.05c-6.31-2.1-11.61-4.16-15.9-6.18c-4.29-2.01-8.8-4.73-13.53-8.15
					c-4.73-3.42-8.32-7.71-10.78-12.88c-2.46-5.17-3.68-11.17-3.68-18c0-13.31,5.6-24,16.82-32.06
					c11.21-8.06,25.14-12.09,41.79-12.09c12.44,0,24.18,3.29,35.22,9.86c11.04,6.57,19.27,14.94,24.7,25.1l-22.08,13.4
					c-10.34-14.19-22.86-21.29-37.58-21.29c-8.06,0-14.24,1.62-18.53,4.86c-4.29,3.24-6.44,7.49-6.44,12.75
					c0,4.38,1.88,8.28,5.65,11.7c3.77,3.42,7.66,5.91,11.7,7.49c4.03,1.58,9.72,3.59,17.08,6.04c1.92,0.53,3.33,0.97,4.2,1.31
					c31.18,9.99,46.78,25.06,46.78,45.2c0,12.44-5.22,23-15.64,31.67c-10.43,8.67-25.19,13.01-44.28,13.01
					c-14.72,0-27.82-3.24-39.29-9.72C2013.65,437.37,2004.84,428.52,1998.71,417.3z"/>
				<path class="st7" d="M872.57,263.82v-29.7h154.53v29.7h-59.92v185.02h-34.69V263.82H872.57z"/>
				<path class="st7" d="M1035.52,448.84V297.2h32.06v16.29c3.33-5.61,8.1-10.51,14.32-14.72c6.22-4.2,13.62-6.31,22.21-6.31
					c8.06,0,14.63,1.14,19.71,3.42v30.22c-6.66-2.1-13.23-3.15-19.71-3.15c-11.39,0-20.11,4.43-26.15,13.27
					c-6.04,8.85-9.07,20.63-9.07,35.35v77.27H1035.52z"/>
				<path class="st7" d="M1139.33,393.91V297.2h33.38v92.51c0,23.65,8.32,35.48,24.97,35.48c9.99,0,17.78-4.25,23.39-12.75
					c5.6-8.5,8.41-18.61,8.41-30.35V297.2h33.11v151.64h-32.06v-17.61h-0.26c-2.46,5.43-7.14,10.51-14.06,15.24
					c-6.92,4.73-15.55,7.1-25.89,7.1c-6.14,0-11.96-0.92-17.48-2.76c-5.52-1.84-10.91-4.82-16.16-8.94
					c-5.26-4.11-9.46-10.29-12.61-18.53C1140.9,415.11,1139.33,405.3,1139.33,393.91z"/>
				<path class="st7" d="M1287.55,417.3l23.92-13.93c10.51,15.42,24.18,23.13,41,23.13c8.23,0,14.76-1.62,19.58-4.86
					c4.82-3.24,7.23-7.58,7.23-13.01c0-4.38-1.97-8.23-5.91-11.56c-3.94-3.33-8.11-5.82-12.48-7.49c-4.38-1.66-10.95-3.9-19.71-6.7
					c-1.58-0.53-2.72-0.87-3.42-1.05c-6.31-2.1-11.61-4.16-15.9-6.18c-4.29-2.01-8.8-4.73-13.53-8.15
					c-4.73-3.42-8.32-7.71-10.78-12.88c-2.46-5.17-3.68-11.17-3.68-18c0-13.31,5.6-24,16.82-32.06
					c11.21-8.06,25.14-12.09,41.79-12.09c12.44,0,24.18,3.29,35.22,9.86c11.04,6.57,19.27,14.94,24.7,25.1l-22.08,13.4
					c-10.34-14.19-22.86-21.29-37.58-21.29c-8.06,0-14.24,1.62-18.53,4.86c-4.29,3.24-6.44,7.49-6.44,12.75
					c0,4.38,1.88,8.28,5.65,11.7c3.77,3.42,7.66,5.91,11.7,7.49c4.03,1.58,9.72,3.59,17.08,6.04c1.92,0.53,3.33,0.97,4.2,1.31
					c31.18,9.99,46.78,25.06,46.78,45.2c0,12.44-5.22,23-15.64,31.67c-10.43,8.67-25.19,13.01-44.28,13.01
					c-14.72,0-27.82-3.24-39.29-9.72C1302.48,437.37,1293.68,428.52,1287.55,417.3z"/>
				<path class="st7" d="M1425.79,302.98V274.6h23.39v-40.47h33.11v40.47h34.69v28.38h-34.69v97.24c0,7.19,1.44,12.35,4.34,15.51
					c2.89,3.15,7.31,4.73,13.27,4.73h17.35v28.38h-21.55c-31.01,0-46.52-15.42-46.52-46.25v-99.61H1425.79z"/>
				<path class="st7" d="M1546.16,448.84V234.12h33.11v214.72H1546.16z"/>
				<rect x="1620" y="234.12" class="st7" width="35.74" height="36.53"/>
				<rect x="1621.58" y="293.26" class="st7" width="32.85" height="155.58"/>
				<path class="st7" d="M1693.85,448.84V297.2h32.33v19.19h0.26c2.63-5.61,7.49-10.99,14.59-16.16c7.1-5.17,16.25-7.75,27.46-7.75
					c15.07,0,27.07,4.64,36.01,13.93c8.94,9.29,13.4,24.27,13.4,44.94v97.5h-33.38V355.8c0-23.3-7.88-34.95-23.65-34.95
					c-9.64,0-17.65,3.86-24.05,11.56c-6.4,7.71-9.59,17.26-9.59,28.65v87.78H1693.85z"/>
				<path class="st7" d="M1843.39,372.36c0-24.35,6.7-43.76,20.1-58.21s30.26-21.68,50.59-21.68c19.97,0,36.44,7.27,49.41,21.81
					c12.96,14.54,19.45,33.47,19.45,56.77c0,4.56-0.26,9.03-0.79,13.4h-105.12c0,11.56,3.46,21.51,10.38,29.83
					c6.92,8.32,16.43,12.48,28.52,12.48c8.41,0,15.81-2.06,22.21-6.18c6.39-4.11,11.26-9.42,14.59-15.9l27.86,9.46
					c-4.91,11.21-12.88,20.59-23.92,28.12c-11.04,7.53-24.79,11.3-41.26,11.3c-21.2,0-38.5-7.36-51.91-22.08
					S1843.39,397.07,1843.39,372.36z M1877.56,361.06h71.48c0-11.56-3.07-21.42-9.2-29.57c-6.14-8.15-14.72-12.22-25.76-12.22
					c-11.04,0-19.84,4.16-26.41,12.48C1881.11,340.08,1877.73,349.85,1877.56,361.06z"/>
				<path class="st7" d="M1998.71,417.3l23.92-13.93c10.51,15.42,24.18,23.13,41,23.13c8.23,0,14.76-1.62,19.58-4.86
					c4.82-3.24,7.23-7.58,7.23-13.01c0-4.38-1.97-8.23-5.91-11.56c-3.94-3.33-8.11-5.82-12.48-7.49c-4.38-1.66-10.95-3.9-19.71-6.7
					c-1.58-0.53-2.72-0.87-3.42-1.05c-6.31-2.1-11.61-4.16-15.9-6.18c-4.29-2.01-8.8-4.73-13.53-8.15
					c-4.73-3.42-8.32-7.71-10.78-12.88c-2.46-5.17-3.68-11.17-3.68-18c0-13.31,5.6-24,16.82-32.06
					c11.21-8.06,25.14-12.09,41.79-12.09c12.44,0,24.18,3.29,35.22,9.86c11.04,6.57,19.27,14.94,24.7,25.1l-22.08,13.4
					c-10.34-14.19-22.86-21.29-37.58-21.29c-8.06,0-14.24,1.62-18.53,4.86c-4.29,3.24-6.44,7.49-6.44,12.75
					c0,4.38,1.88,8.28,5.65,11.7c3.77,3.42,7.66,5.91,11.7,7.49c4.03,1.58,9.72,3.59,17.08,6.04c1.92,0.53,3.33,0.97,4.2,1.31
					c31.18,9.99,46.78,25.06,46.78,45.2c0,12.44-5.22,23-15.64,31.67c-10.43,8.67-25.19,13.01-44.28,13.01
					c-14.72,0-27.82-3.24-39.29-9.72C2013.65,437.37,2004.84,428.52,1998.71,417.3z"/>
			</g>
			<g>
				<path class="st7" d="M1055.99,613.76v-91.54h35.34c9.35,0,16.67,2.51,21.97,7.54c5.3,5.03,7.95,11.7,7.95,20.03
					c0,8.56-2.71,15.32-8.13,20.26c-5.42,4.95-12.61,7.42-21.56,7.42h-22.15v36.29H1055.99z M1069.42,566.04h20.15
					c5.65,0,10.03-1.37,13.14-4.12c3.1-2.75,4.65-6.79,4.65-12.13c0-5.26-1.53-9.25-4.59-11.96c-3.06-2.71-7.5-4.06-13.31-4.06
					h-20.03V566.04z"/>
				<path class="st7" d="M1172.77,613.76v-91.54h36.64c9.27,0,16.39,2.45,21.38,7.36c4.99,4.91,7.48,11.02,7.48,18.32
					c0,6.28-1.49,11.43-4.48,15.43c-2.99,4.01-6.32,6.64-10.01,7.89c3.06,1.96,5.26,4.12,6.6,6.48c1.33,2.36,2.47,5.81,3.42,10.37
					c1.02,4.87,2.2,9.19,3.53,12.96c1.33,3.77,3.38,8.01,6.13,12.72h-15.08c-3.46-5.81-6.36-14.06-8.72-24.74
					c-0.87-4.16-2.22-7.34-4.07-9.54c-1.85-2.2-4.73-3.3-8.66-3.3h-20.73v37.58H1172.77z M1186.2,564.75h21.09
					c5.5,0,9.72-1.39,12.66-4.18c2.95-2.79,4.42-6.66,4.42-11.6c0-4.55-1.53-8.23-4.59-11.02c-3.06-2.79-7.42-4.18-13.08-4.18h-20.5
					V564.75z"/>
				<path class="st7" d="M1286.12,568.05c0-14.37,3.55-25.96,10.66-34.75c7.11-8.8,16.55-13.19,28.33-13.19s21.19,4.4,28.21,13.19
					c7.03,8.8,10.54,20.42,10.54,34.87c0,14.53-3.53,26.11-10.6,34.75c-7.07,8.64-16.46,12.96-28.16,12.96
					c-11.78,0-21.23-4.34-28.33-13.02C1289.68,594.18,1286.12,582.58,1286.12,568.05z M1300.14,568.05
					c0,11.15,2.22,19.99,6.66,26.51c4.44,6.52,10.55,9.78,18.32,9.78c7.7,0,13.76-3.22,18.2-9.66c4.44-6.44,6.66-15.28,6.66-26.51
					c0-11.07-2.18-19.93-6.54-26.57c-4.36-6.64-10.47-9.95-18.32-9.95c-7.78,0-13.88,3.28-18.32,9.84
					C1302.36,548.04,1300.14,556.89,1300.14,568.05z"/>
				<path class="st7" d="M1404.08,533.76v-11.55h67.27v11.55h-26.86v79.99h-13.43v-79.99H1404.08z"/>
				<path class="st7" d="M1512.25,568.05c0-14.37,3.55-25.96,10.66-34.75c7.11-8.8,16.55-13.19,28.33-13.19
					c11.78,0,21.19,4.4,28.21,13.19c7.03,8.8,10.55,20.42,10.55,34.87c0,14.53-3.53,26.11-10.6,34.75
					c-7.07,8.64-16.46,12.96-28.16,12.96c-11.78,0-21.23-4.34-28.33-13.02C1515.8,594.18,1512.25,582.58,1512.25,568.05z
					 M1526.27,568.05c0,11.15,2.22,19.99,6.66,26.51c4.44,6.52,10.55,9.78,18.32,9.78c7.7,0,13.76-3.22,18.2-9.66
					c4.44-6.44,6.66-15.28,6.66-26.51c0-11.07-2.18-19.93-6.54-26.57c-4.36-6.64-10.47-9.95-18.32-9.95
					c-7.78,0-13.88,3.28-18.32,9.84C1528.49,548.04,1526.27,556.89,1526.27,568.05z"/>
				<path class="st7" d="M1636.8,568.05c0-14.77,3.73-26.45,11.19-35.05c7.46-8.6,17.12-12.9,28.98-12.9
					c7.62,0,14.1,2.08,19.44,6.24c5.34,4.16,9.31,9.23,11.9,15.2l-11.55,3.89c-5.18-9.19-11.86-13.78-20.03-13.78
					c-7.93,0-14.26,3.32-18.97,9.95c-4.71,6.64-7.07,15.45-7.07,26.45c0,11.15,2.39,19.99,7.19,26.51
					c4.79,6.52,11.07,9.78,18.85,9.78c5.1,0,9.56-1.49,13.37-4.48c3.81-2.99,6.62-6.64,8.42-10.96l12.13,3.77
					c-1.18,2.83-2.67,5.48-4.48,7.95c-1.81,2.47-4.05,4.93-6.72,7.36c-2.67,2.44-5.95,4.36-9.84,5.77
					c-3.89,1.41-8.11,2.12-12.66,2.12c-11.63,0-21.23-4.24-28.81-12.72C1640.59,594.67,1636.8,582.97,1636.8,568.05z"/>
				<path class="st7" d="M1754.99,568.05c0-14.37,3.55-25.96,10.66-34.75c7.11-8.8,16.55-13.19,28.33-13.19s21.19,4.4,28.21,13.19
					c7.03,8.8,10.55,20.42,10.55,34.87c0,14.53-3.53,26.11-10.6,34.75c-7.07,8.64-16.46,12.96-28.16,12.96
					c-11.78,0-21.23-4.34-28.33-13.02C1758.54,594.18,1754.99,582.58,1754.99,568.05z M1769.01,568.05
					c0,11.15,2.22,19.99,6.66,26.51c4.44,6.52,10.55,9.78,18.32,9.78c7.7,0,13.76-3.22,18.2-9.66c4.44-6.44,6.66-15.28,6.66-26.51
					c0-11.07-2.18-19.93-6.54-26.57c-4.36-6.64-10.47-9.95-18.32-9.95c-7.78,0-13.88,3.28-18.32,9.84
					C1771.23,548.04,1769.01,556.89,1769.01,568.05z"/>
				<path class="st7" d="M1885.31,613.76v-91.54h13.43v79.99h42.18v11.55H1885.31z"/>
			</g>
		</g>
	</g>
</g>
<g id="OUTLINE" class="st0">
</g>
<g id="INLINE" class="st0">
</g>
<g id="HORSE" class="st0">
</g>
<g id="ALL">
</g>
<g id="Layer_9">
</g>
<g id="Layer_10">
</g>
</svg>
