<?xml version="1.0" encoding="utf-8"?>
<!-- Generator: Adobe Illustrator 23.0.4, SVG Export Plug-In . SVG Version: 6.00 Build 0)  -->
<svg version="1.1" id="Layer_10" xmlns="http://www.w3.org/2000/svg" xmlns:xlink="http://www.w3.org/1999/xlink" x="0px" y="0px"
	 viewBox="0 0 1250 400" style="enable-background:new 0 0 1250 400;" xml:space="preserve">
<style type="text/css">
	.st0{fill:#FFFFFF;}
	.st1{fill:#646464;}
	.st2{fill:#E1E1E1;}
	.st3{fill:url(#SVGID_1_);}
	.st4{fill:#F05C56;}
	.st5{fill:url(#SVGID_2_);}
	.st6{fill:url(#SVGID_3_);}
	.st7{fill:url(#SVGID_4_);}
</style>
<path class="st1" d="M5,40.34V10.92h153.08v29.42H98.72v183.28H64.36V40.34H5z M166.41,223.61V73.4h31.76v16.14
	c3.29-5.55,8.03-10.41,14.19-14.58c6.16-4.17,13.49-6.25,22-6.25c7.98,0,14.49,1.13,19.53,3.38v29.94
	c-6.6-2.08-13.11-3.12-19.53-3.12c-11.28,0-19.92,4.38-25.9,13.15c-5.99,8.77-8.98,20.44-8.98,35.02v76.54H166.41z M269.25,169.2
	V73.4h33.06v91.64c0,23.43,8.24,35.15,24.73,35.15c9.89,0,17.61-4.21,23.17-12.63c5.55-8.42,8.33-18.44,8.33-30.07V73.4h32.8v150.22
	h-31.76v-17.44h-0.26c-2.43,5.38-7.07,10.41-13.93,15.1c-6.86,4.69-15.4,7.03-25.64,7.03c-6.08,0-11.85-0.91-17.31-2.73
	c-5.47-1.82-10.8-4.77-16.01-8.85c-5.21-4.08-9.37-10.19-12.5-18.35C270.81,190.21,269.25,180.49,269.25,169.2z M416.08,192.37
	l23.69-13.8c10.41,15.27,23.95,22.91,40.61,22.91c8.15,0,14.62-1.6,19.39-4.82c4.77-3.21,7.16-7.5,7.16-12.89
	c0-4.34-1.95-8.16-5.86-11.45c-3.91-3.3-8.03-5.77-12.37-7.42c-4.34-1.65-10.85-3.86-19.53-6.64c-1.56-0.52-2.69-0.87-3.38-1.04
	c-6.25-2.08-11.5-4.12-15.75-6.12c-4.25-1.99-8.72-4.69-13.41-8.07c-4.69-3.38-8.25-7.64-10.67-12.76
	c-2.43-5.12-3.64-11.06-3.64-17.83c0-13.19,5.55-23.78,16.66-31.76c11.1-7.98,24.9-11.98,41.39-11.98c12.32,0,23.95,3.25,34.89,9.76
	c10.93,6.51,19.09,14.8,24.47,24.86l-21.87,13.28c-10.24-14.06-22.65-21.09-37.23-21.09c-7.99,0-14.1,1.61-18.35,4.82
	c-4.25,3.21-6.38,7.42-6.38,12.63c0,4.34,1.86,8.2,5.6,11.59c3.73,3.38,7.59,5.86,11.59,7.42c3.99,1.56,9.63,3.56,16.92,5.99
	c1.91,0.52,3.29,0.96,4.17,1.3c30.89,9.89,46.34,24.82,46.34,44.78c0,12.33-5.17,22.78-15.49,31.37
	c-10.33,8.59-24.95,12.89-43.87,12.89c-14.58,0-27.56-3.21-38.92-9.63C430.87,212.25,422.15,203.48,416.08,192.37z M553.02,79.13
	V51.01h23.17V10.92h32.8v40.09h34.36v28.12h-34.36v96.33c0,7.12,1.43,12.24,4.29,15.36c2.86,3.12,7.24,4.69,13.15,4.69h17.18v28.12
	h-21.35c-30.72,0-46.08-15.27-46.08-45.82V79.13H553.02z M672.25,223.61V10.92h32.8v212.7H672.25z M780.81,47.1V10.92h-35.41V47.1
	H780.81z M779.51,223.61V69.49h-32.54v154.12H779.51z M818.56,223.61V73.4h32.02v19h0.26c2.6-5.55,7.42-10.89,14.45-16.01
	c7.03-5.12,16.1-7.68,27.21-7.68c14.92,0,26.82,4.6,35.67,13.8c8.85,9.2,13.28,24.04,13.28,44.52v96.59h-33.06v-92.16
	c0-23.08-7.81-34.63-23.43-34.63c-9.55,0-17.49,3.82-23.82,11.45c-6.34,7.64-9.5,17.1-9.5,28.38v86.95H818.56z M966.7,147.86
	c0-24.12,6.64-43.35,19.92-57.67s29.98-21.48,50.12-21.48c19.79,0,36.1,7.2,48.94,21.61c12.84,14.41,19.27,33.15,19.27,56.23
	c0,4.52-0.26,8.94-0.78,13.28h-104.14c0,11.45,3.42,21.31,10.28,29.55c6.86,8.25,16.27,12.37,28.25,12.37c8.33,0,15.66-2.04,22-6.12
	c6.33-4.08,11.15-9.33,14.45-15.75l27.6,9.37c-4.86,11.11-12.76,20.4-23.69,27.86c-10.93,7.46-24.56,11.19-40.87,11.19
	c-21,0-38.14-7.29-51.42-21.87C973.33,191.85,966.7,172.33,966.7,147.86z M1000.54,136.66h70.81c0-11.45-3.04-21.22-9.11-29.29
	c-6.08-8.07-14.58-12.11-25.51-12.11s-19.66,4.12-26.17,12.37C1004.05,115.88,1000.71,125.56,1000.54,136.66z M1120.56,192.37
	l23.69-13.8c10.41,15.27,23.95,22.91,40.61,22.91c8.15,0,14.62-1.6,19.39-4.82c4.77-3.21,7.16-7.5,7.16-12.89
	c0-4.34-1.95-8.16-5.86-11.45c-3.91-3.3-8.03-5.77-12.37-7.42c-4.34-1.65-10.85-3.86-19.53-6.64c-1.56-0.52-2.69-0.87-3.38-1.04
	c-6.25-2.08-11.5-4.12-15.75-6.12c-4.25-1.99-8.72-4.69-13.41-8.07c-4.69-3.38-8.25-7.64-10.67-12.76
	c-2.43-5.12-3.64-11.06-3.64-17.83c0-13.19,5.55-23.78,16.66-31.76c11.1-7.98,24.9-11.98,41.39-11.98c12.32,0,23.95,3.25,34.89,9.76
	c10.93,6.51,19.09,14.8,24.47,24.86l-21.87,13.28c-10.24-14.06-22.65-21.09-37.23-21.09c-7.99,0-14.1,1.61-18.35,4.82
	c-4.25,3.21-6.38,7.42-6.38,12.63c0,4.34,1.86,8.2,5.6,11.59c3.73,3.38,7.59,5.86,11.59,7.42c3.99,1.56,9.63,3.56,16.92,5.99
	c1.91,0.52,3.29,0.96,4.17,1.3c30.89,9.89,46.34,24.82,46.34,44.78c0,12.33-5.17,22.78-15.49,31.37
	c-10.33,8.59-24.95,12.89-43.87,12.89c-14.58,0-27.56-3.21-38.92-9.63C1135.35,212.25,1126.63,203.48,1120.56,192.37z
	 M233.33,386.98v-89.05h12.49l30.81,54.15l10.39,18.44h0.7c-1.01-7.24-1.52-15.68-1.52-25.32v-47.27h11.32v89.05h-12.49
	l-30.81-54.03l-10.39-18.44h-0.47c0.86,8.09,1.28,16.53,1.28,25.32v47.15H233.33z M356.47,386.98v-89.05h56.6v9.69h-45.28v28.59
	h40.85v9.45h-40.85v31.63h46.33v9.69H356.47z M457.33,307.62v-9.69h64.54v9.69h-26.61v79.36h-11.32v-79.36H457.33z M563.32,297.94
	h12.25l11.32,56.37c1.71,10.04,2.84,16.73,3.38,20.07h0.7c0.23-1.17,0.84-4.22,1.81-9.16c0.97-4.94,1.69-8.58,2.16-10.91
	l13.07-56.37h11.79l13.3,56.37c0.78,3.35,2.1,10.04,3.97,20.07h0.47c0.16-0.93,1.32-7.62,3.5-20.07l11.44-56.37h12.25l-20.66,89.05
	h-13.19l-12.84-55.67c-0.31-1.4-0.74-3.4-1.28-6.01c-0.54-2.61-1.03-4.98-1.46-7.12c-0.43-2.14-0.8-4.18-1.11-6.13h-0.47
	c-0.23,1.4-1.52,7.82-3.85,19.26l-12.84,55.67h-13.07L563.32,297.94z M707.47,342.52c0-14,3.4-25.28,10.21-33.84
	c6.81-8.56,15.89-12.84,27.25-12.84c11.44,0,20.52,4.28,27.25,12.84c6.73,8.56,10.09,19.88,10.09,33.96
	c0,14.16-3.4,25.44-10.21,33.84c-6.81,8.4-15.85,12.6-27.13,12.6c-11.36,0-20.44-4.22-27.25-12.66
	C710.87,367.98,707.47,356.68,707.47,342.52z M719.14,342.52c0,11.28,2.31,20.23,6.94,26.84c4.63,6.61,10.91,9.92,18.85,9.92
	c7.86,0,14.1-3.25,18.73-9.74c4.63-6.5,6.94-15.46,6.94-26.9c0-11.28-2.26-20.29-6.77-27.02c-4.51-6.73-10.81-10.09-18.91-10.09
	c-7.94,0-14.22,3.35-18.85,10.04C721.46,322.25,719.14,331.24,719.14,342.52z M835.29,386.98v-89.05h35.13
	c8.87,0,15.7,2.37,20.48,7.12c4.78,4.75,7.18,10.62,7.18,17.62c0,6.23-1.5,11.28-4.49,15.17c-3,3.89-6.36,6.38-10.09,7.47
	c3.11,1.79,5.37,3.89,6.77,6.3c1.4,2.41,2.57,5.88,3.5,10.39c0.86,3.66,1.54,6.48,2.04,8.46c0.51,1.98,1.36,4.47,2.57,7.47
	c1.21,3,2.7,6.01,4.49,9.04h-12.72c-3.19-5.68-5.95-13.73-8.29-24.16c-1.01-4.28-2.47-7.57-4.38-9.86
	c-1.91-2.29-4.96-3.44-9.16-3.44h-21.71v37.46H835.29z M846.61,339.83h22.17c5.68,0,10.04-1.46,13.07-4.38
	c3.03-2.92,4.55-6.9,4.55-11.96c0-4.74-1.6-8.58-4.78-11.5c-3.19-2.92-7.7-4.38-13.54-4.38h-21.47V339.83z M951.66,386.98v-89.05
	h11.32v44.7h0.23l38.4-44.7h14.82l-34.08,38.63l35.59,50.42h-14l-28.83-42.25l-12.14,13.77v28.48H951.66z M5,40.34V10.92h153.08
	v29.42H98.72v183.28H64.36V40.34H5z M166.41,223.61V73.4h31.76v16.14c3.29-5.55,8.03-10.41,14.19-14.58
	c6.16-4.17,13.49-6.25,22-6.25c7.98,0,14.49,1.13,19.53,3.38v29.94c-6.6-2.08-13.11-3.12-19.53-3.12c-11.28,0-19.92,4.38-25.9,13.15
	c-5.99,8.77-8.98,20.44-8.98,35.02v76.54H166.41z M269.25,169.2V73.4h33.06v91.64c0,23.43,8.24,35.15,24.73,35.15
	c9.89,0,17.61-4.21,23.17-12.63c5.55-8.42,8.33-18.44,8.33-30.07V73.4h32.8v150.22h-31.76v-17.44h-0.26
	c-2.43,5.38-7.07,10.41-13.93,15.1c-6.86,4.69-15.4,7.03-25.64,7.03c-6.08,0-11.85-0.91-17.31-2.73c-5.47-1.82-10.8-4.77-16.01-8.85
	c-5.21-4.08-9.37-10.19-12.5-18.35C270.81,190.21,269.25,180.49,269.25,169.2z M416.08,192.37l23.69-13.8
	c10.41,15.27,23.95,22.91,40.61,22.91c8.15,0,14.62-1.6,19.39-4.82c4.77-3.21,7.16-7.5,7.16-12.89c0-4.34-1.95-8.16-5.86-11.45
	c-3.91-3.3-8.03-5.77-12.37-7.42c-4.34-1.65-10.85-3.86-19.53-6.64c-1.56-0.52-2.69-0.87-3.38-1.04c-6.25-2.08-11.5-4.12-15.75-6.12
	c-4.25-1.99-8.72-4.69-13.41-8.07c-4.69-3.38-8.25-7.64-10.67-12.76c-2.43-5.12-3.64-11.06-3.64-17.83
	c0-13.19,5.55-23.78,16.66-31.76c11.1-7.98,24.9-11.98,41.39-11.98c12.32,0,23.95,3.25,34.89,9.76
	c10.93,6.51,19.09,14.8,24.47,24.86l-21.87,13.28c-10.24-14.06-22.65-21.09-37.23-21.09c-7.99,0-14.1,1.61-18.35,4.82
	c-4.25,3.21-6.38,7.42-6.38,12.63c0,4.34,1.86,8.2,5.6,11.59c3.73,3.38,7.59,5.86,11.59,7.42c3.99,1.56,9.63,3.56,16.92,5.99
	c1.91,0.52,3.29,0.96,4.17,1.3c30.89,9.89,46.34,24.82,46.34,44.78c0,12.33-5.17,22.78-15.49,31.37
	c-10.33,8.59-24.95,12.89-43.87,12.89c-14.58,0-27.56-3.21-38.92-9.63C430.87,212.25,422.15,203.48,416.08,192.37z M553.02,79.13
	V51.01h23.17V10.92h32.8v40.09h34.36v28.12h-34.36v96.33c0,7.12,1.43,12.24,4.29,15.36c2.86,3.12,7.24,4.69,13.15,4.69h17.18v28.12
	h-21.35c-30.72,0-46.08-15.27-46.08-45.82V79.13H553.02z M672.25,223.61V10.92h32.8v212.7H672.25z M780.81,47.1V10.92h-35.41V47.1
	H780.81z M779.51,223.61V69.49h-32.54v154.12H779.51z M818.56,223.61V73.4h32.02v19h0.26c2.6-5.55,7.42-10.89,14.45-16.01
	c7.03-5.12,16.1-7.68,27.21-7.68c14.92,0,26.82,4.6,35.67,13.8c8.85,9.2,13.28,24.04,13.28,44.52v96.59h-33.06v-92.16
	c0-23.08-7.81-34.63-23.43-34.63c-9.55,0-17.49,3.82-23.82,11.45c-6.34,7.64-9.5,17.1-9.5,28.38v86.95H818.56z M966.7,147.86
	c0-24.12,6.64-43.35,19.92-57.67s29.98-21.48,50.12-21.48c19.79,0,36.1,7.2,48.94,21.61c12.84,14.41,19.27,33.15,19.27,56.23
	c0,4.52-0.26,8.94-0.78,13.28h-104.14c0,11.45,3.42,21.31,10.28,29.55c6.86,8.25,16.27,12.37,28.25,12.37c8.33,0,15.66-2.04,22-6.12
	c6.33-4.08,11.15-9.33,14.45-15.75l27.6,9.37c-4.86,11.11-12.76,20.4-23.69,27.86c-10.93,7.46-24.56,11.19-40.87,11.19
	c-21,0-38.14-7.29-51.42-21.87C973.33,191.85,966.7,172.33,966.7,147.86z M1000.54,136.66h70.81c0-11.45-3.04-21.22-9.11-29.29
	c-6.08-8.07-14.58-12.11-25.51-12.11s-19.66,4.12-26.17,12.37C1004.05,115.88,1000.71,125.56,1000.54,136.66z M1120.56,192.37
	l23.69-13.8c10.41,15.27,23.95,22.91,40.61,22.91c8.15,0,14.62-1.6,19.39-4.82c4.77-3.21,7.16-7.5,7.16-12.89
	c0-4.34-1.95-8.16-5.86-11.45c-3.91-3.3-8.03-5.77-12.37-7.42c-4.34-1.65-10.85-3.86-19.53-6.64c-1.56-0.52-2.69-0.87-3.38-1.04
	c-6.25-2.08-11.5-4.12-15.75-6.12c-4.25-1.99-8.72-4.69-13.41-8.07c-4.69-3.38-8.25-7.64-10.67-12.76
	c-2.43-5.12-3.64-11.06-3.64-17.83c0-13.19,5.55-23.78,16.66-31.76c11.1-7.98,24.9-11.98,41.39-11.98c12.32,0,23.95,3.25,34.89,9.76
	c10.93,6.51,19.09,14.8,24.47,24.86l-21.87,13.28c-10.24-14.06-22.65-21.09-37.23-21.09c-7.99,0-14.1,1.61-18.35,4.82
	c-4.25,3.21-6.38,7.42-6.38,12.63c0,4.34,1.86,8.2,5.6,11.59c3.73,3.38,7.59,5.86,11.59,7.42c3.99,1.56,9.63,3.56,16.92,5.99
	c1.91,0.52,3.29,0.96,4.17,1.3c30.89,9.89,46.34,24.82,46.34,44.78c0,12.33-5.17,22.78-15.49,31.37
	c-10.33,8.59-24.95,12.89-43.87,12.89c-14.58,0-27.56-3.21-38.92-9.63C1135.35,212.25,1126.63,203.48,1120.56,192.37z"/>
</svg>
