<?xml version="1.0" encoding="utf-8"?>
<!-- Generator: Adobe Illustrator 23.0.4, SVG Export Plug-In . SVG Version: 6.00 Build 0)  -->
<svg version="1.1" id="Layer_10" xmlns="http://www.w3.org/2000/svg" xmlns:xlink="http://www.w3.org/1999/xlink" x="0px" y="0px"
	 viewBox="0 0 800 850" style="enable-background:new 0 0 800 850;" xml:space="preserve">
<style type="text/css">
	.st0{fill:#FFFFFF;}
	.st1{fill:#646464;}
	.st2{fill:#E1E1E1;}
	.st3{fill:url(#SVGID_1_);}
	.st4{fill:#F05C56;}
	.st5{fill:url(#SVGID_2_);}
	.st6{fill:url(#SVGID_3_);}
	.st7{fill:url(#SVGID_4_);}
</style>
<path class="st1" d="M780.18,437.7c0,3.34-0.04,6.64-0.12,9.81c-0.09,3.34-0.21,6.62-0.37,9.75c-0.16,3.18-0.36,6.43-0.61,9.69
	c-0.23,3.08-0.51,6.23-0.85,9.62c-0.34,3.36-0.7,6.48-1.09,9.55c-0.44,3.43-0.88,6.52-1.32,9.44c0,0.01,0,0.03-0.01,0.04
	c-0.46,3.02-0.98,6.19-1.55,9.4c-0.57,3.18-1.17,6.29-1.78,9.27c0,0.02-0.01,0.03-0.01,0.05c-0.61,2.99-1.29,6.1-2.01,9.23
	c-0.76,3.29-1.49,6.28-2.24,9.16c-0.78,3.03-1.6,6.08-2.45,9.06c-0.83,2.9-1.72,5.92-2.67,8.97c-0.9,2.89-1.87,5.87-2.88,8.88
	c-1,2.96-2.05,5.92-3.1,8.79c-1.08,2.94-2.19,5.86-3.3,8.68c-2.23,5.64-4.64,11.35-7.18,16.97c-0.01,0.03-0.02,0.06-0.04,0.09
	c-2.47,5.46-5.15,11.03-7.96,16.54c-0.01,0.03-0.03,0.06-0.04,0.09c-5.56,10.86-11.72,21.57-18.31,31.83
	c-8.19,12.76-17.24,25.19-26.92,36.92c-1.91,2.32-3.89,4.66-5.9,6.97c-3.95,4.57-8.08,9.11-12.27,13.5c-1.92,2.02-4,4.15-6.37,6.53
	c-2.12,2.12-4.32,4.27-6.53,6.38c-2.34,2.22-4.49,4.23-6.58,6.13c-0.03,0.03-0.06,0.06-0.09,0.09c-2.29,2.08-4.59,4.12-6.82,6.05
	c-0.02,0.02-0.04,0.04-0.06,0.05c-11.41,9.89-23.58,19.22-36.18,27.73c-2.62,1.77-5.19,3.46-7.65,5.03
	c-10.26,6.58-20.97,12.74-31.83,18.31c-5.47,2.8-11.06,5.49-16.62,8.01c-2.46,1.12-5.07,2.26-8.47,3.71
	c-3.04,1.28-5.85,2.43-8.59,3.51c-2.65,1.05-5.49,2.13-8.68,3.3c-2.99,1.09-5.95,2.13-8.78,3.09c-2.97,1-5.96,1.97-8.88,2.89
	c-3.24,1-6.18,1.87-8.98,2.66c-3.06,0.87-6.11,1.7-9.06,2.46c-3.22,0.83-6.22,1.56-9.16,2.23c-2.74,0.64-5.67,1.28-9.24,2.01
	c-2.83,0.58-5.88,1.17-9.32,1.79c-3.09,0.55-6.26,1.07-9.4,1.56c-0.01,0-0.03,0-0.04,0.01c-2.96,0.45-6.05,0.89-9.43,1.32
	c-3.5,0.43-6.62,0.79-9.55,1.09c-3.31,0.33-6.54,0.62-9.62,0.86c-3.45,0.26-6.62,0.46-9.68,0.61c-3.18,0.16-6.46,0.29-9.75,0.37
	c-3.16,0.08-6.46,0.12-9.81,0.12c-3.36,0-6.66-0.04-9.81-0.12c-3.27-0.09-6.56-0.21-9.75-0.37c-3.07-0.15-6.24-0.35-9.68-0.61
	c-3.09-0.24-6.33-0.52-9.62-0.86c-2.94-0.3-6.06-0.65-9.54-1.09c-3.4-0.44-6.5-0.87-9.48-1.33c-3.1-0.48-6.26-1-9.4-1.55
	c-3.45-0.62-6.49-1.21-9.32-1.79c-3.2-0.65-6.31-1.33-9.24-2.01c-2.91-0.67-5.99-1.42-9.15-2.23c-2.98-0.77-6.03-1.6-9.07-2.46
	c-2.83-0.8-5.75-1.67-8.9-2.64c-0.03-0.01-0.06-0.02-0.08-0.02c-2.94-0.92-5.92-1.89-8.87-2.88c-2.86-0.97-5.81-2.01-8.78-3.09
	c-3.21-1.18-6.05-2.26-8.69-3.3c-2.75-1.08-5.56-2.23-8.58-3.5c-3.41-1.45-6.02-2.6-8.48-3.72c-2.82-1.27-5.63-2.58-8.36-3.9
	c-0.04-0.02-0.08-0.04-0.12-0.07c-2.7-1.3-5.43-2.65-8.13-4.04c-5.23-2.67-10.67-5.62-16.16-8.77c-0.04-0.02-0.08-0.05-0.12-0.08
	c-5.33-3.07-10.54-6.24-15.5-9.42c-0.02-0.01-0.04-0.03-0.06-0.04c-12.78-8.19-25.2-17.25-36.92-26.92
	c-2.39-1.97-4.73-3.95-6.97-5.89c-11.43-9.9-22.41-20.61-32.62-31.84c-0.03-0.03-0.05-0.06-0.08-0.09
	c-2.01-2.21-4.02-4.48-5.97-6.74c-11.92-13.76-22.96-28.52-32.82-43.89c-1.65-2.57-3.28-5.18-4.85-7.77
	c-0.02-0.03-0.03-0.05-0.04-0.08c-4.75-7.82-9.26-15.88-13.41-23.98c-0.02-0.03-0.03-0.06-0.04-0.09
	c-2.79-5.45-5.48-11.01-7.97-16.53c-0.01-0.03-0.03-0.06-0.04-0.09c-2.57-5.69-4.98-11.4-7.18-16.97c-1.12-2.84-2.23-5.76-3.3-8.68
	c-1.07-2.92-2.11-5.88-3.1-8.79c-1.07-3.17-2.01-6.07-2.88-8.88c-0.95-3.08-1.85-6.1-2.67-8.98c-0.8-2.82-1.61-5.79-2.46-9.06
	c-0.83-3.24-1.56-6.24-2.23-9.16c-0.73-3.16-1.4-6.27-2.01-9.23c0-0.02-0.01-0.03-0.01-0.05c-0.61-2.96-1.2-6.08-1.78-9.26
	c-0.54-2.98-1.04-6.05-1.56-9.4c0-0.02-0.01-0.03-0.01-0.05c-0.45-2.99-0.89-6.08-1.32-9.43c-0.39-3.05-0.75-6.26-1.09-9.55
	c-0.32-3.17-0.61-6.41-0.86-9.62c-0.26-3.42-0.46-6.59-0.61-9.69c-0.16-3.2-0.29-6.48-0.37-9.74c-0.08-3.11-0.12-6.32-0.12-9.81
	c0-3.49,0.04-6.71,0.12-9.81c0.09-3.26,0.21-6.54,0.37-9.74c0.15-3.08,0.36-6.34,0.61-9.69c0.25-3.24,0.53-6.48,0.86-9.62
	c0.33-3.28,0.7-6.5,1.09-9.55c0.44-3.39,0.87-6.47,1.32-9.43c0-0.01,0-0.03,0.01-0.04c0.49-3.21,1.01-6.38,1.56-9.4
	c0.57-3.17,1.17-6.3,1.79-9.32c0.62-3.01,1.29-6.12,2.01-9.24c0.68-2.95,1.41-5.94,2.23-9.15c0.84-3.25,1.65-6.22,2.46-9.07
	c0.82-2.88,1.71-5.9,2.67-8.97c0.88-2.83,1.85-5.81,2.88-8.88c0.99-2.91,2.03-5.87,3.1-8.79c1.06-2.89,2.17-5.81,3.3-8.69
	c1.07-2.72,2.21-5.52,3.5-8.58c0.01-0.03,0.03-0.07,0.05-0.1c1.17-2.76,2.4-5.58,3.66-8.38c1.29-2.85,2.61-5.66,3.91-8.36
	c1.29-2.68,2.67-5.46,4.11-8.25c2.76-5.39,5.71-10.83,8.78-16.16c1.45-2.53,3.01-5.16,4.64-7.84c0.01-0.02,0.02-0.04,0.04-0.06
	c1.55-2.56,3.18-5.17,4.85-7.77c8.19-12.78,17.25-25.2,26.92-36.92c0.02-0.02,0.04-0.05,0.06-0.07c2.09-2.52,4-4.78,5.83-6.9
	c2.04-2.35,4.07-4.64,6.05-6.83c8.17-8.98,16.85-17.66,25.79-25.79c2.29-2.08,4.59-4.12,6.83-6.05c2.17-1.88,4.45-3.81,6.97-5.89
	c11.74-9.69,24.16-18.75,36.92-26.93c0.02-0.01,0.04-0.03,0.06-0.04c2.45-1.57,5.05-3.19,7.71-4.81c0.02-0.01,0.04-0.03,0.06-0.04
	c2.65-1.61,5.29-3.17,7.84-4.63c5.42-3.11,10.86-6.07,16.16-8.79c2.63-1.34,5.41-2.72,8.25-4.1c2.68-1.29,5.49-2.61,8.36-3.91
	c2.78-1.26,5.6-2.49,8.39-3.67c0.03-0.02,0.06-0.03,0.09-0.04c2.73-1.15,5.54-2.3,8.58-3.5c3.04-1.19,5.88-2.27,8.69-3.3
	c2.84-1.04,5.79-2.08,8.78-3.1c3.21-1.08,6.11-2.02,8.88-2.88c0.03-0.01,0.06-0.02,0.08-0.02c3.1-0.96,6.01-1.83,8.9-2.65
	c2.94-0.84,5.99-1.66,9.06-2.45c3.08-0.79,6.15-1.54,9.15-2.23c3.01-0.7,6.12-1.37,9.24-2.01c3.02-0.62,6.16-1.22,9.32-1.79
	c2.83-0.51,5.91-1.02,9.4-1.56c3.16-0.48,6.34-0.93,9.48-1.33c3.2-0.4,6.41-0.77,9.55-1.09c3.33-0.34,6.57-0.62,9.62-0.86
	c3.28-0.25,6.54-0.45,9.68-0.61c3.14-0.16,6.42-0.29,9.75-0.37c3.13-0.08,6.34-0.12,9.81-0.12c9.77,0,19.6,0.37,29.22,1.11
	c3.76,0.3,6.78,0.57,9.55,0.85l0.21,0.02c3.02,0.3,6.17,0.66,9.37,1.06c0.02,0,0.17,0.03,0.19,0.03c3.14,0.4,6.25,0.84,9.18,1.29
	l0.31,0.05c3.03,0.46,6.1,0.97,9.11,1.51l0.28,0.05c3.39,0.61,6.33,1.18,9.01,1.73l0.32,0.06c3.19,0.66,6.12,1.3,8.97,1.95
	l0.24,0.06c6.81,1.58,13.91,3.44,21.09,5.54c0.55,0.16,0.96,0.63,1.04,1.19c0.08,0.57-0.17,1.13-0.65,1.44
	c-9.67,6.35-15.01,5.14-25.65,2.73c-26.71-6.05-54.22-9.11-81.8-9.11c-98.44,0-191.01,38.35-260.64,107.98S31.39,339.26,31.39,437.7
	c0,98.44,38.35,191,107.98,260.63S301.56,806.31,400,806.31c98.44,0,191-38.35,260.63-107.98
	c69.63-69.63,107.98-162.19,107.98-260.63c0-51.35-10.36-101.05-30.8-147.71c-19.74-45.07-47.91-85.21-83.71-119.3l-1.62-1.53
	c-6.25-5.87-9.1-8.55-8.02-19.56c0.05-0.54,0.4-1.01,0.91-1.22c0.51-0.2,1.09-0.11,1.5,0.25c5.37,4.6,10.53,9.25,15.34,13.82
	c0.03,0.03,0.08,0.08,0.11,0.11c2.09,1.98,4.13,3.98,6.14,5.98l0.87,0.87c1.88,1.89,3.74,3.79,5.58,5.71l0.74,0.78
	c1.86,1.95,3.69,3.93,5.51,5.92l0.7,0.77c1.82,2.01,3.63,4.06,5.42,6.11l0.55,0.64c1.83,2.11,3.64,4.25,5.43,6.42l0.35,0.42
	c1.81,2.19,3.59,4.41,5.35,6.64l0.46,0.6c1.74,2.22,3.46,4.47,5.16,6.73l0.25,0.33c1.73,2.33,3.44,4.66,5.12,7.03
	c0.04,0.05,0.08,0.1,0.11,0.15l0.1,0.14c1.54,2.15,3.16,4.49,4.95,7.13l0.19,0.28c1.65,2.44,3.27,4.91,4.86,7.38l0.17,0.27
	c1.54,2.41,3.06,4.84,4.56,7.29l0.36,0.59c1.46,2.41,2.89,4.83,4.3,7.28l0.38,0.65c1.39,2.41,2.74,4.84,4.07,7.28l0.45,0.81
	c1.33,2.45,2.62,4.9,3.89,7.37l0.4,0.78c1.26,2.46,2.49,4.94,3.7,7.44l0.42,0.86c1.19,2.48,2.36,4.97,3.49,7.48l0.42,0.93
	c1.12,2.48,2.21,4.98,3.28,7.48l0.46,1.1c1.02,2.41,2.06,4.95,3.08,7.54l0.41,1.02c1,2.54,1.96,5.09,2.9,7.64l0.41,1.12
	c0.92,2.54,1.82,5.09,2.69,7.64l0.4,1.18c0.81,2.39,1.64,4.94,2.53,7.77l0.34,1.1c0.81,2.6,1.59,5.24,2.35,7.87l0.32,1.14
	c0.75,2.65,1.47,5.31,2.16,7.99l0.27,1.05c0.68,2.68,1.34,5.37,1.97,8.07l0.26,1.16c0.62,2.69,1.21,5.39,1.77,8.1l0.23,1.16
	c0.55,2.74,1.09,5.48,1.59,8.24l0.18,1.05c0.49,2.78,0.95,5.56,1.39,8.37l0.15,1.03c0.42,2.77,0.82,5.64,1.19,8.52l0.11,0.88
	c0.36,2.9,0.7,5.81,1,8.72l0.07,0.76c0.31,3.18,0.57,6.1,0.79,8.92l0.04,0.61c0.24,3.19,0.43,6.18,0.58,9.11l0.03,0.51
	c0.16,3.05,0.27,6.18,0.35,9.31l0.01,0.26C780.14,431.19,780.18,434.43,780.18,437.7z M695.41,468.74l-5.53,58.63
	c0,0.05-0.03,0.09-0.03,0.14c-0.01,0.08,0,0.15-0.02,0.23c-0.04,0.21-0.11,0.4-0.17,0.59c-0.02,0.07-0.03,0.14-0.06,0.2
	c-0.13,0.33-0.29,0.63-0.48,0.91c-0.05,0.07-0.1,0.12-0.15,0.19c-0.16,0.21-0.34,0.41-0.54,0.58c-0.08,0.07-0.16,0.14-0.24,0.2
	c-0.24,0.18-0.49,0.34-0.75,0.48c-0.04,0.02-0.06,0.05-0.1,0.06L630.4,557.1c-0.59,0.27-1.22,0.4-1.84,0.4
	c-1.37,0-2.7-0.64-3.56-1.8l-29.69-40.59l-210.22-38.06L360.71,719.7c0,0.05-0.02,0.09-0.03,0.13c0,0.02-0.01,0.04-0.01,0.06
	c-0.03,0.21-0.08,0.41-0.14,0.62c-0.02,0.08-0.04,0.17-0.07,0.25c-0.01,0.02-0.02,0.05-0.03,0.07c-0.07,0.19-0.16,0.36-0.26,0.54
	c-0.04,0.08-0.07,0.16-0.11,0.23c-0.01,0.02-0.03,0.03-0.04,0.05c-0.01,0.01-0.02,0.02-0.02,0.03c-0.02,0.03-0.03,0.07-0.06,0.1
	c-0.07,0.1-0.16,0.16-0.23,0.25c-0.08,0.1-0.15,0.21-0.24,0.3c-0.04,0.04-0.09,0.08-0.14,0.12c-0.13,0.13-0.28,0.23-0.43,0.34
	c-0.06,0.04-0.11,0.1-0.18,0.14c-0.04,0.03-0.07,0.06-0.12,0.09c-0.04,0.02-0.08,0.04-0.13,0.06c-0.08,0.05-0.17,0.1-0.25,0.14
	c-0.04,0.02-0.07,0.04-0.11,0.06c-0.14,0.06-0.28,0.09-0.41,0.13c-0.03,0.01-0.06,0.02-0.09,0.03c-0.15,0.05-0.3,0.09-0.45,0.12
	c-0.28,0.06-0.55,0.1-0.83,0.1c-0.01,0-0.01,0-0.02,0c-0.29,0-0.58-0.04-0.87-0.1c-0.02-0.01-0.05-0.01-0.07-0.02c0,0-0.01,0-0.01,0
	c-0.18-0.04-0.37-0.09-0.54-0.16c-0.04-0.02-0.09-0.02-0.13-0.04l-208.96-84.26c-1.12-0.45-2-1.34-2.44-2.46
	c-0.45-1.12-0.41-2.37,0.09-3.47l20.17-43.88l-56.59-39.73c-1.92-1.35-2.45-3.96-1.2-5.95l29.71-47.24l-46.38-63.46
	c-0.05-0.06-0.07-0.13-0.12-0.2c-0.01-0.02-0.02-0.03-0.04-0.05c-0.06-0.09-0.11-0.19-0.16-0.28c-0.08-0.15-0.15-0.3-0.21-0.45
	c0-0.01-0.01-0.02-0.01-0.02c-0.03-0.07-0.05-0.15-0.07-0.23c-0.06-0.19-0.12-0.38-0.15-0.58c0-0.01,0-0.01,0-0.02
	c-0.01-0.05-0.01-0.11-0.02-0.16c-0.03-0.22-0.05-0.44-0.05-0.66c0-0.01,0-0.01,0-0.02c0-0.03,0.01-0.07,0.01-0.1
	c0.01-0.19,0.01-0.37,0.04-0.56c0-0.02,0-0.03,0-0.05c0.01-0.07,0.03-0.15,0.06-0.26c0.01-0.05,0.03-0.1,0.04-0.15
	c0.02-0.08,0.05-0.18,0.08-0.28c0-0.01,0.01-0.02,0.01-0.03c2.75-9.12,33.16-87.13,42.7-111.53c0.62-1.59,2.1-2.67,3.8-2.79
	l46.17-3.14c7.99-20.75,15.43-40,16.08-41.69c0.62-1.6,2.11-2.7,3.82-2.81l56.63-3.65c11.6-25.4,21.57-46.91,21.7-47.19
	c0.68-1.47,2.11-2.45,3.73-2.54l48.95-2.95l16.73-42.11c0.03-0.06,0.07-0.12,0.1-0.18c0.01-0.03,0.02-0.06,0.04-0.08
	c0.05-0.1,0.08-0.2,0.13-0.29c0.05-0.08,0.11-0.15,0.16-0.23c0.06-0.09,0.12-0.18,0.18-0.26c0.05-0.07,0.1-0.14,0.15-0.21
	c0.07-0.08,0.16-0.15,0.24-0.23c0.02-0.02,0.04-0.04,0.06-0.06c0.07-0.07,0.14-0.15,0.22-0.21c0.04-0.04,0.08-0.07,0.12-0.11
	c0.01-0.01,0.02-0.02,0.02-0.02c0.12-0.09,0.24-0.15,0.36-0.22c0.04-0.03,0.08-0.06,0.13-0.08c0.06-0.04,0.11-0.08,0.18-0.11
	c0.01,0,0.02-0.01,0.03-0.02l0.06-0.03c0,0,0.01,0,0.01,0l44.79-22.32c1.17-0.59,2.55-0.62,3.75-0.09c1.2,0.53,2.1,1.57,2.46,2.83
	l21.35,75.76L643.05,33.18c1.65-1.42,4.11-1.42,5.76,0.01c1.65,1.43,2,3.85,0.83,5.7L491.67,286.58l202.26,178.45
	c0.01,0.01,0.01,0.01,0.02,0.02c0.24,0.21,0.46,0.46,0.65,0.72c0.05,0.07,0.09,0.16,0.14,0.23c0.1,0.16,0.21,0.31,0.29,0.49
	c0.02,0.04,0.03,0.08,0.04,0.12c0.05,0.11,0.08,0.23,0.12,0.34c0.07,0.2,0.12,0.4,0.16,0.6c0.02,0.11,0.03,0.23,0.04,0.34
	c0.02,0.22,0.03,0.43,0.02,0.65C695.4,468.61,695.41,468.67,695.41,468.74z M427.7,230.14l57.29,50.54L626.14,59.36L427.7,230.14z
	 M383.04,202.49l83.8,110.54c0.02,0.02,0.03,0.05,0.04,0.07c0.16,0.21,0.3,0.44,0.42,0.68c0.01,0.02,0.01,0.04,0.02,0.06
	c0.08,0.18,0.16,0.36,0.22,0.56l14.74,48.25l47.01-31.13L383.04,202.49z M478.95,375.44l-40.68,26.94l137.58,89.24L478.95,375.44z
	 M460,319.84l-31.29-2.48l42.22,38.24L460,319.84z M360.74,171.06l51.97,45.85L394.98,154L360.74,171.06z M339.98,214.53
	l91.95,181.48l40.72-26.97l-59.43-53.83c-1.4-1.27-1.83-3.28-1.09-5.01c0.75-1.73,2.51-2.79,4.39-2.64l37.37,2.97l-99.76-131.6
	L339.98,214.53z M298.53,367.06l75.43,89.4l-39.68-221.61L298.53,367.06z M262.88,273.1l59.84-53.19l-36.42,2.2
	C283.1,229.03,273.37,250.08,262.88,273.1z M253.15,293.53C253.15,293.53,253.15,293.53,253.15,293.53l-27.76,24.68l65.62,42.92
	l36.05-133.29L253.15,293.53z M133.69,479.02l70.44-141.91L98.56,430.95L133.69,479.02z M146.59,472.85l72.45-54.28l-4.39-82.84
	L146.59,472.85z M242.27,627.57l-22.4-198.62l-79.33,59.44L242.27,627.57z M227.52,412.21L286,368.39l-62.99-41.2L227.52,412.21z
	 M229.01,422.1l66.47,149.47l-5.94-194.82L229.01,422.1z M175.45,350.82l39.84-35.41c0,0,0.01-0.01,0.01-0.01l31.37-27.89
	c2.29-5.06,4.61-10.17,6.91-15.22l-49.11,3.16C196.06,297.22,183.12,330.77,175.45,350.82z M102.68,415.5l58.56-52.05
	c1.87-5.09,9.01-23.7,16.45-43.03l-39.3,2.67C126.6,353.27,110.99,393.53,102.68,415.5z M229.22,624.64l-88.16-120.62l-25.62,40.73
	L229.22,624.64z M322.44,700.85L170.87,594.44l-17.56,38.21L322.44,700.85z M345.85,706.52l-49.3-110.86c0-0.01-0.01-0.01-0.01-0.02
	l-65.67-147.67l21.78,193.13L345.85,706.52z M375.02,489.17l-69.46,105.09l48.05,108.05L375.02,489.17z M375.7,472.18l-77.24-91.54
	l6.08,199.19L375.7,472.18z M425.11,402.04l-80.34-158.57l38.89,217.24L425.11,402.04z M576.95,502.83l-145.56-94.42l-42.62,60.34
	L576.95,502.83z M585.99,490.02l-51.78-151.18l-47.87,31.7L585.99,490.02z M600.47,505.12l82.57-37.97L546.08,346.32L600.47,505.12z
	 M670.93,528.8l-63.04-11.41l22.1,30.21L670.93,528.8z M685.92,475.52l-73.4,33.75l69.04,12.5L685.92,475.52z"/>
</svg>
