<svg id="Layer_2" data-name="Layer 2" xmlns="http://www.w3.org/2000/svg" viewBox="0 0 1493.15 582.36"><defs><style>.cls-1{fill:#f05a55;}</style></defs><path class="cls-1" d="M127.88,134.17V104.64H283.05v29.53H222.93v165H188v-165Z"/><path class="cls-1" d="M287.84,299.13V153.27h33.32v24.31h1.52q4-12.63,13.73-19.51a37.54,37.54,0,0,1,22.27-6.89c1.89,0,4,.09,6.4.23a46.85,46.85,0,0,1,5.94.72v31.62a36.9,36.9,0,0,0-6.89-1.37,71.77,71.77,0,0,0-9.07-.62,34.7,34.7,0,0,0-16.85,4A30,30,0,0,0,326.49,197a31.19,31.19,0,0,0-4.28,16.44v85.73Z"/><path class="cls-1" d="M487.25,237.78V153.27h34.37V299.13H488.29V273.22h-1.53a44,44,0,0,1-16.19,20c-7.5,5.21-16.72,7.78-27.68,7.78q-14.34,0-25.3-6.39a44,44,0,0,1-17.14-18.72q-6.18-12.3-6.17-29.77V153.27h34.37v87.57q0,13.86,7.59,22c5.08,5.47,11.72,8.16,19.95,8.16a31.26,31.26,0,0,0,14.72-3.7,30.1,30.1,0,0,0,11.73-11.05Q487.25,248.91,487.25,237.78Z"/><path class="cls-1" d="M665.53,191.82l-31.33,3.42a25.57,25.57,0,0,0-4.6-8.92,23.93,23.93,0,0,0-8.79-6.75A32.12,32.12,0,0,0,607.33,177q-10.74,0-18,4.66t-7.17,12.05a12.61,12.61,0,0,0,4.7,10.37q4.8,4,15.91,6.54L627.65,216q20.7,4.45,30.81,14.16c6.74,6.43,10.15,14.9,10.21,25.35a39.63,39.63,0,0,1-8,24.27q-7.92,10.49-22,16.35T606.38,302q-26.77,0-43.11-11.25T543.8,259.36l33.52-3.26Q579.6,266,587,271t19.29,5.06q12.24,0,19.7-5.06t7.45-12.42a13,13,0,0,0-4.8-10.36q-4.78-4.09-14.85-6.27l-24.88-5.22c-14-2.89-24.35-7.84-31.06-14.77s-10-15.73-10-26.33a37.48,37.48,0,0,1,7.36-23.42c5-6.63,11.91-11.73,20.79-15.39s19.18-5.46,30.82-5.46q25.64,0,40.4,10.92T665.53,191.82Z"/><path class="cls-1" d="M767.22,153.27v26.58H683.37V153.27Zm-63.15-34.93h34.37V255.26q0,6.93,2.14,10.58a11.17,11.17,0,0,0,5.66,5,21.94,21.94,0,0,0,7.78,1.32,34.19,34.19,0,0,0,5.94-.48c1.8-.32,3.18-.6,4.12-.84l5.8,26.85a73.84,73.84,0,0,1-7.83,2.09,65.62,65.62,0,0,1-12.4,1.35,55.9,55.9,0,0,1-23.26-4A35.6,35.6,0,0,1,710,283.74q-6-9.09-5.94-22.78Z"/><path class="cls-1" d="M828.38,104.64V299.13H794V104.64Z"/><path class="cls-1" d="M881.33,132.56a19.69,19.69,0,0,1-14-5.5,17.76,17.76,0,0,1,.05-26.36,20,20,0,0,1,14.06-5.46,19.81,19.81,0,0,1,14,5.5A17.62,17.62,0,0,1,901.26,114a17.36,17.36,0,0,1-5.83,13.14A19.84,19.84,0,0,1,881.33,132.56ZM864.14,299.13V153.27h34.37V299.13Z"/><path class="cls-1" d="M968.64,213.68v85.45H934.27V153.27h32.85V178h1.71a41.51,41.51,0,0,1,16.1-19.44q11.05-7.23,27.39-7.23,15.09,0,26.35,6.46a43.74,43.74,0,0,1,17.47,18.71q6.22,12.26,6.12,29.7v92.89H1027.9V211.59q0-14.64-7.56-22.9t-20.84-8.26a31.92,31.92,0,0,0-16,3.94,27.64,27.64,0,0,0-10.93,11.35Q968.64,203.13,968.64,213.68Z"/><path class="cls-1" d="M1161.57,302q-21.94,0-37.85-9.16a61.22,61.22,0,0,1-24.45-26q-8.55-16.85-8.54-39.73,0-22.51,8.59-39.56a64.59,64.59,0,0,1,24.07-26.57q15.48-9.59,36.37-9.56a74.56,74.56,0,0,1,25.5,4.33A58.32,58.32,0,0,1,1206.52,169,62.66,62.66,0,0,1,1221.11,192q5.31,13.89,5.31,33.07v10.56H1106.87V212.43h86.6a37.25,37.25,0,0,0-4.27-17.61,31.24,31.24,0,0,0-11.63-12.2,33.16,33.16,0,0,0-17.34-4.46,33.82,33.82,0,0,0-18.51,5.06,35.6,35.6,0,0,0-12.39,13.3,38.18,38.18,0,0,0-4.51,18v20.23q0,12.75,4.65,21.79a32.79,32.79,0,0,0,13,13.86,38.64,38.64,0,0,0,19.57,4.79,40.4,40.4,0,0,0,13.58-2.13,29.62,29.62,0,0,0,10.54-6.31,26.23,26.23,0,0,0,6.74-10.37L1225,260a49.93,49.93,0,0,1-11.53,22.18,56.33,56.33,0,0,1-21.7,14.62Q1178.56,302,1161.57,302Z"/><path class="cls-1" d="M1364.07,191.82l-31.34,3.42a25.41,25.41,0,0,0-4.6-8.92,23.89,23.89,0,0,0-8.78-6.75,32.12,32.12,0,0,0-13.48-2.57q-10.74,0-18,4.66t-7.17,12.05a12.58,12.58,0,0,0,4.7,10.37q4.78,4,15.91,6.54l24.88,5.33q20.7,4.45,30.81,14.16c6.74,6.43,10.14,14.9,10.2,25.35a39.68,39.68,0,0,1-8,24.27q-7.92,10.49-22,16.35t-32.29,5.9q-26.76,0-43.1-11.25t-19.47-31.37l33.52-3.26q2.27,9.88,9.68,14.91t19.28,5.06q12.26,0,19.71-5.06t7.45-12.42a13.07,13.07,0,0,0-4.8-10.36q-4.79-4.09-14.85-6.27l-24.88-5.22c-14-2.89-24.35-7.84-31.06-14.77s-10-15.73-10-26.33a37.48,37.48,0,0,1,7.36-23.42c5-6.63,11.9-11.73,20.79-15.39s19.17-5.46,30.82-5.46q25.63,0,40.4,10.92T1364.07,191.82Z"/><path class="cls-1" d="M530.08,397.12v74H519.82l-37.61-54.28h-.7v54.28H470.35v-74h10.33l37.65,54.33h.7V397.12Z"/><path class="cls-1" d="M555,471.12v-74h46.39v9.6H566.14v22.54H599v9.58H566.14V461.5h35.67v9.62Z"/><path class="cls-1" d="M620.84,406.72v-9.6h57.28v9.6H655v64.4H643.9v-64.4Z"/><path class="cls-1" d="M715.65,471.12l-20.52-74h11.74l14.42,57.29H722l15-57.29h11.63l15,57.33h.69l14.38-57.33h11.78l-20.56,74H758.66l-15.58-55.44h-.58l-15.57,55.44Z"/><path class="cls-1" d="M871.73,434.12q0,11.83-4.33,20.35a31.63,31.63,0,0,1-11.88,13.07,34.31,34.31,0,0,1-34.25,0,31.73,31.73,0,0,1-11.87-13.09q-4.33-8.54-4.34-20.33t4.34-20.37a32,32,0,0,1,11.87-13.1,34.44,34.44,0,0,1,34.25,0,31.9,31.9,0,0,1,11.88,13.1Q871.73,422.24,871.73,434.12Zm-11.05,0q0-9-2.92-15.25a21.66,21.66,0,0,0-7.94-9.38,21.88,21.88,0,0,0-22.82,0,21.73,21.73,0,0,0-7.94,9.38,41.49,41.49,0,0,0,0,30.48,21.85,21.85,0,0,0,7.94,9.4,22.12,22.12,0,0,0,22.82,0,21.78,21.78,0,0,0,7.94-9.4A35.61,35.61,0,0,0,860.68,434.12Z"/><path class="cls-1" d="M894.08,471.12v-74h26.38c5.73,0,10.49,1,14.29,2.95a19.64,19.64,0,0,1,8.51,8.18,25.14,25.14,0,0,1,2.82,12.05,24.36,24.36,0,0,1-2.84,11.95,19.26,19.26,0,0,1-8.53,8c-3.8,1.9-8.56,2.87-14.29,2.87h-20V433.5h19a21.71,21.71,0,0,0,8.83-1.55,10.33,10.33,0,0,0,5-4.54,14.82,14.82,0,0,0,1.59-7.11,15.53,15.53,0,0,0-1.61-7.27,10.6,10.6,0,0,0-5-4.7,20.85,20.85,0,0,0-9-1.65h-14v64.44Zm36.53-33.39,18.28,33.39H936.18l-17.93-33.39Z"/><path class="cls-1" d="M968.41,471.12v-74h11.15v35.31h.91l31-35.31h14l-29.85,33.3,30,40.7h-13.44l-23.93-33.06-8.75,10v23Z"/></svg>