<svg id="Layer_2" data-name="Layer 2" xmlns="http://www.w3.org/2000/svg" viewBox="0 0 1523.55 643.15"><defs><style>.cls-1{fill:#fff;}</style></defs><polygon class="cls-1" points="154.78 205.09 214.9 205.09 214.9 370.05 249.84 370.05 249.84 205.09 309.95 205.09 309.95 175.56 154.78 175.56 154.78 205.09"/><path class="cls-1" d="M385.58,222.1A37.54,37.54,0,0,0,363.31,229q-9.74,6.87-13.73,19.51h-1.51V224.19H314.74V370.05h34.37V284.32a31.26,31.26,0,0,1,4.28-16.44,30,30,0,0,1,11.72-11.16,34.74,34.74,0,0,1,16.86-4,71.9,71.9,0,0,1,9.07.62,36.9,36.9,0,0,1,6.89,1.37V223.05a46.85,46.85,0,0,0-5.94-.72C389.61,222.18,387.48,222.1,385.58,222.1Z"/><path class="cls-1" d="M514.15,308.7q0,11.12-4.61,18.48a30,30,0,0,1-11.73,11.05,31.23,31.23,0,0,1-14.71,3.7c-8.24,0-14.88-2.69-20-8.16s-7.59-12.77-7.59-22V224.19H421.19v92.87q0,17.47,6.16,29.77a44.06,44.06,0,0,0,17.15,18.72q11,6.39,25.3,6.39c11,0,20.18-2.57,27.68-7.78a44,44,0,0,0,16.19-20h1.53v25.91h33.32V224.19H514.15Z"/><path class="cls-1" d="M654.55,286.87l-24.87-5.33Q618.55,279,613.77,275a12.55,12.55,0,0,1-4.7-10.36q-.09-7.38,7.17-12t18-4.66a32,32,0,0,1,13.47,2.57,23.93,23.93,0,0,1,8.79,6.75,25.41,25.41,0,0,1,4.6,8.92l31.34-3.42q-3.51-18.62-18.28-29.53t-40.41-10.92q-17.46,0-30.81,5.46t-20.79,15.39a37.46,37.46,0,0,0-7.36,23.42c-.06,10.6,3.26,19.4,10,26.33s17,11.87,31.06,14.77l24.87,5.22q10.06,2.17,14.86,6.27a13.06,13.06,0,0,1,4.8,10.36q0,7.41-7.45,12.42T633.19,347q-11.87,0-19.28-5.06T604.22,327l-33.51,3.26q3.13,20.12,19.46,31.37t43.11,11.25q18.22,0,32.29-5.9t22-16.36a39.63,39.63,0,0,0,8-24.26c-.06-10.45-3.46-18.92-10.2-25.35S668.35,289.84,654.55,286.87Z"/><path class="cls-1" d="M786.86,342.61a34.16,34.16,0,0,1-5.93.48,22,22,0,0,1-7.79-1.32,11.15,11.15,0,0,1-5.65-5q-2.15-3.64-2.14-10.58V250.77h28.77V224.19H765.35V189.26H731v34.93h-20.7v26.58H731v81.11q-.09,13.68,5.93,22.78A35.63,35.63,0,0,0,753.3,368.1a55.9,55.9,0,0,0,23.26,4A65.41,65.41,0,0,0,789,370.71a72.52,72.52,0,0,0,7.83-2.09L791,341.77C790.05,342,788.67,342.29,786.86,342.61Z"/><rect class="cls-1" x="820.92" y="175.56" width="34.37" height="194.49"/><path class="cls-1" d="M908.32,166.16a20,20,0,0,0-14.05,5.46,17.74,17.74,0,0,0,0,26.36,20.76,20.76,0,0,0,28.11,0,17.33,17.33,0,0,0,5.84-13.14,17.59,17.59,0,0,0-5.84-13.22A19.79,19.79,0,0,0,908.32,166.16Z"/><rect class="cls-1" x="891.05" y="224.19" width="34.37" height="145.86"/><path class="cls-1" d="M1065.58,228.75q-11.26-6.45-26.36-6.46-16.34,0-27.39,7.23A41.57,41.57,0,0,0,995.73,249H994V224.19H961.17V370.05h34.37V284.6q0-10.55,3.94-18a27.58,27.58,0,0,1,10.93-11.35,31.92,31.92,0,0,1,16-3.94q13.27,0,20.84,8.26t7.55,22.9v87.54h34.37V277.16q.09-17.45-6.13-29.71A43.69,43.69,0,0,0,1065.58,228.75Z"/><path class="cls-1" d="M1233.43,240a58.49,58.49,0,0,0-21.26-13.34,74.64,74.64,0,0,0-25.5-4.33q-20.91,0-36.37,9.56a64.61,64.61,0,0,0-24.08,26.57q-8.58,17.06-8.59,39.56,0,22.89,8.54,39.73a61.25,61.25,0,0,0,24.46,26q15.9,9.17,37.84,9.16,17,0,30.19-5.18a56.44,56.44,0,0,0,21.71-14.62,50.13,50.13,0,0,0,11.53-22.18l-32.09-3.62a26.36,26.36,0,0,1-6.75,10.37,29.54,29.54,0,0,1-10.54,6.31,40.3,40.3,0,0,1-13.57,2.13,38.59,38.59,0,0,1-19.57-4.79,32.87,32.87,0,0,1-13-13.86q-4.48-8.74-4.63-20.93h101.59V296q0-19.17-5.32-33.07A62.51,62.51,0,0,0,1233.43,240Zm-81.63,43.39a37.93,37.93,0,0,1,4.43-15.91,35.63,35.63,0,0,1,12.4-13.3,33.82,33.82,0,0,1,18.51-5.06,33.12,33.12,0,0,1,17.33,4.46,31.28,31.28,0,0,1,11.63,12.19,37.2,37.2,0,0,1,4.27,17.62Z"/><path class="cls-1" d="M1383.91,301q-10.11-9.7-30.82-14.16l-24.88-5.33Q1317.09,279,1312.3,275a12.58,12.58,0,0,1-4.7-10.36q-.09-7.38,7.17-12t18-4.66a32.06,32.06,0,0,1,13.48,2.57,23.93,23.93,0,0,1,8.79,6.75,25.41,25.41,0,0,1,4.6,8.92l31.34-3.42q-3.51-18.62-18.28-29.53t-40.41-10.92q-17.46,0-30.81,5.46t-20.79,15.39q-7.47,9.93-7.37,23.42c-.06,10.6,3.27,19.4,10,26.33s17,11.87,31,14.77l24.88,5.22q10.07,2.17,14.86,6.27a13.06,13.06,0,0,1,4.8,10.36q0,7.41-7.46,12.42t-19.7,5.06q-11.88,0-19.29-5.06T1302.76,327l-33.51,3.26q3.12,20.12,19.46,31.37t43.11,11.25q18.23,0,32.29-5.9t22-16.36a39.63,39.63,0,0,0,8-24.26C1394.05,315.93,1390.64,307.46,1383.91,301Z"/><path class="cls-1" d="M557,468v74H546.72l-37.61-54.28h-.69V542H497.26V468h10.32l37.66,54.33h.69V468Z"/><path class="cls-1" d="M581.89,542V468h46.39v9.6H593.05v22.54h32.81v9.58H593.05v22.66h35.66V542Z"/><path class="cls-1" d="M647.74,477.64V468H705v9.6H681.93V542H670.81v-64.4Z"/><path class="cls-1" d="M742.56,542,722,468h11.74l14.41,57.29h.7l15-57.29h11.63l15,57.33h.68L805.58,468h11.78L796.8,542H785.57L770,486.6h-.58L753.84,542Z"/><path class="cls-1" d="M898.64,505q0,11.83-4.34,20.35a31.61,31.61,0,0,1-11.87,13.07,34.31,34.31,0,0,1-34.25,0,31.73,31.73,0,0,1-11.87-13.09Q832,516.83,832,505t4.34-20.37a31.88,31.88,0,0,1,11.87-13.1,34.44,34.44,0,0,1,34.25,0,31.82,31.82,0,0,1,11.87,13.1Q898.64,493.16,898.64,505Zm-11.06,0q0-9-2.91-15.25a21.62,21.62,0,0,0-7.95-9.38,21.88,21.88,0,0,0-22.82,0,21.78,21.78,0,0,0-7.93,9.38q-2.91,6.21-2.9,15.25c0,6,1,11.09,2.9,15.22a21.86,21.86,0,0,0,7.93,9.41,22.12,22.12,0,0,0,22.82,0,21.7,21.7,0,0,0,7.95-9.41C886.62,516.13,887.58,511,887.58,505Z"/><path class="cls-1" d="M921,542V468h26.37c5.74,0,10.5,1,14.29,2.95a19.64,19.64,0,0,1,8.51,8.18A25,25,0,0,1,973,491.22a24.25,24.25,0,0,1-2.84,11.95,19.19,19.19,0,0,1-8.53,8c-3.79,1.91-8.55,2.88-14.29,2.88h-20v-9.62h19a21.74,21.74,0,0,0,8.83-1.55,10.37,10.37,0,0,0,5-4.54,14.93,14.93,0,0,0,1.58-7.11,15.65,15.65,0,0,0-1.6-7.27,10.64,10.64,0,0,0-5-4.7,20.88,20.88,0,0,0-9-1.65h-14V542Zm36.53-33.39L975.8,542H963.08l-17.93-33.39Z"/><path class="cls-1" d="M995.31,542V468h11.16v35.31h.9L1038.42,468h14l-29.85,33.3,30,40.7h-13.44L1015.22,509l-8.75,10v23Z"/></svg>