<svg id="Layer_2" data-name="Layer 2" xmlns="http://www.w3.org/2000/svg" viewBox="0 0 1523.55 643.15"><defs><style>.cls-1{fill:#12121f;}</style></defs><polygon class="cls-1" points="171.76 205.09 231.88 205.09 231.88 370.05 266.82 370.05 266.82 205.09 326.93 205.09 326.93 175.56 171.76 175.56 171.76 205.09"/><path class="cls-1" d="M402.56,222.1A37.54,37.54,0,0,0,380.29,229q-9.75,6.87-13.73,19.51h-1.51V224.19H331.72V370.05h34.37V284.32a31.26,31.26,0,0,1,4.28-16.44,30,30,0,0,1,11.72-11.16,34.72,34.72,0,0,1,16.85-4,71.65,71.65,0,0,1,9.07.62,36.54,36.54,0,0,1,6.89,1.37V223.05a46.44,46.44,0,0,0-5.93-.72C406.59,222.18,404.46,222.1,402.56,222.1Z"/><path class="cls-1" d="M531.13,308.7q0,11.12-4.61,18.48a30,30,0,0,1-11.73,11.05,31.23,31.23,0,0,1-14.71,3.7c-8.24,0-14.88-2.69-19.95-8.16s-7.59-12.77-7.59-22V224.19H438.17v92.87q0,17.47,6.16,29.77a44.06,44.06,0,0,0,17.15,18.72q11,6.39,25.3,6.39c11,0,20.18-2.57,27.68-7.78a44.11,44.11,0,0,0,16.19-20h1.53v25.91H565.5V224.19H531.13Z"/><path class="cls-1" d="M671.53,286.87l-24.88-5.33Q635.54,279,630.75,275A12.56,12.56,0,0,1,626,264.63q-.09-7.38,7.18-12t18-4.66a32.06,32.06,0,0,1,13.48,2.57,23.93,23.93,0,0,1,8.79,6.75,25.41,25.41,0,0,1,4.6,8.92l31.34-3.42q-3.51-18.62-18.28-29.53t-40.41-10.92q-17.46,0-30.81,5.46t-20.79,15.39a37.46,37.46,0,0,0-7.36,23.42c-.06,10.6,3.26,19.4,10,26.33s17,11.87,31,14.77l24.88,5.22q10.07,2.17,14.86,6.27a13.06,13.06,0,0,1,4.8,10.36q0,7.41-7.45,12.42T650.17,347q-11.86,0-19.28-5.06T621.2,327l-33.51,3.26q3.13,20.12,19.46,31.37t43.11,11.25q18.22,0,32.29-5.9t22-16.36a39.63,39.63,0,0,0,8-24.26c-.06-10.45-3.46-18.92-10.2-25.35S685.33,289.84,671.53,286.87Z"/><path class="cls-1" d="M803.84,342.61a34.19,34.19,0,0,1-5.94.48,21.94,21.94,0,0,1-7.78-1.32,11.15,11.15,0,0,1-5.65-5q-2.15-3.64-2.14-10.58V250.77H811.1V224.19H782.33V189.26H748v34.93h-20.7v26.58H748v81.11c-.06,9.12,1.9,16.72,5.93,22.78a35.6,35.6,0,0,0,16.38,13.44,56,56,0,0,0,23.27,4,65.51,65.51,0,0,0,12.39-1.35,73.17,73.17,0,0,0,7.83-2.09L808,341.77C807,342,805.65,342.29,803.84,342.61Z"/><rect class="cls-1" x="837.9" y="175.56" width="34.37" height="194.49"/><path class="cls-1" d="M925.3,166.16a20,20,0,0,0-14,5.46,17.74,17.74,0,0,0,0,26.36,20.76,20.76,0,0,0,28.11,0,17.33,17.33,0,0,0,5.84-13.14,17.59,17.59,0,0,0-5.84-13.22A19.81,19.81,0,0,0,925.3,166.16Z"/><rect class="cls-1" x="908.02" y="224.19" width="34.37" height="145.86"/><path class="cls-1" d="M1082.56,228.75q-11.26-6.45-26.36-6.46-16.34,0-27.39,7.23a41.57,41.57,0,0,0-16.1,19.44H1011V224.19H978.15V370.05h34.37V284.6q0-10.55,3.94-18a27.58,27.58,0,0,1,10.93-11.35,31.92,31.92,0,0,1,16-3.94q13.27,0,20.84,8.26t7.55,22.9v87.54h34.37V277.16q.09-17.45-6.13-29.71A43.75,43.75,0,0,0,1082.56,228.75Z"/><path class="cls-1" d="M1250.41,240a58.49,58.49,0,0,0-21.26-13.34,74.66,74.66,0,0,0-25.51-4.33q-20.9,0-36.36,9.56a64.61,64.61,0,0,0-24.08,26.57q-8.58,17.06-8.59,39.56,0,22.89,8.54,39.73a61.25,61.25,0,0,0,24.46,26q15.9,9.17,37.84,9.16,17,0,30.19-5.18a56.44,56.44,0,0,0,21.71-14.62,50.13,50.13,0,0,0,11.53-22.18l-32.09-3.62a26.36,26.36,0,0,1-6.75,10.37A29.54,29.54,0,0,1,1219.5,344a40.32,40.32,0,0,1-13.58,2.13,38.58,38.58,0,0,1-19.56-4.79,32.81,32.81,0,0,1-13-13.86q-4.49-8.74-4.63-20.93H1270.3V296q0-19.17-5.31-33.07A62.64,62.64,0,0,0,1250.41,240Zm-81.63,43.39a37.93,37.93,0,0,1,4.43-15.91,35.55,35.55,0,0,1,12.4-13.3,33.82,33.82,0,0,1,18.51-5.06,33.12,33.12,0,0,1,17.33,4.46,31.28,31.28,0,0,1,11.63,12.19,37.32,37.32,0,0,1,4.27,17.62Z"/><path class="cls-1" d="M1400.88,301q-10.11-9.7-30.81-14.16l-24.88-5.33q-11.12-2.55-15.91-6.55a12.58,12.58,0,0,1-4.7-10.36q-.09-7.38,7.17-12t18-4.66a32.12,32.12,0,0,1,13.48,2.57,23.93,23.93,0,0,1,8.79,6.75,25.57,25.57,0,0,1,4.6,8.92l31.34-3.42q-3.53-18.62-18.28-29.53t-40.41-10.92q-17.46,0-30.82,5.46t-20.79,15.39a37.46,37.46,0,0,0-7.36,23.42c-.06,10.6,3.27,19.4,10,26.33s17,11.87,31,14.77l24.88,5.22q10.07,2.17,14.85,6.27a13,13,0,0,1,4.81,10.36c0,4.94-2.5,9.08-7.46,12.42s-11.54,5.06-19.7,5.06q-11.88,0-19.29-5.06T1319.74,327l-33.52,3.26q3.13,20.12,19.47,31.37t43.11,11.25q18.23,0,32.29-5.9t22-16.36a39.58,39.58,0,0,0,8-24.26C1411,315.93,1407.62,307.46,1400.88,301Z"/><path class="cls-1" d="M573.5,468v74H563.23l-37.61-54.28h-.7V542H513.77V468h10.32l37.65,54.33h.7V468Z"/><path class="cls-1" d="M598.39,542V468h46.4v9.6H609.55v22.54h32.82v9.58H609.55v22.66h35.67V542Z"/><path class="cls-1" d="M664.25,477.64V468h57.28v9.6H698.44V542H687.31v-64.4Z"/><path class="cls-1" d="M759.07,542l-20.52-74h11.74l14.41,57.29h.69l15-57.29H792l15,57.33h.69L822.09,468h11.78l-20.56,74H802.07L786.49,486.6h-.58L770.34,542Z"/><path class="cls-1" d="M915.15,505q0,11.83-4.34,20.35a31.68,31.68,0,0,1-11.87,13.07,34.31,34.31,0,0,1-34.25,0,31.75,31.75,0,0,1-11.88-13.09q-4.34-8.54-4.33-20.33t4.33-20.37a31.91,31.91,0,0,1,11.88-13.1,34.44,34.44,0,0,1,34.25,0,31.88,31.88,0,0,1,11.87,13.1Q915.15,493.16,915.15,505Zm-11.06,0q0-9-2.92-15.25a21.6,21.6,0,0,0-7.94-9.38,21.88,21.88,0,0,0-22.82,0,21.71,21.71,0,0,0-7.93,9.38,41.34,41.34,0,0,0,0,30.47,21.8,21.8,0,0,0,7.93,9.41,22.12,22.12,0,0,0,22.82,0,21.68,21.68,0,0,0,7.94-9.41C903.12,516.13,904.09,511,904.09,505Z"/><path class="cls-1" d="M937.49,542V468h26.38c5.73,0,10.49,1,14.29,2.95a19.64,19.64,0,0,1,8.51,8.18,25,25,0,0,1,2.82,12.05,24.25,24.25,0,0,1-2.84,11.95,19.19,19.19,0,0,1-8.53,8c-3.8,1.91-8.56,2.88-14.29,2.88h-20v-9.62h19a21.71,21.71,0,0,0,8.83-1.55,10.33,10.33,0,0,0,5-4.54,14.82,14.82,0,0,0,1.59-7.11,15.53,15.53,0,0,0-1.61-7.27,10.6,10.6,0,0,0-5-4.7,20.85,20.85,0,0,0-9-1.65h-14V542ZM974,508.65,992.3,542H979.59l-17.93-33.39Z"/><path class="cls-1" d="M1011.82,542V468H1023v35.31h.9L1054.93,468h14l-29.85,33.3,30,40.7h-13.44L1031.72,509,1023,519v23Z"/></svg>