<?xml version="1.0" encoding="utf-8"?>
<!-- Generator: Adobe Illustrator 23.0.4, SVG Export Plug-In . SVG Version: 6.00 Build 0)  -->
<svg version="1.1" id="Layer_10" xmlns="http://www.w3.org/2000/svg" xmlns:xlink="http://www.w3.org/1999/xlink" x="0px" y="0px"
	 viewBox="0 0 1000 1190" style="enable-background:new 0 0 1000 1190;" xml:space="preserve">
<style type="text/css">
	.st0{fill:#FFFFFF;}
	.st1{fill:#646464;}
	.st2{fill:#E1E1E1;}
	.st3{fill:url(#SVGID_1_);}
	.st4{fill:#F05C56;}
	.st5{fill:url(#SVGID_2_);}
	.st6{fill:url(#SVGID_3_);}
	.st7{fill:url(#SVGID_4_);}
</style>
<path class="st1" d="M881.01,412.92c0,3.34-0.04,6.64-0.12,9.81c-0.09,3.34-0.21,6.62-0.37,9.75c-0.16,3.18-0.36,6.43-0.61,9.69
	c-0.23,3.08-0.51,6.23-0.85,9.62c-0.34,3.36-0.7,6.48-1.09,9.55c-0.44,3.43-0.88,6.52-1.32,9.44c0,0.01,0,0.03-0.01,0.04
	c-0.46,3.02-0.98,6.19-1.55,9.4c-0.57,3.18-1.17,6.29-1.78,9.27c0,0.02-0.01,0.03-0.01,0.05c-0.61,2.99-1.29,6.1-2.01,9.23
	c-0.76,3.29-1.49,6.28-2.24,9.16c-0.78,3.03-1.6,6.08-2.45,9.06c-0.83,2.9-1.72,5.92-2.67,8.97c-0.9,2.89-1.87,5.87-2.88,8.88
	c-1,2.96-2.05,5.92-3.1,8.79c-1.08,2.94-2.19,5.86-3.3,8.68c-2.23,5.64-4.64,11.35-7.18,16.97c-0.01,0.03-0.02,0.06-0.04,0.09
	c-2.47,5.46-5.15,11.03-7.96,16.54c-0.01,0.03-0.03,0.06-0.04,0.09c-5.56,10.86-11.72,21.57-18.31,31.83
	c-8.19,12.76-17.24,25.19-26.92,36.92c-1.91,2.32-3.89,4.66-5.9,6.97c-3.95,4.57-8.08,9.11-12.27,13.5c-1.92,2.02-4,4.15-6.37,6.53
	c-2.12,2.12-4.32,4.27-6.53,6.38c-2.34,2.22-4.49,4.23-6.58,6.13c-0.03,0.03-0.06,0.06-0.09,0.09c-2.29,2.08-4.59,4.12-6.82,6.05
	c-0.02,0.02-0.04,0.04-0.06,0.05c-11.41,9.89-23.58,19.22-36.18,27.73c-2.62,1.77-5.19,3.46-7.65,5.03
	c-10.26,6.58-20.97,12.74-31.83,18.31c-5.47,2.8-11.06,5.49-16.62,8.01c-2.46,1.12-5.07,2.26-8.47,3.71
	c-3.04,1.28-5.85,2.43-8.59,3.51c-2.65,1.05-5.49,2.13-8.68,3.3c-2.99,1.09-5.95,2.13-8.78,3.09c-2.97,1-5.96,1.97-8.88,2.89
	c-3.24,1-6.18,1.87-8.98,2.66c-3.06,0.87-6.11,1.7-9.06,2.46c-3.22,0.83-6.22,1.56-9.16,2.23c-2.74,0.64-5.67,1.28-9.24,2.01
	c-2.83,0.58-5.88,1.17-9.32,1.79c-3.09,0.55-6.26,1.07-9.4,1.56c-0.01,0-0.03,0-0.04,0.01c-2.96,0.45-6.05,0.89-9.43,1.32
	c-3.5,0.44-6.62,0.79-9.55,1.09c-3.31,0.33-6.54,0.62-9.62,0.86c-3.45,0.26-6.62,0.46-9.68,0.61c-3.18,0.16-6.46,0.29-9.75,0.37
	c-3.16,0.08-6.46,0.12-9.81,0.12c-3.36,0-6.66-0.04-9.81-0.12c-3.27-0.09-6.56-0.21-9.75-0.37c-3.07-0.15-6.24-0.35-9.68-0.61
	c-3.09-0.24-6.33-0.52-9.62-0.86c-2.94-0.3-6.06-0.65-9.54-1.09c-3.4-0.44-6.5-0.87-9.48-1.33c-3.1-0.48-6.26-1-9.4-1.55
	c-3.45-0.62-6.49-1.21-9.32-1.79c-3.2-0.65-6.31-1.33-9.24-2.01c-2.91-0.67-5.99-1.42-9.15-2.23c-2.98-0.77-6.03-1.6-9.07-2.46
	c-2.83-0.8-5.75-1.67-8.9-2.64c-0.03-0.01-0.06-0.02-0.08-0.02c-2.94-0.92-5.92-1.89-8.87-2.88c-2.86-0.97-5.81-2.01-8.78-3.09
	c-3.21-1.18-6.05-2.26-8.69-3.3c-2.75-1.08-5.56-2.23-8.58-3.5c-3.41-1.45-6.02-2.6-8.48-3.72c-2.82-1.27-5.63-2.58-8.36-3.9
	c-0.04-0.02-0.08-0.04-0.12-0.07c-2.7-1.3-5.43-2.65-8.13-4.04c-5.23-2.67-10.67-5.62-16.16-8.77c-0.04-0.02-0.08-0.05-0.12-0.08
	c-5.33-3.07-10.54-6.24-15.5-9.42c-0.02-0.01-0.04-0.03-0.06-0.04c-12.78-8.19-25.2-17.25-36.92-26.92
	c-2.39-1.97-4.73-3.95-6.97-5.89c-11.43-9.9-22.41-20.61-32.62-31.84c-0.03-0.03-0.05-0.06-0.08-0.09
	c-2.01-2.21-4.02-4.48-5.97-6.74c-11.92-13.76-22.96-28.52-32.82-43.89c-1.65-2.57-3.28-5.18-4.85-7.77
	c-0.02-0.03-0.03-0.05-0.04-0.08c-4.75-7.82-9.26-15.88-13.41-23.98c-0.02-0.03-0.03-0.06-0.04-0.09
	c-2.79-5.45-5.48-11.01-7.97-16.53c-0.01-0.03-0.03-0.06-0.04-0.09c-2.57-5.69-4.98-11.4-7.18-16.97c-1.12-2.84-2.23-5.76-3.3-8.68
	c-1.07-2.92-2.11-5.88-3.1-8.79c-1.07-3.17-2.01-6.07-2.88-8.88c-0.95-3.08-1.85-6.1-2.67-8.98c-0.8-2.82-1.61-5.79-2.46-9.06
	c-0.83-3.24-1.56-6.24-2.23-9.16c-0.73-3.16-1.4-6.27-2.01-9.23c0-0.02-0.01-0.03-0.01-0.05c-0.61-2.96-1.2-6.08-1.78-9.26
	c-0.54-2.98-1.04-6.05-1.56-9.4c0-0.02-0.01-0.03-0.01-0.05c-0.45-2.99-0.89-6.08-1.32-9.43c-0.39-3.05-0.75-6.26-1.09-9.55
	c-0.32-3.17-0.61-6.41-0.86-9.62c-0.26-3.42-0.46-6.59-0.61-9.69c-0.16-3.2-0.29-6.48-0.37-9.74c-0.08-3.11-0.12-6.32-0.12-9.81
	c0-3.49,0.04-6.71,0.12-9.81c0.09-3.26,0.21-6.54,0.37-9.74c0.15-3.08,0.36-6.34,0.61-9.69c0.25-3.24,0.53-6.48,0.86-9.62
	c0.33-3.28,0.7-6.5,1.09-9.55c0.44-3.39,0.87-6.47,1.32-9.43c0-0.01,0-0.03,0.01-0.04c0.49-3.21,1.01-6.38,1.56-9.4
	c0.57-3.17,1.17-6.3,1.79-9.32c0.62-3.01,1.29-6.12,2.01-9.24c0.68-2.95,1.41-5.94,2.23-9.15c0.84-3.25,1.65-6.22,2.46-9.07
	c0.82-2.88,1.71-5.9,2.67-8.97c0.88-2.83,1.85-5.81,2.88-8.88c0.99-2.91,2.03-5.87,3.1-8.79c1.06-2.89,2.17-5.81,3.3-8.69
	c1.07-2.72,2.21-5.52,3.5-8.58c0.01-0.03,0.03-0.07,0.05-0.1c1.17-2.76,2.4-5.58,3.66-8.38c1.29-2.85,2.61-5.66,3.91-8.36
	c1.29-2.68,2.67-5.46,4.11-8.25c2.76-5.39,5.71-10.83,8.78-16.16c1.45-2.53,3.01-5.16,4.64-7.84c0.01-0.02,0.02-0.04,0.04-0.06
	c1.55-2.56,3.18-5.17,4.85-7.77c8.19-12.78,17.25-25.2,26.92-36.92c0.02-0.02,0.04-0.05,0.06-0.07c2.09-2.52,4-4.78,5.83-6.9
	c2.04-2.35,4.07-4.64,6.05-6.83c8.17-8.98,16.85-17.66,25.79-25.79c2.29-2.08,4.59-4.12,6.83-6.05c2.17-1.88,4.45-3.81,6.97-5.89
	c11.74-9.69,24.16-18.75,36.92-26.93c0.02-0.01,0.04-0.03,0.06-0.04c2.45-1.57,5.05-3.19,7.71-4.81c0.02-0.01,0.04-0.03,0.06-0.04
	c2.65-1.61,5.29-3.17,7.84-4.63c5.42-3.11,10.86-6.07,16.16-8.79c2.63-1.34,5.41-2.72,8.25-4.1c2.68-1.29,5.49-2.61,8.36-3.91
	c2.78-1.26,5.6-2.49,8.39-3.67c0.03-0.02,0.06-0.03,0.09-0.04c2.73-1.15,5.54-2.3,8.58-3.5c3.04-1.19,5.88-2.27,8.69-3.3
	c2.84-1.04,5.79-2.08,8.78-3.1c3.21-1.08,6.11-2.02,8.88-2.88c0.03-0.01,0.06-0.02,0.08-0.02c3.1-0.96,6.01-1.83,8.9-2.65
	c2.94-0.84,5.99-1.66,9.06-2.45c3.08-0.79,6.15-1.54,9.15-2.23c3.01-0.7,6.12-1.37,9.24-2.01c3.02-0.62,6.16-1.22,9.32-1.79
	c2.83-0.51,5.91-1.02,9.4-1.56c3.16-0.48,6.34-0.93,9.48-1.33c3.2-0.4,6.41-0.77,9.55-1.09c3.33-0.34,6.57-0.62,9.62-0.86
	c3.28-0.25,6.54-0.45,9.68-0.61c3.14-0.16,6.42-0.29,9.75-0.37c3.13-0.08,6.34-0.12,9.81-0.12c9.77,0,19.6,0.37,29.22,1.11
	c3.76,0.3,6.78,0.57,9.55,0.85l0.21,0.02c3.02,0.3,6.17,0.66,9.37,1.06c0.02,0,0.17,0.03,0.19,0.03c3.14,0.4,6.25,0.84,9.18,1.29
	l0.31,0.05c3.03,0.46,6.1,0.97,9.11,1.51l0.28,0.05c3.39,0.61,6.33,1.18,9.01,1.73l0.32,0.06c3.19,0.66,6.12,1.3,8.97,1.95
	l0.24,0.06c6.81,1.58,13.91,3.44,21.09,5.54c0.55,0.16,0.96,0.63,1.04,1.19c0.08,0.57-0.17,1.13-0.65,1.44
	c-9.67,6.35-15.01,5.14-25.65,2.73c-26.71-6.05-54.22-9.11-81.8-9.11c-98.44,0-191.01,38.35-260.64,107.98
	S132.22,314.48,132.22,412.92c0,98.44,38.35,191,107.98,260.63s162.19,107.98,260.64,107.98c98.44,0,191-38.35,260.63-107.98
	c69.63-69.63,107.98-162.19,107.98-260.63c0-51.35-10.36-101.05-30.8-147.71c-19.74-45.07-47.91-85.21-83.71-119.3l-1.62-1.53
	c-6.25-5.87-9.1-8.55-8.02-19.56c0.05-0.54,0.4-1.01,0.91-1.22c0.51-0.2,1.09-0.11,1.5,0.25c5.37,4.6,10.53,9.25,15.34,13.82
	c0.03,0.03,0.08,0.08,0.11,0.11c2.09,1.98,4.13,3.97,6.14,5.98l0.87,0.87c1.88,1.89,3.74,3.79,5.58,5.71l0.74,0.78
	c1.86,1.95,3.69,3.93,5.51,5.92l0.7,0.77c1.82,2.01,3.63,4.06,5.42,6.11l0.55,0.64c1.83,2.11,3.64,4.25,5.43,6.42l0.35,0.42
	c1.81,2.19,3.59,4.41,5.35,6.64l0.46,0.6c1.74,2.22,3.46,4.47,5.16,6.73l0.25,0.33c1.73,2.33,3.44,4.66,5.12,7.03
	c0.04,0.05,0.08,0.1,0.11,0.15l0.1,0.14c1.54,2.15,3.16,4.49,4.95,7.13l0.19,0.28c1.65,2.44,3.27,4.91,4.86,7.38l0.17,0.27
	c1.54,2.41,3.06,4.84,4.56,7.29l0.36,0.59c1.46,2.41,2.89,4.83,4.3,7.28l0.38,0.65c1.39,2.41,2.74,4.84,4.07,7.28l0.45,0.81
	c1.33,2.45,2.62,4.9,3.89,7.37l0.4,0.78c1.26,2.46,2.49,4.94,3.7,7.44l0.42,0.86c1.19,2.48,2.36,4.97,3.49,7.48l0.42,0.93
	c1.12,2.48,2.21,4.98,3.28,7.48l0.46,1.1c1.02,2.41,2.06,4.95,3.08,7.54l0.41,1.02c1,2.54,1.96,5.09,2.9,7.64l0.41,1.12
	c0.92,2.54,1.82,5.09,2.69,7.64l0.4,1.18c0.81,2.39,1.64,4.94,2.53,7.77l0.34,1.1c0.81,2.6,1.59,5.24,2.35,7.87l0.32,1.14
	c0.75,2.65,1.47,5.31,2.16,7.99l0.27,1.05c0.68,2.68,1.34,5.37,1.97,8.07l0.26,1.16c0.62,2.69,1.21,5.39,1.77,8.1l0.23,1.16
	c0.55,2.74,1.09,5.48,1.59,8.24l0.18,1.05c0.49,2.78,0.95,5.56,1.39,8.37l0.15,1.03c0.42,2.77,0.82,5.64,1.19,8.52l0.11,0.88
	c0.36,2.9,0.7,5.81,1,8.72l0.07,0.76c0.31,3.18,0.57,6.1,0.79,8.92l0.04,0.61c0.24,3.19,0.43,6.18,0.58,9.11l0.03,0.51
	c0.16,3.05,0.27,6.18,0.35,9.31l0.01,0.26C880.97,406.41,881.01,409.65,881.01,412.92z M796.24,443.96l-5.53,58.63
	c0,0.05-0.03,0.09-0.03,0.14c-0.01,0.08,0,0.15-0.02,0.23c-0.04,0.21-0.11,0.4-0.17,0.59c-0.02,0.07-0.03,0.14-0.06,0.2
	c-0.13,0.33-0.29,0.63-0.48,0.91c-0.05,0.07-0.1,0.12-0.15,0.19c-0.16,0.21-0.34,0.41-0.54,0.58c-0.08,0.07-0.16,0.14-0.24,0.2
	c-0.24,0.18-0.49,0.34-0.75,0.48c-0.04,0.02-0.06,0.05-0.1,0.06l-56.93,26.14c-0.59,0.27-1.22,0.4-1.84,0.4
	c-1.37,0-2.7-0.64-3.56-1.8l-29.69-40.59l-210.22-38.06l-24.38,242.66c0,0.05-0.02,0.09-0.03,0.13c0,0.02-0.01,0.04-0.01,0.06
	c-0.03,0.21-0.08,0.41-0.14,0.62c-0.02,0.08-0.04,0.17-0.07,0.25c-0.01,0.02-0.02,0.05-0.03,0.07c-0.07,0.19-0.16,0.36-0.26,0.54
	c-0.04,0.08-0.07,0.16-0.11,0.23c-0.01,0.02-0.03,0.03-0.04,0.05c-0.01,0.01-0.02,0.02-0.02,0.03c-0.02,0.03-0.03,0.07-0.06,0.1
	c-0.07,0.1-0.16,0.16-0.23,0.25c-0.08,0.1-0.15,0.21-0.24,0.3c-0.04,0.04-0.09,0.08-0.14,0.12c-0.13,0.13-0.28,0.23-0.43,0.34
	c-0.06,0.04-0.11,0.1-0.18,0.14c-0.04,0.03-0.07,0.06-0.12,0.09c-0.04,0.02-0.08,0.04-0.13,0.06c-0.08,0.05-0.17,0.1-0.25,0.14
	c-0.04,0.02-0.07,0.04-0.11,0.06c-0.14,0.06-0.28,0.09-0.41,0.13c-0.03,0.01-0.06,0.02-0.09,0.03c-0.15,0.05-0.3,0.09-0.45,0.12
	c-0.28,0.06-0.55,0.1-0.83,0.1c-0.01,0-0.01,0-0.02,0c-0.29,0-0.58-0.04-0.87-0.1c-0.02-0.01-0.05-0.01-0.07-0.02c0,0-0.01,0-0.01,0
	c-0.18-0.04-0.37-0.09-0.54-0.16c-0.04-0.02-0.09-0.02-0.13-0.04l-208.96-84.26c-1.12-0.45-2-1.34-2.44-2.46
	c-0.45-1.12-0.41-2.37,0.09-3.47l20.17-43.88l-56.59-39.73c-1.92-1.35-2.45-3.96-1.2-5.95l29.71-47.24l-46.38-63.46
	c-0.05-0.06-0.07-0.13-0.12-0.2c-0.01-0.02-0.02-0.03-0.04-0.05c-0.06-0.09-0.11-0.19-0.16-0.28c-0.08-0.15-0.15-0.3-0.21-0.45
	c0-0.01-0.01-0.02-0.01-0.02c-0.03-0.07-0.05-0.15-0.07-0.23c-0.06-0.19-0.12-0.38-0.15-0.58c0-0.01,0-0.01,0-0.02
	c-0.01-0.05-0.01-0.11-0.02-0.16c-0.03-0.22-0.05-0.44-0.05-0.66c0-0.01,0-0.01,0-0.02c0-0.03,0.01-0.07,0.01-0.1
	c0.01-0.19,0.01-0.37,0.04-0.56c0-0.02,0-0.03,0-0.05c0.01-0.07,0.03-0.15,0.06-0.26c0.01-0.05,0.03-0.1,0.04-0.15
	c0.02-0.08,0.05-0.18,0.08-0.28c0-0.01,0.01-0.02,0.01-0.03c2.75-9.12,33.16-87.13,42.7-111.53c0.62-1.59,2.1-2.67,3.8-2.79
	l46.17-3.14c7.99-20.75,15.43-40,16.08-41.69c0.62-1.6,2.11-2.7,3.82-2.81l56.63-3.65c11.6-25.4,21.57-46.91,21.7-47.19
	c0.68-1.47,2.11-2.45,3.73-2.54l48.95-2.95l16.73-42.11c0.03-0.06,0.07-0.12,0.1-0.18c0.01-0.03,0.02-0.06,0.04-0.08
	c0.05-0.1,0.08-0.2,0.13-0.29c0.05-0.08,0.11-0.15,0.16-0.23c0.06-0.09,0.12-0.18,0.18-0.26c0.05-0.07,0.1-0.14,0.15-0.21
	c0.07-0.08,0.16-0.15,0.24-0.23c0.02-0.02,0.04-0.04,0.06-0.06c0.07-0.07,0.14-0.15,0.22-0.21c0.04-0.04,0.08-0.07,0.12-0.11
	c0.01-0.01,0.02-0.02,0.02-0.02c0.12-0.09,0.24-0.15,0.36-0.22c0.04-0.03,0.08-0.06,0.13-0.08c0.06-0.04,0.11-0.08,0.18-0.11
	c0.01,0,0.02-0.01,0.03-0.02l0.06-0.03c0,0,0.01,0,0.01,0l44.79-22.32c1.17-0.59,2.55-0.62,3.75-0.09c1.2,0.53,2.1,1.57,2.46,2.83
	l21.35,75.76L743.88,8.41c1.65-1.42,4.11-1.42,5.76,0.01c1.65,1.43,2,3.85,0.83,5.7L592.5,261.8l202.26,178.45
	c0.01,0.01,0.01,0.01,0.02,0.02c0.24,0.21,0.46,0.46,0.65,0.72c0.05,0.07,0.09,0.16,0.14,0.23c0.1,0.16,0.21,0.31,0.29,0.49
	c0.02,0.04,0.03,0.08,0.04,0.12c0.05,0.11,0.08,0.23,0.12,0.34c0.07,0.2,0.12,0.4,0.16,0.6c0.02,0.11,0.03,0.23,0.04,0.34
	c0.02,0.22,0.03,0.43,0.02,0.65C796.23,443.83,796.24,443.89,796.24,443.96z M528.53,205.36l57.29,50.54L726.97,34.58L528.53,205.36
	z M483.87,177.71l83.8,110.54c0.02,0.02,0.03,0.05,0.04,0.07c0.16,0.21,0.3,0.44,0.42,0.68c0.01,0.02,0.01,0.04,0.02,0.06
	c0.08,0.18,0.16,0.36,0.22,0.56l14.74,48.25l47.01-31.13L483.87,177.71z M579.78,350.66L539.1,377.6l137.58,89.24L579.78,350.66z
	 M560.83,295.06l-31.29-2.48l42.22,38.24L560.83,295.06z M461.57,146.28l51.97,45.85l-17.73-62.91L461.57,146.28z M440.81,189.75
	l91.95,181.48l40.72-26.97l-59.43-53.83c-1.4-1.27-1.83-3.28-1.09-5.01c0.75-1.73,2.51-2.79,4.39-2.64l37.37,2.97l-99.76-131.6
	L440.81,189.75z M399.36,342.28l75.43,89.4l-39.68-221.61L399.36,342.28z M363.71,248.32l59.84-53.19l-36.42,2.2
	C383.93,204.25,374.2,225.3,363.71,248.32z M353.98,268.75C353.98,268.75,353.98,268.75,353.98,268.75l-27.76,24.68l65.62,42.92
	l36.05-133.29L353.98,268.75z M234.52,454.24l70.44-141.91l-105.57,93.84L234.52,454.24z M247.42,448.07l72.45-54.28l-4.39-82.84
	L247.42,448.07z M343.1,602.79l-22.4-198.62l-79.33,59.44L343.1,602.79z M328.35,387.43l58.48-43.82l-62.99-41.2L328.35,387.43z
	 M329.84,397.32l66.47,149.47l-5.94-194.82L329.84,397.32z M276.28,326.04l39.84-35.41c0,0,0.01-0.01,0.01-0.01l31.37-27.89
	c2.29-5.06,4.61-10.17,6.91-15.22l-49.11,3.16C296.89,272.44,283.95,305.99,276.28,326.04z M203.51,390.72l58.56-52.05
	c1.87-5.09,9.01-23.7,16.45-43.03l-39.3,2.67C227.43,328.49,211.82,368.75,203.51,390.72z M330.05,599.86l-88.16-120.62
	l-25.62,40.73L330.05,599.86z M423.27,676.07L271.7,569.66l-17.56,38.21L423.27,676.07z M446.68,681.74l-49.3-110.86
	c0-0.01-0.01-0.01-0.01-0.02L331.7,423.19l21.78,193.13L446.68,681.74z M475.85,464.39L406.4,569.48l48.05,108.05L475.85,464.39z
	 M476.53,447.4l-77.24-91.54l6.08,199.19L476.53,447.4z M525.94,377.26L445.6,218.69l38.89,217.24L525.94,377.26z M677.78,478.05
	l-145.56-94.42l-42.62,60.34L677.78,478.05z M686.81,465.24l-51.78-151.18l-47.87,31.7L686.81,465.24z M701.3,480.34l82.57-37.97
	L646.91,321.54L701.3,480.34z M771.76,504.02l-63.04-11.41l22.1,30.21L771.76,504.02z M786.75,450.74l-73.4,33.75l69.04,12.5
	L786.75,450.74z M52.39,904.22v146.33h27.44V904.22h47.39v-23.49H5v23.49H52.39z M160.27,1050.55v-61.11
	c0-11.64,2.39-20.96,7.17-27.96c4.78-7,11.67-10.5,20.68-10.5c5.12,0,10.32,0.83,15.59,2.49v-23.9c-4.02-1.8-9.22-2.7-15.59-2.7
	c-6.79,0-12.65,1.66-17.56,4.99c-4.92,3.33-8.7,7.21-11.33,11.64v-12.89h-25.36v119.93H160.27z M219.71,1030.39
	c2.49,6.51,5.82,11.4,9.98,14.65c4.16,3.26,8.42,5.61,12.78,7.07c4.36,1.45,8.97,2.18,13.82,2.18c8.17,0,15-1.87,20.47-5.61
	c5.47-3.74,9.18-7.76,11.12-12.06h0.21v13.93h25.36V930.62h-26.19v67.14c0,9.29-2.22,17.29-6.65,24.01
	c-4.44,6.72-10.6,10.08-18.5,10.08c-13.17,0-19.75-9.35-19.75-28.06v-73.16h-26.4v76.49
	C215.97,1016.12,217.22,1023.88,219.71,1030.39z M354.09,1046.6c9.07,5.12,19.43,7.69,31.07,7.69c15.1,0,26.78-3.43,35.02-10.29
	c8.24-6.86,12.37-15.21,12.37-25.05c0-15.93-12.33-27.85-37-35.75c-0.7-0.28-1.8-0.62-3.33-1.04c-5.82-1.94-10.33-3.53-13.51-4.78
	c-3.19-1.25-6.27-3.22-9.25-5.92c-2.98-2.7-4.47-5.78-4.47-9.25c0-4.16,1.7-7.52,5.09-10.08c3.39-2.56,8.28-3.85,14.65-3.85
	c11.64,0,21.54,5.61,29.72,16.84l17.46-10.6c-4.3-8.03-10.81-14.65-19.54-19.85c-8.73-5.2-18.02-7.79-27.85-7.79
	c-13.17,0-24.18,3.19-33.05,9.56c-8.87,6.38-13.3,14.83-13.3,25.36c0,5.4,0.97,10.15,2.91,14.24c1.94,4.09,4.78,7.48,8.52,10.18
	s7.31,4.85,10.7,6.44c3.39,1.59,7.59,3.22,12.58,4.88c0.55,0.14,1.45,0.42,2.7,0.83c6.93,2.22,12.12,3.99,15.59,5.3
	c3.46,1.32,6.75,3.29,9.87,5.92c3.12,2.63,4.68,5.68,4.68,9.15c0,4.3-1.91,7.73-5.72,10.29c-3.81,2.57-8.97,3.85-15.48,3.85
	c-13.3,0-24.11-6.1-32.42-18.29l-18.91,11.02C338.05,1034.48,345.01,1041.48,354.09,1046.6z M461.03,935.19v78.78
	c0,24.39,12.26,36.58,36.79,36.58h17.04v-22.45h-13.72c-4.71,0-8.21-1.25-10.5-3.74c-2.29-2.49-3.43-6.58-3.43-12.26v-76.91h27.44
	v-22.45h-27.44v-32.01h-26.19v32.01h-18.5v22.45H461.03z M563.91,1050.55V880.74h-26.19v169.82H563.91z M624.4,909.63v-28.89h-28.27
	v28.89H624.4z M623.36,1050.55V927.5h-25.98v123.05H623.36z M680.94,1050.55v-69.42c0-9.01,2.53-16.56,7.59-22.66
	c5.06-6.1,11.4-9.15,19.02-9.15c12.47,0,18.71,9.22,18.71,27.64v73.58h26.4v-77.11c0-16.35-3.53-28.2-10.6-35.54
	c-7.07-7.34-16.56-11.02-28.48-11.02c-8.87,0-16.11,2.05-21.72,6.13c-5.61,4.09-9.46,8.35-11.54,12.78h-0.21v-15.17h-25.57v119.93
	H680.94z M788.71,1036.83c10.6,11.64,24.28,17.46,41.05,17.46c13.02,0,23.9-2.98,32.63-8.94c8.73-5.96,15.03-13.37,18.91-22.24
	l-22.03-7.48c-2.63,5.13-6.48,9.32-11.54,12.58c-5.06,3.26-10.91,4.88-17.56,4.88c-9.56,0-17.08-3.29-22.55-9.87
	c-5.48-6.58-8.21-14.45-8.21-23.59h83.14c0.42-3.46,0.62-7,0.62-10.6c0-18.43-5.13-33.39-15.38-44.9
	c-10.26-11.5-23.28-17.25-39.08-17.25c-16.08,0-29.41,5.72-40.01,17.15s-15.9,26.78-15.9,46.04
	C772.81,1009.61,778.11,1025.19,788.71,1036.83z M807.83,957.95c5.2-6.58,12.16-9.87,20.89-9.87s15.52,3.22,20.37,9.67
	c4.85,6.44,7.27,14.24,7.27,23.38h-56.54C799.96,972.26,802.63,964.54,807.83,957.95z M916.54,1046.6
	c9.07,5.12,19.43,7.69,31.07,7.69c15.1,0,26.78-3.43,35.02-10.29c8.24-6.86,12.37-15.21,12.37-25.05c0-15.93-12.33-27.85-37-35.75
	c-0.7-0.28-1.8-0.62-3.33-1.04c-5.82-1.94-10.33-3.53-13.51-4.78c-3.19-1.25-6.27-3.22-9.25-5.92c-2.98-2.7-4.47-5.78-4.47-9.25
	c0-4.16,1.7-7.52,5.09-10.08c3.39-2.56,8.28-3.85,14.65-3.85c11.64,0,21.54,5.61,29.72,16.84l17.46-10.6
	c-4.3-8.03-10.81-14.65-19.54-19.85c-8.73-5.2-18.02-7.79-27.85-7.79c-13.17,0-24.18,3.19-33.05,9.56
	c-8.87,6.38-13.3,14.83-13.3,25.36c0,5.4,0.97,10.15,2.91,14.24c1.94,4.09,4.78,7.48,8.52,10.18s7.31,4.85,10.7,6.44
	c3.39,1.59,7.59,3.22,12.58,4.88c0.55,0.14,1.45,0.42,2.7,0.83c6.93,2.22,12.12,3.99,15.59,5.3c3.46,1.32,6.75,3.29,9.87,5.92
	c3.12,2.63,4.68,5.68,4.68,9.15c0,4.3-1.91,7.73-5.72,10.29c-3.81,2.57-8.97,3.85-15.48,3.85c-13.3,0-24.11-6.1-32.42-18.29
	l-18.91,11.02C900.49,1034.48,907.46,1041.48,916.54,1046.6z M196.33,1180.98v-37.64c0-7.02-0.34-13.76-1.02-20.22h0.37l8.29,14.72
	l24.6,43.14h9.97v-71.09h-9.04v37.74c0,7.7,0.4,14.44,1.21,20.22h-0.56l-8.29-14.72l-24.6-43.23h-9.97v71.09H196.33z
	 M331.64,1180.98v-7.73h-36.99V1148h32.61v-7.55h-32.61v-22.83h36.15v-7.73h-45.19v71.09H331.64z M387.38,1117.62v63.36h9.04v-63.36
	h21.24v-7.73h-51.53v7.73H387.38z M467.25,1180.98h10.44l10.25-44.44c1.86-9.13,2.89-14.26,3.07-15.37h0.37
	c0.25,1.55,0.54,3.18,0.89,4.89c0.34,1.71,0.73,3.6,1.16,5.68c0.43,2.08,0.78,3.68,1.02,4.8l10.25,44.44h10.53l16.49-71.09h-9.78
	l-9.13,45c-1.74,9.94-2.67,15.28-2.8,16.03h-0.37c-1.49-8.01-2.55-13.35-3.17-16.03l-10.62-45h-9.41l-10.44,45
	c-0.37,1.86-0.95,4.77-1.72,8.71c-0.78,3.95-1.26,6.38-1.44,7.31h-0.56c-0.44-2.67-1.34-8.01-2.7-16.03l-9.04-45h-9.78
	L467.25,1180.98z M574,1172.55c5.43,6.74,12.69,10.11,21.76,10.11c9.01,0,16.23-3.35,21.66-10.06c5.43-6.71,8.15-15.71,8.15-27.02
	c0-11.24-2.69-20.28-8.06-27.11c-5.37-6.83-12.63-10.25-21.76-10.25c-9.07,0-16.32,3.42-21.76,10.25
	c-5.44,6.83-8.15,15.84-8.15,27.02C565.84,1156.79,568.56,1165.81,574,1172.55z M580.71,1123.96c3.7-5.34,8.71-8.01,15.05-8.01
	c6.46,0,11.49,2.69,15.09,8.06c3.6,5.37,5.4,12.56,5.4,21.57c0,9.13-1.85,16.29-5.54,21.48c-3.7,5.19-8.68,7.78-14.95,7.78
	c-6.34,0-11.35-2.64-15.05-7.92c-3.7-5.28-5.54-12.42-5.54-21.43C575.16,1136.48,577.01,1129.3,580.71,1123.96z M676.93,1180.98
	v-29.91h17.33c3.35,0,5.79,0.92,7.31,2.75c1.52,1.83,2.69,4.46,3.49,7.87c1.86,8.32,4.07,14.75,6.62,19.29h10.16
	c-1.43-2.42-2.62-4.83-3.59-7.22c-0.96-2.39-1.65-4.38-2.05-5.96c-0.4-1.58-0.95-3.83-1.63-6.76c-0.75-3.6-1.68-6.37-2.8-8.29
	c-1.12-1.92-2.92-3.6-5.4-5.03c2.98-0.87,5.67-2.86,8.06-5.96c2.39-3.11,3.59-7.14,3.59-12.11c0-5.59-1.91-10.28-5.73-14.07
	c-3.82-3.79-9.27-5.68-16.35-5.68h-28.05v71.09H676.93z M676.93,1117.62h17.14c4.66,0,8.26,1.16,10.81,3.49
	c2.55,2.33,3.82,5.39,3.82,9.18c0,4.04-1.21,7.22-3.63,9.55s-5.9,3.49-10.44,3.49h-17.7V1117.62z M769.84,1180.98v-22.73l9.69-10.99
	l23.01,33.73h11.18l-28.42-40.25l27.21-30.84h-11.83l-30.65,35.69h-0.19v-35.69h-9.04v71.09H769.84z M52.39,904.22v146.33h27.44
	V904.22h47.39v-23.49H5v23.49H52.39z M160.27,1050.55v-61.11c0-11.64,2.39-20.96,7.17-27.96c4.78-7,11.67-10.5,20.68-10.5
	c5.12,0,10.32,0.83,15.59,2.49v-23.9c-4.02-1.8-9.22-2.7-15.59-2.7c-6.79,0-12.65,1.66-17.56,4.99c-4.92,3.33-8.7,7.21-11.33,11.64
	v-12.89h-25.36v119.93H160.27z M219.71,1030.39c2.49,6.51,5.82,11.4,9.98,14.65c4.16,3.26,8.42,5.61,12.78,7.07
	c4.36,1.45,8.97,2.18,13.82,2.18c8.17,0,15-1.87,20.47-5.61c5.47-3.74,9.18-7.76,11.12-12.06h0.21v13.93h25.36V930.62h-26.19v67.14
	c0,9.29-2.22,17.29-6.65,24.01c-4.44,6.72-10.6,10.08-18.5,10.08c-13.17,0-19.75-9.35-19.75-28.06v-73.16h-26.4v76.49
	C215.97,1016.12,217.22,1023.88,219.71,1030.39z M354.09,1046.6c9.07,5.12,19.43,7.69,31.07,7.69c15.1,0,26.78-3.43,35.02-10.29
	c8.24-6.86,12.37-15.21,12.37-25.05c0-15.93-12.33-27.85-37-35.75c-0.7-0.28-1.8-0.62-3.33-1.04c-5.82-1.94-10.33-3.53-13.51-4.78
	c-3.19-1.25-6.27-3.22-9.25-5.92c-2.98-2.7-4.47-5.78-4.47-9.25c0-4.16,1.7-7.52,5.09-10.08c3.39-2.56,8.28-3.85,14.65-3.85
	c11.64,0,21.54,5.61,29.72,16.84l17.46-10.6c-4.3-8.03-10.81-14.65-19.54-19.85c-8.73-5.2-18.02-7.79-27.85-7.79
	c-13.17,0-24.18,3.19-33.05,9.56c-8.87,6.38-13.3,14.83-13.3,25.36c0,5.4,0.97,10.15,2.91,14.24c1.94,4.09,4.78,7.48,8.52,10.18
	s7.31,4.85,10.7,6.44c3.39,1.59,7.59,3.22,12.58,4.88c0.55,0.14,1.45,0.42,2.7,0.83c6.93,2.22,12.12,3.99,15.59,5.3
	c3.46,1.32,6.75,3.29,9.87,5.92c3.12,2.63,4.68,5.68,4.68,9.15c0,4.3-1.91,7.73-5.72,10.29c-3.81,2.57-8.97,3.85-15.48,3.85
	c-13.3,0-24.11-6.1-32.42-18.29l-18.91,11.02C338.05,1034.48,345.01,1041.48,354.09,1046.6z M461.03,935.19v78.78
	c0,24.39,12.26,36.58,36.79,36.58h17.04v-22.45h-13.72c-4.71,0-8.21-1.25-10.5-3.74c-2.29-2.49-3.43-6.58-3.43-12.26v-76.91h27.44
	v-22.45h-27.44v-32.01h-26.19v32.01h-18.5v22.45H461.03z M563.91,1050.55V880.74h-26.19v169.82H563.91z M624.4,909.63v-28.89h-28.27
	v28.89H624.4z M623.36,1050.55V927.5h-25.98v123.05H623.36z M680.94,1050.55v-69.42c0-9.01,2.53-16.56,7.59-22.66
	c5.06-6.1,11.4-9.15,19.02-9.15c12.47,0,18.71,9.22,18.71,27.64v73.58h26.4v-77.11c0-16.35-3.53-28.2-10.6-35.54
	c-7.07-7.34-16.56-11.02-28.48-11.02c-8.87,0-16.11,2.05-21.72,6.13c-5.61,4.09-9.46,8.35-11.54,12.78h-0.21v-15.17h-25.57v119.93
	H680.94z M788.71,1036.83c10.6,11.64,24.28,17.46,41.05,17.46c13.02,0,23.9-2.98,32.63-8.94c8.73-5.96,15.03-13.37,18.91-22.24
	l-22.03-7.48c-2.63,5.13-6.48,9.32-11.54,12.58c-5.06,3.26-10.91,4.88-17.56,4.88c-9.56,0-17.08-3.29-22.55-9.87
	c-5.48-6.58-8.21-14.45-8.21-23.59h83.14c0.42-3.46,0.62-7,0.62-10.6c0-18.43-5.13-33.39-15.38-44.9
	c-10.26-11.5-23.28-17.25-39.08-17.25c-16.08,0-29.41,5.72-40.01,17.15s-15.9,26.78-15.9,46.04
	C772.81,1009.61,778.11,1025.19,788.71,1036.83z M807.83,957.95c5.2-6.58,12.16-9.87,20.89-9.87s15.52,3.22,20.37,9.67
	c4.85,6.44,7.27,14.24,7.27,23.38h-56.54C799.96,972.26,802.63,964.54,807.83,957.95z M916.54,1046.6
	c9.07,5.12,19.43,7.69,31.07,7.69c15.1,0,26.78-3.43,35.02-10.29c8.24-6.86,12.37-15.21,12.37-25.05c0-15.93-12.33-27.85-37-35.75
	c-0.7-0.28-1.8-0.62-3.33-1.04c-5.82-1.94-10.33-3.53-13.51-4.78c-3.19-1.25-6.27-3.22-9.25-5.92c-2.98-2.7-4.47-5.78-4.47-9.25
	c0-4.16,1.7-7.52,5.09-10.08c3.39-2.56,8.28-3.85,14.65-3.85c11.64,0,21.54,5.61,29.72,16.84l17.46-10.6
	c-4.3-8.03-10.81-14.65-19.54-19.85c-8.73-5.2-18.02-7.79-27.85-7.79c-13.17,0-24.18,3.19-33.05,9.56
	c-8.87,6.38-13.3,14.83-13.3,25.36c0,5.4,0.97,10.15,2.91,14.24c1.94,4.09,4.78,7.48,8.52,10.18s7.31,4.85,10.7,6.44
	c3.39,1.59,7.59,3.22,12.58,4.88c0.55,0.14,1.45,0.42,2.7,0.83c6.93,2.22,12.12,3.99,15.59,5.3c3.46,1.32,6.75,3.29,9.87,5.92
	c3.12,2.63,4.68,5.68,4.68,9.15c0,4.3-1.91,7.73-5.72,10.29c-3.81,2.57-8.97,3.85-15.48,3.85c-13.3,0-24.11-6.1-32.42-18.29
	l-18.91,11.02C900.49,1034.48,907.46,1041.48,916.54,1046.6z"/>
</svg>
