<?xml version="1.0" encoding="utf-8"?>
<!-- Generator: Adobe Illustrator 23.0.4, SVG Export Plug-In . SVG Version: 6.00 Build 0)  -->
<svg version="1.1" id="Layer_10" xmlns="http://www.w3.org/2000/svg" xmlns:xlink="http://www.w3.org/1999/xlink" x="0px" y="0px"
	 viewBox="0 0 800 850" style="enable-background:new 0 0 800 850;" xml:space="preserve">
<style type="text/css">
	.st0{fill:#FFFFFF;}
	.st1{stroke:#000000;stroke-miterlimit:10;}
	.st2{fill:#F05C56;}
	.st3{fill:#F05A55;}
	.st4{fill:url(#SVGID_1_);}
	.st5{fill:#E1E1E1;}
	.st6{fill:#646464;}
	.st7{fill:url(#SVGID_2_);}
	.st8{fill:url(#SVGID_3_);}
	.st9{fill:url(#SVGID_4_);}
</style>
<linearGradient id="SVGID_1_" gradientUnits="userSpaceOnUse" x1="-53.1562" y1="912.7992" x2="868.6112" y2="-53.6011">
	<stop  offset="0" style="stop-color:#F05A55;stop-opacity:0.94"/>
	<stop  offset="0.5379" style="stop-color:#E7595B;stop-opacity:0.945"/>
	<stop  offset="1" style="stop-color:#874BA0"/>
</linearGradient>
<path class="st4" d="M780.18,437.7c0,3.34-0.04,6.64-0.12,9.81c-0.09,3.34-0.21,6.62-0.37,9.75c-0.16,3.18-0.36,6.43-0.61,9.69
	c-0.23,3.08-0.51,6.23-0.85,9.62c-0.34,3.36-0.7,6.48-1.09,9.55c-0.44,3.43-0.88,6.52-1.32,9.44c0,0.01,0,0.03-0.01,0.04
	c-0.46,3.02-0.98,6.19-1.55,9.4c-0.57,3.18-1.17,6.29-1.78,9.27c0,0.02-0.01,0.03-0.01,0.05c-0.61,2.99-1.29,6.1-2.01,9.23
	c-0.76,3.29-1.49,6.28-2.24,9.16c-0.78,3.03-1.6,6.08-2.45,9.06c-0.83,2.9-1.72,5.92-2.67,8.97c-0.9,2.89-1.87,5.87-2.88,8.88
	c-1,2.96-2.05,5.92-3.1,8.79c-1.08,2.94-2.19,5.86-3.3,8.68c-2.23,5.64-4.64,11.35-7.18,16.97c-0.01,0.03-0.02,0.06-0.04,0.09
	c-2.47,5.46-5.15,11.03-7.96,16.54c-0.01,0.03-0.03,0.06-0.04,0.09c-5.56,10.86-11.72,21.57-18.31,31.83
	c-8.19,12.76-17.24,25.19-26.92,36.92c-1.91,2.32-3.89,4.66-5.9,6.97c-3.95,4.57-8.08,9.11-12.27,13.5c-1.92,2.02-4,4.15-6.37,6.53
	c-2.12,2.12-4.32,4.27-6.53,6.38c-2.34,2.22-4.49,4.23-6.58,6.13c-0.03,0.03-0.06,0.06-0.09,0.09c-2.29,2.08-4.59,4.12-6.82,6.05
	c-0.02,0.02-0.04,0.04-0.06,0.05c-11.41,9.89-23.58,19.22-36.18,27.73c-2.62,1.77-5.19,3.46-7.65,5.03
	c-10.26,6.58-20.97,12.74-31.83,18.31c-5.47,2.8-11.06,5.49-16.62,8.01c-2.46,1.12-5.07,2.26-8.47,3.71
	c-3.04,1.28-5.85,2.43-8.59,3.51c-2.65,1.05-5.49,2.13-8.68,3.3c-2.99,1.09-5.95,2.13-8.78,3.09c-2.97,1-5.96,1.97-8.88,2.89
	c-3.24,1-6.18,1.87-8.98,2.66c-3.06,0.87-6.11,1.7-9.06,2.46c-3.22,0.83-6.22,1.56-9.16,2.23c-2.74,0.64-5.67,1.28-9.24,2.01
	c-2.83,0.58-5.88,1.17-9.32,1.79c-3.09,0.55-6.26,1.07-9.4,1.56c-0.01,0-0.03,0-0.04,0.01c-2.96,0.45-6.05,0.89-9.43,1.32
	c-3.5,0.43-6.62,0.79-9.55,1.09c-3.31,0.33-6.54,0.62-9.62,0.86c-3.45,0.26-6.62,0.46-9.68,0.61c-3.18,0.16-6.46,0.29-9.75,0.37
	c-3.16,0.08-6.46,0.12-9.81,0.12c-3.36,0-6.66-0.04-9.81-0.12c-3.27-0.09-6.56-0.21-9.75-0.37c-3.07-0.15-6.24-0.35-9.68-0.61
	c-3.09-0.24-6.33-0.52-9.62-0.86c-2.94-0.3-6.06-0.65-9.54-1.09c-3.4-0.44-6.5-0.87-9.48-1.33c-3.1-0.48-6.26-1-9.4-1.55
	c-3.45-0.62-6.49-1.21-9.32-1.79c-3.2-0.65-6.31-1.33-9.24-2.01c-2.91-0.67-5.99-1.42-9.15-2.23c-2.98-0.77-6.03-1.6-9.07-2.46
	c-2.83-0.8-5.75-1.67-8.9-2.64c-0.03-0.01-0.06-0.02-0.08-0.02c-2.94-0.92-5.92-1.89-8.87-2.88c-2.86-0.97-5.81-2.01-8.78-3.09
	c-3.21-1.18-6.05-2.26-8.69-3.3c-2.75-1.08-5.56-2.23-8.58-3.5c-3.41-1.45-6.02-2.6-8.48-3.72c-2.82-1.27-5.63-2.58-8.36-3.9
	c-0.04-0.02-0.08-0.04-0.12-0.07c-2.7-1.3-5.43-2.65-8.13-4.04c-5.23-2.67-10.67-5.62-16.16-8.77c-0.04-0.02-0.08-0.05-0.12-0.08
	c-5.33-3.07-10.54-6.24-15.5-9.42c-0.02-0.01-0.04-0.03-0.06-0.04c-12.78-8.19-25.2-17.25-36.92-26.92
	c-2.39-1.97-4.73-3.95-6.97-5.89c-11.43-9.9-22.41-20.61-32.62-31.84c-0.03-0.03-0.05-0.06-0.08-0.09
	c-2.01-2.21-4.02-4.48-5.97-6.74c-11.92-13.76-22.96-28.52-32.82-43.89c-1.65-2.57-3.28-5.18-4.85-7.77
	c-0.02-0.03-0.03-0.05-0.04-0.08c-4.75-7.82-9.26-15.88-13.41-23.98c-0.02-0.03-0.03-0.06-0.04-0.09
	c-2.79-5.45-5.48-11.01-7.97-16.53c-0.01-0.03-0.03-0.06-0.04-0.09c-2.57-5.69-4.98-11.4-7.18-16.97c-1.12-2.84-2.23-5.76-3.3-8.68
	c-1.07-2.92-2.11-5.88-3.1-8.79c-1.07-3.17-2.01-6.07-2.88-8.88c-0.95-3.08-1.85-6.1-2.67-8.98c-0.8-2.82-1.61-5.79-2.46-9.06
	c-0.83-3.24-1.56-6.24-2.23-9.16c-0.73-3.16-1.4-6.27-2.01-9.23c0-0.02-0.01-0.03-0.01-0.05c-0.61-2.96-1.2-6.08-1.78-9.26
	c-0.54-2.98-1.04-6.05-1.56-9.4c0-0.02-0.01-0.03-0.01-0.05c-0.45-2.99-0.89-6.08-1.32-9.43c-0.39-3.05-0.75-6.26-1.09-9.55
	c-0.32-3.17-0.61-6.41-0.86-9.62c-0.26-3.42-0.46-6.59-0.61-9.69c-0.16-3.2-0.29-6.48-0.37-9.74c-0.08-3.11-0.12-6.32-0.12-9.81
	c0-3.49,0.04-6.71,0.12-9.81c0.09-3.26,0.21-6.54,0.37-9.74c0.15-3.08,0.36-6.34,0.61-9.69c0.25-3.24,0.53-6.48,0.86-9.62
	c0.33-3.28,0.7-6.5,1.09-9.55c0.44-3.39,0.87-6.47,1.32-9.43c0-0.01,0-0.03,0.01-0.04c0.49-3.21,1.01-6.38,1.56-9.4
	c0.57-3.17,1.17-6.3,1.79-9.32c0.62-3.01,1.29-6.12,2.01-9.24c0.68-2.95,1.41-5.94,2.23-9.15c0.84-3.25,1.65-6.22,2.46-9.07
	c0.82-2.88,1.71-5.9,2.67-8.97c0.88-2.83,1.85-5.81,2.88-8.88c0.99-2.91,2.03-5.87,3.1-8.79c1.06-2.89,2.17-5.81,3.3-8.69
	c1.07-2.72,2.21-5.52,3.5-8.58c0.01-0.03,0.03-0.07,0.05-0.1c1.17-2.76,2.4-5.58,3.66-8.38c1.29-2.85,2.61-5.66,3.91-8.36
	c1.29-2.68,2.67-5.46,4.11-8.25c2.76-5.39,5.71-10.83,8.78-16.16c1.45-2.53,3.01-5.16,4.64-7.84c0.01-0.02,0.02-0.04,0.04-0.06
	c1.55-2.56,3.18-5.17,4.85-7.77c8.19-12.78,17.25-25.2,26.92-36.92c0.02-0.02,0.04-0.05,0.06-0.07c2.09-2.52,4-4.78,5.83-6.9
	c2.04-2.35,4.07-4.64,6.05-6.83c8.17-8.98,16.85-17.66,25.79-25.79c2.29-2.08,4.59-4.12,6.83-6.05c2.17-1.88,4.45-3.81,6.97-5.89
	c11.74-9.69,24.16-18.75,36.92-26.93c0.02-0.01,0.04-0.03,0.06-0.04c2.45-1.57,5.05-3.19,7.71-4.81c0.02-0.01,0.04-0.03,0.06-0.04
	c2.65-1.61,5.29-3.17,7.84-4.63c5.42-3.11,10.86-6.07,16.16-8.79c2.63-1.34,5.41-2.72,8.25-4.1c2.68-1.29,5.49-2.61,8.36-3.91
	c2.78-1.26,5.6-2.49,8.39-3.67c0.03-0.02,0.06-0.03,0.09-0.04c2.73-1.15,5.54-2.3,8.58-3.5c3.04-1.19,5.88-2.27,8.69-3.3
	c2.84-1.04,5.79-2.08,8.78-3.1c3.21-1.08,6.11-2.02,8.88-2.88c0.03-0.01,0.06-0.02,0.08-0.02c3.1-0.96,6.01-1.83,8.9-2.65
	c2.94-0.84,5.99-1.66,9.06-2.45c3.08-0.79,6.15-1.54,9.15-2.23c3.01-0.7,6.12-1.37,9.24-2.01c3.02-0.62,6.16-1.22,9.32-1.79
	c2.83-0.51,5.91-1.02,9.4-1.56c3.16-0.48,6.34-0.93,9.48-1.33c3.2-0.4,6.41-0.77,9.55-1.09c3.33-0.34,6.57-0.62,9.62-0.86
	c3.28-0.25,6.54-0.45,9.68-0.61c3.14-0.16,6.42-0.29,9.75-0.37c3.13-0.08,6.34-0.12,9.81-0.12c9.77,0,19.6,0.37,29.22,1.11
	c3.76,0.3,6.78,0.57,9.55,0.85l0.21,0.02c3.02,0.3,6.17,0.66,9.37,1.06c0.02,0,0.17,0.03,0.19,0.03c3.14,0.4,6.25,0.84,9.18,1.29
	l0.31,0.05c3.03,0.46,6.1,0.97,9.11,1.51l0.28,0.05c3.39,0.61,6.33,1.18,9.01,1.73l0.32,0.06c3.19,0.66,6.12,1.3,8.97,1.95
	l0.24,0.06c6.81,1.58,13.91,3.44,21.09,5.54c0.55,0.16,0.96,0.63,1.04,1.19c0.08,0.57-0.17,1.13-0.65,1.44
	c-9.67,6.35-15.01,5.14-25.65,2.73c-26.71-6.05-54.22-9.11-81.8-9.11c-98.44,0-191.01,38.35-260.64,107.98S31.39,339.26,31.39,437.7
	c0,98.44,38.35,191,107.98,260.63S301.56,806.31,400,806.31c98.44,0,191-38.35,260.63-107.98
	c69.63-69.63,107.98-162.19,107.98-260.63c0-51.35-10.36-101.05-30.8-147.71c-19.74-45.07-47.91-85.21-83.71-119.3l-1.62-1.53
	c-6.25-5.87-9.1-8.55-8.02-19.56c0.05-0.54,0.4-1.01,0.91-1.22c0.51-0.2,1.09-0.11,1.5,0.25c5.37,4.6,10.53,9.25,15.34,13.82
	c0.03,0.03,0.08,0.08,0.11,0.11c2.09,1.98,4.13,3.98,6.14,5.98l0.87,0.87c1.88,1.89,3.74,3.79,5.58,5.71l0.74,0.78
	c1.86,1.95,3.69,3.93,5.51,5.92l0.7,0.77c1.82,2.01,3.63,4.06,5.42,6.11l0.55,0.64c1.83,2.11,3.64,4.25,5.43,6.42l0.35,0.42
	c1.81,2.19,3.59,4.41,5.35,6.64l0.46,0.6c1.74,2.22,3.46,4.47,5.16,6.73l0.25,0.33c1.73,2.33,3.44,4.66,5.12,7.03
	c0.04,0.05,0.08,0.1,0.11,0.15l0.1,0.14c1.54,2.15,3.16,4.49,4.95,7.13l0.19,0.28c1.65,2.44,3.27,4.91,4.86,7.38l0.17,0.27
	c1.54,2.41,3.06,4.84,4.56,7.29l0.36,0.59c1.46,2.41,2.89,4.83,4.3,7.28l0.38,0.65c1.39,2.41,2.74,4.84,4.07,7.28l0.45,0.81
	c1.33,2.45,2.62,4.9,3.89,7.37l0.4,0.78c1.26,2.46,2.49,4.94,3.7,7.44l0.42,0.86c1.19,2.48,2.36,4.97,3.49,7.48l0.42,0.93
	c1.12,2.48,2.21,4.98,3.28,7.48l0.46,1.1c1.02,2.41,2.06,4.95,3.08,7.54l0.41,1.02c1,2.54,1.96,5.09,2.9,7.64l0.41,1.12
	c0.92,2.54,1.82,5.09,2.69,7.64l0.4,1.18c0.81,2.39,1.64,4.94,2.53,7.77l0.34,1.1c0.81,2.6,1.59,5.24,2.35,7.87l0.32,1.14
	c0.75,2.65,1.47,5.31,2.16,7.99l0.27,1.05c0.68,2.68,1.34,5.37,1.97,8.07l0.26,1.16c0.62,2.69,1.21,5.39,1.77,8.1l0.23,1.16
	c0.55,2.74,1.09,5.48,1.59,8.24l0.18,1.05c0.49,2.78,0.95,5.56,1.39,8.37l0.15,1.03c0.42,2.77,0.82,5.64,1.19,8.52l0.11,0.88
	c0.36,2.9,0.7,5.81,1,8.72l0.07,0.76c0.31,3.18,0.57,6.1,0.79,8.92l0.04,0.61c0.24,3.19,0.43,6.18,0.58,9.11l0.03,0.51
	c0.16,3.05,0.27,6.18,0.35,9.31l0.01,0.26C780.14,431.19,780.18,434.43,780.18,437.7z M696.15,468.81l-5.54,58.7l-0.04,0.15
	c0,0.06,0,0.14-0.02,0.21c-0.04,0.22-0.11,0.43-0.18,0.63l-0.76-0.08l0.73,0.18c-0.02,0.07-0.04,0.14-0.06,0.2
	c-0.14,0.37-0.33,0.73-0.56,1.06c-0.04,0.06-0.09,0.12-0.14,0.17c-0.23,0.3-0.45,0.53-0.67,0.73c-0.09,0.08-0.18,0.16-0.28,0.23
	c-0.27,0.21-0.57,0.4-0.88,0.55c0.03-0.02-0.04,0.04-0.13,0.08l-56.92,26.14c-2.18,1-4.9,0.28-6.31-1.64l-29.51-40.35l-209.12-37.87
	l-24.3,241.92l-0.03,0.13c-0.04,0.27-0.1,0.51-0.17,0.75c-0.04,0.14-0.06,0.22-0.08,0.3l-0.06,0.13c-0.06,0.17-0.17,0.38-0.28,0.58
	c-0.05,0.12-0.09,0.19-0.13,0.27l-0.09,0.12c0,0-0.02,0.05-0.06,0.1c-0.06,0.09-0.14,0.17-0.21,0.25l-0.12,0.14
	c-0.07,0.09-0.14,0.18-0.22,0.26c-0.05,0.05-0.11,0.1-0.16,0.15c-0.16,0.14-0.32,0.27-0.5,0.39c-0.09,0.07-0.15,0.12-0.21,0.16
	c-0.02,0.02-0.07,0.06-0.12,0.1c-0.08,0.05-0.16,0.08-0.23,0.11c-0.03,0.03-0.12,0.08-0.22,0.12c-0.02,0.01-0.07,0.05-0.13,0.07
	c-0.12,0.05-0.24,0.09-0.36,0.12l-0.23,0.07c-0.17,0.05-0.35,0.1-0.53,0.14c-0.37,0.08-0.68,0.11-0.97,0.11l-0.1,0
	c-0.29,0-0.6-0.04-0.95-0.12l-0.15-0.04c-0.16-0.04-0.37-0.1-0.58-0.17c-0.04-0.01-0.1-0.02-0.16-0.05l-208.95-84.25
	c-1.3-0.52-2.34-1.57-2.86-2.88c-0.52-1.3-0.48-2.78,0.11-4.05l19.91-43.31l-56.08-39.37c-2.25-1.58-2.86-4.64-1.4-6.96l29.44-46.81
	l-46.08-63.05c-0.05-0.06-0.09-0.13-0.12-0.2l-0.06-0.09c-0.07-0.1-0.12-0.21-0.18-0.32c-0.1-0.19-0.18-0.36-0.25-0.54
	c-0.04-0.1-0.06-0.17-0.08-0.24c-0.09-0.28-0.15-0.5-0.19-0.73c-0.01-0.07-0.02-0.12-0.02-0.17c-0.04-0.3-0.06-0.55-0.06-0.81
	l0.01-0.14c0.01-0.26,0.02-0.46,0.05-0.65c0.02-0.14,0.04-0.24,0.08-0.37l0.13-0.46c2.77-9.19,33.4-87.75,42.73-111.62
	c0.72-1.85,2.47-3.13,4.45-3.27l45.7-3.11c7.93-20.58,15.26-39.57,15.91-41.25c0.72-1.87,2.48-3.16,4.48-3.29l56.18-3.62
	c10.96-23.99,20.44-44.47,21.49-46.74c0.82-1.77,2.49-2.91,4.39-3.03l48.48-2.92l16.55-41.67c0.03-0.08,0.07-0.14,0.11-0.21
	l0.04-0.09c0.07-0.17,0.11-0.26,0.16-0.34c0.04-0.07,0.09-0.14,0.14-0.21c0.11-0.17,0.18-0.27,0.26-0.37
	c0.08-0.12,0.13-0.18,0.18-0.24c0.06-0.08,0.14-0.14,0.21-0.21l0.1-0.1l0.62,0.44l-0.53-0.53c0.06-0.07,0.13-0.13,0.2-0.19
	c0.04-0.03,0.06-0.06,0.09-0.08l0.09-0.07c0.09-0.07,0.2-0.13,0.31-0.19l0.26-0.16c0.08-0.06,0.14-0.1,0.21-0.13l0,0l0.07-0.04
	c-0.02,0.01-0.04,0.02-0.06,0.04l0.37,0.65v0l-0.27-0.7c0,0,0,0,0,0l0.01,0l44.79-22.32c1.38-0.69,2.97-0.72,4.38-0.1
	c1.41,0.62,2.46,1.83,2.87,3.31l21.03,74.63l218.8-188.3c1.92-1.66,4.82-1.65,6.74,0.01c1.92,1.66,2.33,4.53,0.97,6.67
	L492.65,286.44L694.5,464.53c0.26,0.24,0.5,0.51,0.71,0.81c0.05,0.07,0.09,0.14,0.13,0.21l0.09,0.15c0.1,0.15,0.2,0.31,0.27,0.48
	l0.06,0.16c0.03,0.08,0.07,0.19,0.1,0.29c0.1,0.31,0.17,0.55,0.21,0.78c0.02,0.13,0.04,0.27,0.05,0.4c0.02,0.25,0.03,0.49,0.02,0.74
	C696.16,468.66,696.16,468.73,696.15,468.81z M320.6,220.79l-33.81,2.04c-2.86,6.19-11.79,25.52-21.75,47.35L320.6,220.79z
	 M484.83,279.54L622.77,63.25L428.84,230.14L484.83,279.54z M533.81,340l-46.36,30.71l96.51,115.71L533.81,340z M411.29,214.66
	l-16.79-59.59l-32.43,16.16L411.29,214.66z M572.1,488.29L478.8,376.43l-39.16,25.94L572.1,488.29z M431.59,409.43l-41.53,58.79
	l183.35,33.2L431.59,409.43z M467.52,312.71c0.17,0.23,0.33,0.49,0.46,0.75l0.04,0.11c0.08,0.17,0.17,0.39,0.24,0.61l14.45,47.3
	l45.36-30.04l-139.9-123.42l79.3,104.61L467.52,312.71z M469.41,353.22l-9.98-32.67l-28.59-2.27L469.41,353.22z M452.28,309.64
	l-97.95-129.21l-13.53,34.06l91.41,180.43l39.21-25.97l-58.71-53.19c-1.63-1.48-2.15-3.84-1.27-5.86c0.87-2.02,2.94-3.27,5.14-3.09
	L452.28,309.64z M299.28,382.77l5.94,194.68l69.54-105.22L299.28,382.77z M133.57,477.58l68.17-137.35L99.57,431.06L133.57,477.58z
	 M160.6,363.01c1.65-4.47,7.02-18.51,15.96-41.77l-37.65,2.56c-10.71,27.42-25.8,66.3-34.45,89.1L160.6,363.01z M246.05,287.06
	c2.09-4.63,4.22-9.31,6.32-13.93l-47.38,3.05c-8.74,22.63-20.34,52.72-27.74,72.04L246.05,287.06z M372.73,453.84l-38.59-215.56
	l-34.78,128.6L372.73,453.84z M218.27,418.2l-4.22-79.59l-65.39,131.74L218.27,418.2z M241.2,624.84l-21.94-194.51l-77.69,58.21
	L241.2,624.84z M288.83,378.21l-58.89,44.12l64.67,145.44L288.83,378.21z M284.7,368.43l-60.85-39.81l4.35,82.14L284.7,368.43z
	 M290.55,359.94l35.12-129.87l-99.05,88.05L290.55,359.94z M116.45,544.56l109.48,76.86l-84.83-116.06L116.45,544.56z
	 M171.18,595.57l-16.86,36.68l162.35,65.46L171.18,595.57z M232.17,452.71l21.2,187.96l90.7,63.68L232.17,452.71z M306.42,594.33
	l46.73,105.09l20.83-207.3L306.42,594.33z M346.41,248.36l37.68,210.45l40.15-56.84L346.41,248.36z M547.71,348.76l53.2,155.33
	l80.77-37.14L547.71,348.76z M615,508.96l65.89,11.93l4.17-44.14L615,508.96z M609.6,518.45l20.63,28.2l38.22-17.55L609.6,518.45z
	 M350.68,166.27L350.68,166.27L350.68,166.27L350.68,166.27z M350.16,166.61L350.16,166.61
	C350.16,166.61,350.16,166.61,350.16,166.61L350.16,166.61z M88.32,431.09L88.32,431.09L88.32,431.09L88.32,431.09z M359.45,722.36
	L359.45,722.36C359.45,722.36,359.45,722.36,359.45,722.36L359.45,722.36z"/>
</svg>
