<?xml version="1.0" encoding="utf-8"?>
<!-- Generator: Adobe Illustrator 23.0.4, SVG Export Plug-In . SVG Version: 6.00 Build 0)  -->
<svg version="1.1" id="Layer_10" xmlns="http://www.w3.org/2000/svg" xmlns:xlink="http://www.w3.org/1999/xlink" x="0px" y="0px"
	 viewBox="0 0 1000 1190" style="enable-background:new 0 0 1000 1190;" xml:space="preserve">
<style type="text/css">
	.st0{fill:#FFFFFF;}
	.st1{stroke:#000000;stroke-miterlimit:10;}
	.st2{fill:#F05C56;}
	.st3{fill:#F05A55;}
	.st4{fill:url(#SVGID_1_);}
	.st5{fill:#E1E1E1;}
	.st6{fill:#646464;}
	.st7{fill:url(#SVGID_2_);}
	.st8{fill:url(#SVGID_3_);}
	.st9{fill:url(#SVGID_4_);}
</style>
<linearGradient id="SVGID_1_" gradientUnits="userSpaceOnUse" x1="-50.0051" y1="1379.5415" x2="1156.1965" y2="-76.6852">
	<stop  offset="0" style="stop-color:#F05A55;stop-opacity:0.94"/>
	<stop  offset="0.5379" style="stop-color:#E7595B;stop-opacity:0.945"/>
	<stop  offset="1" style="stop-color:#874BA0"/>
</linearGradient>
<path class="st4" d="M881.01,405.58c0,3.34-0.04,6.64-0.12,9.81c-0.09,3.34-0.21,6.62-0.37,9.75c-0.16,3.18-0.36,6.43-0.61,9.69
	c-0.23,3.08-0.51,6.23-0.85,9.62c-0.34,3.36-0.7,6.48-1.09,9.55c-0.44,3.43-0.88,6.52-1.32,9.44c0,0.01,0,0.03-0.01,0.04
	c-0.46,3.02-0.98,6.19-1.55,9.4c-0.57,3.18-1.17,6.29-1.78,9.27c0,0.02-0.01,0.03-0.01,0.05c-0.61,2.99-1.29,6.1-2.01,9.23
	c-0.76,3.29-1.49,6.28-2.24,9.16c-0.78,3.03-1.6,6.08-2.45,9.06c-0.83,2.9-1.72,5.92-2.67,8.97c-0.9,2.89-1.87,5.87-2.88,8.88
	c-1,2.96-2.05,5.92-3.1,8.79c-1.08,2.94-2.19,5.86-3.3,8.68c-2.23,5.64-4.64,11.35-7.18,16.97c-0.01,0.03-0.02,0.06-0.04,0.09
	c-2.47,5.46-5.15,11.03-7.96,16.53c-0.01,0.03-0.03,0.06-0.04,0.09c-5.56,10.86-11.72,21.57-18.31,31.83
	c-8.19,12.76-17.24,25.19-26.92,36.92c-1.91,2.32-3.89,4.66-5.9,6.97c-3.95,4.57-8.08,9.11-12.27,13.5c-1.92,2.02-4,4.15-6.37,6.53
	c-2.12,2.12-4.32,4.27-6.53,6.38c-2.34,2.22-4.49,4.23-6.58,6.13c-0.03,0.03-0.06,0.06-0.09,0.09c-2.29,2.08-4.59,4.12-6.82,6.05
	c-0.02,0.02-0.04,0.04-0.06,0.05c-11.41,9.89-23.58,19.22-36.18,27.73c-2.62,1.77-5.19,3.46-7.65,5.03
	c-10.26,6.58-20.97,12.74-31.83,18.31c-5.47,2.8-11.06,5.49-16.62,8.01c-2.46,1.12-5.07,2.26-8.47,3.71
	c-3.04,1.28-5.85,2.43-8.59,3.51c-2.65,1.05-5.49,2.13-8.68,3.3c-2.99,1.09-5.95,2.13-8.78,3.09c-2.97,1-5.96,1.97-8.88,2.89
	c-3.24,1-6.18,1.87-8.98,2.66c-3.06,0.87-6.11,1.7-9.06,2.46c-3.22,0.83-6.22,1.56-9.16,2.23c-2.74,0.64-5.67,1.28-9.24,2.01
	c-2.83,0.58-5.88,1.17-9.32,1.79c-3.09,0.55-6.26,1.07-9.4,1.56c-0.01,0-0.03,0-0.04,0.01c-2.96,0.45-6.05,0.89-9.43,1.32
	c-3.5,0.44-6.62,0.79-9.55,1.09c-3.31,0.33-6.54,0.62-9.62,0.86c-3.45,0.26-6.62,0.46-9.68,0.61c-3.18,0.16-6.46,0.29-9.75,0.37
	c-3.16,0.08-6.46,0.12-9.81,0.12c-3.36,0-6.66-0.04-9.81-0.12c-3.27-0.09-6.56-0.21-9.75-0.37c-3.07-0.15-6.24-0.35-9.68-0.61
	c-3.09-0.24-6.33-0.52-9.62-0.86c-2.94-0.3-6.06-0.65-9.54-1.09c-3.4-0.44-6.5-0.87-9.48-1.33c-3.1-0.48-6.26-1-9.4-1.55
	c-3.45-0.62-6.49-1.21-9.32-1.79c-3.2-0.65-6.31-1.33-9.24-2.01c-2.91-0.67-5.99-1.42-9.15-2.23c-2.98-0.77-6.03-1.6-9.07-2.46
	c-2.83-0.8-5.75-1.67-8.9-2.64c-0.03-0.01-0.06-0.02-0.08-0.02c-2.94-0.92-5.92-1.89-8.87-2.88c-2.86-0.97-5.81-2.01-8.78-3.09
	c-3.21-1.18-6.05-2.26-8.69-3.3c-2.75-1.08-5.56-2.23-8.58-3.5c-3.41-1.45-6.02-2.6-8.48-3.72c-2.82-1.27-5.63-2.58-8.36-3.9
	c-0.04-0.02-0.08-0.04-0.12-0.07c-2.7-1.3-5.43-2.65-8.13-4.04c-5.23-2.67-10.67-5.62-16.16-8.77c-0.04-0.02-0.08-0.05-0.12-0.08
	c-5.33-3.07-10.54-6.24-15.5-9.42c-0.02-0.01-0.04-0.03-0.06-0.04c-12.78-8.19-25.2-17.25-36.92-26.92
	c-2.39-1.97-4.73-3.95-6.97-5.89c-11.43-9.9-22.41-20.61-32.62-31.84c-0.03-0.03-0.05-0.06-0.08-0.09
	c-2.01-2.21-4.02-4.48-5.97-6.74c-11.92-13.76-22.96-28.52-32.82-43.89c-1.65-2.57-3.28-5.18-4.85-7.77
	c-0.02-0.03-0.03-0.05-0.04-0.08c-4.75-7.82-9.26-15.88-13.41-23.98c-0.02-0.03-0.03-0.06-0.04-0.09
	c-2.79-5.45-5.48-11.01-7.97-16.53c-0.01-0.03-0.03-0.06-0.04-0.09c-2.57-5.69-4.98-11.4-7.18-16.97c-1.12-2.84-2.23-5.76-3.3-8.68
	c-1.07-2.92-2.11-5.88-3.1-8.79c-1.07-3.17-2.01-6.07-2.88-8.88c-0.95-3.08-1.85-6.1-2.67-8.98c-0.8-2.82-1.61-5.79-2.46-9.06
	c-0.83-3.24-1.56-6.24-2.23-9.16c-0.73-3.16-1.4-6.27-2.01-9.23c0-0.02-0.01-0.03-0.01-0.05c-0.61-2.96-1.2-6.08-1.78-9.26
	c-0.54-2.98-1.04-6.05-1.56-9.4c0-0.02-0.01-0.03-0.01-0.05c-0.45-2.99-0.89-6.08-1.32-9.43c-0.39-3.05-0.75-6.26-1.09-9.55
	c-0.32-3.17-0.61-6.41-0.86-9.62c-0.26-3.42-0.46-6.59-0.61-9.69c-0.16-3.2-0.29-6.48-0.37-9.74c-0.08-3.11-0.12-6.32-0.12-9.81
	c0-3.49,0.04-6.71,0.12-9.81c0.09-3.26,0.21-6.54,0.37-9.74c0.15-3.08,0.36-6.34,0.61-9.69c0.25-3.24,0.53-6.48,0.86-9.62
	c0.33-3.28,0.7-6.5,1.09-9.55c0.44-3.39,0.87-6.47,1.32-9.43c0-0.01,0-0.03,0.01-0.04c0.49-3.21,1.01-6.38,1.56-9.4
	c0.57-3.17,1.17-6.3,1.79-9.32c0.62-3.01,1.29-6.12,2.01-9.24c0.68-2.95,1.41-5.94,2.23-9.15c0.84-3.25,1.65-6.22,2.46-9.07
	c0.82-2.88,1.71-5.9,2.67-8.97c0.88-2.83,1.85-5.81,2.88-8.88c0.99-2.91,2.03-5.87,3.1-8.79c1.06-2.89,2.17-5.81,3.3-8.69
	c1.07-2.72,2.21-5.52,3.5-8.58c0.01-0.03,0.03-0.07,0.05-0.1c1.17-2.76,2.4-5.58,3.66-8.38c1.29-2.85,2.61-5.66,3.91-8.36
	c1.29-2.68,2.67-5.46,4.11-8.25c2.76-5.39,5.71-10.83,8.78-16.16c1.45-2.53,3.01-5.16,4.64-7.84c0.01-0.02,0.02-0.04,0.04-0.06
	c1.55-2.56,3.18-5.17,4.85-7.77c8.19-12.78,17.25-25.2,26.92-36.92c0.02-0.02,0.04-0.05,0.06-0.07c2.09-2.52,4-4.78,5.83-6.9
	c2.04-2.35,4.07-4.64,6.05-6.83c8.17-8.98,16.85-17.66,25.79-25.79c2.29-2.08,4.59-4.12,6.83-6.05c2.17-1.88,4.45-3.81,6.97-5.89
	c11.74-9.69,24.16-18.75,36.92-26.93c0.02-0.01,0.04-0.03,0.06-0.04c2.45-1.57,5.05-3.19,7.71-4.81c0.02-0.01,0.04-0.03,0.06-0.04
	c2.65-1.61,5.29-3.17,7.84-4.63c5.42-3.11,10.86-6.07,16.16-8.79c2.63-1.34,5.41-2.72,8.25-4.1c2.68-1.29,5.49-2.61,8.36-3.91
	c2.78-1.26,5.6-2.49,8.39-3.67c0.03-0.02,0.06-0.03,0.09-0.04c2.73-1.15,5.54-2.3,8.58-3.5c3.04-1.19,5.88-2.27,8.69-3.3
	c2.84-1.04,5.79-2.08,8.78-3.1c3.21-1.08,6.11-2.02,8.88-2.88c0.03-0.01,0.06-0.02,0.08-0.02c3.1-0.96,6.01-1.83,8.9-2.65
	c2.94-0.84,5.99-1.66,9.06-2.45c3.08-0.79,6.15-1.54,9.15-2.23c3.01-0.7,6.12-1.37,9.24-2.01c3.02-0.62,6.16-1.22,9.32-1.79
	c2.83-0.51,5.91-1.02,9.4-1.56c3.16-0.48,6.34-0.93,9.48-1.33c3.2-0.4,6.41-0.77,9.55-1.09c3.33-0.34,6.57-0.62,9.62-0.86
	c3.28-0.25,6.54-0.45,9.68-0.61c3.14-0.16,6.42-0.29,9.75-0.37c3.13-0.08,6.34-0.12,9.81-0.12c9.77,0,19.6,0.37,29.22,1.11
	c3.76,0.3,6.78,0.57,9.55,0.85l0.21,0.02c3.02,0.3,6.17,0.66,9.37,1.06c0.02,0,0.17,0.03,0.19,0.03c3.14,0.4,6.25,0.84,9.18,1.29
	l0.31,0.05c3.03,0.46,6.1,0.97,9.11,1.51l0.28,0.05c3.39,0.61,6.33,1.18,9.01,1.73l0.32,0.06c3.19,0.66,6.12,1.3,8.97,1.95
	l0.24,0.06c6.81,1.58,13.91,3.44,21.09,5.54c0.55,0.16,0.96,0.63,1.04,1.19c0.08,0.57-0.17,1.13-0.65,1.44
	c-9.67,6.35-15.01,5.14-25.65,2.73c-26.71-6.05-54.22-9.11-81.8-9.11c-98.44,0-191.01,38.35-260.64,107.98
	S132.22,307.14,132.22,405.58c0,98.44,38.35,191,107.98,260.63s162.19,107.98,260.64,107.98c98.44,0,191-38.35,260.63-107.98
	c69.63-69.63,107.98-162.19,107.98-260.63c0-51.35-10.36-101.05-30.8-147.71c-19.74-45.07-47.91-85.21-83.71-119.3l-1.62-1.53
	c-6.25-5.87-9.1-8.55-8.02-19.56c0.05-0.54,0.4-1.01,0.91-1.22c0.51-0.2,1.09-0.11,1.5,0.25c5.37,4.6,10.53,9.25,15.34,13.82
	c0.03,0.03,0.08,0.08,0.11,0.11c2.09,1.98,4.13,3.97,6.14,5.98l0.87,0.87c1.88,1.89,3.74,3.79,5.58,5.71l0.74,0.78
	c1.86,1.95,3.69,3.93,5.51,5.92l0.7,0.77c1.82,2.01,3.63,4.06,5.42,6.11l0.55,0.64c1.83,2.11,3.64,4.25,5.43,6.42l0.35,0.42
	c1.81,2.19,3.59,4.41,5.35,6.64l0.46,0.6c1.74,2.22,3.46,4.47,5.16,6.73l0.25,0.33c1.73,2.33,3.44,4.66,5.12,7.03
	c0.04,0.05,0.08,0.1,0.11,0.15l0.1,0.14c1.54,2.15,3.16,4.49,4.95,7.13l0.19,0.28c1.65,2.44,3.27,4.91,4.86,7.38l0.17,0.27
	c1.54,2.41,3.06,4.84,4.56,7.29l0.36,0.59c1.46,2.41,2.89,4.83,4.3,7.28l0.38,0.65c1.39,2.41,2.74,4.84,4.07,7.28l0.45,0.81
	c1.33,2.45,2.62,4.9,3.89,7.37l0.4,0.78c1.26,2.46,2.49,4.94,3.7,7.44l0.42,0.86c1.19,2.48,2.36,4.97,3.49,7.48l0.42,0.93
	c1.12,2.48,2.21,4.98,3.28,7.48l0.46,1.1c1.02,2.41,2.06,4.95,3.08,7.54l0.41,1.02c1,2.54,1.96,5.09,2.9,7.64l0.41,1.12
	c0.92,2.54,1.82,5.09,2.69,7.64l0.4,1.18c0.81,2.39,1.64,4.94,2.53,7.77l0.34,1.1c0.81,2.6,1.59,5.24,2.35,7.87l0.32,1.14
	c0.75,2.65,1.47,5.31,2.16,7.99l0.27,1.05c0.68,2.68,1.34,5.37,1.97,8.07l0.26,1.16c0.62,2.69,1.21,5.39,1.77,8.1l0.23,1.16
	c0.55,2.74,1.09,5.48,1.59,8.24l0.18,1.05c0.49,2.78,0.95,5.56,1.39,8.37l0.15,1.03c0.42,2.77,0.82,5.64,1.19,8.52l0.11,0.88
	c0.36,2.9,0.7,5.81,1,8.72l0.07,0.76c0.31,3.18,0.57,6.1,0.79,8.92l0.04,0.61c0.24,3.19,0.43,6.18,0.58,9.11l0.03,0.51
	c0.16,3.05,0.27,6.18,0.35,9.31l0.01,0.26C880.97,399.07,881.01,402.31,881.01,405.58z M451.51,133.28
	c-0.03,0.02-0.06,0.03-0.09,0.06L451.51,133.28L451.51,133.28z M796.98,436.69l-5.54,58.7l-0.04,0.14c0,0.06,0,0.14-0.02,0.22
	c-0.04,0.22-0.11,0.43-0.17,0.63l-0.76-0.08l0.73,0.18c-0.02,0.07-0.04,0.14-0.06,0.2c-0.14,0.37-0.33,0.72-0.56,1.06
	c-0.04,0.06-0.09,0.12-0.14,0.18c-0.23,0.3-0.44,0.52-0.67,0.73c-0.09,0.08-0.18,0.16-0.28,0.24c-0.27,0.21-0.57,0.4-0.88,0.55
	c0,0.01-0.06,0.05-0.13,0.08l-56.92,26.14c-0.68,0.31-1.4,0.47-2.15,0.47c-1.64,0-3.19-0.79-4.16-2.11l-29.51-40.35L486.59,445.8
	l-24.3,241.92l-0.03,0.13c-0.04,0.27-0.1,0.51-0.17,0.75c-0.03,0.14-0.06,0.22-0.08,0.3l-0.06,0.13c-0.06,0.17-0.17,0.38-0.28,0.58
	c-0.05,0.12-0.09,0.19-0.13,0.27l-0.09,0.11c0,0.01-0.03,0.06-0.06,0.1c-0.06,0.09-0.14,0.17-0.21,0.24l-0.12,0.14
	c-0.07,0.09-0.14,0.18-0.22,0.26c-0.05,0.06-0.11,0.11-0.17,0.16c-0.15,0.14-0.31,0.26-0.49,0.39c-0.09,0.07-0.15,0.12-0.21,0.16
	c-0.02,0.02-0.08,0.07-0.13,0.1c-0.07,0.04-0.15,0.08-0.22,0.1c-0.05,0.04-0.14,0.08-0.22,0.12c-0.02,0.02-0.08,0.05-0.13,0.07
	c-0.12,0.05-0.24,0.09-0.36,0.12l-0.23,0.07c-0.18,0.05-0.35,0.1-0.53,0.14c-0.36,0.08-0.67,0.11-0.97,0.11l-0.08,0
	c-0.3,0-0.6-0.04-0.96-0.12l-0.1-0.02c-0.21-0.05-0.42-0.11-0.63-0.19c-0.04-0.01-0.1-0.03-0.16-0.05l-208.94-84.25
	c-1.3-0.52-2.34-1.57-2.86-2.88c-0.52-1.3-0.48-2.78,0.11-4.06l19.91-43.31l-56.08-39.37c-2.25-1.58-2.86-4.64-1.4-6.96l29.44-46.81
	l-46.08-63.05c-0.05-0.06-0.09-0.13-0.12-0.2l-0.06-0.09c-0.07-0.1-0.12-0.21-0.18-0.32c-0.1-0.18-0.18-0.35-0.25-0.53
	c-0.04-0.1-0.06-0.17-0.08-0.23c-0.09-0.28-0.15-0.5-0.2-0.73c-0.01-0.07-0.02-0.12-0.02-0.17c-0.04-0.29-0.06-0.55-0.06-0.81
	l0.01-0.14c0.01-0.26,0.02-0.46,0.05-0.66c0.02-0.14,0.04-0.24,0.08-0.37l0.13-0.46c2.77-9.18,33.4-87.75,42.73-111.62
	c0.72-1.85,2.47-3.13,4.45-3.27l45.7-3.11c7.93-20.58,15.26-39.57,15.91-41.25c0.72-1.87,2.48-3.16,4.48-3.29l56.18-3.62
	c10.96-23.99,20.44-44.47,21.49-46.74c0.82-1.77,2.49-2.91,4.39-3.02l48.48-2.92l16.55-41.67c0.03-0.08,0.07-0.14,0.11-0.21
	l0.05-0.1c0.07-0.16,0.11-0.25,0.16-0.33c0.04-0.07,0.09-0.14,0.14-0.21c0.11-0.17,0.18-0.27,0.26-0.37
	c0.08-0.11,0.12-0.18,0.18-0.24c0.06-0.07,0.14-0.14,0.21-0.21l0.1-0.1l0.62,0.44l-0.53-0.53c0.06-0.06,0.13-0.13,0.2-0.18
	c0.06-0.06,0.1-0.09,0.14-0.12c0.13-0.11,0.24-0.17,0.35-0.23l0.25-0.15c0.08-0.06,0.14-0.1,0.21-0.13l0,0l0.37,0.65l0,0l-0.27-0.7
	l0.09-0.05l44.7-22.28c1.38-0.69,2.97-0.72,4.39-0.1c1.41,0.62,2.46,1.83,2.87,3.31l21.03,74.63L743.39,0.5
	c1.92-1.66,4.82-1.65,6.74,0.01c1.92,1.66,2.33,4.53,0.97,6.67L593.48,254.32l201.83,178.07l0.02,0.02c0.26,0.23,0.5,0.51,0.71,0.81
	c0.05,0.07,0.09,0.14,0.13,0.21l0.09,0.15c0.1,0.15,0.2,0.31,0.27,0.48l0.06,0.17c0.03,0.08,0.07,0.18,0.1,0.29
	c0.11,0.32,0.17,0.55,0.21,0.79c0.02,0.14,0.04,0.27,0.05,0.41c0.02,0.24,0.03,0.49,0.02,0.74
	C796.99,436.54,796.99,436.61,796.98,436.69z M421.43,188.67l-33.81,2.04c-2.87,6.19-11.8,25.53-21.75,47.35L421.43,188.67z
	 M585.66,247.42L723.6,31.13L529.67,198.02L585.66,247.42z M634.64,307.88l-46.36,30.71l96.51,115.71L634.64,307.88z M512.12,182.54
	l-16.79-59.59l-32.43,16.16L512.12,182.54z M672.93,456.17l-93.29-111.85l-39.16,25.94L672.93,456.17z M568.35,280.59
	c0.17,0.23,0.33,0.5,0.46,0.75l0.05,0.12c0.08,0.17,0.17,0.38,0.24,0.61l14.45,47.3l45.36-30.04L489.01,175.9l79.3,104.61
	L568.35,280.59z M570.24,321.1l-9.98-32.67l-28.59-2.27L570.24,321.1z M553.11,277.52l-97.95-129.21l-13.53,34.06l91.41,180.43
	l39.21-25.97l-58.71-53.19c-1.64-1.48-2.15-3.84-1.27-5.86c0.87-2.02,2.94-3.26,5.14-3.09L553.11,277.52z M532.42,377.32
	l-41.53,58.79l183.35,33.2L532.42,377.32z M400.11,350.65l5.94,194.68l69.55-105.22L400.11,350.65z M272.01,563.45l-16.86,36.68
	l162.35,65.46L272.01,563.45z M234.4,445.46l68.17-137.35L200.4,398.94L234.4,445.46z M261.43,330.89
	c1.64-4.45,7.01-18.5,15.96-41.77l-37.65,2.56c-10.7,27.41-25.79,66.28-34.45,89.1L261.43,330.89z M346.88,254.94
	c2.09-4.63,4.22-9.31,6.32-13.93l-47.38,3.05c-8.74,22.62-20.33,52.7-27.74,72.04L346.88,254.94z M319.1,386.08l-4.22-79.59
	l-65.39,131.74L319.1,386.08z M242.41,456.42l99.62,136.3L320.1,398.21L242.41,456.42z M385.53,336.31l-60.85-39.81l4.35,82.14
	L385.53,336.31z M389.66,346.09l-58.89,44.12l64.67,145.44L389.66,346.09z M391.38,327.82l35.12-129.87L327.45,286L391.38,327.82z
	 M217.28,512.44l109.48,76.86l-84.83-116.06L217.28,512.44z M332.99,420.59l21.2,187.96l90.7,63.68L332.99,420.59z M473.56,421.72
	l-38.59-215.56l-34.78,128.6L473.56,421.72z M407.25,562.21l46.73,105.09L474.8,460L407.25,562.21z M447.24,216.25l37.68,210.45
	l40.15-56.84L447.24,216.25z M648.54,316.64l53.2,155.33l80.77-37.14L648.54,316.64z M715.83,476.84l65.89,11.93l4.17-44.14
	L715.83,476.84z M710.43,486.33l20.63,28.2l38.22-17.55L710.43,486.33z M451.51,134.15L451.51,134.15L451.51,134.15L451.51,134.15z
	 M189.15,398.97L189.15,398.97L189.15,398.97L189.15,398.97z M460.29,690.24L460.29,690.24
	C460.29,690.23,460.29,690.23,460.29,690.24L460.29,690.24z M52.39,896.89v146.33h27.44V896.89h47.39V873.4H5v23.49H52.39z
	 M160.27,1043.21V982.1c0-11.64,2.39-20.96,7.17-27.96c4.78-7,11.67-10.5,20.68-10.5c5.12,0,10.32,0.83,15.59,2.49v-23.9
	c-4.02-1.8-9.22-2.7-15.59-2.7c-6.79,0-12.65,1.66-17.56,4.99c-4.92,3.33-8.7,7.21-11.33,11.64v-12.89h-25.36v119.93H160.27z
	 M219.71,1023.05c2.49,6.51,5.82,11.4,9.98,14.65c4.16,3.26,8.42,5.61,12.78,7.07c4.36,1.45,8.97,2.18,13.82,2.18
	c8.17,0,15-1.87,20.47-5.61c5.47-3.74,9.18-7.76,11.12-12.06h0.21v13.93h25.36V923.28h-26.19v67.14c0,9.29-2.22,17.29-6.65,24.01
	c-4.44,6.72-10.6,10.08-18.5,10.08c-13.17,0-19.75-9.35-19.75-28.06v-73.16h-26.4v76.49
	C215.97,1008.78,217.22,1016.54,219.71,1023.05z M354.09,1039.26c9.07,5.12,19.43,7.69,31.07,7.69c15.1,0,26.78-3.43,35.02-10.29
	c8.24-6.86,12.37-15.21,12.37-25.05c0-15.93-12.33-27.85-37-35.75c-0.7-0.28-1.8-0.62-3.33-1.04c-5.82-1.94-10.33-3.53-13.51-4.78
	c-3.19-1.25-6.27-3.22-9.25-5.92c-2.98-2.7-4.47-5.78-4.47-9.25c0-4.16,1.7-7.52,5.09-10.08c3.39-2.56,8.28-3.85,14.65-3.85
	c11.64,0,21.54,5.61,29.72,16.84l17.46-10.6c-4.3-8.03-10.81-14.65-19.54-19.85c-8.73-5.2-18.02-7.79-27.85-7.79
	c-13.17,0-24.18,3.19-33.05,9.56c-8.87,6.38-13.3,14.83-13.3,25.36c0,5.4,0.97,10.15,2.91,14.24c1.94,4.09,4.78,7.48,8.52,10.18
	s7.31,4.85,10.7,6.44c3.39,1.59,7.59,3.22,12.58,4.88c0.55,0.14,1.45,0.42,2.7,0.83c6.93,2.22,12.12,3.98,15.59,5.3
	c3.46,1.32,6.75,3.29,9.87,5.92c3.12,2.63,4.68,5.68,4.68,9.15c0,4.3-1.91,7.73-5.72,10.29c-3.81,2.57-8.97,3.85-15.48,3.85
	c-13.3,0-24.11-6.1-32.42-18.29l-18.91,11.02C338.05,1027.14,345.01,1034.14,354.09,1039.26z M461.03,927.86v78.78
	c0,24.39,12.26,36.58,36.79,36.58h17.04v-22.45h-13.72c-4.71,0-8.21-1.25-10.5-3.74s-3.43-6.58-3.43-12.26v-76.91h27.44v-22.45
	h-27.44V873.4h-26.19v32.01h-18.5v22.45H461.03z M563.91,1043.21V873.4h-26.19v169.82H563.91z M624.4,902.29V873.4h-28.27v28.89
	H624.4z M623.36,1043.21V920.16h-25.98v123.05H623.36z M680.94,1043.21v-69.42c0-9.01,2.53-16.56,7.59-22.66
	c5.06-6.1,11.4-9.15,19.02-9.15c12.47,0,18.71,9.22,18.71,27.64v73.58h26.4V966.1c0-16.35-3.53-28.2-10.6-35.54
	c-7.07-7.34-16.56-11.02-28.48-11.02c-8.87,0-16.11,2.05-21.72,6.13c-5.61,4.09-9.46,8.35-11.54,12.78h-0.21v-15.17h-25.57v119.93
	H680.94z M788.71,1029.49c10.6,11.64,24.28,17.46,41.05,17.46c13.02,0,23.9-2.98,32.63-8.94s15.03-13.37,18.91-22.24l-22.03-7.48
	c-2.63,5.13-6.48,9.32-11.54,12.58c-5.06,3.26-10.91,4.88-17.56,4.88c-9.56,0-17.08-3.29-22.55-9.87
	c-5.48-6.58-8.21-14.45-8.21-23.59h83.14c0.42-3.46,0.62-7,0.62-10.6c0-18.43-5.13-33.39-15.38-44.9
	c-10.26-11.5-23.28-17.25-39.08-17.25c-16.08,0-29.41,5.72-40.01,17.15c-10.6,11.43-15.9,26.78-15.9,46.04
	C772.81,1002.27,778.11,1017.86,788.71,1029.49z M807.83,950.61c5.2-6.58,12.16-9.87,20.89-9.87s15.52,3.22,20.37,9.67
	c4.85,6.44,7.27,14.24,7.27,23.38h-56.54C799.96,964.92,802.63,957.2,807.83,950.61z M916.54,1039.26
	c9.07,5.12,19.43,7.69,31.07,7.69c15.1,0,26.78-3.43,35.02-10.29c8.24-6.86,12.37-15.21,12.37-25.05c0-15.93-12.33-27.85-37-35.75
	c-0.7-0.28-1.8-0.62-3.33-1.04c-5.82-1.94-10.33-3.53-13.51-4.78c-3.19-1.25-6.27-3.22-9.25-5.92c-2.98-2.7-4.47-5.78-4.47-9.25
	c0-4.16,1.7-7.52,5.09-10.08c3.39-2.56,8.28-3.85,14.65-3.85c11.64,0,21.54,5.61,29.72,16.84l17.46-10.6
	c-4.3-8.03-10.81-14.65-19.54-19.85s-18.02-7.79-27.85-7.79c-13.17,0-24.18,3.19-33.05,9.56c-8.87,6.38-13.3,14.83-13.3,25.36
	c0,5.4,0.97,10.15,2.91,14.24c1.94,4.09,4.78,7.48,8.52,10.18s7.31,4.85,10.7,6.44c3.39,1.59,7.59,3.22,12.58,4.88
	c0.55,0.14,1.45,0.42,2.7,0.83c6.93,2.22,12.12,3.98,15.59,5.3c3.46,1.32,6.75,3.29,9.87,5.92c3.12,2.63,4.68,5.68,4.68,9.15
	c0,4.3-1.91,7.73-5.72,10.29c-3.81,2.57-8.97,3.85-15.48,3.85c-13.3,0-24.11-6.1-32.42-18.29l-18.91,11.02
	C900.49,1027.14,907.46,1034.14,916.54,1039.26z M196.33,1173.64V1136c0-7.02-0.34-13.76-1.02-20.22h0.37l8.29,14.72l24.6,43.14
	h9.97v-71.09h-9.04v37.74c0,7.7,0.4,14.44,1.21,20.22h-0.56l-8.29-14.72l-24.6-43.23h-9.97v71.09H196.33z M331.64,1173.64v-7.73
	h-36.99v-25.25h32.61v-7.55h-32.61v-22.83h36.15v-7.73h-45.19v71.09H331.64z M387.38,1110.28v63.36h9.04v-63.36h21.24v-7.73h-51.53
	v7.73H387.38z M467.25,1173.64h10.44l10.25-44.44c1.86-9.13,2.89-14.26,3.07-15.37h0.37c0.25,1.55,0.54,3.18,0.89,4.89
	c0.34,1.71,0.73,3.6,1.16,5.68c0.43,2.08,0.78,3.68,1.02,4.8l10.25,44.44h10.53l16.49-71.09h-9.78l-9.13,45
	c-1.74,9.94-2.67,15.28-2.8,16.03h-0.37c-1.49-8.01-2.55-13.35-3.17-16.03l-10.62-45h-9.41l-10.44,45
	c-0.37,1.86-0.95,4.77-1.72,8.71c-0.78,3.95-1.26,6.38-1.44,7.31h-0.56c-0.44-2.67-1.34-8.01-2.7-16.03l-9.04-45h-9.78
	L467.25,1173.64z M574,1165.21c5.43,6.74,12.69,10.11,21.76,10.11c9.01,0,16.23-3.35,21.66-10.06c5.43-6.71,8.15-15.71,8.15-27.02
	c0-11.24-2.69-20.28-8.06-27.11c-5.37-6.83-12.63-10.25-21.76-10.25c-9.07,0-16.32,3.42-21.76,10.25
	c-5.44,6.83-8.15,15.84-8.15,27.02C565.84,1149.45,568.56,1158.47,574,1165.21z M580.71,1116.62c3.7-5.34,8.71-8.01,15.05-8.01
	c6.46,0,11.49,2.69,15.09,8.06c3.6,5.37,5.4,12.56,5.4,21.57c0,9.13-1.85,16.29-5.54,21.48c-3.7,5.19-8.68,7.78-14.95,7.78
	c-6.34,0-11.35-2.64-15.05-7.92c-3.7-5.28-5.54-12.42-5.54-21.43C575.16,1129.14,577.01,1121.96,580.71,1116.62z M676.93,1173.64
	v-29.91h17.33c3.35,0,5.79,0.92,7.31,2.75c1.52,1.83,2.69,4.46,3.49,7.87c1.86,8.32,4.07,14.75,6.62,19.29h10.16
	c-1.43-2.42-2.62-4.83-3.59-7.22c-0.96-2.39-1.65-4.38-2.05-5.96c-0.4-1.58-0.95-3.83-1.63-6.76c-0.75-3.6-1.68-6.37-2.8-8.29
	c-1.12-1.92-2.92-3.6-5.4-5.03c2.98-0.87,5.67-2.86,8.06-5.96c2.39-3.11,3.59-7.14,3.59-12.11c0-5.59-1.91-10.28-5.73-14.07
	c-3.82-3.79-9.27-5.68-16.35-5.68h-28.05v71.09H676.93z M676.93,1110.28h17.14c4.66,0,8.26,1.16,10.81,3.49
	c2.55,2.33,3.82,5.39,3.82,9.18c0,4.04-1.21,7.22-3.63,9.55c-2.42,2.33-5.9,3.49-10.44,3.49h-17.7V1110.28z M769.84,1173.64v-22.73
	l9.69-10.99l23.01,33.73h11.18l-28.42-40.25l27.21-30.84h-11.83l-30.65,35.69h-0.19v-35.69h-9.04v71.09H769.84z M52.39,896.89
	v146.33h27.44V896.89h47.39V873.4H5v23.49H52.39z M160.27,1043.21V982.1c0-11.64,2.39-20.96,7.17-27.96
	c4.78-7,11.67-10.5,20.68-10.5c5.12,0,10.32,0.83,15.59,2.49v-23.9c-4.02-1.8-9.22-2.7-15.59-2.7c-6.79,0-12.65,1.66-17.56,4.99
	c-4.92,3.33-8.7,7.21-11.33,11.64v-12.89h-25.36v119.93H160.27z M219.71,1023.05c2.49,6.51,5.82,11.4,9.98,14.65
	c4.16,3.26,8.42,5.61,12.78,7.07c4.36,1.45,8.97,2.18,13.82,2.18c8.17,0,15-1.87,20.47-5.61c5.47-3.74,9.18-7.76,11.12-12.06h0.21
	v13.93h25.36V923.28h-26.19v67.14c0,9.29-2.22,17.29-6.65,24.01c-4.44,6.72-10.6,10.08-18.5,10.08c-13.17,0-19.75-9.35-19.75-28.06
	v-73.16h-26.4v76.49C215.97,1008.78,217.22,1016.54,219.71,1023.05z M354.09,1039.26c9.07,5.12,19.43,7.69,31.07,7.69
	c15.1,0,26.78-3.43,35.02-10.29c8.24-6.86,12.37-15.21,12.37-25.05c0-15.93-12.33-27.85-37-35.75c-0.7-0.28-1.8-0.62-3.33-1.04
	c-5.82-1.94-10.33-3.53-13.51-4.78c-3.19-1.25-6.27-3.22-9.25-5.92c-2.98-2.7-4.47-5.78-4.47-9.25c0-4.16,1.7-7.52,5.09-10.08
	c3.39-2.56,8.28-3.85,14.65-3.85c11.64,0,21.54,5.61,29.72,16.84l17.46-10.6c-4.3-8.03-10.81-14.65-19.54-19.85
	c-8.73-5.2-18.02-7.79-27.85-7.79c-13.17,0-24.18,3.19-33.05,9.56c-8.87,6.38-13.3,14.83-13.3,25.36c0,5.4,0.97,10.15,2.91,14.24
	c1.94,4.09,4.78,7.48,8.52,10.18s7.31,4.85,10.7,6.44c3.39,1.59,7.59,3.22,12.58,4.88c0.55,0.14,1.45,0.42,2.7,0.83
	c6.93,2.22,12.12,3.98,15.59,5.3c3.46,1.32,6.75,3.29,9.87,5.92c3.12,2.63,4.68,5.68,4.68,9.15c0,4.3-1.91,7.73-5.72,10.29
	c-3.81,2.57-8.97,3.85-15.48,3.85c-13.3,0-24.11-6.1-32.42-18.29l-18.91,11.02C338.05,1027.14,345.01,1034.14,354.09,1039.26z
	 M461.03,927.86v78.78c0,24.39,12.26,36.58,36.79,36.58h17.04v-22.45h-13.72c-4.71,0-8.21-1.25-10.5-3.74s-3.43-6.58-3.43-12.26
	v-76.91h27.44v-22.45h-27.44V873.4h-26.19v32.01h-18.5v22.45H461.03z M563.91,1043.21V873.4h-26.19v169.82H563.91z M624.4,902.29
	V873.4h-28.27v28.89H624.4z M623.36,1043.21V920.16h-25.98v123.05H623.36z M680.94,1043.21v-69.42c0-9.01,2.53-16.56,7.59-22.66
	c5.06-6.1,11.4-9.15,19.02-9.15c12.47,0,18.71,9.22,18.71,27.64v73.58h26.4V966.1c0-16.35-3.53-28.2-10.6-35.54
	c-7.07-7.34-16.56-11.02-28.48-11.02c-8.87,0-16.11,2.05-21.72,6.13c-5.61,4.09-9.46,8.35-11.54,12.78h-0.21v-15.17h-25.57v119.93
	H680.94z M788.71,1029.49c10.6,11.64,24.28,17.46,41.05,17.46c13.02,0,23.9-2.98,32.63-8.94s15.03-13.37,18.91-22.24l-22.03-7.48
	c-2.63,5.13-6.48,9.32-11.54,12.58c-5.06,3.26-10.91,4.88-17.56,4.88c-9.56,0-17.08-3.29-22.55-9.87
	c-5.48-6.58-8.21-14.45-8.21-23.59h83.14c0.42-3.46,0.62-7,0.62-10.6c0-18.43-5.13-33.39-15.38-44.9
	c-10.26-11.5-23.28-17.25-39.08-17.25c-16.08,0-29.41,5.72-40.01,17.15c-10.6,11.43-15.9,26.78-15.9,46.04
	C772.81,1002.27,778.11,1017.86,788.71,1029.49z M807.83,950.61c5.2-6.58,12.16-9.87,20.89-9.87s15.52,3.22,20.37,9.67
	c4.85,6.44,7.27,14.24,7.27,23.38h-56.54C799.96,964.92,802.63,957.2,807.83,950.61z M916.54,1039.26
	c9.07,5.12,19.43,7.69,31.07,7.69c15.1,0,26.78-3.43,35.02-10.29c8.24-6.86,12.37-15.21,12.37-25.05c0-15.93-12.33-27.85-37-35.75
	c-0.7-0.28-1.8-0.62-3.33-1.04c-5.82-1.94-10.33-3.53-13.51-4.78c-3.19-1.25-6.27-3.22-9.25-5.92c-2.98-2.7-4.47-5.78-4.47-9.25
	c0-4.16,1.7-7.52,5.09-10.08c3.39-2.56,8.28-3.85,14.65-3.85c11.64,0,21.54,5.61,29.72,16.84l17.46-10.6
	c-4.3-8.03-10.81-14.65-19.54-19.85s-18.02-7.79-27.85-7.79c-13.17,0-24.18,3.19-33.05,9.56c-8.87,6.38-13.3,14.83-13.3,25.36
	c0,5.4,0.97,10.15,2.91,14.24c1.94,4.09,4.78,7.48,8.52,10.18s7.31,4.85,10.7,6.44c3.39,1.59,7.59,3.22,12.58,4.88
	c0.55,0.14,1.45,0.42,2.7,0.83c6.93,2.22,12.12,3.98,15.59,5.3c3.46,1.32,6.75,3.29,9.87,5.92c3.12,2.63,4.68,5.68,4.68,9.15
	c0,4.3-1.91,7.73-5.72,10.29c-3.81,2.57-8.97,3.85-15.48,3.85c-13.3,0-24.11-6.1-32.42-18.29l-18.91,11.02
	C900.49,1027.14,907.46,1034.14,916.54,1039.26z"/>
</svg>
