<svg xmlns="http://www.w3.org/2000/svg" viewBox="0 0 800 850"><defs><style>.cls-1{fill:#98989d;}</style></defs><g id="Layer_10" data-name="Layer 10"><path class="cls-1" d="M780.05,428.08v-.26c-.08-3.13-.2-6.26-.35-9.31l0-.52c-.14-2.93-.33-5.91-.58-9.11l0-.61c-.22-2.82-.47-5.74-.79-8.92l-.07-.77c-.3-2.91-.64-5.82-1-8.72l-.11-.87c-.37-2.88-.77-5.75-1.19-8.52l-.15-1q-.66-4.21-1.39-8.38l-.18-1c-.5-2.77-1-5.51-1.59-8.25l-.23-1.15q-.84-4.06-1.77-8.11l-.26-1.15q-.95-4-2-8.08l-.27-1c-.69-2.67-1.42-5.34-2.16-8l-.33-1.14c-.75-2.63-1.54-5.27-2.34-7.87l-.34-1.1c-.89-2.84-1.72-5.38-2.53-7.77l-.4-1.19q-1.31-3.82-2.69-7.64l-.41-1.12c-.94-2.56-1.91-5.1-2.9-7.64l-.41-1c-1-2.59-2.06-5.13-3.08-7.54l-.46-1.1c-1.07-2.5-2.16-5-3.28-7.48l-.43-.93c-1.13-2.51-2.29-5-3.48-7.48l-.42-.86q-1.81-3.75-3.7-7.44l-.4-.78c-1.27-2.46-2.56-4.92-3.89-7.37L734,256c-1.33-2.44-2.68-4.86-4.07-7.28l-.37-.64c-1.41-2.45-2.84-4.87-4.31-7.28l-.35-.59q-2.25-3.67-4.56-7.29l-.17-.27c-1.6-2.47-3.22-4.94-4.86-7.38l-.19-.28c-1.79-2.65-3.42-5-5-7.14l-.1-.14-.11-.15q-2.54-3.56-5.12-7l-.25-.33c-1.7-2.27-3.42-4.51-5.16-6.74l-.47-.59c-1.76-2.23-3.54-4.45-5.35-6.64l-.34-.43c-1.79-2.16-3.61-4.3-5.43-6.42l-.55-.64c-1.79-2-3.6-4.09-5.42-6.1l-.7-.78q-2.71-3-5.51-5.91l-.73-.78c-1.84-1.92-3.7-3.83-5.58-5.71l-.87-.87q-3-3-6.14-6l-.1-.11c-4.81-4.57-10-9.22-15.34-13.82a1.48,1.48,0,0,0-2.42,1c-1.07,11,1.78,13.7,8,19.57l1.62,1.52A367.33,367.33,0,1,1,481.8,78.2c10.65,2.42,16,3.63,25.65-2.73a1.46,1.46,0,0,0-.39-2.63c-7.18-2.1-14.28-4-21.09-5.55l-.24-.05c-2.85-.66-5.78-1.3-9-2l-.32-.06c-2.67-.55-5.62-1.12-9-1.73l-.28-.05c-3-.54-6.08-1-9.11-1.51l-.31,0c-2.93-.46-6-.89-9.18-1.29l-.2,0c-3.19-.4-6.35-.76-9.37-1.06l-.21,0c-2.76-.28-5.78-.55-9.54-.85-9.62-.73-19.46-1.11-29.23-1.11-3.47,0-6.68,0-9.81.13-3.33.08-6.61.21-9.75.37s-6.4.36-9.68.61c-3.06.23-6.29.52-9.62.86-3.14.32-6.36.68-9.55,1.09s-6.33.84-9.48,1.32c-3.49.54-6.56,1.05-9.4,1.56-3.16.57-6.3,1.17-9.32,1.79s-6.23,1.32-9.24,2S308.08,68.7,305,69.5s-6.12,1.61-9.06,2.45-5.8,1.68-8.9,2.65l-.08,0c-2.77.86-5.67,1.8-8.88,2.88-3,1-5.95,2.06-8.78,3.1s-5.65,2.11-8.69,3.3-5.85,2.35-8.58,3.5l-.09,0c-2.79,1.17-5.61,2.41-8.38,3.66s-5.69,2.62-8.37,3.91c-2.84,1.38-5.62,2.75-8.25,4.1-5.3,2.71-10.74,5.67-16.16,8.78-2.55,1.47-5.19,3-7.84,4.64l-.06,0c-2.67,1.61-5.26,3.23-7.71,4.81l-.07,0a384.2,384.2,0,0,0-36.92,26.92c-2.52,2.09-4.79,4-7,5.9s-4.54,4-6.83,6.05c-8.94,8.13-17.62,16.81-25.79,25.79-2,2.18-4,4.48-6.06,6.83-1.84,2.12-3.75,4.38-5.83,6.9l-.06.07a381,381,0,0,0-26.93,36.92c-1.67,2.6-3.3,5.21-4.85,7.77l0,.06c-1.63,2.68-3.19,5.31-4.64,7.84-3.07,5.33-6,10.77-8.78,16.16-1.43,2.8-2.81,5.57-4.1,8.25s-2.62,5.52-3.91,8.37-2.49,5.61-3.66,8.38a.31.31,0,0,0,0,.1c-1.29,3.05-2.44,5.86-3.5,8.57-1.13,2.88-2.25,5.8-3.31,8.69s-2.11,5.88-3.09,8.79-2,6-2.89,8.87c-.95,3.08-1.85,6.1-2.66,9s-1.62,5.81-2.46,9.07-1.55,6.2-2.23,9.15c-.72,3.11-1.4,6.22-2,9.23s-1.22,6.16-1.79,9.32-1.07,6.19-1.56,9.4v.05c-.45,3-.89,6-1.33,9.43-.38,3-.75,6.26-1.08,9.55s-.61,6.38-.86,9.62-.46,6.61-.61,9.68-.29,6.49-.37,9.75-.13,6.32-.13,9.81,0,6.7.13,9.81c.08,3.27.21,6.55.37,9.75s.35,6.27.61,9.69c.24,3.21.53,6.45.86,9.62s.7,6.5,1.08,9.55c.44,3.35.87,6.44,1.32,9.43a.07.07,0,0,1,0,.05c.52,3.34,1,6.42,1.56,9.39.57,3.19,1.17,6.31,1.78,9.27a.09.09,0,0,0,0,0c.6,3,1.28,6.07,2,9.23.67,2.93,1.4,5.92,2.23,9.17s1.65,6.23,2.46,9.06,1.71,5.89,2.66,9c.88,2.81,1.82,5.72,2.89,8.88,1,2.91,2,5.86,3.09,8.79s2.19,5.84,3.31,8.68c2.19,5.57,4.6,11.28,7.17,17a.59.59,0,0,0,0,.08c2.5,5.53,5.18,11.09,8,16.54l0,.09c4.15,8.1,8.66,16.16,13.41,24,0,0,0,0,0,.08,1.58,2.59,3.21,5.2,4.85,7.77a383.5,383.5,0,0,0,32.82,43.89c2,2.25,4,4.52,6,6.73l.08.1a382.81,382.81,0,0,0,32.62,31.84c2.23,1.93,4.58,3.92,7,5.89A382.64,382.64,0,0,0,195.1,758l.06,0c5,3.18,10.17,6.35,15.5,9.42l.12.08c5.49,3.15,10.93,6.1,16.16,8.77,2.7,1.38,5.43,2.74,8.13,4l.12.07c2.73,1.31,5.55,2.63,8.36,3.9,2.46,1.11,5.08,2.26,8.48,3.71,3,1.28,5.83,2.43,8.58,3.51s5.48,2.12,8.69,3.3c3,1.08,5.93,2.12,8.78,3.09s5.94,2,8.87,2.89l.09,0c3.15,1,6.07,1.84,8.9,2.64,3,.87,6.09,1.7,9.06,2.46,3.16.81,6.24,1.56,9.15,2.23s6,1.36,9.24,2c2.83.58,5.88,1.16,9.32,1.78,3.14.56,6.3,1.08,9.4,1.56s6.09.89,9.48,1.33,6.61.79,9.55,1.09c3.29.33,6.52.62,9.62.85,3.44.26,6.61.46,9.68.61s6.48.29,9.75.38,6.45.12,9.81.12,6.65,0,9.81-.12,6.57-.21,9.75-.38,6.23-.35,9.68-.61c3.08-.23,6.32-.52,9.62-.85,2.93-.3,6.05-.66,9.55-1.09s6.48-.87,9.44-1.33h0c3.14-.48,6.3-1,9.4-1.56,3.44-.62,6.49-1.2,9.32-1.78,3.56-.74,6.5-1.38,9.23-2,2.94-.67,5.94-1.4,9.16-2.23,3-.76,6-1.59,9.06-2.46,2.81-.79,5.74-1.66,9-2.66,2.92-.92,5.91-1.88,8.88-2.89s5.79-2,8.79-3.09c3.18-1.18,6-2.26,8.67-3.3s5.55-2.23,8.59-3.51c3.4-1.45,6-2.59,8.47-3.71,5.57-2.52,11.16-5.21,16.62-8,10.86-5.56,21.57-11.72,31.84-18.31,2.46-1.57,5-3.26,7.65-5a381,381,0,0,0,36.17-27.73l.07-.05c2.23-1.94,4.53-4,6.82-6.06l.09-.09c2.09-1.89,4.25-3.9,6.58-6.12s4.41-4.26,6.54-6.38c2.36-2.37,4.45-4.51,6.37-6.52,4.19-4.39,8.31-8.94,12.26-13.5,2-2.31,4-4.65,5.9-7a383,383,0,0,0,26.92-36.92c6.59-10.26,12.75-21,18.31-31.83a.36.36,0,0,0,0-.09c2.82-5.51,5.5-11.07,8-16.54l0-.08c2.54-5.62,5-11.33,7.18-17,1.12-2.82,2.23-5.74,3.3-8.68s2.09-5.83,3.1-8.79,2-6,2.88-8.88c.95-3,1.85-6.07,2.67-9s1.67-6,2.45-9.07c.75-2.87,1.48-5.87,2.24-9.16.73-3.14,1.4-6.24,2-9.23v0c.61-3,1.21-6.09,1.78-9.27s1.09-6.37,1.56-9.4v0c.45-2.92.88-6,1.33-9.44.38-3.06.74-6.18,1.08-9.54s.63-6.54.86-9.62c.25-3.25.45-6.51.61-9.69s.29-6.4.37-9.75c.09-3.17.13-6.47.13-9.81S780.14,431.19,780.05,428.08Z"/><path class="cls-1" d="M696.15,468.56a4.54,4.54,0,0,0,0-.74,2.87,2.87,0,0,0,0-.41,6.25,6.25,0,0,0-.21-.78c0-.1-.07-.21-.1-.29l-.06-.16a3.9,3.9,0,0,0-.28-.49l-.09-.14a1.59,1.59,0,0,0-.13-.22,5.42,5.42,0,0,0-.71-.8L492.65,286.44,650.27,39.29a5.15,5.15,0,0,0-7.71-6.67l-218.8,188.3-21-74.63a5.14,5.14,0,0,0-7.25-3.22l-44.79,22.32h0l.28.71h0l-.37-.65.06,0-.06,0h0l-.21.13-.26.16-.31.19-.08.08-.1.08-.2.19.53.53-.62-.44-.1.09-.22.21-.18.25-.26.36-.14.21c-.05.09-.08.18-.16.35l0,.09a2.12,2.12,0,0,0-.11.21L331.58,209.8l-48.48,2.93a5.15,5.15,0,0,0-4.39,3c-1,2.27-10.53,22.75-21.49,46.74L201,266.11a5.18,5.18,0,0,0-4.48,3.28c-.65,1.68-8,20.67-15.91,41.25L135,313.75A5.16,5.16,0,0,0,130.5,317c-9.32,23.87-39.95,102.43-42.72,111.62l-.14.46c0,.13-.06.24-.08.37a6,6,0,0,0,0,.66v.14a6,6,0,0,0,.06.81,1.55,1.55,0,0,0,0,.17,5.29,5.29,0,0,0,.19.73,1.86,1.86,0,0,0,.09.24,5.13,5.13,0,0,0,.25.54l.18.32.06.08a2,2,0,0,0,.12.21l46.08,63.05-29.44,46.8a5.16,5.16,0,0,0,1.4,7l56.08,39.37-19.91,43.31a5.17,5.17,0,0,0,2.76,6.93L354.4,724a.71.71,0,0,0,.16.05,3.58,3.58,0,0,0,.58.17l.15,0a5.87,5.87,0,0,0,.95.12h.1a5.24,5.24,0,0,0,1-.11l.52-.14.23-.07c.12,0,.25-.07.36-.12a.42.42,0,0,0,.13-.08.82.82,0,0,0,.22-.12,1,1,0,0,0,.23-.11.56.56,0,0,0,.13-.09l.21-.17a4.78,4.78,0,0,0,.5-.39l.16-.15a2.75,2.75,0,0,0,.22-.26l.12-.14a2.41,2.41,0,0,0,.21-.24l.06-.1.08-.12a1.67,1.67,0,0,0,.14-.27,5.91,5.91,0,0,0,.28-.58l.06-.14a3,3,0,0,0,.09-.3,5.51,5.51,0,0,0,.16-.75l0-.13,24.31-241.92,209.12,37.87,29.52,40.35a5.25,5.25,0,0,0,6.31,1.64l56.92-26.14.13-.07a5,5,0,0,0,.88-.56,3.11,3.11,0,0,0,.28-.23,4.84,4.84,0,0,0,.67-.73l.14-.18a4.89,4.89,0,0,0,.56-1.06,1.72,1.72,0,0,0,.07-.21l-.73-.18.76.08a5.79,5.79,0,0,0,.17-.63,1.65,1.65,0,0,0,0-.21l0-.15,5.54-58.7A1,1,0,0,0,696.15,468.56ZM265,270.18c10-21.84,18.89-41.16,21.75-47.35l33.81-2Zm163.8-40L622.77,63.25,484.83,279.54ZM584,486.42,487.45,370.71,533.81,340ZM362.07,171.24l32.43-16.17,16.79,59.59Zm77.57,231.13,39.16-25.94,93.3,111.86Zm133.77,99.06-183.35-33.2,41.53-58.8ZM467.47,312.62,388.18,208,528.07,331.44l-45.36,30-14.45-47.3a5.24,5.24,0,0,0-.23-.61l0-.11a5.19,5.19,0,0,0-.46-.75Zm-36.63,5.66,28.59,2.27,10,32.67Zm-14.26-11.47a5.16,5.16,0,0,0-3.87,9L471.43,369l-39.21,26L340.8,214.49l13.53-34.06,97.95,129.21ZM374.76,472.23,305.22,577.45l-5.94-194.68ZM99.57,431.06l102.17-90.82L133.57,477.58Zm4.9-18.15c8.65-22.8,23.74-61.68,34.44-89.1l37.65-2.56c-8.94,23.25-14.31,37.3-16,41.76Zm72.78-64.69c7.39-19.32,19-49.41,27.74-72l47.38-3.05c-2.11,4.62-4.23,9.3-6.32,13.93Zm122.1,18.66,34.78-128.6,38.6,215.56ZM148.66,470.35l65.39-131.74,4.22,79.59Zm-7.08,18.19,77.69-58.21L241.2,624.84Zm153,79.24L229.94,422.34l58.89-44.13Zm-66.42-157-4.35-82.14,60.86,39.81Zm-1.57-92.64,99.05-88.05L290.55,359.94ZM141.11,505.36l84.83,116.06L116.45,544.56ZM316.67,697.71,154.32,632.25l16.86-36.68Zm27.39,6.64-90.7-63.68-21.19-188ZM374,492.12l-20.82,207.3L306.42,594.33ZM424.24,402l-40.15,56.84L346.41,248.36Zm257.44,65-80.77,37.14-53.2-155.33Zm3.37,9.79-4.16,44.14L615,509Zm-16.6,52.37-38.22,17.55L609.6,518.45ZM350.68,166.27Zm-.52.34ZM88.32,431.09ZM359.45,722.36Z"/></g></svg>