<svg id="Layer_2" data-name="Layer 2" xmlns="http://www.w3.org/2000/svg" viewBox="0 0 2133.9 742.23"><defs><style>.cls-1{fill:#7657ed;}</style></defs><polygon class="cls-1" points="603.74 279.1 669.3 279.1 669.3 459.05 707.43 459.05 707.43 279.1 773 279.1 773 246.89 603.74 246.89 603.74 279.1"/><path class="cls-1" d="M855.5,297.65a41,41,0,0,0-24.28,7.51c-7.1,5-12.07,12.11-15,21.29h-1.64V299.93H778.23V459.05h37.5V365.51a34.18,34.18,0,0,1,4.66-17.93,32.82,32.82,0,0,1,12.78-12.17,38,38,0,0,1,18.39-4.4,77.8,77.8,0,0,1,9.9.67,40.91,40.91,0,0,1,7.52,1.51V298.68a54.28,54.28,0,0,0-6.49-.78C859.9,297.74,857.58,297.65,855.5,297.65Z"/><path class="cls-1" d="M995.77,392.12q0,12.13-5,20.15a32.88,32.88,0,0,1-12.8,12.08,34.34,34.34,0,0,1-16,4q-13.47,0-21.76-8.91t-8.28-24V299.93h-37.5V401.24q0,19.06,6.73,32.47a47.75,47.75,0,0,0,18.69,20.42q12,7,27.61,7,17.93,0,30.2-8.49a48.12,48.12,0,0,0,17.66-21.86h1.67v28.28h36.35V299.93H995.77Z"/><path class="cls-1" d="M1148.92,368.3l-27.13-5.8q-12.12-2.81-17.35-7.15a13.7,13.7,0,0,1-5.13-11.3q-.11-8.07,7.82-13.14c5.28-3.39,11.81-5.09,19.64-5.09a34.67,34.67,0,0,1,14.7,2.81,25.61,25.61,0,0,1,9.58,7.35,27.78,27.78,0,0,1,5,9.74l34.18-3.74q-3.81-20.3-19.94-32.21t-44.07-11.91q-19.07,0-33.61,5.95T1070,320.6q-8.16,10.83-8,25.54-.09,17.39,10.89,28.74t33.88,16.1l27.13,5.7q11,2.38,16.22,6.84a14.23,14.23,0,0,1,5.24,11.29q0,8.08-8.13,13.57t-21.5,5.5q-13,0-21-5.5T1094,412.12l-36.58,3.53q3.42,21.94,21.24,34.23t47,12.28q19.88,0,35.23-6.43t24-17.86a43.3,43.3,0,0,0,8.74-26.48q-.11-17.08-11.13-27.65T1148.92,368.3Z"/><path class="cls-1" d="M1293.27,429.11a38.36,38.36,0,0,1-6.49.52,23.62,23.62,0,0,1-8.48-1.45,12.06,12.06,0,0,1-6.18-5.44c-1.56-2.66-2.32-6.51-2.32-11.55V328.93h31.38v-29H1269.8V261.81h-37.5v38.12h-22.59v29h22.59V417.4q-.09,14.93,6.47,24.86a38.78,38.78,0,0,0,17.88,14.66,60.49,60.49,0,0,0,25.37,4.31,72.47,72.47,0,0,0,13.53-1.46,83.73,83.73,0,0,0,8.54-2.28l-6.33-29.31C1296.73,428.45,1295.24,428.76,1293.27,429.11Z"/><rect class="cls-1" x="1330.41" y="246.89" width="37.49" height="212.16"/><path class="cls-1" d="M1425.76,236.63a21.73,21.73,0,0,0-15.32,6,18.82,18.82,0,0,0-6.42,14.35,19.09,19.09,0,0,0,6.35,14.39,22.64,22.64,0,0,0,30.68.06,19,19,0,0,0,6.36-14.34,19.17,19.17,0,0,0-6.36-14.41A21.54,21.54,0,0,0,1425.76,236.63Z"/><rect class="cls-1" x="1406.91" y="299.93" width="37.49" height="159.12"/><path class="cls-1" d="M1597.32,304.91q-12.3-7.05-28.75-7.05-17.82,0-29.89,7.87A45.34,45.34,0,0,0,1521.12,327h-1.86v-27h-35.85V459.05h37.49V365.81c0-7.66,1.45-14.18,4.3-19.57a30.06,30.06,0,0,1,11.92-12.39,35,35,0,0,1,17.47-4.29q14.49,0,22.72,9t8.24,25v95.51H1623V357.73q.11-19.05-6.68-32.42A47.76,47.76,0,0,0,1597.32,304.91Z"/><path class="cls-1" d="M1780.43,317.12a64.09,64.09,0,0,0-23.21-14.55,81.62,81.62,0,0,0-27.81-4.71q-22.82,0-39.68,10.41a70.51,70.51,0,0,0-26.26,29q-9.36,18.62-9.37,43.15,0,25,9.31,43.36a66.84,66.84,0,0,0,26.69,28.37q17.36,10,41.29,10,18.52,0,32.93-5.66A61.05,61.05,0,0,0,1788,440.55a54.56,54.56,0,0,0,12.58-24.18l-35-3.95a29,29,0,0,1-7.36,11.3,32.18,32.18,0,0,1-11.51,6.89,44.25,44.25,0,0,1-14.81,2.33,42.3,42.3,0,0,1-21.35-5.23,35.7,35.7,0,0,1-14.17-15.12c-3.28-6.36-4.88-14-5-22.85h110.75v-11.5q0-20.92-5.78-36.09T1780.43,317.12Zm-88.86,47.35a41.33,41.33,0,0,1,4.64-17.36,38.52,38.52,0,0,1,13.52-14.49,36.72,36.72,0,0,1,20.19-5.55,36,36,0,0,1,18.91,4.87,34.34,34.34,0,0,1,12.69,13.31,40.55,40.55,0,0,1,4.66,19.22Z"/><path class="cls-1" d="M1944.58,383.74q-11-10.56-33.61-15.44l-27.15-5.8q-12.13-2.81-17.36-7.15a13.76,13.76,0,0,1-5.13-11.3q-.09-8.07,7.83-13.14t19.63-5.09a34.48,34.48,0,0,1,14.7,2.81,25.69,25.69,0,0,1,9.6,7.35,27.94,27.94,0,0,1,5,9.74L1952.3,342q-3.85-20.3-20-32.21t-44.09-11.91q-19,0-33.61,5.95T1832,320.6q-8.12,10.83-8,25.54-.1,17.39,10.87,28.74T1868.7,391l27.15,5.7q11,2.38,16.19,6.84a14.2,14.2,0,0,1,5.24,11.29q0,8.08-8.13,13.57t-21.5,5.5q-12.95,0-21-5.5t-10.56-16.26l-36.55,3.53q3.42,21.94,21.23,34.23t47,12.28q19.89,0,35.22-6.43t24-17.86a43.12,43.12,0,0,0,8.76-26.48Q1955.62,394.31,1944.58,383.74Z"/><path class="cls-1" d="M507.63,359.32v-.14c0-1.6-.1-3.2-.17-4.76l0-.26c-.07-1.5-.17-3-.29-4.66l0-.31c-.12-1.44-.25-2.94-.41-4.56l0-.39c-.15-1.49-.32-3-.5-4.46l-.06-.45c-.19-1.47-.4-2.94-.61-4.35l-.08-.53c-.22-1.44-.46-2.86-.71-4.28l-.09-.54c-.26-1.41-.53-2.81-.81-4.21l-.12-.59c-.29-1.39-.59-2.77-.9-4.15l-.14-.59c-.32-1.38-.66-2.75-1-4.13l-.14-.53c-.35-1.37-.72-2.73-1.1-4.09l-.16-.58c-.39-1.35-.79-2.7-1.2-4l-.18-.56c-.45-1.45-.87-2.75-1.29-4l-.2-.61c-.45-1.3-.91-2.61-1.38-3.91l-.21-.57c-.48-1.3-1-2.61-1.48-3.9l-.21-.53c-.53-1.32-1.06-2.62-1.58-3.85l-.23-.56c-.55-1.28-1.11-2.56-1.68-3.83l-.22-.47c-.58-1.28-1.17-2.55-1.78-3.82l-.21-.44c-.62-1.28-1.25-2.55-1.9-3.81l-.2-.4c-.65-1.26-1.31-2.51-2-3.76l-.23-.42c-.68-1.25-1.37-2.49-2.08-3.72l-.19-.33c-.72-1.25-1.45-2.49-2.2-3.72l-.18-.3c-.77-1.26-1.54-2.5-2.33-3.73l-.09-.14q-1.22-1.89-2.48-3.77l-.1-.15c-.92-1.35-1.75-2.54-2.53-3.64l-.05-.08-.06-.07q-1.29-1.81-2.62-3.6l-.12-.17c-.87-1.16-1.75-2.3-2.64-3.44l-.24-.31q-1.35-1.71-2.74-3.39l-.17-.22c-.92-1.1-1.84-2.2-2.78-3.28l-.28-.33c-.91-1.05-1.84-2.09-2.77-3.12l-.36-.39c-.92-1-1.86-2-2.81-3l-.38-.4c-.94-1-1.89-2-2.85-2.92l-.44-.44c-1-1-2.07-2-3.14-3.06l-.06-.06c-2.45-2.34-5.09-4.71-7.84-7.06a.77.77,0,0,0-.77-.13.74.74,0,0,0-.46.63c-.55,5.63.91,7,4.1,10l.83.78a188.42,188.42,0,1,1-129.92-51.95,189.79,189.79,0,0,1,41.83,4.66c5.44,1.23,8.17,1.85,13.11-1.4a.75.75,0,0,0,.33-.73.74.74,0,0,0-.53-.61c-3.67-1.08-7.3-2-10.78-2.84l-.13,0c-1.45-.33-2.95-.66-4.58-1l-.16,0c-1.37-.28-2.88-.57-4.61-.88l-.15,0c-1.54-.27-3.1-.53-4.65-.77l-.16,0c-1.5-.23-3.09-.46-4.7-.66l-.1,0c-1.63-.2-3.24-.38-4.79-.54h-.1c-1.42-.15-3-.28-4.88-.44-4.92-.37-9.95-.56-14.95-.56-1.77,0-3.41,0-5,.06s-3.38.11-5,.19-3.27.19-4.95.31-3.21.27-4.92.44-3.24.35-4.88.56-3.23.43-4.84.68c-1.79.27-3.36.53-4.81.79-1.62.29-3.22.6-4.76.92s-3.19.67-4.73,1-3.1.73-4.67,1.14-3.13.83-4.64,1.25-3,.86-4.55,1.36h0c-1.41.44-2.9.92-4.54,1.47s-3,1-4.49,1.58-2.89,1.08-4.44,1.69-3,1.2-4.38,1.79l-.05,0c-1.43.6-2.87,1.23-4.29,1.87s-2.91,1.34-4.27,2-2.88,1.41-4.22,2.09c-2.72,1.39-5.5,2.9-8.27,4.5-1.3.74-2.65,1.54-4,2.36l0,0c-1.36.83-2.68,1.66-3.94,2.46l0,0a199.2,199.2,0,0,0-18.88,13.77c-1.28,1.07-2.45,2.05-3.56,3s-2.32,2-3.49,3.1c-4.57,4.15-9,8.59-13.19,13.18-1,1.12-2,2.29-3.09,3.49s-1.92,2.24-3,3.53l0,0a195.29,195.29,0,0,0-13.77,18.87c-.85,1.33-1.69,2.67-2.48,4l0,0c-.83,1.37-1.63,2.71-2.37,4-1.57,2.73-3.08,5.51-4.48,8.27-.74,1.43-1.44,2.85-2.1,4.22s-1.34,2.82-2,4.27-1.28,2.87-1.88,4.29l0,0c-.66,1.56-1.24,3-1.79,4.38s-1.15,3-1.69,4.44-1.08,3-1.58,4.5-1,3.09-1.48,4.54-.94,3.11-1.36,4.58-.83,3-1.26,4.64-.79,3.17-1.14,4.68-.71,3.18-1,4.72-.63,3.15-.92,4.76-.54,3.17-.8,4.81v0c-.23,1.52-.45,3.09-.67,4.82-.2,1.57-.39,3.21-.56,4.89s-.31,3.26-.44,4.92-.23,3.37-.31,4.95-.15,3.31-.19,5-.06,3.23-.06,5,0,3.42.06,5,.11,3.35.19,5,.18,3.21.31,5,.27,3.3.44,4.92.36,3.32.56,4.88.44,3.29.67,4.82v0c.27,1.72.53,3.29.8,4.81s.6,3.22.91,4.74v0c.31,1.52.65,3.11,1,4.72s.72,3,1.14,4.69.85,3.19,1.26,4.63.88,3,1.36,4.59.93,2.92,1.48,4.54,1,3,1.58,4.49,1.12,3,1.69,4.44c1.12,2.85,2.36,5.76,3.67,8.67,0,0,0,0,0,.05,1.27,2.82,2.64,5.67,4.07,8.45,0,0,0,0,0,.05,2.13,4.14,4.43,8.26,6.86,12.26l0,0c.8,1.32,1.64,2.66,2.48,4a194.69,194.69,0,0,0,16.78,22.44c1,1.15,2,2.31,3,3.44l0,.05a197.07,197.07,0,0,0,16.68,16.28c1.14,1,2.34,2,3.56,3A194.2,194.2,0,0,0,208.57,528h0c2.53,1.63,5.2,3.25,7.92,4.82l.06,0c2.81,1.61,5.59,3.12,8.27,4.48,1.38.71,2.77,1.41,4.15,2.07l.07,0c1.39.67,2.83,1.34,4.27,2,1.26.57,2.59,1.16,4.34,1.9,1.54.65,3,1.24,4.38,1.79s2.8,1.08,4.44,1.69,3,1.08,4.49,1.58,3,1,4.54,1.48h0c1.61.5,3.1.94,4.55,1.35s3.11.86,4.64,1.26,3.18.79,4.67,1.14,3.09.69,4.73,1c1.44.29,3,.59,4.76.91,1.61.28,3.22.55,4.81.79s3.11.46,4.84.68,3.38.41,4.88.56c1.69.17,3.34.32,4.92.44,1.76.13,3.38.23,4.95.31s3.32.15,5,.19,3.29.06,5,.06,3.41,0,5-.06,3.36-.11,5-.19,3.19-.18,4.95-.31c1.58-.12,3.23-.27,4.92-.44,1.5-.15,3.09-.33,4.89-.56s3.3-.44,4.82-.67h0c1.61-.24,3.22-.51,4.8-.79,1.76-.32,3.32-.62,4.77-.91,1.82-.38,3.32-.71,4.72-1s3-.72,4.68-1.14,3.07-.82,4.64-1.26,2.93-.85,4.59-1.36c1.49-.47,3-1,4.54-1.48s3-1,4.49-1.58,3.08-1.15,4.43-1.69,2.84-1.14,4.4-1.79c1.73-.74,3.07-1.33,4.32-1.9,2.85-1.29,5.71-2.66,8.5-4.09,5.55-2.85,11-6,16.28-9.36,1.26-.81,2.57-1.67,3.91-2.58a195.38,195.38,0,0,0,18.49-14.17l0,0c1.14-1,2.31-2,3.49-3.1l0,0c1.07-1,2.17-2,3.37-3.13s2.25-2.18,3.34-3.26,2.27-2.31,3.25-3.34c2.15-2.24,4.26-4.57,6.28-6.9,1-1.18,2-2.38,3-3.56A194.87,194.87,0,0,0,477.06,469c3.37-5.25,6.52-10.72,9.36-16.27l0-.05c1.44-2.81,2.81-5.66,4.07-8.45,0,0,0,0,0-.05,1.29-2.87,2.53-5.79,3.67-8.67.57-1.44,1.13-2.94,1.68-4.44s1.07-3,1.59-4.49,1-3.07,1.47-4.54.94-3.11,1.37-4.59.85-3.08,1.25-4.63.76-3,1.14-4.69.72-3.19,1-4.72v0c.31-1.52.61-3.12.91-4.74s.56-3.26.79-4.81v0c.23-1.49.45-3.07.68-4.82.2-1.57.38-3.17.56-4.88s.32-3.35.43-4.92.24-3.33.32-4.95.14-3.28.19-5,.06-3.31.06-5S507.67,360.91,507.63,359.32Z"/><path class="cls-1" d="M464.73,380a1.63,1.63,0,0,0,0-.38,1.36,1.36,0,0,0,0-.2c0-.12-.06-.24-.11-.4s0-.11,0-.15l0-.09c-.05-.08-.09-.16-.15-.24l0-.08-.07-.11a2.35,2.35,0,0,0-.36-.41L360.69,286.9l80.59-126.35a2.64,2.64,0,0,0-3.94-3.42L325.47,253.4l-10.75-38.15a2.62,2.62,0,0,0-3.71-1.64L288.11,225h0l.14.36h0l-.19-.33,0,0,0,0h0l-.11.07-.13.08a.78.78,0,0,0-.15.1l-.05,0-.05,0-.1.09.27.27-.32-.22-.05.05a1.14,1.14,0,0,0-.11.11l-.09.12L287,226a1,1,0,0,0-.08.11l-.08.17,0,.05-.06.11-8.46,21.3-24.78,1.5a2.64,2.64,0,0,0-2.25,1.54c-.53,1.16-5.38,11.63-11,23.9l-28.73,1.85a2.63,2.63,0,0,0-2.29,1.68c-.33.86-4.08,10.56-8.13,21.08l-23.36,1.59a2.66,2.66,0,0,0-2.28,1.67c-4.77,12.2-20.43,52.37-21.84,57.07l-.07.23a1.18,1.18,0,0,0,0,.2,2.88,2.88,0,0,0,0,.33v.07a3.31,3.31,0,0,0,0,.42.25.25,0,0,0,0,.08,2.4,2.4,0,0,0,.1.38l0,.12c0,.09.08.18.13.27l.1.17,0,0a.86.86,0,0,0,.07.1l23.56,32.24-15.06,23.93a2.64,2.64,0,0,0,.72,3.56L192,441.87,181.77,464a2.64,2.64,0,0,0,1.41,3.54L290,510.63l.08,0a1.62,1.62,0,0,0,.3.09l.08,0a2.17,2.17,0,0,0,.48.06H291a2.41,2.41,0,0,0,.5-.06l.27-.06.11,0,.19-.06.06,0,.11-.06.12-.06.07-.05.11-.08.25-.2a.6.6,0,0,0,.08-.08,1.42,1.42,0,0,0,.12-.13l.06-.07.11-.13s0-.05,0-.05l.05-.06.07-.14a1.59,1.59,0,0,0,.14-.3l0-.07a.5.5,0,0,0,0-.15,3.61,3.61,0,0,0,.08-.38l0-.07L306,384.8,413,404.16l15.09,20.63a2.69,2.69,0,0,0,3.22.84l29.11-13.37s.08,0,.06,0a2.11,2.11,0,0,0,.45-.28l.15-.12a3.17,3.17,0,0,0,.34-.37l.07-.09a3.14,3.14,0,0,0,.29-.54l0-.11-.37-.09.38,0a1.92,1.92,0,0,0,.09-.32.45.45,0,0,0,0-.11l0-.08,2.83-30A.28.28,0,0,0,464.73,380ZM244.32,278.59c5.1-11.16,9.66-21,11.13-24.21l17.28-1Zm83.75-20.47,99.14-85.32L356.69,283.37Zm79.3,131L358,330l23.7-15.69ZM293.93,228l16.58-8.26,8.59,30.47Zm39.66,118.17,20-13.26,47.7,57.19ZM402,396.82l-93.74-17,21.23-30.06Zm-54.16-96.53-40.54-53.48,71.52,63.1-23.19,15.36-7.39-24.18a2,2,0,0,0-.12-.32l0,0a3.64,3.64,0,0,0-.23-.39Zm-18.73,2.89,14.62,1.16,5.1,16.71Zm-7.29-5.86a2.63,2.63,0,0,0-2.63,1.58,2.66,2.66,0,0,0,.65,3l30,27.19-20,13.27-46.73-92.24L290,232.71l50.07,66.06Zm-21.38,84.57-35.55,53.79-3-99.53ZM159.73,360.84,212,314.41l-34.85,70.21Zm2.5-9.28C166.65,339.9,174.37,320,179.84,306l19.25-1.31c-4.57,11.89-7.32,19.07-8.16,21.35Zm37.21-33.07c3.78-9.88,9.71-25.26,14.18-36.83l24.23-1.56c-1.08,2.36-2.17,4.75-3.24,7.12ZM261.87,328l17.78-65.75,19.73,110.21Zm-77,52.9,33.43-67.35,2.15,40.69Zm-3.62,9.3,39.71-29.76,11.22,99.44Zm78.23,40.51-33.06-74.36,30.11-22.56Zm-33.95-80.28-2.23-42,31.11,20.35Zm-.81-47.36,50.64-45-17.95,66.39ZM181,398.83l43.37,59.33-56-39.29Zm89.76,98.34-83-33.47L196.34,445Zm14,3.39L238.35,468l-10.83-96.1ZM300,392.06,289.37,498l-23.89-53.73ZM325.71,346,305.19,375,285.93,267.44Zm131.62,33.22-41.29,19-27.2-79.42Zm1.73,5-2.13,22.56-33.69-6.1ZM450.57,411l-19.54,9-10.55-14.42ZM288.11,225.47Zm-.27.17ZM154,360.86ZM292.59,509.77Z"/></svg>