<svg xmlns="http://www.w3.org/2000/svg" viewBox="0 0 2150 850"><defs><style>.cls-1{fill:#f05a55;}</style></defs><g id="Layer_10" data-name="Layer 10"><path class="cls-1" d="M626.94,453.48v-.17c0-2.05-.12-4.09-.22-6.08l0-.33c-.1-1.92-.22-3.86-.38-5.95l0-.4c-.15-1.83-.32-3.74-.52-5.81l0-.5q-.29-2.85-.65-5.69L625,428c-.24-1.88-.5-3.75-.78-5.56l-.1-.67q-.42-2.75-.9-5.46l-.12-.69q-.5-2.7-1-5.37l-.16-.76q-.54-2.66-1.15-5.28l-.17-.76q-.62-2.64-1.29-5.26l-.17-.69c-.45-1.74-.93-3.48-1.41-5.21l-.21-.74c-.49-1.72-1-3.44-1.53-5.14l-.22-.72c-.58-1.85-1.12-3.51-1.65-5.07l-.26-.77c-.57-1.66-1.16-3.33-1.76-5l-.27-.72q-.92-2.5-1.89-5l-.27-.66c-.66-1.69-1.34-3.35-2-4.92l-.3-.72c-.7-1.63-1.4-3.26-2.13-4.88l-.28-.6c-.74-1.64-1.5-3.26-2.28-4.88l-.27-.56q-1.18-2.45-2.41-4.85l-.26-.51c-.83-1.61-1.67-3.21-2.54-4.81l-.29-.53c-.87-1.59-1.75-3.17-2.66-4.75L594,336c-.92-1.59-1.85-3.17-2.81-4.75l-.23-.38q-1.47-2.4-3-4.75l-.11-.18c-1-1.61-2.1-3.22-3.18-4.81l-.12-.19c-1.17-1.72-2.23-3.25-3.23-4.65l-.06-.1-.07-.09c-1.1-1.55-2.22-3.07-3.35-4.59l-.16-.21q-1.66-2.22-3.36-4.4l-.31-.39c-1.15-1.45-2.31-2.9-3.49-4.33l-.22-.28q-1.76-2.12-3.54-4.18l-.36-.42q-1.75-2-3.54-4l-.45-.51c-1.18-1.3-2.38-2.58-3.59-3.86l-.48-.5c-1.2-1.26-2.42-2.5-3.64-3.73l-.57-.57q-2-2-4-3.9l-.07-.07c-3.14-3-6.5-6-10-9a1,1,0,0,0-1-.16,1,1,0,0,0-.59.8c-.7,7.18,1.16,8.93,5.23,12.76l1.06,1A239.71,239.71,0,1,1,432.4,225.27c7,1.57,10.43,2.36,16.73-1.78a1,1,0,0,0,.43-1,1,1,0,0,0-.68-.77c-4.69-1.37-9.32-2.59-13.76-3.62l-.15,0c-1.87-.43-3.78-.84-5.86-1.27l-.2,0c-1.75-.36-3.67-.73-5.88-1.13l-.18,0c-2-.35-4-.69-6-1l-.2,0c-1.91-.29-3.94-.57-6-.84l-.12,0c-2.09-.26-4.15-.49-6.12-.69h-.13c-1.81-.19-3.78-.37-6.23-.56-6.27-.48-12.69-.72-19.06-.72-2.26,0-4.36,0-6.4.08s-4.31.14-6.36.24-4.18.24-6.32.4-4.1.34-6.27.56-4.15.45-6.23.71-4.13.55-6.18.87c-2.28.35-4.28.68-6.13,1-2.07.37-4.11.76-6.08,1.17s-4.07.86-6,1.31-4,.94-6,1.46-4,1-5.91,1.6-3.78,1.1-5.8,1.72l-.06,0c-1.8.56-3.69,1.17-5.79,1.88-1.95.66-3.87,1.34-5.72,2s-3.69,1.38-5.67,2.15-3.81,1.54-5.59,2.29l-.06,0c-1.82.76-3.66,1.57-5.47,2.39s-3.71,1.7-5.46,2.55-3.67,1.79-5.38,2.67c-3.46,1.77-7,3.7-10.54,5.73-1.67,1-3.39,2-5.11,3l-.05,0c-1.73,1.05-3.43,2.11-5,3.13l0,0a252.7,252.7,0,0,0-24.08,17.56c-1.64,1.36-3.13,2.62-4.54,3.85s-3,2.59-4.46,3.94c-5.83,5.31-11.49,11-16.82,16.83-1.29,1.42-2.62,2.92-3.95,4.45-1.2,1.38-2.44,2.86-3.8,4.5l0,0a247.73,247.73,0,0,0-17.56,24.08c-1.09,1.69-2.16,3.4-3.17,5.07,0,0,0,0,0,0-1.06,1.74-2.08,3.46-3,5.11-2,3.48-3.93,7-5.73,10.54-.94,1.83-1.84,3.64-2.68,5.39s-1.7,3.59-2.55,5.45-1.62,3.66-2.39,5.46l0,.07c-.84,2-1.59,3.82-2.28,5.59s-1.46,3.78-2.16,5.67-1.37,3.83-2,5.73-1.3,3.95-1.88,5.79c-.62,2-1.2,4-1.74,5.86s-1,3.79-1.6,5.91-1,4-1.45,6-.91,4.06-1.32,6-.79,4-1.16,6.08-.7,4-1,6.13v0c-.3,1.93-.58,3.94-.86,6.15-.26,2-.5,4.09-.71,6.23s-.4,4.16-.56,6.28-.3,4.31-.4,6.31-.19,4.23-.24,6.36-.08,4.12-.08,6.4,0,4.37.08,6.4.13,4.27.24,6.36.23,4.09.4,6.32.35,4.2.56,6.27.45,4.24.71,6.23c.28,2.19.56,4.2.86,6.15v0c.34,2.19.67,4.19,1,6.13s.76,4.12,1.16,6.05v0c.4,1.93.84,4,1.32,6,.43,1.91.91,3.86,1.45,6s1.08,4.07,1.6,5.91,1.12,3.84,1.74,5.85c.58,1.84,1.19,3.73,1.88,5.79.65,1.9,1.33,3.83,2,5.73s1.43,3.81,2.16,5.67c1.43,3.63,3,7.35,4.68,11.06l0,.06c1.63,3.6,3.38,7.23,5.2,10.79l0,.06c2.71,5.28,5.65,10.54,8.74,15.64l0,.05c1,1.69,2.09,3.39,3.17,5.07A250.44,250.44,0,0,0,191.55,622c1.28,1.47,2.59,3,3.9,4.4l.05.06a249.59,249.59,0,0,0,21.28,20.76c1.46,1.27,3,2.56,4.54,3.85a249.41,249.41,0,0,0,24.08,17.56l0,0c3.23,2.08,6.63,4.15,10.11,6.15l.08,0c3.58,2,7.13,4,10.54,5.72,1.76.9,3.54,1.79,5.3,2.63l.08,0c1.78.86,3.62,1.71,5.45,2.54,1.61.73,3.31,1.48,5.54,2.43,2,.83,3.8,1.58,5.59,2.28s3.57,1.38,5.67,2.16c1.94.7,3.86,1.38,5.73,2s3.87,1.29,5.78,1.88l.06,0c2.05.64,3.95,1.2,5.8,1.72s4,1.11,5.92,1.61,4.06,1,6,1.45,3.94.89,6,1.32c1.84.38,3.83.76,6.08,1.16,2,.36,4.11.71,6.13,1s4,.58,6.18.86,4.31.52,6.23.71c2.14.22,4.26.41,6.27.56,2.25.17,4.32.3,6.32.4s4.22.19,6.36.24,4.2.08,6.4.08,4.34,0,6.4-.08,4.28-.13,6.36-.24,4.06-.23,6.31-.4c2-.15,4.12-.34,6.28-.56,1.9-.19,3.94-.42,6.22-.71s4.23-.57,6.16-.86h0c2.05-.32,4.11-.66,6.13-1,2.24-.4,4.23-.78,6.08-1.16,2.32-.48,4.23-.9,6-1.32s3.87-.91,6-1.45c1.93-.5,3.92-1,5.91-1.61,1.83-.51,3.75-1.08,5.86-1.74,1.91-.59,3.85-1.22,5.79-1.88s3.78-1.3,5.73-2,3.93-1.47,5.66-2.15,3.62-1.45,5.6-2.29c2.22-.94,3.92-1.69,5.53-2.42,3.63-1.64,7.27-3.4,10.84-5.22C499,677,506,672.94,512.69,668.65c1.61-1,3.28-2.13,5-3.28a249.81,249.81,0,0,0,23.6-18.09l0,0c1.46-1.26,2.95-2.58,4.45-3.94l.06-.06c1.36-1.24,2.77-2.55,4.29-4s2.88-2.77,4.26-4.16c1.55-1.54,2.91-2.94,4.16-4.25,2.73-2.87,5.42-5.83,8-8.81,1.31-1.5,2.6-3,3.85-4.54A252.7,252.7,0,0,0,588,593.4c4.29-6.7,8.31-13.68,11.94-20.76l0-.06c1.83-3.6,3.58-7.23,5.19-10.79,0,0,0,0,0,0,1.66-3.67,3.23-7.39,4.69-11.07.72-1.84,1.45-3.75,2.15-5.67s1.36-3.8,2-5.73,1.29-3.91,1.88-5.79,1.2-4,1.74-5.85,1.09-3.94,1.6-5.91,1-3.83,1.46-6,.91-4.07,1.31-6v0c.39-1.94.78-4,1.16-6.05s.71-4.16,1-6.13v0c.3-1.9.58-3.92.87-6.15.25-2,.48-4,.71-6.23s.4-4.27.56-6.27.29-4.25.4-6.32.18-4.18.24-6.36.08-4.22.08-6.4S627,455.51,626.94,453.48Z"/><path class="cls-1" d="M572.21,479.88a2.68,2.68,0,0,0,0-.49l0-.26a4.07,4.07,0,0,0-.14-.51,2,2,0,0,0-.07-.19l0-.11a3.07,3.07,0,0,0-.17-.31l-.06-.1-.09-.14a3.35,3.35,0,0,0-.47-.52v0L439.48,361.09l102.81-161.2a3.37,3.37,0,0,0-5-4.36L394.55,318.35l-13.72-48.67a3.35,3.35,0,0,0-4.73-2.1l-29.22,14.56-.06,0-.13.08-.17.11a1.76,1.76,0,0,0-.23.15l-.1.08-.17.16-.08.08a.93.93,0,0,0-.14.14.82.82,0,0,0-.12.16l-.17.23-.09.14a1.38,1.38,0,0,0-.1.23l0,.06a.61.61,0,0,0-.07.14l-10.8,27.17L302.8,313a3.37,3.37,0,0,0-2.86,2c-.69,1.48-6.86,14.82-14,30.49l-36.65,2.36a3.36,3.36,0,0,0-2.92,2.14c-.42,1.1-5.2,13.48-10.37,26.9l-29.81,2a3.39,3.39,0,0,0-2.9,2.13c-6.08,15.57-26.06,66.81-27.87,72.8l-.09.31a1.69,1.69,0,0,0-.05.24,2.72,2.72,0,0,0,0,.43v.09a3.28,3.28,0,0,0,0,.52.6.6,0,0,0,0,.12,2.5,2.5,0,0,0,.12.47,1.66,1.66,0,0,0,.06.16,2.72,2.72,0,0,0,.16.35l.12.21,0,.06.08.13L205.92,498l-19.21,30.53a3.36,3.36,0,0,0,.92,4.54l36.57,25.68-13,28.25a3.35,3.35,0,0,0,1.8,4.52l136.28,55,.11,0a2.77,2.77,0,0,0,.41.12l.07,0a2.55,2.55,0,0,0,.6.07h.08a3,3,0,0,0,.63-.07,1.89,1.89,0,0,0,.34-.09l.15-.05a1.13,1.13,0,0,0,.24-.08.19.19,0,0,0,.08,0l.15-.09a.35.35,0,0,0,.14-.06s.08,0,.09-.07l.14-.1.31-.25.12-.11a1.15,1.15,0,0,0,.14-.17l.08-.09a1,1,0,0,0,.13-.16.17.17,0,0,0,0-.06l.06-.08.09-.17a4.18,4.18,0,0,0,.18-.39l0-.08s0-.1.06-.2a3.26,3.26,0,0,0,.1-.49l0-.08L369.76,486l136.4,24.7L525.41,537a3.39,3.39,0,0,0,2.72,1.38,3.43,3.43,0,0,0,1.4-.31L566.65,521c.06,0,.1,0,.09,0a4,4,0,0,0,.58-.36l.18-.15a4.08,4.08,0,0,0,.43-.47.94.94,0,0,0,.09-.12,2.88,2.88,0,0,0,.37-.69.74.74,0,0,0,0-.14l-.47-.12.49.06a3.17,3.17,0,0,0,.12-.41c0-.05,0-.1,0-.15l0-.09L572.21,480A.43.43,0,0,0,572.21,479.88ZM291,350.49c6.5-14.25,12.32-26.85,14.19-30.89l22.05-1.33Zm106.84-26.12L524.35,215.51l-90,141.08ZM499,491.53l-63-75.48,30.25-20ZM354.3,286l21.16-10.54,11,38.87Zm50.6,150.76,25.55-16.92,60.85,73Zm18.16-58.54-51.73-68.24,91.25,80.51L433,410l-9.43-30.85a2.89,2.89,0,0,0-.15-.39l0-.08a4.3,4.3,0,0,0-.3-.49Zm-23.9,3.69,18.65,1.48,6.51,21.31Zm-9.3-7.48a3.36,3.36,0,0,0-2.52,5.84l38.3,34.69-25.58,16.94L340.44,314.16,349.26,292l63.89,84.28Zm102.3,126.94-119.6-21.66,27.09-38.35ZM362.59,482.27l-45.37,68.64-3.87-127ZM324.7,629.35l-105.9-42.7,11-23.93ZM183.09,455.42l66.64-59.24-44.46,89.58Zm3.19-11.84c5.65-14.87,15.49-40.23,22.47-58.12l24.56-1.67C227.47,399,224,408.14,222.9,411Zm47.47-42.19c4.8-12.54,12.38-32.19,18.1-47l30.91-2c-1.38,3-2.76,6.06-4.13,9.09Zm-18.64,79.66,42.65-85.93L260.51,447Zm46.06-26.11,14.3,126.88-65-88.91ZM267,442.18l-2.84-53.58,39.69,26ZM310.31,544.6l-42.19-94.87L306.53,421ZM266,381.75l64.61-57.43L307.66,409ZM210.18,503.88l55.34,75.71L194.1,529.45Zm132.38,129.8L283.4,592.14l-13.82-122.6ZM313.4,413.56l22.69-83.89,25.17,140.61Zm48.67,81.68L348.49,630.46,318,561.91Zm32.79-58.79-26.19,37.08L344.09,336.25Zm167.91,42.38-52.68,24.22-34.7-101.32Zm2.2,6.39L562.26,514l-43-7.78Zm-10.82,34.15-24.93,11.45-13.46-18.4ZM346.87,282.71ZM175.78,454.26Zm0,1.18Z"/><polygon class="cls-1" points="808.56 446.42 846.05 446.42 846.05 269.43 910.55 269.43 910.55 237.75 744.07 237.75 744.07 269.43 808.56 269.43 808.56 446.42"/><path class="cls-1" d="M969.74,324.81a37.32,37.32,0,0,1,18.08-4.33,75,75,0,0,1,9.73.67,40.22,40.22,0,0,1,7.4,1.47V288.69a52.68,52.68,0,0,0-6.37-.77c-2.56-.16-4.84-.24-6.88-.24a40.3,40.3,0,0,0-23.89,7.38q-10.45,7.38-14.73,20.94h-1.63V289.92H915.69v156.5h36.88v-92a33.62,33.62,0,0,1,4.59-17.64A32.28,32.28,0,0,1,969.74,324.81Z"/><path class="cls-1" d="M1054.92,441.58q11.76,6.87,27.14,6.87,17.64,0,29.7-8.35a47.24,47.24,0,0,0,17.38-21.5h1.63v27.82h35.76V289.92h-36.88v90.67q0,11.93-4.94,19.82a32.45,32.45,0,0,1-12.59,11.88,33.79,33.79,0,0,1-15.79,4q-13.24,0-21.4-8.76t-8.15-23.63V289.92H1029.9v99.64q0,18.75,6.62,31.94A47,47,0,0,0,1054.92,441.58Z"/><path class="cls-1" d="M1280.3,357.16l-26.69-5.71q-11.94-2.74-17.07-7a13.54,13.54,0,0,1-5-11.12q-.09-7.94,7.7-12.93t19.31-5a34.16,34.16,0,0,1,14.46,2.76,25.36,25.36,0,0,1,9.43,7.23,27.55,27.55,0,0,1,4.94,9.58l33.62-3.67q-3.77-20-19.61-31.69T1258,287.88q-18.74,0-33.06,5.85t-22.31,16.51q-8,10.65-7.9,25.12-.09,17.1,10.7,28.27t33.32,15.84l26.7,5.6q10.8,2.35,15.94,6.73a14,14,0,0,1,5.15,11.11q0,7.95-8,13.34t-21.14,5.41q-12.74,0-20.69-5.41t-10.39-16l-36,3.47q3.36,21.6,20.88,33.67t46.25,12.08q19.56,0,34.65-6.33t23.58-17.57a42.41,42.41,0,0,0,8.61-26q-.09-16.82-11-27.2T1280.3,357.16Z"/><path class="cls-1" d="M1422.26,417a37,37,0,0,1-6.37.51,23.41,23.41,0,0,1-8.35-1.42,11.85,11.85,0,0,1-6.07-5.36q-2.29-3.92-2.29-11.36v-80.9h30.87V289.92h-30.87V252.43H1362.3v37.49h-22.21v28.52h22.21v87q-.1,14.69,6.37,24.46a38.19,38.19,0,0,0,17.57,14.41,59.51,59.51,0,0,0,25,4.24,70.06,70.06,0,0,0,13.3-1.43,81.66,81.66,0,0,0,8.41-2.25l-6.22-28.82C1425.68,416.33,1424.2,416.63,1422.26,417Z"/><rect class="cls-1" x="1458.8" y="237.75" width="36.88" height="208.67"/><path class="cls-1" d="M1552.58,227.66a21.37,21.37,0,0,0-15.07,5.86,18.53,18.53,0,0,0-6.32,14.11,18.78,18.78,0,0,0,6.26,14.16,22.25,22.25,0,0,0,30.17,0,19.09,19.09,0,0,0,0-28.27A21.18,21.18,0,0,0,1552.58,227.66Z"/><rect class="cls-1" x="1534.05" y="289.92" width="36.88" height="156.5"/><path class="cls-1" d="M1721.31,294.81q-12.07-6.93-28.28-6.93-17.52,0-29.38,7.74a44.6,44.6,0,0,0-17.28,20.88h-1.83V289.92h-35.25v156.5h36.88v-91.7q0-11.33,4.22-19.26a29.58,29.58,0,0,1,11.73-12.18,34.37,34.37,0,0,1,17.16-4.22q14.27,0,22.36,8.86t8.11,24.56v93.94h36.88V346.76q.09-18.74-6.58-31.88A46.9,46.9,0,0,0,1721.31,294.81Z"/><path class="cls-1" d="M1901.41,306.83a63,63,0,0,0-22.81-14.32,80.31,80.31,0,0,0-27.37-4.63q-22.41,0-39,10.24a69.4,69.4,0,0,0-25.83,28.52q-9.21,18.3-9.21,42.44,0,24.56,9.16,42.65a65.85,65.85,0,0,0,26.24,27.91q17.07,9.84,40.6,9.84,18.24,0,32.4-5.57a60.17,60.17,0,0,0,23.29-15.69,53.55,53.55,0,0,0,12.37-23.78l-34.43-3.88a28.39,28.39,0,0,1-7.24,11.11,31.78,31.78,0,0,1-11.31,6.78,43.68,43.68,0,0,1-14.57,2.28q-12,0-21-5.14a35.19,35.19,0,0,1-14-14.87q-4.82-9.39-5-22.47h109V366.94q0-20.58-5.7-35.5T1901.41,306.83Zm-87.58,46.56a40.5,40.5,0,0,1,4.75-17.07,38.07,38.07,0,0,1,13.3-14.26,36.2,36.2,0,0,1,19.86-5.45,35.52,35.52,0,0,1,18.6,4.79,33.72,33.72,0,0,1,12.48,13.09,39.89,39.89,0,0,1,4.58,18.9Z"/><path class="cls-1" d="M2062.87,372.35Q2052,362,2029.8,357.16l-26.69-5.71q-11.92-2.74-17.07-7a13.5,13.5,0,0,1-5-11.12q-.11-7.94,7.69-12.93t19.31-5a34.16,34.16,0,0,1,14.46,2.76,25.28,25.28,0,0,1,9.43,7.23,27.55,27.55,0,0,1,4.94,9.58l33.62-3.67q-3.76-20-19.61-31.69t-43.35-11.71q-18.75,0-33.07,5.85t-22.31,16.51q-8,10.65-7.89,25.12-.1,17.1,10.7,28.27t33.32,15.84l26.69,5.6q10.8,2.35,15.94,6.73a14,14,0,0,1,5.15,11.11q0,7.95-8,13.34t-21.15,5.41q-12.74,0-20.69-5.41t-10.39-16l-36,3.47q3.36,21.6,20.89,33.67T2007,449.48q19.56,0,34.65-6.33t23.57-17.57a42.48,42.48,0,0,0,8.62-26Q2073.72,382.73,2062.87,372.35Z"/><polygon class="cls-1" points="850.46 609.85 849.72 609.85 809.33 551.54 798.24 551.54 798.24 630.94 810.21 630.94 810.21 572.71 810.96 572.71 851.32 630.94 862.33 630.94 862.33 551.54 850.46 551.54 850.46 609.85"/><polygon class="cls-1" points="901.02 596.32 936.22 596.32 936.22 586.05 901.02 586.05 901.02 561.85 938.82 561.85 938.82 551.54 889.04 551.54 889.04 630.94 939.28 630.94 939.28 620.63 901.02 620.63 901.02 596.32"/><polygon class="cls-1" points="959.71 561.85 984.45 561.85 984.45 630.94 996.39 630.94 996.39 561.85 1021.16 561.85 1021.16 551.54 959.71 551.54 959.71 561.85"/><polygon class="cls-1" points="1113.63 613.07 1112.9 613.07 1096.8 551.54 1084.32 551.54 1068.23 613.03 1067.49 613.03 1052.02 551.54 1039.42 551.54 1061.44 630.94 1073.54 630.94 1090.24 571.47 1090.87 571.47 1107.58 630.94 1119.64 630.94 1141.7 551.54 1129.06 551.54 1113.63 613.07"/><path class="cls-1" d="M1211.51,555.36a36.84,36.84,0,0,0-36.75,0,34,34,0,0,0-12.73,14q-4.66,9.14-4.66,21.85t4.66,21.82a34.15,34.15,0,0,0,12.73,14.07,36.9,36.9,0,0,0,36.75,0,34,34,0,0,0,12.74-14q4.65-9.14,4.66-21.85t-4.66-21.85A33.86,33.86,0,0,0,1211.51,555.36Zm2.42,52.22a23.35,23.35,0,0,1-8.54,10.09,23.61,23.61,0,0,1-24.48,0,23.38,23.38,0,0,1-8.52-10.09q-3.12-6.65-3.11-16.34t3.11-16.35a23.27,23.27,0,0,1,8.52-10.07,23.5,23.5,0,0,1,24.48,0,23.24,23.24,0,0,1,8.54,10.07q3.12,6.66,3.11,16.35T1213.93,607.58Z"/><path class="cls-1" d="M1296.48,597.83a20.69,20.69,0,0,0,9.14-8.58,26.09,26.09,0,0,0,3.05-12.83,26.83,26.83,0,0,0-3-12.92,21.08,21.08,0,0,0-9.13-8.78c-4.08-2.12-9.18-3.18-15.34-3.18h-28.3v79.4h12v-30h16.28l.77,0,16.14,30.06h13.64l-17.58-32.1C1294.93,598.53,1295.73,598.2,1296.48,597.83Zm-31.62-36h15a22.18,22.18,0,0,1,9.6,1.77,11.43,11.43,0,0,1,5.39,5,16.73,16.73,0,0,1,1.73,7.79,16,16,0,0,1-1.71,7.64,11,11,0,0,1-5.37,4.85,23.08,23.08,0,0,1-9.48,1.67h-15.2Z"/><polygon class="cls-1" points="1393.96 551.54 1378.88 551.54 1345.57 589.45 1344.6 589.45 1344.6 551.54 1332.63 551.54 1332.63 630.94 1344.6 630.94 1344.6 606.24 1353.99 595.47 1379.66 630.94 1394.08 630.94 1361.93 587.29 1393.96 551.54"/></g></svg>