<svg id="Layer_2" data-name="Layer 2" xmlns="http://www.w3.org/2000/svg" viewBox="0 0 1523.55 643.15"><polygon points="171.53 205.09 231.64 205.09 231.64 370.05 266.58 370.05 266.58 205.09 326.69 205.09 326.69 175.56 171.53 175.56 171.53 205.09"/><path d="M402.32,222.1A37.53,37.53,0,0,0,380.06,229q-9.75,6.87-13.73,19.51h-1.52V224.19H331.49V370.05h34.37V284.32a31.25,31.25,0,0,1,4.27-16.44,30,30,0,0,1,11.72-11.16,34.76,34.76,0,0,1,16.86-4,71.9,71.9,0,0,1,9.07.62,36.9,36.9,0,0,1,6.89,1.37V223.05a46.85,46.85,0,0,0-5.94-.72C406.35,222.18,404.22,222.1,402.32,222.1Z"/><path d="M530.89,308.7q0,11.12-4.61,18.48a30,30,0,0,1-11.73,11.05,31.23,31.23,0,0,1-14.71,3.7c-8.24,0-14.88-2.69-19.95-8.16s-7.59-12.77-7.59-22V224.19H437.93v92.87q0,17.47,6.17,29.77a44,44,0,0,0,17.14,18.72q11,6.39,25.3,6.39c11,0,20.18-2.57,27.68-7.78a44,44,0,0,0,16.19-20h1.53v25.91h33.32V224.19H530.89Z"/><path d="M671.3,286.87l-24.88-5.33Q635.31,279,630.51,275a12.58,12.58,0,0,1-4.7-10.36q-.09-7.38,7.17-12t18-4.66a32.12,32.12,0,0,1,13.48,2.57,24,24,0,0,1,8.79,6.75,25.57,25.57,0,0,1,4.6,8.92l31.33-3.42q-3.51-18.62-18.28-29.53t-40.4-10.92q-17.46,0-30.82,5.46t-20.79,15.39a37.46,37.46,0,0,0-7.36,23.42c-.06,10.6,3.26,19.4,10,26.33s17.06,11.87,31.06,14.77l24.88,5.22q10.06,2.17,14.85,6.27a13,13,0,0,1,4.8,10.36q0,7.41-7.45,12.42T649.93,347q-11.86,0-19.28-5.06T621,327l-33.52,3.26q3.13,20.12,19.47,31.37T650,372.9q18.24,0,32.3-5.9t22-16.36a39.64,39.64,0,0,0,8-24.26c-.06-10.45-3.47-18.92-10.21-25.35S685.1,289.84,671.3,286.87Z"/><path d="M803.6,342.61a34,34,0,0,1-5.93.48,22,22,0,0,1-7.79-1.32,11.19,11.19,0,0,1-5.65-5q-2.15-3.64-2.14-10.58V250.77h28.78V224.19H782.09V189.26H747.72v34.93H727v26.58h20.7v81.11q-.09,13.68,5.94,22.78A35.55,35.55,0,0,0,770,368.1a55.9,55.9,0,0,0,23.26,4,65.41,65.41,0,0,0,12.39-1.35,73.47,73.47,0,0,0,7.84-2.09l-5.8-26.85C806.79,342,805.41,342.29,803.6,342.61Z"/><rect x="837.66" y="175.56" width="34.37" height="194.49"/><path d="M925.06,166.16a20,20,0,0,0-14,5.46A17.76,17.76,0,0,0,911,198a20.78,20.78,0,0,0,28.12,0,17.36,17.36,0,0,0,5.83-13.14,17.62,17.62,0,0,0-5.83-13.22A19.82,19.82,0,0,0,925.06,166.16Z"/><rect x="907.79" y="224.19" width="34.37" height="145.86"/><path d="M1082.32,228.75q-11.25-6.45-26.35-6.46-16.34,0-27.39,7.23a41.45,41.45,0,0,0-16.1,19.44h-1.71V224.19H977.91V370.05h34.37V284.6q0-10.55,3.94-18a27.58,27.58,0,0,1,10.93-11.35,31.92,31.92,0,0,1,16-3.94q13.29,0,20.84,8.26t7.55,22.9v87.54h34.37V277.16q.09-17.45-6.12-29.71A43.77,43.77,0,0,0,1082.32,228.75Z"/><path d="M1250.17,240a58.4,58.4,0,0,0-21.26-13.34,74.6,74.6,0,0,0-25.5-4.33q-20.9,0-36.37,9.56A64.61,64.61,0,0,0,1143,258.42q-8.58,17.06-8.58,39.56,0,22.89,8.53,39.73a61.25,61.25,0,0,0,24.46,26q15.92,9.17,37.85,9.16,17,0,30.19-5.18a56.33,56.33,0,0,0,21.7-14.62,50,50,0,0,0,11.53-22.18l-32.09-3.62a26.14,26.14,0,0,1-6.75,10.37,29.58,29.58,0,0,1-10.53,6.31,40.4,40.4,0,0,1-13.58,2.13,38.64,38.64,0,0,1-19.57-4.79,32.79,32.79,0,0,1-13-13.86q-4.5-8.74-4.63-20.93h101.58V296q0-19.17-5.31-33.07A62.66,62.66,0,0,0,1250.17,240Zm-81.63,43.39a37.94,37.94,0,0,1,4.44-15.91,35.6,35.6,0,0,1,12.39-13.3,33.82,33.82,0,0,1,18.51-5.06,33.18,33.18,0,0,1,17.34,4.46,31.35,31.35,0,0,1,11.63,12.19,37.44,37.44,0,0,1,4.27,17.62Z"/><path d="M1400.65,301q-10.11-9.7-30.82-14.16L1345,281.54q-11.13-2.55-15.91-6.55a12.55,12.55,0,0,1-4.7-10.36q-.09-7.38,7.17-12t18-4.66a32,32,0,0,1,13.47,2.57,23.93,23.93,0,0,1,8.79,6.75,25.41,25.41,0,0,1,4.6,8.92l31.34-3.42q-3.51-18.62-18.28-29.53T1349,222.29q-17.46,0-30.81,5.46t-20.79,15.39a37.46,37.46,0,0,0-7.36,23.42c-.06,10.6,3.26,19.4,10,26.33s17,11.87,31.06,14.77l24.87,5.22q10.07,2.17,14.86,6.27a13.06,13.06,0,0,1,4.8,10.36q0,7.41-7.45,12.42T1348.47,347q-11.87,0-19.28-5.06T1319.5,327L1286,330.28q3.13,20.12,19.46,31.37t43.11,11.25q18.23,0,32.29-5.9t22-16.36a39.63,39.63,0,0,0,8-24.26C1410.79,315.93,1407.39,307.46,1400.65,301Z"/><path d="M573.73,468v74H563.47l-37.62-54.28h-.69V542H514V468h10.33L562,522.37h.69V468Z"/><path d="M598.63,542V468H645v9.6H609.79v22.54H642.6v9.58H609.79v22.66h35.66V542Z"/><path d="M664.49,477.64V468h57.28v9.6H698.68V542H687.55v-64.4Z"/><path d="M759.3,542l-20.52-74h11.74l14.42,57.29h.69l15-57.29h11.63l15,57.33h.68L822.33,468h11.78l-20.56,74H802.31L786.73,486.6h-.58L770.58,542Z"/><path d="M915.38,505q0,11.83-4.34,20.35a31.61,31.61,0,0,1-11.87,13.07,34.31,34.31,0,0,1-34.25,0,31.73,31.73,0,0,1-11.87-13.09q-4.34-8.54-4.34-20.33t4.34-20.37a31.88,31.88,0,0,1,11.87-13.1,34.44,34.44,0,0,1,34.25,0A31.82,31.82,0,0,1,911,484.67Q915.39,493.16,915.38,505Zm-11.06,0q0-9-2.91-15.25a21.66,21.66,0,0,0-7.94-9.38,21.88,21.88,0,0,0-22.82,0,21.73,21.73,0,0,0-7.94,9.38Q859.8,496,859.81,505c0,6,1,11.09,2.9,15.22a21.82,21.82,0,0,0,7.94,9.41,22.12,22.12,0,0,0,22.82,0,21.75,21.75,0,0,0,7.94-9.41C903.36,516.13,904.32,511,904.32,505Z"/><path d="M937.73,542V468H964.1c5.74,0,10.5,1,14.3,2.95a19.62,19.62,0,0,1,8.5,8.18,25,25,0,0,1,2.83,12.05,24.25,24.25,0,0,1-2.85,11.95,19.16,19.16,0,0,1-8.52,8c-3.8,1.91-8.56,2.88-14.3,2.88h-20v-9.62h19a21.71,21.71,0,0,0,8.83-1.55,10.33,10.33,0,0,0,5-4.54,14.93,14.93,0,0,0,1.59-7.11,15.65,15.65,0,0,0-1.61-7.27,10.6,10.6,0,0,0-5-4.7,20.85,20.85,0,0,0-9-1.65h-14V542Zm36.53-33.39L992.54,542H979.82l-17.93-33.39Z"/><path d="M1012.05,542V468h11.16v35.31h.91l31-35.31h14l-29.85,33.3,30,40.7h-13.44L1032,509l-8.75,10v23Z"/></svg>