<svg xmlns="http://www.w3.org/2000/svg" viewBox="0 0 1155.98 1190"><defs><style>.cls-1{fill:#f05a55;}</style></defs><g id="Layer_10" data-name="Layer 10"><path class="cls-1" d="M771.08,364.12V364c0-1.63-.1-3.26-.18-4.84v-.27c-.08-1.52-.18-3.07-.3-4.73l0-.32c-.11-1.47-.24-3-.41-4.64l0-.4c-.16-1.51-.34-3-.52-4.53l-.06-.46c-.19-1.5-.4-3-.62-4.43l-.08-.53c-.23-1.46-.47-2.91-.72-4.36l-.09-.54c-.26-1.44-.54-2.86-.83-4.29l-.12-.6c-.29-1.41-.6-2.81-.92-4.21l-.14-.6q-.48-2.1-1-4.2l-.14-.54c-.36-1.4-.74-2.78-1.12-4.16l-.17-.59c-.39-1.37-.8-2.74-1.22-4.1l-.18-.57c-.46-1.47-.89-2.79-1.31-4l-.21-.61c-.45-1.33-.92-2.66-1.4-4l-.21-.58c-.49-1.33-1-2.65-1.51-4l-.21-.53c-.54-1.35-1.08-2.67-1.61-3.92l-.24-.57c-.55-1.3-1.12-2.6-1.7-3.89l-.22-.48c-.59-1.31-1.19-2.6-1.81-3.89l-.22-.45c-.63-1.3-1.27-2.59-1.93-3.87l-.2-.4c-.66-1.28-1.33-2.56-2-3.83l-.23-.42c-.69-1.27-1.39-2.53-2.11-3.79l-.2-.33c-.73-1.27-1.47-2.54-2.23-3.79l-.19-.3q-1.17-1.92-2.37-3.79l-.09-.15q-1.24-1.92-2.53-3.83l-.1-.15c-.93-1.37-1.77-2.59-2.57-3.71l-.05-.07a.21.21,0,0,0-.06-.08q-1.3-1.85-2.66-3.66l-.13-.17c-.88-1.18-1.78-2.34-2.68-3.5l-.24-.31q-1.38-1.74-2.79-3.45l-.17-.22c-.93-1.13-1.88-2.24-2.83-3.34l-.28-.33q-1.4-1.6-2.82-3.18l-.36-.4c-.94-1-1.9-2.06-2.87-3.07l-.38-.41c-1-1-1.92-2-2.9-3l-.45-.45c-1-1-2.1-2.08-3.19-3.11l-.06-.06c-2.49-2.38-5.18-4.79-8-7.18a.75.75,0,0,0-.78-.13.77.77,0,0,0-.48.63c-.55,5.73.93,7.12,4.18,10.17l.84.79A190.91,190.91,0,1,1,616,182.22c5.53,1.26,8.31,1.89,13.34-1.42a.76.76,0,0,0,.33-.75.76.76,0,0,0-.54-.62c-3.73-1.09-7.42-2.06-11-2.88l-.13,0c-1.48-.34-3-.67-4.66-1l-.17,0c-1.39-.28-2.92-.58-4.68-.9l-.15,0c-1.56-.28-3.16-.55-4.73-.79l-.16,0c-1.53-.24-3.14-.46-4.78-.67l-.1,0c-1.66-.2-3.3-.39-4.87-.55h-.11c-1.44-.15-3-.29-5-.44-5-.38-10.12-.58-15.2-.58-1.8,0-3.47,0-5.1.07s-3.43.11-5.07.19-3.32.19-5,.32-3.27.27-5,.44-3.3.36-5,.57-3.28.44-4.92.69c-1.82.28-3.41.54-4.89.81-1.64.29-3.27.61-4.84.93s-3.24.68-4.81,1-3.15.75-4.75,1.17-3.18.84-4.71,1.27-3,.88-4.63,1.38h0c-1.43.45-2.94.94-4.61,1.5s-3.09,1.07-4.57,1.61-2.93,1.09-4.51,1.71-3,1.23-4.46,1.83l-.05,0c-1.45.61-2.91,1.25-4.36,1.9s-3,1.36-4.35,2-2.92,1.43-4.29,2.13c-2.75,1.41-5.58,2.94-8.4,4.56-1.32.76-2.69,1.57-4.07,2.41l0,0c-1.38.84-2.73,1.69-4,2.5l0,0a201.46,201.46,0,0,0-19.19,14c-1.31,1.09-2.5,2.09-3.62,3.07s-2.36,2.06-3.55,3.14c-4.65,4.23-9.16,8.74-13.41,13.41-1,1.14-2.09,2.33-3.15,3.55s-1.95,2.28-3,3.59l0,0a199.09,199.09,0,0,0-14,19.2c-.87,1.35-1.72,2.71-2.52,4l0,0c-.85,1.39-1.66,2.76-2.41,4.07-1.6,2.78-3.13,5.6-4.56,8.41-.75,1.45-1.47,2.89-2.14,4.29s-1.36,2.87-2,4.35-1.3,2.92-1.9,4.35l0,.05c-.67,1.59-1.27,3.05-1.82,4.46s-1.17,3-1.72,4.52-1.09,3.05-1.61,4.57-1,3.14-1.5,4.61-1,3.17-1.38,4.67-.84,3-1.28,4.71-.81,3.23-1.16,4.76-.73,3.23-1.05,4.8-.63,3.2-.93,4.85-.55,3.21-.81,4.88v0c-.23,1.54-.46,3.14-.69,4.9-.2,1.59-.39,3.26-.56,5s-.32,3.32-.45,5-.24,3.44-.31,5-.15,3.37-.2,5.07-.06,3.28-.06,5.1,0,3.48.06,5.1.11,3.4.2,5.06.18,3.26.31,5,.28,3.36.45,5,.36,3.38.56,5,.46,3.34.69,4.9v0c.27,1.73.54,3.33.81,4.88s.61,3.28.93,4.82v0c.32,1.55.67,3.16,1.05,4.8s.73,3.08,1.16,4.77.86,3.24,1.28,4.71.89,3.06,1.38,4.67.95,3,1.5,4.61,1.06,3.05,1.61,4.57,1.14,3,1.72,4.51c1.14,2.9,2.4,5.87,3.73,8.82l0,.05c1.3,2.87,2.69,5.76,4.14,8.59l0,0c2.15,4.21,4.5,8.4,7,12.47a.08.08,0,0,0,0,0c.82,1.34,1.66,2.7,2.52,4a198,198,0,0,0,17.06,22.81c1,1.18,2.06,2.36,3.11,3.51l0,.05a200.66,200.66,0,0,0,17,16.55c1.16,1,2.38,2,3.62,3.06a199,199,0,0,0,19.19,14l0,0c2.58,1.65,5.29,3.3,8.06,4.9l.06,0c2.86,1.63,5.68,3.17,8.4,4.56,1.41.72,2.83,1.42,4.23,2.1l.06,0c1.42.69,2.89,1.37,4.35,2,1.28.58,2.64,1.18,4.41,1.93,1.57.66,3,1.26,4.46,1.82s2.85,1.1,4.52,1.72,3.08,1.1,4.56,1.61,3.09,1,4.61,1.5h0c1.64.51,3.15,1,4.62,1.37s3.17.88,4.72,1.28,3.24.81,4.75,1.16,3.14.71,4.81,1c1.47.3,3.05.6,4.84.93,1.63.29,3.28.56,4.89.81s3.16.46,4.93.69,3.43.41,5,.56c1.71.18,3.39.33,5,.45,1.79.13,3.44.24,5,.32s3.37.15,5.07.19,3.36.06,5.1.06,3.46,0,5.11-.06,3.41-.11,5.06-.19,3.24-.19,5-.32c1.6-.12,3.28-.27,5-.45,1.52-.15,3.14-.34,5-.56s3.37-.46,4.91-.69h0c1.63-.25,3.28-.53,4.88-.81,1.79-.33,3.38-.63,4.85-.93,1.85-.38,3.38-.72,4.8-1s3.09-.73,4.76-1.16,3.12-.82,4.71-1.28,3-.86,4.67-1.38c1.52-.48,3.07-1,4.62-1.5s3-1,4.57-1.61,3.13-1.17,4.51-1.72,2.88-1.15,4.46-1.82c1.77-.75,3.13-1.35,4.4-1.93,2.9-1.31,5.8-2.71,8.65-4.16,5.64-2.9,11.21-6.1,16.54-9.52,1.28-.82,2.62-1.7,4-2.62a197.47,197.47,0,0,0,18.81-14.41l0,0c1.16-1,2.36-2.06,3.55-3.15l0,0c1.08-1,2.2-2,3.42-3.19s2.29-2.21,3.39-3.31,2.32-2.35,3.32-3.4c2.17-2.28,4.32-4.64,6.37-7C724,497.26,725,496,726,494.83a201.46,201.46,0,0,0,14-19.19c3.42-5.34,6.62-10.9,9.51-16.55l0,0c1.46-2.86,2.85-5.75,4.14-8.59,0,0,0,0,0-.05,1.32-2.92,2.58-5.88,3.74-8.82.58-1.47,1.15-3,1.71-4.51s1.09-3,1.61-4.57,1-3.12,1.5-4.62,1-3.15,1.39-4.66.87-3.14,1.27-4.71.77-3.06,1.17-4.77.73-3.24,1-4.8v0c.31-1.55.63-3.17.92-4.82s.57-3.31.81-4.89v0c.24-1.52.46-3.12.69-4.9.2-1.6.39-3.22.57-5s.32-3.4.44-5,.24-3.38.32-5,.15-3.33.2-5.07.06-3.37.06-5.1S771.12,365.73,771.08,364.12Z"/><path class="cls-1" d="M547.81,227.58l0,0h0Z"/><path class="cls-1" d="M727.46,385.16c0-.13,0-.26,0-.39l0-.21a3.11,3.11,0,0,0-.11-.4l0-.15,0-.09a2,2,0,0,0-.14-.25l0-.08-.07-.11a3.7,3.7,0,0,0-.37-.42h0L621.66,290.48,703.6,162a2.68,2.68,0,0,0-4-3.47l-113.75,97.9-10.93-38.8a2.72,2.72,0,0,0-1.5-1.73,2.68,2.68,0,0,0-2.28.06L547.9,227.53l0,0,.15.37-.19-.34a.3.3,0,0,0-.11.06l-.08.05,0,0-.19.12-.07.07-.11.1-.1.09-.11.11-.09.13-.14.19-.07.11a1.12,1.12,0,0,0-.08.18l0,.05a.37.37,0,0,0-.05.11l-8.61,21.66-25.2,1.52a2.66,2.66,0,0,0-2.27,1.55c-.21.46-5.28,11.39-11.18,24.32l-29.21,1.88a2.7,2.7,0,0,0-2.33,1.71c-.34.87-4.15,10.74-8.27,21.44l-23.76,1.62a2.67,2.67,0,0,0-2.31,1.69c-4.85,12.41-20.78,53.26-22.21,58l-.07.24a1.18,1.18,0,0,0,0,.2,1.61,1.61,0,0,0,0,.33v.08a3.19,3.19,0,0,0,0,.42s0,.05,0,.09a2.15,2.15,0,0,0,.1.38.84.84,0,0,0,0,.12,1.69,1.69,0,0,0,.13.27,1.62,1.62,0,0,0,.1.18l0,0,.06.11,24,32.78L420.19,424a2.68,2.68,0,0,0,.73,3.62l29.15,20.47-10.34,22.51a2.67,2.67,0,0,0-.06,2.11,2.71,2.71,0,0,0,1.49,1.5L549.79,518l.08,0a1.18,1.18,0,0,0,.3.09h0l.08,0a2.68,2.68,0,0,0,.48.06h.06a2.43,2.43,0,0,0,.51-.06l.27-.07.12,0,.19-.07.07,0,.12-.07.11-.05a.22.22,0,0,0,.07-.06l.11-.08a2.43,2.43,0,0,0,.25-.2l.09-.08.11-.13.06-.08L553,517l0-.06,0-.06.07-.14q.09-.16.15-.3l0-.07,0-.16a2.23,2.23,0,0,0,.09-.39v-.06L566.09,390l108.72,19.68,15.34,21a2.7,2.7,0,0,0,2.17,1.1,2.53,2.53,0,0,0,1.11-.25L723,418l.06,0a2.74,2.74,0,0,0,.46-.29l.15-.13a3.17,3.17,0,0,0,.34-.37.39.39,0,0,0,.08-.1,2.42,2.42,0,0,0,.29-.55l0-.1-.38-.1.4,0a3,3,0,0,0,.09-.32.49.49,0,0,0,0-.12l0-.07,2.88-30.52ZM503.33,282c5.17-11.34,9.82-21.4,11.31-24.62l17.58-1.06Zm85.16-20.82L689.3,174.45,617.59,286.89Zm80.64,133.23L619,334.29l24.1-16Zm-5.48,7.81L568.33,385l21.59-30.57ZM553.77,230.59l16.87-8.4,8.72,31ZM594.1,350.75l20.36-13.49L663,395.42Zm14.47-46.66-41.22-54.38,72.73,64.16L616.5,329.49,609,304.9a2.38,2.38,0,0,0-.12-.32l0-.05a2.55,2.55,0,0,0-.24-.39Zm-19,2.94,14.86,1.18,5.19,17Zm-7.42-6a2.68,2.68,0,0,0-2,4.66l30.53,27.65-20.39,13.5-47.52-93.8,7-17.71,50.92,67.17Zm-21.74,86-36.15,54.7-3.09-101.21Zm-30.2,117.22-84.4-34,8.76-19.07ZM417.31,365.66l53.11-47.21L435,389.85Zm2.54-9.43c4.5-11.86,12.35-32.07,17.91-46.32l19.57-1.33c-4.65,12.08-7.44,19.39-8.29,21.71Zm37.84-33.63c3.85-10.06,9.88-25.7,14.42-37.45l24.63-1.59-3.28,7.24Zm-14.86,63.49,34-68.49L479,359Zm-3.68,9.46,40.39-30.26,11.4,101.12Zm45-40.44-2.27-42.7,31.64,20.69Zm34.52,81.63-33.62-75.61,30.62-22.94ZM483.36,307l51.49-45.77-18.26,67.51ZM438.9,404.29,483,464.63l-56.92-40ZM544.41,507.74l-47.15-33.1-11-97.72ZM521.17,332.3l18.08-66.86,20.06,112.07ZM560,397.41,549.14,505.18l-24.3-54.64Zm26.13-46.87L565.22,380.1,545.63,270.69Zm133.84,33.78-42,19.31-27.66-80.75Zm1.76,5.09-2.17,22.95-34.25-6.2Zm-8.63,27.23-19.87,9.12L682.46,411.1ZM547.85,228ZM411.46,365.68Z"/><polygon class="cls-1" points="69.62 693.54 118.5 693.54 118.5 827.68 146.92 827.68 146.92 693.54 195.81 693.54 195.81 669.52 69.62 669.52 69.62 693.54"/><path class="cls-1" d="M257.31,707.36A30.55,30.55,0,0,0,239.2,713,29.66,29.66,0,0,0,228,728.83h-1.23V709.06H199.7V827.68h28V758a25.44,25.44,0,0,1,3.48-13.36,24.45,24.45,0,0,1,9.54-9.08,28.29,28.29,0,0,1,13.7-3.29,57.61,57.61,0,0,1,7.38.51,29.44,29.44,0,0,1,5.6,1.13V708.13a40.27,40.27,0,0,0-4.83-.57C260.59,707.43,258.86,707.36,257.31,707.36Z"/><path class="cls-1" d="M361.48,806.6h1.24v21.08h27.11V709.06h-28v68.73q0,9-3.74,15a24.62,24.62,0,0,1-9.55,9,25.52,25.52,0,0,1-12,3c-6.7,0-12.1-2.2-16.22-6.65s-6.18-10.39-6.18-17.9V709.06h-28v75.52q0,14.22,5,24.21a35.61,35.61,0,0,0,14,15.23,40.13,40.13,0,0,0,20.57,5.21c8.92,0,16.41-2.11,22.52-6.34A35.69,35.69,0,0,0,361.48,806.6Z"/><path class="cls-1" d="M502.89,811.9a32.18,32.18,0,0,0,6.53-19.74q-.07-12.74-8.3-20.61T476.06,760l-20.23-4.33c-6-1.39-10.35-3.15-12.94-5.33a10.23,10.23,0,0,1-3.83-8.41q-.06-6,5.84-9.8t14.63-3.79a25.93,25.93,0,0,1,11,2.09,19.33,19.33,0,0,1,7.14,5.47,20.91,20.91,0,0,1,3.74,7.27l25.49-2.79a37.43,37.43,0,0,0-14.87-24q-12-8.86-32.86-8.87-14.2,0-25.06,4.43a39.26,39.26,0,0,0-16.91,12.51,30.51,30.51,0,0,0-6,19q-.07,13,8.11,21.42t25.25,12l20.24,4.24q8.18,1.8,12.08,5.1a10.64,10.64,0,0,1,3.9,8.43q0,6-6.06,10.11t-16,4.1q-9.65,0-15.68-4.1a19.15,19.15,0,0,1-7.87-12.12l-27.26,2.63q2.55,16.36,15.83,25.52T458.76,830q14.82,0,26.26-4.79A42.25,42.25,0,0,0,502.89,811.9Z"/><path class="cls-1" d="M538.21,796.64q-.08,11.13,4.83,18.52a28.8,28.8,0,0,0,13.32,10.93,45,45,0,0,0,18.92,3.22,53.61,53.61,0,0,0,10.08-1.09,60.4,60.4,0,0,0,6.37-1.7L587,804.68c-.76.19-1.88.42-3.35.68a27.79,27.79,0,0,1-4.83.39,17.74,17.74,0,0,1-6.33-1.07,9,9,0,0,1-4.6-4.07q-1.74-3-1.74-8.61V730.69h23.4V709.06h-23.4V680.65H538.21v28.41H521.38v21.63h16.83Z"/><rect class="cls-1" x="611.36" y="669.53" width="27.95" height="158.15"/><rect class="cls-1" x="668.39" y="709.06" width="27.95" height="118.62"/><path class="cls-1" d="M682.36,692.23a16.2,16.2,0,0,0,11.47-4.44,14.46,14.46,0,0,0,0-21.43,16,16,0,0,0-11.39-4.48A16.18,16.18,0,0,0,671,666.32,14,14,0,0,0,666.22,677,14.21,14.21,0,0,0,671,687.74,16,16,0,0,0,682.36,692.23Z"/><path class="cls-1" d="M810.33,712.77q-9.17-5.25-21.44-5.25-13.27,0-22.27,5.87a33.68,33.68,0,0,0-13.1,15.83h-1.39V709.06H725.42V827.68h28v-69.5a30.84,30.84,0,0,1,3.2-14.6,22.43,22.43,0,0,1,8.89-9.23,26.05,26.05,0,0,1,13-3.2q10.8,0,16.95,6.71c4.09,4.49,6.14,10.68,6.14,18.62v71.2h28V752.15q.07-14.21-5-24.17A35.59,35.59,0,0,0,810.33,712.77Z"/><path class="cls-1" d="M946.83,721.88A47.49,47.49,0,0,0,929.54,711a60.44,60.44,0,0,0-20.74-3.52q-17,0-29.58,7.76a52.75,52.75,0,0,0-19.58,21.62q-7,13.86-7,32.16,0,18.63,6.94,32.33a50,50,0,0,0,19.89,21.16Q892.44,830,910.27,830a66.77,66.77,0,0,0,24.55-4.22,45.57,45.57,0,0,0,17.66-11.89,40.58,40.58,0,0,0,9.37-18l-26.09-2.94a21.55,21.55,0,0,1-5.49,8.41,24.07,24.07,0,0,1-8.57,5.15,33.13,33.13,0,0,1-11,1.73,31.56,31.56,0,0,1-15.92-3.9A26.72,26.72,0,0,1,884.17,793c-2.44-4.73-3.63-10.43-3.72-17H963v-8.57q0-15.62-4.32-26.91A50.81,50.81,0,0,0,946.83,721.88ZM880.6,757.17a30.79,30.79,0,0,1,3.45-12.94,28.77,28.77,0,0,1,10.08-10.8,27.37,27.37,0,0,1,15-4.13,26.91,26.91,0,0,1,14.1,3.63,25.47,25.47,0,0,1,9.46,9.91,30.42,30.42,0,0,1,3.47,14.33Z"/><path class="cls-1" d="M1069.21,771.55q-8.22-7.89-25.06-11.52l-20.23-4.33c-6-1.39-10.35-3.15-12.94-5.33a10.23,10.23,0,0,1-3.83-8.41q-.06-6,5.84-9.8t14.63-3.79a25.93,25.93,0,0,1,11,2.09,19.25,19.25,0,0,1,7.14,5.47,20.74,20.74,0,0,1,3.74,7.27l25.49-2.79a37.43,37.43,0,0,0-14.87-24q-12-8.86-32.86-8.87-14.21,0-25.06,4.43a39.26,39.26,0,0,0-16.91,12.51,30.51,30.51,0,0,0-6,19q-.07,13,8.11,21.42t25.25,12l20.24,4.24q8.17,1.8,12.08,5.1a10.64,10.64,0,0,1,3.9,8.43q0,6-6.06,10.11t-16,4.1q-9.64,0-15.68-4.1a19.15,19.15,0,0,1-7.87-12.12L976,795.33q2.55,16.36,15.83,25.52t35.06,9.15q14.82,0,26.26-4.79A42.25,42.25,0,0,0,1071,811.9a32.18,32.18,0,0,0,6.53-19.74Q1077.44,779.43,1069.21,771.55Z"/><polygon class="cls-1" points="387.72 951.56 387.15 951.56 356.53 907.37 348.14 907.37 348.14 967.55 357.21 967.55 357.21 923.41 357.77 923.41 388.36 967.55 396.71 967.55 396.71 907.37 387.72 907.37 387.72 951.56"/><polygon class="cls-1" points="426.04 941.3 452.72 941.3 452.72 933.52 426.04 933.52 426.04 915.18 454.69 915.18 454.69 907.37 416.96 907.37 416.96 967.55 455.04 967.55 455.04 959.73 426.04 959.73 426.04 941.3"/><polygon class="cls-1" points="470.52 915.18 489.27 915.18 489.27 967.55 498.32 967.55 498.32 915.18 517.1 915.18 517.1 907.37 470.52 907.37 470.52 915.18"/><polygon class="cls-1" points="587.19 953.99 586.63 953.99 574.43 907.37 564.97 907.37 552.77 953.98 552.21 953.98 540.49 907.37 530.94 907.37 547.63 967.55 556.8 967.55 569.46 922.46 569.93 922.46 582.6 967.55 591.74 967.55 608.46 907.37 598.88 907.37 587.19 953.99"/><path class="cls-1" d="M661.38,910.26a27.88,27.88,0,0,0-27.86,0,25.83,25.83,0,0,0-9.65,10.63,40.56,40.56,0,0,0,0,33.1,25.88,25.88,0,0,0,9.65,10.67,28,28,0,0,0,27.86,0A25.75,25.75,0,0,0,671,954a40.61,40.61,0,0,0,0-33.12A25.76,25.76,0,0,0,661.38,910.26Zm1.82,39.58a17.71,17.71,0,0,1-6.46,7.65,17.92,17.92,0,0,1-18.56,0,17.69,17.69,0,0,1-6.45-7.65,33.7,33.7,0,0,1,0-24.78,17.63,17.63,0,0,1,6.45-7.63,17.8,17.8,0,0,1,18.56,0,17.65,17.65,0,0,1,6.46,7.63,33.57,33.57,0,0,1,0,24.78Z"/><path class="cls-1" d="M725.78,942.44a15.57,15.57,0,0,0,6.93-6.5,19.79,19.79,0,0,0,2.31-9.72,20.39,20.39,0,0,0-2.29-9.79,15.93,15.93,0,0,0-6.92-6.66,25.11,25.11,0,0,0-11.62-2.4H692.74v60.18h9.07V944.78h12.34c.21,0,.36,0,.56,0L727,967.55h10.34L723.9,943.07C724.51,942.84,725.22,942.72,725.78,942.44Zm-24-27.3h11.4a17.05,17.05,0,0,1,7.28,1.34,8.84,8.84,0,0,1,4.09,3.84,12.71,12.71,0,0,1,1.3,5.9,12.15,12.15,0,0,1-1.29,5.8,8.43,8.43,0,0,1-4.07,3.67,17.51,17.51,0,0,1-7.18,1.26H701.81Z"/><polygon class="cls-1" points="799.67 907.37 788.24 907.37 762.99 936.1 762.25 936.1 762.25 907.37 753.18 907.37 753.18 967.55 762.25 967.55 762.25 948.83 769.37 940.66 788.83 967.55 799.75 967.55 775.39 934.45 799.67 907.37"/></g></svg>