<?xml version="1.0" encoding="utf-8"?>
<!-- Generator: Adobe Illustrator 23.0.4, SVG Export Plug-In . SVG Version: 6.00 Build 0)  -->
<svg version="1.1" id="Layer_10" xmlns="http://www.w3.org/2000/svg" xmlns:xlink="http://www.w3.org/1999/xlink" x="0px" y="0px"
	 viewBox="0 0 2150 850" style="enable-background:new 0 0 2150 850;" xml:space="preserve">
<style type="text/css">
	.st0{fill:#FFFFFF;}
	.st1{stroke:#000000;stroke-miterlimit:10;}
	.st2{fill:#F05C56;}
	.st3{fill:#F05A55;}
	.st4{fill:url(#SVGID_1_);}
	.st5{fill:url(#SVGID_2_);}
	.st6{fill:url(#SVGID_3_);}
	.st7{fill:url(#SVGID_4_);}
	.st8{fill:#E1E1E1;}
	.st9{fill:#646464;}
</style>
<g>
	<g>
		<path class="st0" d="M872.57,263.82v-29.7h154.53v29.7h-59.92v185.02h-34.69V263.82H872.57z"/>
		<path class="st0" d="M1035.51,448.84V297.2h32.06v16.29c3.33-5.61,8.1-10.51,14.32-14.72c6.22-4.2,13.62-6.31,22.21-6.31
			c8.06,0,14.63,1.14,19.71,3.42v30.22c-6.66-2.1-13.23-3.15-19.71-3.15c-11.39,0-20.11,4.43-26.15,13.27
			c-6.04,8.85-9.07,20.63-9.07,35.35v77.27H1035.51z"/>
		<path class="st0" d="M1139.32,393.91V297.2h33.38v92.51c0,23.65,8.32,35.48,24.97,35.48c9.99,0,17.78-4.25,23.39-12.75
			c5.6-8.5,8.41-18.61,8.41-30.35V297.2h33.11v151.64h-32.06v-17.61h-0.26c-2.46,5.43-7.14,10.51-14.06,15.24
			c-6.92,4.73-15.55,7.1-25.89,7.1c-6.14,0-11.96-0.92-17.48-2.76c-5.52-1.84-10.91-4.82-16.16-8.94
			c-5.26-4.11-9.46-10.29-12.61-18.53C1140.9,415.11,1139.32,405.3,1139.32,393.91z"/>
		<path class="st0" d="M1287.55,417.3l23.92-13.93c10.51,15.42,24.18,23.13,41,23.13c8.23,0,14.76-1.62,19.58-4.86
			c4.82-3.24,7.23-7.58,7.23-13.01c0-4.38-1.97-8.23-5.91-11.56c-3.94-3.33-8.11-5.82-12.48-7.49c-4.38-1.66-10.95-3.9-19.71-6.7
			c-1.58-0.53-2.72-0.87-3.42-1.05c-6.31-2.1-11.61-4.16-15.9-6.18c-4.29-2.01-8.8-4.73-13.53-8.15s-8.32-7.71-10.78-12.88
			c-2.46-5.17-3.68-11.17-3.68-18c0-13.31,5.6-24,16.82-32.06c11.21-8.06,25.14-12.09,41.79-12.09c12.44,0,24.18,3.29,35.22,9.86
			c11.04,6.57,19.27,14.94,24.7,25.1l-22.08,13.4c-10.34-14.19-22.86-21.29-37.58-21.29c-8.06,0-14.24,1.62-18.53,4.86
			c-4.29,3.24-6.44,7.49-6.44,12.75c0,4.38,1.88,8.28,5.65,11.7c3.77,3.42,7.66,5.91,11.7,7.49c4.03,1.58,9.72,3.59,17.08,6.04
			c1.92,0.53,3.33,0.97,4.2,1.31c31.18,9.99,46.78,25.06,46.78,45.2c0,12.44-5.22,23-15.64,31.67
			c-10.43,8.67-25.19,13.01-44.28,13.01c-14.72,0-27.82-3.24-39.29-9.72C1302.48,437.37,1293.68,428.52,1287.55,417.3z"/>
		<path class="st0" d="M1425.79,302.98V274.6h23.39v-40.47h33.11v40.47h34.69v28.38h-34.69v97.24c0,7.19,1.44,12.35,4.34,15.51
			c2.89,3.15,7.31,4.73,13.27,4.73h17.35v28.38h-21.55c-31.01,0-46.52-15.42-46.52-46.25v-99.61H1425.79z"/>
		<path class="st0" d="M1546.15,448.84V234.12h33.11v214.72H1546.15z"/>
		<rect x="1620" y="234.12" class="st0" width="35.74" height="36.53"/>
		<rect x="1621.58" y="293.26" class="st0" width="32.85" height="155.58"/>
		<path class="st0" d="M1693.85,448.84V297.2h32.33v19.19h0.26c2.63-5.61,7.49-10.99,14.59-16.16c7.1-5.17,16.25-7.75,27.46-7.75
			c15.07,0,27.07,4.64,36,13.93c8.94,9.29,13.4,24.27,13.4,44.94v97.5h-33.38V355.8c0-23.3-7.88-34.95-23.65-34.95
			c-9.64,0-17.65,3.86-24.05,11.56c-6.4,7.71-9.59,17.26-9.59,28.65v87.78H1693.85z"/>
		<path class="st0" d="M1843.39,372.36c0-24.35,6.7-43.76,20.1-58.21s30.26-21.68,50.59-21.68c19.97,0,36.44,7.27,49.41,21.81
			c12.96,14.54,19.45,33.47,19.45,56.77c0,4.56-0.26,9.03-0.79,13.4h-105.12c0,11.56,3.46,21.51,10.38,29.83
			c6.92,8.32,16.43,12.48,28.52,12.48c8.41,0,15.81-2.06,22.21-6.18c6.39-4.11,11.26-9.42,14.59-15.9l27.86,9.46
			c-4.91,11.21-12.88,20.59-23.92,28.12c-11.04,7.53-24.79,11.3-41.26,11.3c-21.2,0-38.5-7.36-51.91-22.08
			S1843.39,397.07,1843.39,372.36z M1877.56,361.06h71.48c0-11.56-3.07-21.42-9.2-29.57c-6.14-8.15-14.72-12.22-25.76-12.22
			c-11.04,0-19.84,4.16-26.41,12.48C1881.11,340.08,1877.73,349.85,1877.56,361.06z"/>
		<path class="st0" d="M1998.71,417.3l23.92-13.93c10.51,15.42,24.18,23.13,41,23.13c8.23,0,14.76-1.62,19.58-4.86
			c4.82-3.24,7.23-7.58,7.23-13.01c0-4.38-1.97-8.23-5.91-11.56c-3.94-3.33-8.11-5.82-12.48-7.49c-4.38-1.66-10.95-3.9-19.71-6.7
			c-1.58-0.53-2.72-0.87-3.42-1.05c-6.31-2.1-11.61-4.16-15.9-6.18c-4.29-2.01-8.8-4.73-13.53-8.15s-8.32-7.71-10.78-12.88
			c-2.46-5.17-3.68-11.17-3.68-18c0-13.31,5.6-24,16.82-32.06c11.21-8.06,25.14-12.09,41.79-12.09c12.44,0,24.18,3.29,35.22,9.86
			c11.04,6.57,19.27,14.94,24.7,25.1l-22.08,13.4c-10.34-14.19-22.86-21.29-37.58-21.29c-8.06,0-14.24,1.62-18.53,4.86
			c-4.29,3.24-6.44,7.49-6.44,12.75c0,4.38,1.88,8.28,5.65,11.7c3.77,3.42,7.66,5.91,11.7,7.49c4.03,1.58,9.72,3.59,17.08,6.04
			c1.92,0.53,3.33,0.97,4.2,1.31c31.18,9.99,46.78,25.06,46.78,45.2c0,12.44-5.22,23-15.64,31.67
			c-10.43,8.67-25.19,13.01-44.28,13.01c-14.72,0-27.82-3.24-39.29-9.72C2013.65,437.37,2004.84,428.52,1998.71,417.3z"/>
		<g>
			<path class="st0" d="M1103.06,613.76v-89.89h12.61l31.1,54.66l10.49,18.61h0.71c-1.02-7.3-1.53-15.83-1.53-25.57v-47.71h11.43
				v89.89h-12.61l-31.1-54.55l-10.49-18.61h-0.47c0.86,8.17,1.3,16.69,1.3,25.57v47.6H1103.06z"/>
			<path class="st0" d="M1227.38,613.76v-89.89h57.14v9.78h-45.71v28.86h41.23v9.54h-41.23v31.93h46.77v9.78H1227.38z"/>
			<path class="st0" d="M1329.19,533.64v-9.78h65.15v9.78h-26.86v80.11h-11.43v-80.11H1329.19z"/>
			<path class="st0" d="M1436.19,523.87h12.37l11.43,56.9c1.73,10.13,2.87,16.89,3.42,20.26h0.71c0.24-1.18,0.84-4.26,1.83-9.25
				c0.98-4.99,1.71-8.66,2.18-11.02l13.19-56.9h11.9l13.43,56.9c0.78,3.38,2.12,10.13,4.01,20.26h0.47
				c0.16-0.94,1.33-7.7,3.53-20.26l11.55-56.9h12.37l-20.85,89.89h-13.31l-12.96-56.2c-0.31-1.41-0.75-3.44-1.3-6.07
				c-0.55-2.63-1.04-5.03-1.47-7.19c-0.43-2.16-0.81-4.22-1.12-6.19h-0.47c-0.24,1.41-1.53,7.89-3.89,19.44l-12.96,56.2h-13.19
				L1436.19,523.87z"/>
			<path class="st0" d="M1581.71,568.87c0-14.14,3.44-25.52,10.31-34.17c6.87-8.64,16.04-12.96,27.51-12.96
				c11.55,0,20.71,4.32,27.51,12.96c6.79,8.64,10.19,20.07,10.19,34.28c0,14.3-3.44,25.68-10.31,34.17
				c-6.87,8.48-16,12.72-27.39,12.72c-11.47,0-20.64-4.26-27.51-12.78C1585.14,594.57,1581.71,583.17,1581.71,568.87z
				 M1593.49,568.87c0,11.39,2.34,20.42,7.01,27.1c4.67,6.68,11.02,10.01,19.03,10.01c7.93,0,14.24-3.28,18.91-9.84
				c4.67-6.56,7.01-15.61,7.01-27.16c0-11.39-2.28-20.48-6.83-27.27c-4.56-6.79-10.92-10.19-19.09-10.19
				c-8.01,0-14.35,3.38-19.03,10.13C1595.83,548.41,1593.49,557.48,1593.49,568.87z"/>
			<path class="st0" d="M1710.74,613.76v-89.89h35.46c8.95,0,15.85,2.4,20.68,7.19c4.83,4.79,7.25,10.72,7.25,17.79
				c0,6.28-1.51,11.39-4.54,15.32c-3.02,3.93-6.42,6.44-10.19,7.54c3.14,1.81,5.42,3.93,6.83,6.36c1.41,2.44,2.59,5.93,3.53,10.49
				c0.86,3.69,1.55,6.54,2.06,8.54c0.51,2,1.37,4.52,2.59,7.54c1.22,3.02,2.73,6.07,4.54,9.13h-12.84
				c-3.22-5.73-6.01-13.86-8.36-24.39c-1.02-4.32-2.49-7.64-4.42-9.96c-1.92-2.32-5.01-3.48-9.25-3.48h-21.91v37.82H1710.74z
				 M1722.16,566.16h22.38c5.73,0,10.13-1.47,13.19-4.42c3.06-2.95,4.59-6.97,4.59-12.08c0-4.79-1.61-8.66-4.83-11.6
				c-3.22-2.95-7.78-4.42-13.67-4.42h-21.68V566.16z"/>
			<path class="st0" d="M1828.22,613.76v-89.89h11.43v45.12h0.24l38.76-45.12h14.96l-34.4,39l35.93,50.89H1881l-29.1-42.65
				l-12.25,13.9v28.75H1828.22z"/>
		</g>
		<path class="st0" d="M872.57,263.82v-29.7h154.53v29.7h-59.92v185.02h-34.69V263.82H872.57z"/>
		<path class="st0" d="M1035.51,448.84V297.2h32.06v16.29c3.33-5.61,8.1-10.51,14.32-14.72c6.22-4.2,13.62-6.31,22.21-6.31
			c8.06,0,14.63,1.14,19.71,3.42v30.22c-6.66-2.1-13.23-3.15-19.71-3.15c-11.39,0-20.11,4.43-26.15,13.27
			c-6.04,8.85-9.07,20.63-9.07,35.35v77.27H1035.51z"/>
		<path class="st0" d="M1139.32,393.91V297.2h33.38v92.51c0,23.65,8.32,35.48,24.97,35.48c9.99,0,17.78-4.25,23.39-12.75
			c5.6-8.5,8.41-18.61,8.41-30.35V297.2h33.11v151.64h-32.06v-17.61h-0.26c-2.46,5.43-7.14,10.51-14.06,15.24
			c-6.92,4.73-15.55,7.1-25.89,7.1c-6.14,0-11.96-0.92-17.48-2.76c-5.52-1.84-10.91-4.82-16.16-8.94
			c-5.26-4.11-9.46-10.29-12.61-18.53C1140.9,415.11,1139.32,405.3,1139.32,393.91z"/>
		<path class="st0" d="M1287.55,417.3l23.92-13.93c10.51,15.42,24.18,23.13,41,23.13c8.23,0,14.76-1.62,19.58-4.86
			c4.82-3.24,7.23-7.58,7.23-13.01c0-4.38-1.97-8.23-5.91-11.56c-3.94-3.33-8.11-5.82-12.48-7.49c-4.38-1.66-10.95-3.9-19.71-6.7
			c-1.58-0.53-2.72-0.87-3.42-1.05c-6.31-2.1-11.61-4.16-15.9-6.18c-4.29-2.01-8.8-4.73-13.53-8.15s-8.32-7.71-10.78-12.88
			c-2.46-5.17-3.68-11.17-3.68-18c0-13.31,5.6-24,16.82-32.06c11.21-8.06,25.14-12.09,41.79-12.09c12.44,0,24.18,3.29,35.22,9.86
			c11.04,6.57,19.27,14.94,24.7,25.1l-22.08,13.4c-10.34-14.19-22.86-21.29-37.58-21.29c-8.06,0-14.24,1.62-18.53,4.86
			c-4.29,3.24-6.44,7.49-6.44,12.75c0,4.38,1.88,8.28,5.65,11.7c3.77,3.42,7.66,5.91,11.7,7.49c4.03,1.58,9.72,3.59,17.08,6.04
			c1.92,0.53,3.33,0.97,4.2,1.31c31.18,9.99,46.78,25.06,46.78,45.2c0,12.44-5.22,23-15.64,31.67
			c-10.43,8.67-25.19,13.01-44.28,13.01c-14.72,0-27.82-3.24-39.29-9.72C1302.48,437.37,1293.68,428.52,1287.55,417.3z"/>
		<path class="st0" d="M1425.79,302.98V274.6h23.39v-40.47h33.11v40.47h34.69v28.38h-34.69v97.24c0,7.19,1.44,12.35,4.34,15.51
			c2.89,3.15,7.31,4.73,13.27,4.73h17.35v28.38h-21.55c-31.01,0-46.52-15.42-46.52-46.25v-99.61H1425.79z"/>
		<path class="st0" d="M1546.15,448.84V234.12h33.11v214.72H1546.15z"/>
		<rect x="1620" y="234.12" class="st0" width="35.74" height="36.53"/>
		<rect x="1621.58" y="293.26" class="st0" width="32.85" height="155.58"/>
		<path class="st0" d="M1693.85,448.84V297.2h32.33v19.19h0.26c2.63-5.61,7.49-10.99,14.59-16.16c7.1-5.17,16.25-7.75,27.46-7.75
			c15.07,0,27.07,4.64,36,13.93c8.94,9.29,13.4,24.27,13.4,44.94v97.5h-33.38V355.8c0-23.3-7.88-34.95-23.65-34.95
			c-9.64,0-17.65,3.86-24.05,11.56c-6.4,7.71-9.59,17.26-9.59,28.65v87.78H1693.85z"/>
		<path class="st0" d="M1843.39,372.36c0-24.35,6.7-43.76,20.1-58.21s30.26-21.68,50.59-21.68c19.97,0,36.44,7.27,49.41,21.81
			c12.96,14.54,19.45,33.47,19.45,56.77c0,4.56-0.26,9.03-0.79,13.4h-105.12c0,11.56,3.46,21.51,10.38,29.83
			c6.92,8.32,16.43,12.48,28.52,12.48c8.41,0,15.81-2.06,22.21-6.18c6.39-4.11,11.26-9.42,14.59-15.9l27.86,9.46
			c-4.91,11.21-12.88,20.59-23.92,28.12c-11.04,7.53-24.79,11.3-41.26,11.3c-21.2,0-38.5-7.36-51.91-22.08
			S1843.39,397.07,1843.39,372.36z M1877.56,361.06h71.48c0-11.56-3.07-21.42-9.2-29.57c-6.14-8.15-14.72-12.22-25.76-12.22
			c-11.04,0-19.84,4.16-26.41,12.48C1881.11,340.08,1877.73,349.85,1877.56,361.06z"/>
		<path class="st0" d="M1998.71,417.3l23.92-13.93c10.51,15.42,24.18,23.13,41,23.13c8.23,0,14.76-1.62,19.58-4.86
			c4.82-3.24,7.23-7.58,7.23-13.01c0-4.38-1.97-8.23-5.91-11.56c-3.94-3.33-8.11-5.82-12.48-7.49c-4.38-1.66-10.95-3.9-19.71-6.7
			c-1.58-0.53-2.72-0.87-3.42-1.05c-6.31-2.1-11.61-4.16-15.9-6.18c-4.29-2.01-8.8-4.73-13.53-8.15s-8.32-7.71-10.78-12.88
			c-2.46-5.17-3.68-11.17-3.68-18c0-13.31,5.6-24,16.82-32.06c11.21-8.06,25.14-12.09,41.79-12.09c12.44,0,24.18,3.29,35.22,9.86
			c11.04,6.57,19.27,14.94,24.7,25.1l-22.08,13.4c-10.34-14.19-22.86-21.29-37.58-21.29c-8.06,0-14.24,1.62-18.53,4.86
			c-4.29,3.24-6.44,7.49-6.44,12.75c0,4.38,1.88,8.28,5.65,11.7c3.77,3.42,7.66,5.91,11.7,7.49c4.03,1.58,9.72,3.59,17.08,6.04
			c1.92,0.53,3.33,0.97,4.2,1.31c31.18,9.99,46.78,25.06,46.78,45.2c0,12.44-5.22,23-15.64,31.67
			c-10.43,8.67-25.19,13.01-44.28,13.01c-14.72,0-27.82-3.24-39.29-9.72C2013.65,437.37,2004.84,428.52,1998.71,417.3z"/>
	</g>
	<g>
		<path class="st0" d="M786.93,428.09l-0.01-0.26c-0.08-3.13-0.2-6.27-0.35-9.33l-0.03-0.51c-0.15-2.94-0.34-5.92-0.58-9.12
			l-0.04-0.61c-0.22-2.82-0.48-5.75-0.79-8.93l-0.07-0.77c-0.3-2.92-0.64-5.83-1-8.73l-0.11-0.88c-0.37-2.88-0.77-5.75-1.19-8.53
			l-0.16-1.03c-0.43-2.81-0.9-5.6-1.39-8.38l-0.18-1.05c-0.5-2.77-1.03-5.51-1.59-8.25l-0.23-1.16c-0.56-2.72-1.15-5.42-1.77-8.12
			l-0.26-1.16c-0.63-2.7-1.29-5.4-1.97-8.08l-0.27-1.05c-0.69-2.68-1.41-5.35-2.16-8l-0.33-1.14c-0.75-2.64-1.54-5.28-2.35-7.88
			l-0.34-1.1c-0.89-2.84-1.72-5.38-2.53-7.78l-0.4-1.19c-0.87-2.56-1.77-5.11-2.7-7.66l-0.41-1.12c-0.94-2.56-1.91-5.11-2.91-7.65
			l-0.41-1.02c-1.03-2.6-2.07-5.14-3.09-7.55l-0.46-1.1c-1.07-2.5-2.16-5-3.28-7.49l-0.42-0.93c-1.13-2.51-2.3-5-3.49-7.49
			l-0.42-0.86c-1.21-2.5-2.44-4.99-3.71-7.45l-0.4-0.78c-1.27-2.47-2.56-4.93-3.9-7.38l-0.45-0.81c-1.33-2.44-2.69-4.87-4.07-7.29
			l-0.38-0.65c-1.41-2.45-2.85-4.87-4.31-7.29l-0.36-0.59c-1.5-2.46-3.02-4.89-4.56-7.3l-0.17-0.27c-1.6-2.48-3.22-4.94-4.87-7.39
			l-0.19-0.28c-1.79-2.65-3.42-4.99-4.96-7.14l-0.1-0.14c-0.03-0.05-0.07-0.1-0.11-0.15c-1.69-2.37-3.39-4.71-5.13-7.04l-0.25-0.33
			c-1.7-2.27-3.43-4.52-5.17-6.74l-0.47-0.6c-1.77-2.23-3.55-4.45-5.36-6.65l-0.35-0.42c-1.79-2.17-3.61-4.31-5.44-6.43l-0.55-0.64
			c-1.79-2.05-3.6-4.1-5.43-6.12l-0.7-0.77c-1.82-1.99-3.65-3.97-5.52-5.92l-0.74-0.78c-1.84-1.93-3.7-3.83-5.58-5.72l-0.87-0.87
			c-2.02-2.01-4.05-4.01-6.15-5.99c-0.03-0.03-0.08-0.08-0.11-0.11c-4.81-4.58-9.98-9.23-15.36-13.84c-0.42-0.36-1-0.45-1.51-0.25
			c-0.51,0.2-0.86,0.68-0.91,1.22c-1.08,11.03,1.78,13.71,8.03,19.59l1.62,1.53c35.85,34.13,64.05,74.32,83.82,119.46
			c20.47,46.73,30.84,96.49,30.84,147.91c0,98.58-38.4,191.26-108.12,260.99c-69.72,69.72-162.41,108.12-260.99,108.12
			c-98.58,0-191.27-38.4-260.99-108.12S37.25,536.3,37.25,437.72c0-98.58,38.4-191.26,108.12-260.99S307.78,68.61,406.36,68.61
			c27.62,0,55.16,3.06,81.91,9.12c10.66,2.42,16,3.63,25.68-2.73c0.48-0.31,0.73-0.88,0.65-1.45c-0.08-0.57-0.49-1.03-1.04-1.19
			c-7.19-2.1-14.3-3.97-21.12-5.55l-0.24-0.06c-2.86-0.66-5.79-1.3-8.98-1.96l-0.32-0.06c-2.68-0.55-5.63-1.12-9.02-1.73l-0.28-0.05
			c-3.02-0.54-6.09-1.05-9.12-1.51l-0.31-0.05c-2.94-0.45-6.05-0.89-9.2-1.29c-0.02,0-0.17-0.03-0.19-0.03
			c-3.2-0.4-6.36-0.76-9.38-1.06l-0.21-0.02c-2.77-0.28-5.79-0.56-9.56-0.85c-9.63-0.74-19.48-1.11-29.26-1.11
			c-3.47,0-6.69,0.04-9.82,0.12c-3.34,0.09-6.62,0.21-9.77,0.37c-3.15,0.16-6.41,0.36-9.69,0.61c-3.06,0.23-6.3,0.52-9.64,0.86
			c-3.14,0.32-6.36,0.69-9.56,1.09c-3.14,0.4-6.33,0.85-9.49,1.33c-3.49,0.54-6.57,1.05-9.41,1.56c-3.17,0.57-6.31,1.17-9.33,1.79
			c-3.13,0.64-6.24,1.32-9.25,2.01c-3,0.69-6.08,1.44-9.16,2.24c-3.07,0.79-6.13,1.62-9.07,2.46c-2.89,0.82-5.81,1.69-8.91,2.65
			c-0.03,0.01-0.06,0.02-0.08,0.02c-2.77,0.86-5.67,1.8-8.89,2.89c-2.99,1.02-5.95,2.06-8.79,3.1c-2.81,1.03-5.66,2.11-8.7,3.31
			c-3.04,1.21-5.85,2.35-8.59,3.51c-0.03,0.01-0.06,0.03-0.09,0.04c-2.79,1.18-5.62,2.41-8.4,3.67c-2.87,1.3-5.69,2.62-8.37,3.91
			c-2.85,1.38-5.63,2.76-8.26,4.1c-5.31,2.72-10.76,5.68-16.18,8.8c-2.55,1.47-5.19,3.03-7.85,4.64c-0.02,0.01-0.04,0.02-0.06,0.04
			c-2.67,1.62-5.26,3.24-7.72,4.82c-0.02,0.01-0.04,0.03-0.06,0.04c-12.77,8.19-25.21,17.27-36.97,26.96
			c-2.52,2.09-4.8,4.02-6.98,5.9c-2.24,1.94-4.54,3.98-6.84,6.06c-8.96,8.14-17.65,16.83-25.83,25.83
			c-1.98,2.19-4.02,4.49-6.06,6.84c-1.84,2.12-3.75,4.38-5.84,6.91c-0.02,0.02-0.04,0.05-0.06,0.07
			c-9.69,11.74-18.76,24.17-26.96,36.97c-1.67,2.61-3.31,5.23-4.86,7.78c-0.01,0.02-0.03,0.04-0.04,0.06
			c-1.63,2.68-3.19,5.32-4.64,7.85c-3.07,5.34-6.03,10.79-8.79,16.18c-1.44,2.8-2.82,5.58-4.11,8.27c-1.3,2.71-2.62,5.52-3.91,8.38
			c-1.26,2.8-2.5,5.62-3.67,8.39c-0.02,0.03-0.03,0.07-0.05,0.1c-1.29,3.06-2.44,5.87-3.51,8.59c-1.13,2.88-2.24,5.8-3.31,8.7
			c-1.07,2.92-2.11,5.88-3.1,8.8c-1.03,3.07-2.01,6.06-2.89,8.89c-0.95,3.08-1.85,6.1-2.67,8.99c-0.81,2.85-1.62,5.82-2.46,9.08
			c-0.82,3.21-1.56,6.21-2.23,9.16c-0.72,3.12-1.4,6.23-2.01,9.25c-0.62,3.02-1.22,6.16-1.79,9.33c-0.54,3.03-1.07,6.2-1.56,9.42
			c0,0.01,0,0.03-0.01,0.04c-0.45,2.97-0.88,6.05-1.32,9.44c-0.39,3.06-0.75,6.27-1.09,9.56c-0.32,3.15-0.61,6.39-0.86,9.63
			c-0.26,3.35-0.46,6.62-0.61,9.7c-0.16,3.21-0.29,6.49-0.38,9.76c-0.08,3.11-0.12,6.33-0.12,9.83c0,3.5,0.04,6.71,0.12,9.83
			c0.09,3.27,0.21,6.56,0.37,9.76c0.15,3.1,0.35,6.28,0.61,9.7c0.24,3.22,0.53,6.46,0.86,9.63c0.33,3.29,0.7,6.51,1.09,9.56
			c0.44,3.36,0.87,6.45,1.32,9.44c0,0.02,0,0.03,0.01,0.05c0.51,3.35,1.02,6.43,1.56,9.41c0.57,3.19,1.17,6.32,1.78,9.28
			c0,0.02,0.01,0.03,0.01,0.05c0.61,2.97,1.28,6.08,2.01,9.24c0.67,2.93,1.4,5.93,2.24,9.18c0.85,3.28,1.65,6.25,2.46,9.07
			c0.82,2.88,1.72,5.91,2.67,8.99c0.88,2.81,1.82,5.72,2.89,8.89c0.99,2.91,2.03,5.87,3.1,8.8c1.07,2.92,2.19,5.85,3.31,8.69
			c2.2,5.58,4.61,11.29,7.19,16.99c0.01,0.03,0.02,0.06,0.04,0.09c2.5,5.53,5.18,11.1,7.98,16.56c0.01,0.03,0.03,0.06,0.04,0.09
			c4.15,8.11,8.67,16.18,13.42,24.01c0.01,0.03,0.03,0.05,0.04,0.08c1.57,2.59,3.21,5.21,4.86,7.78
			c9.87,15.39,20.92,30.17,32.86,43.95c1.96,2.26,3.97,4.53,5.98,6.74c0.03,0.03,0.05,0.06,0.08,0.09
			c10.22,11.24,21.21,21.97,32.66,31.88c2.24,1.94,4.59,3.93,6.98,5.9c11.73,9.68,24.17,18.75,36.97,26.96
			c0.02,0.01,0.04,0.03,0.06,0.04c4.96,3.19,10.18,6.36,15.52,9.43c0.04,0.03,0.08,0.05,0.12,0.08c5.5,3.15,10.94,6.11,16.18,8.78
			c2.7,1.39,5.44,2.75,8.14,4.05c0.04,0.02,0.08,0.05,0.12,0.07c2.73,1.32,5.55,2.63,8.37,3.91c2.46,1.12,5.08,2.27,8.49,3.72
			c3.02,1.28,5.83,2.43,8.59,3.51c2.64,1.04,5.48,2.12,8.7,3.31c2.98,1.08,5.93,2.13,8.79,3.1c2.95,1,5.94,1.97,8.89,2.89
			c0.03,0.01,0.06,0.02,0.08,0.02c3.16,0.98,6.08,1.84,8.91,2.64c3.05,0.87,6.1,1.7,9.08,2.47c3.16,0.81,6.24,1.56,9.16,2.23
			c2.94,0.68,6.05,1.36,9.25,2.02c2.83,0.58,5.89,1.17,9.34,1.79c3.14,0.56,6.31,1.08,9.41,1.56c2.99,0.46,6.09,0.89,9.49,1.33
			c3.49,0.43,6.62,0.79,9.56,1.09c3.29,0.33,6.54,0.62,9.63,0.86c3.45,0.26,6.62,0.46,9.69,0.61c3.2,0.16,6.49,0.29,9.77,0.37
			c3.15,0.08,6.46,0.12,9.82,0.12c3.36,0,6.66-0.04,9.82-0.12c3.29-0.09,6.58-0.21,9.76-0.37c3.07-0.15,6.24-0.35,9.7-0.61
			c3.08-0.23,6.32-0.52,9.63-0.86c2.93-0.3,6.05-0.65,9.56-1.09c3.39-0.44,6.48-0.87,9.45-1.33c0.01,0,0.03,0,0.04-0.01
			c3.15-0.48,6.31-1.01,9.41-1.56c3.44-0.62,6.5-1.21,9.33-1.79c3.57-0.74,6.51-1.38,9.25-2.02c2.94-0.68,5.94-1.41,9.17-2.23
			c2.96-0.76,6.01-1.59,9.07-2.46c2.81-0.79,5.75-1.67,8.99-2.67c2.93-0.91,5.92-1.88,8.89-2.89c2.84-0.96,5.8-2.01,8.8-3.1
			c3.19-1.18,6.04-2.26,8.69-3.3c2.75-1.08,5.56-2.23,8.6-3.51c3.4-1.45,6.02-2.6,8.48-3.72c5.57-2.52,11.17-5.22,16.65-8.02
			c10.87-5.57,21.6-11.74,31.88-18.33c2.46-1.57,5.04-3.27,7.66-5.04c12.62-8.52,24.8-17.87,36.23-27.77
			c0.02-0.02,0.04-0.03,0.06-0.05c2.23-1.94,4.53-3.97,6.83-6.06c0.03-0.03,0.06-0.06,0.09-0.09c2.09-1.9,4.25-3.91,6.59-6.13
			c2.21-2.11,4.41-4.26,6.54-6.39c2.37-2.38,4.46-4.52,6.38-6.53c4.2-4.4,8.33-8.95,12.28-13.52c2.01-2.31,3.99-4.66,5.91-6.97
			c9.69-11.75,18.76-24.19,26.96-36.97c6.59-10.28,12.76-21,18.33-31.87c0.02-0.03,0.03-0.06,0.04-0.09
			c2.82-5.52,5.5-11.09,7.97-16.56c0.01-0.03,0.02-0.06,0.04-0.09c2.54-5.62,4.96-11.34,7.19-16.99c1.11-2.83,2.23-5.75,3.31-8.69
			c1.05-2.87,2.09-5.83,3.1-8.8c1.02-3.01,1.99-6,2.89-8.89c0.95-3.05,1.84-6.08,2.67-8.99c0.85-2.99,1.67-6.04,2.45-9.07
			c0.75-2.88,1.48-5.88,2.24-9.17c0.72-3.14,1.4-6.25,2.01-9.25c0-0.02,0.01-0.03,0.01-0.05c0.61-2.98,1.21-6.1,1.78-9.28
			c0.57-3.22,1.09-6.38,1.55-9.41c0-0.01,0-0.03,0.01-0.04c0.45-2.93,0.88-6.02,1.33-9.45c0.39-3.07,0.75-6.19,1.09-9.56
			c0.34-3.4,0.62-6.55,0.85-9.63c0.25-3.25,0.45-6.52,0.61-9.7c0.16-3.13,0.29-6.41,0.37-9.76c0.08-3.18,0.12-6.48,0.12-9.82
			C787.05,434.44,787.01,431.2,786.93,428.09z"/>
		<path class="st0" d="M702.91,468.62c0.01-0.25,0.01-0.49-0.02-0.74c-0.01-0.14-0.03-0.27-0.05-0.4c-0.04-0.24-0.11-0.47-0.21-0.79
			c-0.03-0.11-0.07-0.21-0.1-0.29l-0.06-0.17c-0.08-0.17-0.18-0.33-0.28-0.48l-0.09-0.15c-0.04-0.07-0.08-0.15-0.13-0.21
			c-0.21-0.3-0.45-0.57-0.71-0.81l-0.02-0.02L499.13,286.25L656.97,38.77c1.37-2.14,0.95-5.01-0.97-6.67
			c-1.92-1.66-4.82-1.67-6.74-0.01l-219.1,188.56l-21.06-74.73c-0.42-1.48-1.47-2.69-2.88-3.32c-1.41-0.62-3.01-0.59-4.39,0.1
			l-44.85,22.35l-0.01,0c0,0,0,0,0,0l0.27,0.7h0l-0.36-0.65c0.02-0.02,0.05-0.03,0.07-0.04l-0.07,0.04l0,0
			c-0.07,0.03-0.13,0.07-0.21,0.13l-0.26,0.16c-0.11,0.06-0.22,0.12-0.35,0.23c-0.04,0.03-0.08,0.07-0.15,0.13
			c-0.07,0.06-0.14,0.12-0.2,0.19l-0.19,0.19c-0.08,0.07-0.15,0.14-0.21,0.21c-0.05,0.06-0.1,0.13-0.18,0.25
			c-0.08,0.1-0.15,0.2-0.26,0.36c-0.05,0.07-0.1,0.14-0.14,0.21c-0.05,0.08-0.09,0.17-0.16,0.34l-0.05,0.1
			c-0.04,0.07-0.08,0.14-0.11,0.21l-16.58,41.72l-48.54,2.93c-1.9,0.11-3.57,1.26-4.39,3.02c-1.05,2.27-10.53,22.75-21.52,46.81
			l-56.26,3.62c-2,0.13-3.76,1.42-4.48,3.29c-0.65,1.68-8,20.7-15.93,41.3l-45.76,3.11c-1.98,0.14-3.73,1.42-4.46,3.27
			c-9.33,23.89-40.01,102.55-42.79,111.8l-0.12,0.43c-0.03,0.13-0.06,0.23-0.08,0.37c-0.03,0.2-0.04,0.4-0.05,0.65l-0.01,0.14
			c0,0.26,0.02,0.52,0.06,0.81c0.01,0.05,0.01,0.11,0.03,0.18c0.04,0.23,0.1,0.45,0.19,0.73c0.02,0.07,0.04,0.14,0.08,0.24
			c0.07,0.18,0.16,0.35,0.25,0.52c0.06,0.11,0.12,0.22,0.19,0.33l0.06,0.09c0.04,0.07,0.08,0.14,0.12,0.2l46.15,63.13l-29.48,46.87
			c-1.46,2.33-0.85,5.39,1.4,6.97l56.15,39.42l-19.93,43.37c-0.59,1.28-0.62,2.76-0.11,4.06c0.52,1.31,1.56,2.35,2.86,2.88
			l209.23,84.37c0.06,0.02,0.12,0.04,0.16,0.05c0.21,0.08,0.42,0.14,0.63,0.19l0.1,0.02c0.38,0.08,0.71,0.12,0.93,0.11l0.11,0.01
			c0.29,0,0.61-0.04,0.97-0.11c0.18-0.03,0.35-0.08,0.53-0.14l0.23-0.07c0.12-0.04,0.25-0.07,0.36-0.12
			c0.06-0.03,0.11-0.06,0.13-0.07c0.08-0.04,0.16-0.09,0.22-0.12c0.08-0.03,0.15-0.06,0.22-0.1c0.06-0.04,0.11-0.08,0.14-0.1
			c0.06-0.04,0.12-0.09,0.21-0.16c0.17-0.13,0.34-0.25,0.48-0.38c0.06-0.05,0.12-0.1,0.18-0.16c0.08-0.08,0.15-0.17,0.22-0.26
			l0.12-0.14c0.08-0.08,0.15-0.16,0.21-0.24c0.04-0.05,0.07-0.1,0.07-0.11l0.08-0.11c0.05-0.08,0.08-0.15,0.13-0.27
			c0.12-0.21,0.22-0.42,0.28-0.59l0.06-0.13c0.03-0.08,0.05-0.16,0.09-0.3c0.07-0.24,0.13-0.48,0.17-0.75l0.03-0.13l24.34-242.25
			l209.41,37.92l29.56,40.41c0.97,1.32,2.53,2.11,4.17,2.11c0.75,0,1.47-0.16,2.15-0.47l57-26.17c0.07-0.03,0.13-0.07,0.13-0.08
			c0.31-0.15,0.61-0.34,0.88-0.56c0.1-0.08,0.19-0.15,0.28-0.23c0.22-0.2,0.44-0.43,0.67-0.73c0.05-0.06,0.1-0.12,0.14-0.18
			c0.23-0.34,0.42-0.7,0.56-1.06c0.03-0.07,0.04-0.13,0.06-0.2l-0.73-0.18l0.76,0.08c0.07-0.2,0.13-0.41,0.18-0.63
			c0.01-0.08,0.02-0.15,0.01-0.21l0.04-0.15l5.55-58.78C702.92,468.79,702.92,468.72,702.91,468.62z M271.21,269.97
			c9.96-21.83,18.91-41.21,21.78-47.42l33.86-2.04L271.21,269.97z M435.23,229.88L629.43,62.76L491.3,279.34L435.23,229.88z
			 M590.57,486.51l-96.65-115.88l46.43-30.75L590.57,486.51z M368.37,170.89l32.48-16.18l16.81,59.67L368.37,170.89z M446.05,402.34
			l39.22-25.97l93.43,112.01L446.05,402.34z M473.92,312.47l-79.41-104.76l140.1,123.6l-45.42,30.08l-14.47-47.36
			c-0.07-0.23-0.16-0.44-0.24-0.61l-0.05-0.12c-0.13-0.26-0.28-0.52-0.46-0.75L473.92,312.47z M437.24,318.14l28.63,2.27l10,32.72
			L437.24,318.14z M422.96,306.65c-2.2-0.17-4.27,1.07-5.14,3.1c-0.88,2.03-0.36,4.39,1.27,5.87l58.79,53.26l-39.27,26
			l-91.54-180.67l13.55-34.11l98.08,129.39L422.96,306.65z M580.01,501.53l-183.6-33.24l41.58-58.88L580.01,501.53z M381.09,472.3
			l-69.64,105.36l-5.95-194.95L381.09,472.3z M322.92,698.09l-162.58-65.56l16.88-36.73L322.92,698.09z M105.51,431.06l102.32-90.95
			l-68.26,137.54L105.51,431.06z M110.42,412.9c8.67-22.86,23.78-61.78,34.5-89.23l37.7-2.56c-8.96,23.29-14.34,37.36-15.99,41.82
			L110.42,412.9z M183.3,348.12c7.37-19.25,19-49.42,27.78-72.14l47.45-3.06c-2.11,4.63-4.23,9.32-6.33,13.95L183.3,348.12z
			 M154.68,470.42l65.48-131.93l4.22,79.7L154.68,470.42z M225.38,430.34l21.97,194.78l-99.76-136.49L225.38,430.34z M234.32,410.75
			l-4.36-82.26l60.94,39.86L234.32,410.75z M300.82,567.97l-64.76-145.64l58.97-44.19L300.82,567.97z M232.74,317.97l99.19-88.17
			l-35.17,130.05L232.74,317.97z M147.11,505.47l84.95,116.23l-109.64-76.97L147.11,505.47z M350.34,704.74l-90.83-63.77
			l-21.23-188.22L350.34,704.74z M305.57,366.8l34.83-128.78l38.65,215.86L305.57,366.8z M380.3,492.21l-20.86,207.59l-46.79-105.23
			L380.3,492.21z M430.63,401.94l-40.2,56.92l-37.73-210.75L430.63,401.94z M688.42,467.01l-80.88,37.19l-53.28-155.55
			L688.42,467.01z M691.8,476.81l-4.17,44.2l-65.98-11.95L691.8,476.81z M675.17,529.25l-38.27,17.57l-20.66-28.24L675.17,529.25z
			 M356.96,165.92L356.96,165.92L356.96,165.92L356.96,165.92z M94.3,429.29L94.3,429.29L94.3,429.29L94.3,429.29z"/>
	</g>
</g>
</svg>
