<?xml version="1.0" encoding="utf-8"?>
<!-- Generator: Adobe Illustrator 23.0.4, SVG Export Plug-In . SVG Version: 6.00 Build 0)  -->
<svg version="1.1" id="Layer_10" xmlns="http://www.w3.org/2000/svg" xmlns:xlink="http://www.w3.org/1999/xlink" x="0px" y="0px"
	 viewBox="0 0 1000 1190" style="enable-background:new 0 0 1000 1190;" xml:space="preserve">
<style type="text/css">
	.st0{fill:#FFFFFF;}
	.st1{stroke:#000000;stroke-miterlimit:10;}
	.st2{fill:#F05C56;}
	.st3{fill:#F05A55;}
	.st4{fill:url(#SVGID_1_);}
	.st5{fill:url(#SVGID_2_);}
	.st6{fill:url(#SVGID_3_);}
	.st7{fill:url(#SVGID_4_);}
	.st8{fill:#E1E1E1;}
	.st9{fill:#646464;}
</style>
<g>
	<path class="st0" d="M769.65,681.73c2.37-2.37,4.45-4.51,6.37-6.53c4.19-4.39,8.32-8.93,12.27-13.5c2-2.3,3.99-4.65,5.9-6.97
		c9.68-11.74,18.73-24.16,26.92-36.92c6.58-10.26,12.74-20.97,18.31-31.83c0.02-0.03,0.03-0.06,0.04-0.09
		c2.82-5.51,5.5-11.07,7.96-16.53c0.01-0.03,0.02-0.06,0.04-0.09c2.54-5.62,4.95-11.33,7.18-16.97c1.11-2.82,2.22-5.74,3.3-8.68
		c1.05-2.87,2.09-5.82,3.1-8.79c1.02-3.01,1.99-5.99,2.88-8.88c0.94-3.05,1.84-6.07,2.67-8.97c0.85-2.98,1.67-6.03,2.45-9.06
		c0.75-2.88,1.48-5.87,2.24-9.16c0.72-3.14,1.4-6.24,2.01-9.23c0-0.02,0.01-0.03,0.01-0.05c0.61-2.97,1.21-6.09,1.78-9.27
		c0.57-3.21,1.09-6.37,1.55-9.4c0-0.01,0-0.03,0.01-0.04c0.45-2.92,0.88-6.01,1.32-9.44c0.39-3.06,0.75-6.19,1.09-9.55
		c0.34-3.39,0.62-6.54,0.85-9.62c0.25-3.25,0.45-6.51,0.61-9.69c0.16-3.13,0.29-6.41,0.37-9.75c0.08-3.17,0.12-6.47,0.12-9.81
		c0-3.27-0.04-6.51-0.12-9.62l-0.01-0.26c-0.08-3.13-0.19-6.26-0.35-9.31l-0.03-0.51c-0.15-2.93-0.34-5.92-0.58-9.11l-0.04-0.61
		c-0.22-2.82-0.48-5.74-0.79-8.92l-0.07-0.76c-0.3-2.91-0.64-5.82-1-8.72l-0.11-0.88c-0.37-2.88-0.77-5.75-1.19-8.52l-0.15-1.03
		c-0.43-2.81-0.9-5.59-1.39-8.37l-0.18-1.05c-0.5-2.76-1.03-5.51-1.59-8.24l-0.23-1.16c-0.56-2.71-1.15-5.41-1.77-8.1l-0.26-1.16
		c-0.63-2.7-1.29-5.39-1.97-8.07l-0.27-1.05c-0.69-2.68-1.41-5.34-2.16-7.99l-0.32-1.14c-0.75-2.63-1.54-5.27-2.35-7.87l-0.34-1.1
		c-0.89-2.83-1.71-5.38-2.53-7.77l-0.4-1.18c-0.87-2.55-1.77-5.1-2.69-7.64l-0.41-1.12c-0.94-2.56-1.91-5.1-2.9-7.64l-0.41-1.02
		c-1.02-2.59-2.06-5.13-3.08-7.54l-0.46-1.1c-1.07-2.5-2.16-5-3.28-7.48l-0.42-0.93c-1.13-2.51-2.3-5-3.49-7.48l-0.42-0.86
		c-1.21-2.5-2.44-4.98-3.7-7.44l-0.4-0.78c-1.27-2.47-2.56-4.92-3.89-7.37l-0.45-0.81c-1.33-2.44-2.68-4.86-4.07-7.28l-0.38-0.65
		c-1.41-2.44-2.84-4.87-4.3-7.28l-0.36-0.59c-1.5-2.45-3.01-4.89-4.56-7.29l-0.17-0.27c-1.59-2.47-3.22-4.94-4.86-7.38l-0.19-0.28
		c-1.79-2.64-3.41-4.98-4.95-7.13l-0.1-0.14c-0.03-0.04-0.07-0.1-0.11-0.15c-1.68-2.37-3.39-4.7-5.12-7.03l-0.25-0.33
		c-1.7-2.27-3.42-4.51-5.16-6.73l-0.46-0.6c-1.76-2.23-3.54-4.45-5.35-6.64l-0.35-0.42c-1.78-2.16-3.6-4.3-5.43-6.42l-0.55-0.64
		c-1.79-2.05-3.6-4.09-5.42-6.11l-0.7-0.77c-1.81-1.99-3.65-3.96-5.51-5.92l-0.74-0.78c-1.84-1.92-3.7-3.83-5.58-5.71l-0.87-0.87
		c-2.01-2.01-4.05-4-6.14-5.98c-0.03-0.03-0.08-0.08-0.11-0.11c-4.8-4.57-9.97-9.22-15.34-13.82c-0.42-0.36-1-0.45-1.5-0.25
		c-0.51,0.2-0.86,0.67-0.91,1.22c-1.08,11.01,1.78,13.69,8.02,19.56l1.62,1.53c35.8,34.09,63.96,74.22,83.71,119.3
		c20.44,46.66,30.8,96.36,30.8,147.71c0,98.44-38.35,191-107.98,260.63c-69.63,69.63-162.19,107.98-260.63,107.98
		c-98.44,0-191.01-38.35-260.64-107.98c-69.63-69.63-107.98-162.19-107.98-260.63c0-98.44,38.35-191.01,107.98-260.64
		C309.83,82.66,402.39,44.31,500.83,44.31c27.59,0,55.09,3.06,81.8,9.11c10.64,2.41,15.98,3.63,25.65-2.73
		c0.48-0.31,0.73-0.88,0.65-1.44c-0.08-0.57-0.49-1.03-1.04-1.19c-7.18-2.1-14.28-3.97-21.09-5.54l-0.24-0.06
		c-2.85-0.66-5.79-1.3-8.97-1.95l-0.32-0.06c-2.68-0.55-5.62-1.11-9.01-1.73l-0.28-0.05c-3.01-0.54-6.08-1.05-9.11-1.51l-0.31-0.05
		c-2.93-0.45-6.04-0.89-9.18-1.29c-0.02,0-0.17-0.03-0.19-0.03c-3.2-0.4-6.36-0.76-9.37-1.06l-0.21-0.02
		c-2.77-0.28-5.78-0.55-9.55-0.85c-9.62-0.74-19.45-1.11-29.22-1.11c-3.47,0-6.68,0.04-9.81,0.12c-3.33,0.09-6.62,0.21-9.75,0.37
		c-3.15,0.16-6.4,0.36-9.68,0.61c-3.06,0.23-6.29,0.52-9.62,0.86c-3.14,0.32-6.35,0.69-9.55,1.09c-3.14,0.4-6.32,0.85-9.48,1.33
		c-3.49,0.54-6.56,1.05-9.4,1.56c-3.16,0.57-6.3,1.17-9.32,1.79c-3.12,0.64-6.23,1.32-9.24,2.01c-3,0.69-6.08,1.44-9.15,2.23
		c-3.07,0.79-6.12,1.62-9.06,2.45c-2.89,0.82-5.8,1.68-8.9,2.65c-0.03,0.01-0.06,0.02-0.08,0.02c-2.76,0.86-5.67,1.8-8.88,2.88
		c-2.99,1.02-5.94,2.06-8.78,3.1c-2.81,1.03-5.65,2.11-8.69,3.3c-3.04,1.2-5.85,2.35-8.58,3.5c-0.03,0.01-0.06,0.03-0.09,0.04
		c-2.79,1.18-5.61,2.41-8.39,3.67c-2.87,1.3-5.68,2.61-8.36,3.91c-2.85,1.38-5.62,2.75-8.25,4.1c-5.3,2.72-10.74,5.67-16.16,8.79
		c-2.55,1.46-5.19,3.02-7.84,4.63c-0.02,0.01-0.04,0.02-0.06,0.04c-2.66,1.62-5.26,3.24-7.71,4.81c-0.02,0.01-0.04,0.03-0.06,0.04
		c-12.76,8.18-25.18,17.24-36.92,26.93c-2.52,2.08-4.8,4.01-6.97,5.89c-2.24,1.94-4.53,3.97-6.83,6.05
		c-8.94,8.13-17.62,16.81-25.79,25.79c-1.98,2.18-4.02,4.48-6.05,6.83c-1.84,2.12-3.75,4.38-5.83,6.9
		c-0.02,0.02-0.04,0.04-0.06,0.07c-9.67,11.72-18.73,24.14-26.92,36.92c-1.67,2.6-3.3,5.22-4.85,7.77
		c-0.01,0.02-0.03,0.04-0.04,0.06c-1.62,2.67-3.18,5.31-4.64,7.84c-3.07,5.33-6.02,10.77-8.78,16.16c-1.43,2.8-2.82,5.57-4.11,8.25
		c-1.3,2.7-2.62,5.52-3.91,8.36c-1.26,2.8-2.49,5.61-3.66,8.38c-0.02,0.03-0.03,0.07-0.05,0.1c-1.29,3.06-2.44,5.86-3.5,8.58
		c-1.13,2.87-2.24,5.8-3.3,8.69c-1.07,2.92-2.11,5.88-3.1,8.79c-1.03,3.06-2,6.05-2.88,8.88c-0.95,3.08-1.85,6.1-2.67,8.98
		c-0.81,2.85-1.61,5.81-2.46,9.07c-0.82,3.21-1.55,6.2-2.23,9.15c-0.72,3.12-1.39,6.22-2.01,9.24c-0.62,3.02-1.22,6.15-1.79,9.32
		c-0.54,3.02-1.07,6.19-1.56,9.4c0,0.01,0,0.03-0.01,0.04c-0.45,2.96-0.88,6.04-1.32,9.43c-0.39,3.05-0.75,6.27-1.09,9.55
		c-0.32,3.14-0.61,6.38-0.86,9.62c-0.26,3.35-0.46,6.61-0.61,9.69c-0.16,3.2-0.29,6.48-0.37,9.74c-0.08,3.11-0.12,6.32-0.12,9.81
		c0,3.49,0.04,6.7,0.12,9.81c0.09,3.27,0.21,6.55,0.37,9.74c0.15,3.1,0.35,6.27,0.61,9.69c0.24,3.21,0.53,6.45,0.86,9.62
		c0.33,3.29,0.7,6.5,1.09,9.55c0.44,3.35,0.87,6.44,1.32,9.43c0,0.02,0,0.03,0.01,0.05c0.51,3.35,1.02,6.42,1.56,9.4
		c0.57,3.19,1.17,6.31,1.78,9.26c0,0.02,0.01,0.03,0.01,0.05c0.61,2.97,1.28,6.07,2.01,9.23c0.67,2.92,1.4,5.92,2.23,9.16
		c0.85,3.27,1.65,6.24,2.46,9.06c0.82,2.88,1.71,5.9,2.67,8.98c0.88,2.81,1.82,5.71,2.88,8.88c0.98,2.91,2.03,5.86,3.1,8.79
		c1.07,2.92,2.18,5.84,3.3,8.68c2.19,5.57,4.61,11.28,7.18,16.97c0.01,0.03,0.02,0.06,0.04,0.09c2.49,5.52,5.18,11.08,7.97,16.53
		c0.01,0.03,0.03,0.06,0.04,0.09c4.15,8.1,8.66,16.16,13.41,23.98c0.01,0.03,0.03,0.05,0.04,0.08c1.57,2.59,3.21,5.21,4.85,7.77
		c9.86,15.37,20.9,30.13,32.82,43.89c1.96,2.26,3.97,4.52,5.97,6.74c0.03,0.03,0.05,0.06,0.08,0.09
		c10.21,11.23,21.19,21.94,32.62,31.84c2.24,1.94,4.58,3.92,6.97,5.89c11.71,9.67,24.13,18.73,36.92,26.92
		c0.02,0.01,0.04,0.03,0.06,0.04c4.95,3.18,10.17,6.35,15.5,9.42c0.04,0.03,0.08,0.05,0.12,0.08c5.49,3.15,10.93,6.1,16.16,8.77
		c2.7,1.39,5.43,2.75,8.13,4.04c0.04,0.02,0.08,0.05,0.12,0.07c2.73,1.32,5.54,2.63,8.36,3.9c2.46,1.12,5.07,2.26,8.48,3.72
		c3.02,1.28,5.83,2.42,8.58,3.5c2.63,1.04,5.48,2.12,8.69,3.3c2.97,1.08,5.93,2.12,8.78,3.09c2.95,1,5.94,1.97,8.87,2.88
		c0.03,0.01,0.06,0.02,0.08,0.02c3.15,0.97,6.07,1.84,8.9,2.64c3.04,0.87,6.09,1.7,9.07,2.46c3.16,0.81,6.23,1.56,9.15,2.23
		c2.93,0.68,6.04,1.36,9.24,2.01c2.83,0.58,5.88,1.17,9.32,1.79c3.14,0.56,6.3,1.08,9.4,1.55c2.99,0.46,6.08,0.89,9.48,1.33
		c3.49,0.43,6.61,0.79,9.54,1.09c3.29,0.33,6.53,0.62,9.62,0.86c3.44,0.26,6.61,0.46,9.68,0.61c3.2,0.16,6.48,0.29,9.75,0.37
		c3.15,0.08,6.45,0.12,9.81,0.12c3.35,0,6.65-0.04,9.81-0.12c3.29-0.09,6.57-0.21,9.75-0.37c3.06-0.15,6.23-0.35,9.68-0.61
		c3.08-0.23,6.31-0.52,9.62-0.86c2.92-0.3,6.05-0.65,9.55-1.09c3.39-0.44,6.47-0.87,9.43-1.32c0.01,0,0.03,0,0.04-0.01
		c3.14-0.48,6.3-1,9.4-1.56c3.44-0.62,6.49-1.2,9.32-1.79c3.56-0.74,6.5-1.38,9.24-2.01c2.94-0.68,5.94-1.41,9.16-2.23
		c2.96-0.76,6-1.59,9.06-2.46c2.81-0.79,5.74-1.66,8.98-2.66c2.92-0.91,5.91-1.88,8.88-2.89c2.84-0.96,5.79-2,8.78-3.09
		c3.19-1.17,6.03-2.25,8.68-3.3c2.74-1.08,5.55-2.22,8.59-3.51c3.4-1.45,6.01-2.59,8.47-3.71c5.57-2.52,11.16-5.21,16.62-8.01
		c10.86-5.56,21.57-11.72,31.83-18.31c2.46-1.57,5.03-3.26,7.65-5.03c12.6-8.51,24.77-17.84,36.18-27.73
		c0.02-0.02,0.04-0.03,0.06-0.05c2.23-1.93,4.53-3.97,6.82-6.05c0.03-0.03,0.06-0.06,0.09-0.09c2.09-1.9,4.25-3.9,6.58-6.12
		C765.33,686,767.52,683.85,769.65,681.73z"/>
	<path class="st0" d="M451.51,140.62c-0.03,0.02-0.06,0.03-0.09,0.06L451.51,140.62L451.51,140.62z"/>
	<path class="st0" d="M503.56,121.51c-0.42-1.48-1.47-2.69-2.87-3.31c-1.41-0.63-3.01-0.59-4.39,0.1l-44.7,22.28l-0.09,0.05
		l0.27,0.7h0l-0.37-0.65l0,0c-0.06,0.03-0.12,0.07-0.2,0.13l-0.26,0.16c-0.11,0.06-0.22,0.12-0.35,0.23
		c-0.04,0.03-0.08,0.07-0.14,0.12c-0.07,0.06-0.14,0.13-0.27,0.26l-0.12,0.12c-0.08,0.07-0.15,0.14-0.21,0.21
		c-0.05,0.06-0.1,0.13-0.18,0.24c-0.08,0.1-0.15,0.2-0.26,0.37c-0.05,0.07-0.1,0.14-0.14,0.22c-0.05,0.08-0.09,0.17-0.15,0.33
		l-0.05,0.1c-0.04,0.07-0.08,0.14-0.11,0.21l-16.55,41.67l-48.48,2.92c-1.89,0.11-3.57,1.26-4.36,2.98
		c-0.09,0.18-9.86,21.28-21.51,46.78l-56.18,3.62c-2,0.13-3.75,1.42-4.48,3.29c-0.65,1.68-7.99,20.67-15.91,41.25l-45.7,3.11
		c-1.98,0.14-3.73,1.42-4.45,3.27c-9.32,23.86-39.96,102.44-42.73,111.62l-0.13,0.47c-0.03,0.13-0.06,0.24-0.08,0.37
		c-0.03,0.2-0.04,0.4-0.05,0.65l-0.01,0.14c0,0.26,0.02,0.52,0.06,0.82c0.01,0.05,0.01,0.1,0.02,0.17c0.04,0.23,0.1,0.45,0.19,0.72
		c0.02,0.07,0.05,0.15,0.09,0.25c0.07,0.18,0.16,0.35,0.25,0.52c0.06,0.11,0.12,0.22,0.19,0.33l0.06,0.09
		c0.04,0.07,0.08,0.14,0.12,0.2l46.08,63.05l-29.44,46.81c-1.46,2.33-0.85,5.38,1.4,6.96l56.08,39.37l-19.91,43.31
		c-0.58,1.27-0.62,2.75-0.11,4.06c0.52,1.3,1.56,2.35,2.86,2.88l208.94,84.25c0.06,0.02,0.12,0.04,0.16,0.05
		c0.21,0.08,0.42,0.14,0.55,0.16l0.18,0.05c0.38,0.08,0.71,0.11,0.93,0.11l0.11,0.01c0.29,0,0.6-0.04,0.97-0.11
		c0.18-0.03,0.35-0.08,0.53-0.14l0.23-0.07c0.12-0.04,0.24-0.07,0.36-0.12c0.06-0.03,0.11-0.06,0.13-0.07
		c0.08-0.04,0.16-0.08,0.23-0.13c0.07-0.03,0.15-0.06,0.21-0.1c0.06-0.04,0.11-0.08,0.14-0.1c0.06-0.04,0.12-0.09,0.21-0.16
		c0.17-0.13,0.34-0.25,0.47-0.38c0.06-0.05,0.13-0.11,0.18-0.16c0.08-0.08,0.15-0.17,0.22-0.26l0.12-0.14
		c0.08-0.08,0.15-0.15,0.21-0.24c0.03-0.05,0.06-0.1,0.06-0.1l0.08-0.11c0.05-0.07,0.08-0.15,0.13-0.27
		c0.11-0.21,0.22-0.42,0.28-0.58l0.06-0.13c0.03-0.08,0.05-0.16,0.09-0.3c0.07-0.24,0.12-0.48,0.17-0.75l0.03-0.13l24.3-241.92
		l209.12,37.87l29.51,40.35c0.97,1.32,2.52,2.11,4.16,2.11c0.75,0,1.47-0.16,2.15-0.47l56.92-26.14c0.07-0.03,0.13-0.07,0.13-0.08
		c0.31-0.15,0.6-0.34,0.88-0.56c0.1-0.07,0.19-0.15,0.28-0.24c0.23-0.2,0.44-0.43,0.67-0.72c0.05-0.06,0.1-0.12,0.14-0.18
		c0.23-0.34,0.42-0.7,0.56-1.06c0.03-0.07,0.04-0.13,0.06-0.2l-0.73-0.18l0.76,0.08c0.07-0.2,0.13-0.41,0.17-0.63
		c0.01-0.08,0.02-0.15,0.02-0.22l0.04-0.14l5.54-58.7c0.01-0.08,0.01-0.15,0-0.25c0.01-0.25,0.01-0.49-0.02-0.74
		c-0.01-0.14-0.03-0.27-0.05-0.41c-0.04-0.24-0.11-0.47-0.21-0.79c-0.03-0.1-0.07-0.21-0.1-0.29l-0.06-0.17
		c-0.08-0.17-0.17-0.33-0.27-0.48l-0.09-0.15c-0.04-0.07-0.08-0.15-0.13-0.21c-0.21-0.3-0.46-0.57-0.71-0.81l-0.02-0.02
		L593.48,261.66L751.1,14.51c1.36-2.14,0.95-5-0.97-6.67c-1.92-1.66-4.81-1.67-6.74-0.01l-218.8,188.3L503.56,121.51z M365.87,245.4
		c9.94-21.79,18.88-41.15,21.75-47.35l33.81-2.04L365.87,245.4z M540.47,377.59l39.16-25.94l93.29,111.86L540.47,377.59z
		 M531.67,293.5l28.59,2.27l9.98,32.67L531.67,293.5z M517.41,282.03c-2.2-0.17-4.26,1.07-5.14,3.09c-0.87,2.03-0.36,4.38,1.27,5.86
		l58.71,53.19l-39.21,25.97l-91.41-180.43l13.53-34.06l97.95,129.21L517.41,282.03z M583.54,336.7l-14.45-47.29
		c-0.07-0.23-0.16-0.44-0.24-0.61l-0.05-0.11c-0.12-0.26-0.28-0.52-0.46-0.75l-0.05-0.08l-79.3-104.61l139.9,123.42L583.54,336.7z
		 M674.24,476.65l-183.35-33.2l41.53-58.79L674.24,476.65z M462.9,146.46l32.43-16.16l16.79,59.59L462.9,146.46z M475.59,447.45
		l-69.55,105.22l-5.94-194.68L475.59,447.45z M417.5,672.93l-162.35-65.47l16.86-36.68L417.5,672.93z M200.4,406.28l102.17-90.82
		L234.4,452.8L200.4,406.28z M205.3,388.13c8.65-22.79,23.74-61.67,34.45-89.1l37.65-2.56c-8.94,23.24-14.31,37.29-15.96,41.77
		L205.3,388.13z M278.08,323.44c7.43-19.38,19.02-49.46,27.74-72.04l47.38-3.05c-2.11,4.63-4.23,9.3-6.32,13.93L278.08,323.44z
		 M249.49,445.58l65.39-131.74l4.21,79.59L249.49,445.58z M320.1,405.55l21.94,194.51l-99.62-136.3L320.1,405.55z M329.03,385.98
		l-4.35-82.14l60.85,39.81L329.03,385.98z M395.44,543l-64.67-145.44l58.89-44.12L395.44,543z M327.45,293.34l99.05-88.05
		l-35.12,129.87L327.45,293.34z M241.94,480.58l84.83,116.06l-109.48-76.87L241.94,480.58z M444.89,679.57l-90.7-63.68l-21.2-187.96
		L444.89,679.57z M400.18,342.1l34.78-128.6l38.59,215.56L400.18,342.1z M474.8,467.34l-20.83,207.3l-46.73-105.09L474.8,467.34z
		 M525.07,377.2l-40.15,56.84l-37.68-210.45L525.07,377.2z M684.79,461.64l-96.51-115.71l46.36-30.71L684.79,461.64z M782.51,442.17
		l-80.77,37.14l-53.2-155.33L782.51,442.17z M785.88,451.97l-4.17,44.14l-65.89-11.93L785.88,451.97z M769.28,504.33l-38.22,17.55
		l-20.63-28.2L769.28,504.33z M529.67,205.36L723.6,38.47L585.66,254.76L529.67,205.36z M451.5,141.49
		C451.5,141.49,451.5,141.49,451.5,141.49L451.5,141.49L451.5,141.49z M189.2,404.5L189.2,404.5L189.2,404.5L189.2,404.5z
		 M189.15,406.31L189.15,406.31L189.15,406.31L189.15,406.31z"/>
	<path class="st0" d="M229.5,1147.63c0,7.7,0.4,14.44,1.21,20.22h-0.56l-8.29-14.72l-24.6-43.23h-9.97v71.09h9.04v-37.64
		c0-7.02-0.34-13.76-1.02-20.22h0.37l8.29,14.72l24.6,43.14h9.97v-71.09h-9.04V1147.63z"/>
	<polygon class="st0" points="294.65,1148 327.26,1148 327.26,1140.45 294.65,1140.45 294.65,1117.62 330.8,1117.62 330.8,1109.89 
		285.61,1109.89 285.61,1180.98 331.64,1180.98 331.64,1173.25 294.65,1173.25 	"/>
	<polygon class="st0" points="366.13,1117.62 387.38,1117.62 387.38,1180.98 396.41,1180.98 396.41,1117.62 417.66,1117.62 
		417.66,1109.89 366.13,1109.89 	"/>
	<path class="st0" d="M512.81,1154.89c-1.74,9.94-2.67,15.28-2.8,16.03h-0.37c-1.49-8.01-2.55-13.35-3.17-16.03l-10.62-45h-9.41
		l-10.44,45c-0.37,1.86-0.95,4.77-1.72,8.71c-0.78,3.95-1.26,6.38-1.44,7.31h-0.56c-0.44-2.67-1.34-8.01-2.7-16.03l-9.04-45h-9.78
		l16.49,71.09h10.44l10.25-44.44c1.86-9.13,2.89-14.26,3.07-15.37h0.37c0.25,1.55,0.54,3.18,0.89,4.89c0.34,1.71,0.73,3.6,1.16,5.68
		c0.43,2.08,0.78,3.68,1.02,4.8l10.25,44.44h10.53l16.49-71.09h-9.78L512.81,1154.89z"/>
	<path class="st0" d="M595.75,1108.21c-9.07,0-16.32,3.42-21.76,10.25c-5.44,6.83-8.15,15.84-8.15,27.02
		c0,11.31,2.72,20.33,8.15,27.07c5.43,6.74,12.69,10.11,21.76,10.11c9.01,0,16.23-3.35,21.66-10.06c5.43-6.71,8.15-15.71,8.15-27.02
		c0-11.24-2.69-20.28-8.06-27.11C612.14,1111.63,604.88,1108.21,595.75,1108.21z M610.71,1167.05c-3.7,5.19-8.68,7.78-14.95,7.78
		c-6.34,0-11.35-2.64-15.05-7.92c-3.7-5.28-5.54-12.42-5.54-21.43c0-9.01,1.85-16.18,5.54-21.52c3.7-5.34,8.71-8.01,15.05-8.01
		c6.46,0,11.49,2.69,15.09,8.06c3.6,5.37,5.4,12.56,5.4,21.57C616.25,1154.71,614.4,1161.87,610.71,1167.05z"/>
	<path class="st0" d="M716.2,1167.8c-0.4-1.58-0.95-3.83-1.63-6.76c-0.75-3.6-1.68-6.37-2.8-8.29c-1.12-1.92-2.92-3.6-5.4-5.03
		c2.98-0.87,5.67-2.86,8.06-5.96c2.39-3.1,3.59-7.14,3.59-12.11c0-5.59-1.91-10.28-5.73-14.07c-3.82-3.79-9.27-5.68-16.35-5.68
		h-28.05v71.09h9.04v-29.91h17.33c3.35,0,5.79,0.92,7.31,2.75c1.52,1.83,2.69,4.46,3.49,7.87c1.86,8.32,4.07,14.75,6.62,19.29h10.16
		c-1.43-2.42-2.62-4.83-3.59-7.22C717.29,1171.37,716.6,1169.38,716.2,1167.8z M694.63,1143.34h-17.7v-25.72h17.14
		c4.66,0,8.26,1.16,10.81,3.49c2.55,2.33,3.82,5.39,3.82,9.18c0,4.04-1.21,7.22-3.63,9.55S699.16,1143.34,694.63,1143.34z"/>
	<polygon class="st0" points="812.52,1109.89 800.68,1109.89 770.03,1145.58 769.84,1145.58 769.84,1109.89 760.8,1109.89 
		760.8,1180.98 769.84,1180.98 769.84,1158.25 779.53,1147.25 802.55,1180.98 813.73,1180.98 785.31,1140.73 	"/>
	<polygon class="st0" points="5,904.22 52.39,904.22 52.39,1050.55 79.83,1050.55 79.83,904.22 127.22,904.22 127.22,880.74 
		5,880.74 	"/>
	<path class="st0" d="M203.71,953.49v-23.9c-4.02-1.8-9.22-2.7-15.59-2.7c-6.79,0-12.65,1.66-17.56,4.99
		c-4.92,3.33-8.7,7.21-11.33,11.64v-12.89h-25.36v119.93h26.4v-61.11c0-11.64,2.39-20.96,7.17-27.96c4.78-7,11.67-10.5,20.68-10.5
		C193.24,950.99,198.44,951.82,203.71,953.49z"/>
	<path class="st0" d="M288.09,1036.63v13.93h25.36V930.62h-26.19v67.14c0,9.29-2.22,17.29-6.65,24.01
		c-4.44,6.72-10.6,10.08-18.5,10.08c-13.17,0-19.75-9.35-19.75-28.06v-73.16h-26.4v76.49c0,9.01,1.25,16.77,3.74,23.28
		c2.49,6.51,5.82,11.4,9.98,14.65c4.16,3.26,8.42,5.61,12.78,7.07c4.36,1.45,8.97,2.18,13.82,2.18c8.17,0,15-1.87,20.47-5.61
		c5.47-3.74,9.18-7.76,11.12-12.06H288.09z"/>
	<path class="st0" d="M395.55,983.21c-0.7-0.28-1.8-0.62-3.33-1.04c-5.82-1.94-10.33-3.53-13.51-4.78
		c-3.19-1.25-6.27-3.22-9.25-5.92c-2.98-2.7-4.47-5.78-4.47-9.25c0-4.16,1.7-7.52,5.09-10.08c3.39-2.56,8.28-3.85,14.65-3.85
		c11.64,0,21.54,5.61,29.72,16.84l17.46-10.6c-4.3-8.03-10.81-14.65-19.54-19.85s-18.02-7.79-27.85-7.79
		c-13.17,0-24.18,3.19-33.05,9.56c-8.87,6.38-13.3,14.83-13.3,25.36c0,5.4,0.97,10.15,2.91,14.24c1.94,4.09,4.78,7.48,8.52,10.18
		s7.31,4.85,10.7,6.44c3.39,1.59,7.59,3.22,12.58,4.88c0.55,0.14,1.45,0.42,2.7,0.83c6.93,2.22,12.12,3.99,15.59,5.3
		c3.46,1.32,6.75,3.29,9.87,5.92c3.12,2.63,4.68,5.68,4.68,9.15c0,4.3-1.91,7.73-5.72,10.29c-3.81,2.57-8.97,3.85-15.48,3.85
		c-13.3,0-24.11-6.1-32.42-18.29l-18.91,11.02c4.85,8.87,11.81,15.87,20.89,20.99c9.07,5.12,19.43,7.69,31.07,7.69
		c15.1,0,26.78-3.43,35.02-10.29c8.24-6.86,12.37-15.21,12.37-25.05C432.55,1003.03,420.22,991.11,395.55,983.21z"/>
	<path class="st0" d="M461.03,880.74v32.01h-18.5v22.45h18.5v78.78c0,24.39,12.26,36.58,36.79,36.58h17.04v-22.45h-13.72
		c-4.71,0-8.21-1.25-10.5-3.74c-2.29-2.49-3.43-6.58-3.43-12.26v-76.91h27.44v-22.45h-27.44v-32.01H461.03z"/>
	<rect x="537.73" y="880.74" class="st0" width="26.19" height="169.82"/>
	<rect x="596.13" y="880.74" class="st0" width="28.27" height="28.89"/>
	<rect x="597.38" y="927.5" class="st0" width="25.98" height="123.05"/>
	<path class="st0" d="M713.57,926.88c-8.87,0-16.11,2.05-21.72,6.13c-5.61,4.09-9.46,8.35-11.54,12.78h-0.21v-15.17h-25.57v119.93
		h26.4v-69.42c0-9.01,2.53-16.56,7.59-22.66c5.06-6.1,11.4-9.15,19.02-9.15c12.47,0,18.71,9.22,18.71,27.64v73.58h26.4v-77.11
		c0-16.35-3.53-28.2-10.6-35.54C734.98,930.55,725.48,926.88,713.57,926.88z"/>
	<path class="st0" d="M828.72,926.88c-16.08,0-29.41,5.72-40.01,17.15s-15.9,26.78-15.9,46.04c0,19.54,5.3,35.13,15.9,46.77
		c10.6,11.64,24.28,17.46,41.05,17.46c13.02,0,23.9-2.98,32.63-8.94c8.73-5.96,15.03-13.37,18.91-22.24l-22.03-7.48
		c-2.63,5.13-6.48,9.32-11.54,12.58c-5.06,3.26-10.91,4.88-17.56,4.88c-9.56,0-17.08-3.29-22.55-9.87
		c-5.48-6.58-8.21-14.45-8.21-23.59h83.14c0.42-3.46,0.62-7,0.62-10.6c0-18.43-5.13-33.39-15.38-44.9
		C857.54,932.63,844.52,926.88,828.72,926.88z M799.83,981.13c0.14-8.87,2.81-16.59,8-23.18c5.2-6.58,12.16-9.87,20.89-9.87
		s15.52,3.22,20.37,9.67c4.85,6.44,7.27,14.24,7.27,23.38H799.83z"/>
	<path class="st0" d="M958,983.21c-0.7-0.28-1.8-0.62-3.33-1.04c-5.82-1.94-10.33-3.53-13.51-4.78c-3.19-1.25-6.27-3.22-9.25-5.92
		c-2.98-2.7-4.47-5.78-4.47-9.25c0-4.16,1.7-7.52,5.09-10.08c3.39-2.56,8.28-3.85,14.65-3.85c11.64,0,21.54,5.61,29.72,16.84
		l17.46-10.6c-4.3-8.03-10.81-14.65-19.54-19.85s-18.02-7.79-27.85-7.79c-13.17,0-24.18,3.19-33.05,9.56
		c-8.87,6.38-13.3,14.83-13.3,25.36c0,5.4,0.97,10.15,2.91,14.24c1.94,4.09,4.78,7.48,8.52,10.18s7.31,4.85,10.7,6.44
		c3.39,1.59,7.59,3.22,12.58,4.88c0.55,0.14,1.45,0.42,2.7,0.83c6.93,2.22,12.12,3.99,15.59,5.3c3.46,1.32,6.75,3.29,9.87,5.92
		c3.12,2.63,4.68,5.68,4.68,9.15c0,4.3-1.91,7.73-5.72,10.29c-3.81,2.57-8.97,3.85-15.48,3.85c-13.3,0-24.11-6.1-32.42-18.29
		l-18.91,11.02c4.85,8.87,11.81,15.87,20.89,20.99c9.07,5.12,19.43,7.69,31.07,7.69c15.1,0,26.78-3.43,35.02-10.29
		c8.24-6.86,12.37-15.21,12.37-25.05C995,1003.03,982.67,991.11,958,983.21z"/>
</g>
<g>
	<g>
		<path class="st0" d="M880.88,403.3l-0.01-0.26c-0.08-3.13-0.19-6.26-0.35-9.31l-0.03-0.51c-0.15-2.93-0.34-5.92-0.58-9.11
			l-0.04-0.61c-0.22-2.82-0.48-5.74-0.79-8.92l-0.07-0.76c-0.3-2.91-0.64-5.82-1-8.72l-0.11-0.88c-0.37-2.88-0.77-5.75-1.19-8.52
			l-0.15-1.03c-0.43-2.81-0.9-5.59-1.39-8.37l-0.18-1.05c-0.5-2.76-1.03-5.51-1.59-8.24l-0.23-1.16c-0.56-2.71-1.15-5.41-1.77-8.1
			l-0.26-1.16c-0.63-2.7-1.29-5.39-1.97-8.07l-0.27-1.05c-0.69-2.68-1.41-5.34-2.16-7.99l-0.32-1.14c-0.75-2.63-1.54-5.27-2.35-7.87
			l-0.34-1.1c-0.89-2.83-1.71-5.38-2.53-7.77l-0.4-1.18c-0.87-2.55-1.77-5.1-2.69-7.64l-0.41-1.12c-0.94-2.56-1.91-5.1-2.9-7.64
			l-0.41-1.02c-1.02-2.59-2.06-5.13-3.08-7.54l-0.46-1.1c-1.07-2.5-2.16-5-3.28-7.48l-0.42-0.93c-1.13-2.51-2.3-5-3.49-7.48
			l-0.42-0.86c-1.21-2.5-2.44-4.98-3.7-7.44l-0.4-0.78c-1.27-2.47-2.56-4.92-3.89-7.37l-0.45-0.81c-1.33-2.44-2.68-4.87-4.07-7.28
			l-0.38-0.65c-1.41-2.44-2.84-4.87-4.3-7.28l-0.36-0.59c-1.5-2.45-3.01-4.89-4.56-7.29l-0.17-0.27c-1.59-2.47-3.22-4.94-4.86-7.38
			l-0.19-0.28c-1.79-2.64-3.41-4.98-4.95-7.13l-0.1-0.14c-0.03-0.05-0.07-0.1-0.11-0.15c-1.68-2.37-3.39-4.7-5.12-7.03l-0.25-0.33
			c-1.7-2.27-3.42-4.51-5.16-6.73l-0.46-0.6c-1.76-2.23-3.54-4.45-5.35-6.64l-0.35-0.42c-1.78-2.16-3.6-4.3-5.43-6.42l-0.55-0.64
			c-1.79-2.05-3.6-4.09-5.42-6.11l-0.7-0.77c-1.81-1.99-3.65-3.96-5.51-5.92l-0.74-0.78c-1.84-1.92-3.7-3.83-5.58-5.71l-0.87-0.87
			c-2.01-2.01-4.05-4-6.14-5.98c-0.03-0.03-0.08-0.08-0.11-0.11c-4.8-4.57-9.97-9.22-15.34-13.82c-0.42-0.36-1-0.45-1.5-0.25
			c-0.51,0.2-0.86,0.67-0.91,1.22c-1.08,11.01,1.78,13.69,8.02,19.56l1.62,1.53c35.8,34.09,63.96,74.22,83.71,119.3
			c20.44,46.66,30.8,96.36,30.8,147.71c0,98.44-38.35,191-107.98,260.63c-69.63,69.63-162.19,107.98-260.63,107.98
			c-98.44,0-191.01-38.35-260.64-107.98S132.22,511.37,132.22,412.92c0-98.44,38.35-191.01,107.98-260.64S402.39,44.31,500.83,44.31
			c27.59,0,55.09,3.06,81.8,9.11c10.64,2.41,15.98,3.63,25.65-2.73c0.48-0.31,0.73-0.88,0.65-1.44c-0.08-0.57-0.49-1.03-1.04-1.19
			c-7.18-2.1-14.28-3.97-21.09-5.54l-0.24-0.06c-2.85-0.66-5.79-1.3-8.97-1.95l-0.32-0.06c-2.68-0.55-5.62-1.11-9.01-1.73
			l-0.28-0.05c-3.01-0.54-6.08-1.05-9.11-1.51l-0.31-0.05c-2.93-0.45-6.04-0.89-9.18-1.29c-0.02,0-0.17-0.03-0.19-0.03
			c-3.2-0.4-6.36-0.76-9.37-1.06l-0.21-0.02c-2.77-0.28-5.78-0.55-9.55-0.85c-9.62-0.74-19.45-1.11-29.22-1.11
			c-3.47,0-6.68,0.04-9.81,0.12c-3.33,0.09-6.62,0.21-9.75,0.37c-3.15,0.16-6.4,0.36-9.68,0.61c-3.06,0.23-6.29,0.52-9.62,0.86
			c-3.14,0.32-6.35,0.69-9.55,1.09c-3.14,0.4-6.32,0.85-9.48,1.33c-3.49,0.54-6.56,1.05-9.4,1.56c-3.16,0.57-6.3,1.17-9.32,1.79
			c-3.12,0.64-6.23,1.32-9.24,2.01c-3,0.69-6.08,1.44-9.15,2.23c-3.07,0.79-6.12,1.62-9.06,2.45c-2.89,0.82-5.8,1.68-8.9,2.65
			c-0.03,0.01-0.06,0.02-0.08,0.02c-2.76,0.86-5.67,1.8-8.88,2.88c-2.99,1.02-5.94,2.06-8.78,3.1c-2.81,1.03-5.65,2.11-8.69,3.3
			c-3.04,1.2-5.85,2.35-8.58,3.5c-0.03,0.01-0.06,0.03-0.09,0.04c-2.79,1.18-5.61,2.41-8.39,3.67c-2.87,1.3-5.68,2.61-8.36,3.91
			c-2.85,1.38-5.62,2.75-8.25,4.1c-5.3,2.71-10.74,5.67-16.16,8.79c-2.55,1.46-5.19,3.02-7.84,4.63c-0.02,0.01-0.04,0.02-0.06,0.04
			c-2.66,1.62-5.26,3.24-7.71,4.81c-0.02,0.01-0.04,0.03-0.06,0.04c-12.76,8.18-25.18,17.24-36.92,26.93
			c-2.52,2.08-4.8,4.01-6.97,5.89c-2.24,1.94-4.53,3.97-6.83,6.05c-8.94,8.13-17.62,16.81-25.79,25.79
			c-1.98,2.18-4.02,4.48-6.05,6.83c-1.84,2.12-3.75,4.38-5.83,6.9c-0.02,0.02-0.04,0.05-0.06,0.07
			c-9.67,11.72-18.73,24.14-26.92,36.92c-1.67,2.6-3.3,5.22-4.85,7.77c-0.01,0.02-0.03,0.04-0.04,0.06
			c-1.62,2.67-3.18,5.31-4.64,7.84c-3.07,5.33-6.02,10.77-8.78,16.16c-1.43,2.8-2.82,5.57-4.11,8.25c-1.3,2.7-2.62,5.52-3.91,8.36
			c-1.26,2.8-2.49,5.61-3.66,8.38c-0.02,0.03-0.03,0.07-0.05,0.1c-1.29,3.06-2.44,5.86-3.5,8.58c-1.13,2.87-2.24,5.8-3.3,8.69
			c-1.07,2.92-2.11,5.88-3.1,8.79c-1.03,3.06-2,6.05-2.88,8.88c-0.95,3.08-1.85,6.1-2.67,8.97c-0.81,2.85-1.61,5.81-2.46,9.07
			c-0.82,3.21-1.55,6.2-2.23,9.15c-0.72,3.12-1.39,6.22-2.01,9.24c-0.62,3.02-1.22,6.15-1.79,9.32c-0.54,3.02-1.07,6.19-1.56,9.4
			c0,0.01,0,0.03-0.01,0.04c-0.45,2.96-0.88,6.04-1.32,9.43c-0.39,3.05-0.75,6.27-1.09,9.55c-0.32,3.14-0.61,6.38-0.86,9.62
			c-0.26,3.35-0.46,6.61-0.61,9.69c-0.16,3.2-0.29,6.48-0.37,9.74c-0.08,3.11-0.12,6.32-0.12,9.81c0,3.49,0.04,6.7,0.12,9.81
			c0.09,3.27,0.21,6.55,0.37,9.74c0.15,3.1,0.35,6.27,0.61,9.69c0.24,3.21,0.53,6.45,0.86,9.62c0.33,3.29,0.7,6.5,1.09,9.55
			c0.44,3.35,0.87,6.44,1.32,9.43c0,0.02,0,0.03,0.01,0.05c0.51,3.35,1.02,6.42,1.56,9.4c0.57,3.19,1.17,6.31,1.78,9.26
			c0,0.02,0.01,0.03,0.01,0.05c0.61,2.97,1.28,6.07,2.01,9.23c0.67,2.92,1.4,5.92,2.23,9.16c0.85,3.27,1.65,6.24,2.46,9.06
			c0.82,2.88,1.71,5.9,2.67,8.98c0.88,2.81,1.82,5.71,2.88,8.88c0.98,2.91,2.03,5.86,3.1,8.79c1.07,2.92,2.18,5.84,3.3,8.68
			c2.19,5.57,4.61,11.28,7.18,16.97c0.01,0.03,0.02,0.06,0.04,0.09c2.49,5.52,5.18,11.08,7.97,16.53c0.01,0.03,0.03,0.06,0.04,0.09
			c4.15,8.1,8.66,16.16,13.41,23.98c0.01,0.03,0.03,0.05,0.04,0.08c1.57,2.59,3.21,5.21,4.85,7.77
			c9.86,15.37,20.9,30.13,32.82,43.89c1.96,2.26,3.97,4.52,5.97,6.74c0.03,0.03,0.05,0.06,0.08,0.09
			c10.21,11.23,21.19,21.94,32.62,31.84c2.24,1.94,4.58,3.92,6.97,5.89c11.71,9.67,24.13,18.73,36.92,26.92
			c0.02,0.01,0.04,0.03,0.06,0.04c4.95,3.18,10.17,6.35,15.5,9.42c0.04,0.03,0.08,0.05,0.12,0.08c5.49,3.15,10.93,6.1,16.16,8.77
			c2.7,1.39,5.43,2.75,8.13,4.04c0.04,0.02,0.08,0.05,0.12,0.07c2.73,1.32,5.54,2.63,8.36,3.9c2.46,1.12,5.07,2.26,8.48,3.72
			c3.02,1.28,5.83,2.42,8.58,3.5c2.63,1.04,5.48,2.12,8.69,3.3c2.97,1.08,5.93,2.12,8.78,3.09c2.95,1,5.94,1.97,8.87,2.88
			c0.03,0.01,0.06,0.02,0.08,0.02c3.15,0.97,6.07,1.84,8.9,2.64c3.04,0.87,6.09,1.7,9.07,2.46c3.16,0.81,6.23,1.56,9.15,2.23
			c2.93,0.68,6.04,1.36,9.24,2.01c2.83,0.58,5.88,1.17,9.32,1.79c3.14,0.56,6.3,1.08,9.4,1.55c2.99,0.46,6.08,0.89,9.48,1.33
			c3.49,0.43,6.61,0.79,9.54,1.09c3.29,0.33,6.53,0.62,9.62,0.86c3.44,0.26,6.61,0.46,9.68,0.61c3.2,0.16,6.48,0.29,9.75,0.37
			c3.15,0.08,6.45,0.12,9.81,0.12c3.35,0,6.65-0.04,9.81-0.12c3.29-0.09,6.57-0.21,9.75-0.37c3.06-0.15,6.23-0.35,9.68-0.61
			c3.08-0.23,6.31-0.52,9.62-0.86c2.92-0.3,6.05-0.65,9.55-1.09c3.39-0.44,6.47-0.87,9.43-1.32c0.01,0,0.03,0,0.04-0.01
			c3.14-0.48,6.3-1,9.4-1.56c3.44-0.62,6.49-1.2,9.32-1.79c3.56-0.74,6.5-1.38,9.24-2.01c2.94-0.68,5.94-1.4,9.16-2.23
			c2.96-0.76,6-1.59,9.06-2.46c2.81-0.79,5.74-1.66,8.98-2.66c2.92-0.91,5.91-1.88,8.88-2.89c2.84-0.96,5.79-2,8.78-3.09
			c3.19-1.17,6.03-2.25,8.68-3.3c2.74-1.08,5.55-2.22,8.59-3.51c3.4-1.45,6.01-2.59,8.47-3.71c5.57-2.52,11.16-5.21,16.62-8.01
			c10.86-5.56,21.57-11.72,31.83-18.31c2.46-1.57,5.03-3.26,7.65-5.03c12.6-8.51,24.77-17.84,36.18-27.73
			c0.02-0.02,0.04-0.03,0.06-0.05c2.23-1.93,4.53-3.97,6.82-6.05c0.03-0.03,0.06-0.06,0.09-0.09c2.09-1.9,4.25-3.9,6.58-6.13
			c2.21-2.11,4.41-4.26,6.53-6.38c2.37-2.37,4.45-4.51,6.37-6.53c4.19-4.39,8.32-8.93,12.27-13.5c2-2.3,3.99-4.65,5.9-6.97
			c9.68-11.74,18.73-24.16,26.92-36.92c6.58-10.27,12.74-20.97,18.31-31.83c0.02-0.03,0.03-0.06,0.04-0.09
			c2.82-5.51,5.5-11.07,7.96-16.54c0.01-0.03,0.02-0.06,0.04-0.09c2.54-5.62,4.95-11.33,7.18-16.97c1.11-2.82,2.22-5.74,3.3-8.68
			c1.05-2.87,2.09-5.82,3.1-8.79c1.02-3.01,1.99-5.99,2.88-8.88c0.94-3.05,1.84-6.07,2.67-8.97c0.85-2.98,1.67-6.03,2.45-9.06
			c0.75-2.88,1.48-5.87,2.24-9.16c0.72-3.14,1.4-6.24,2.01-9.23c0-0.02,0.01-0.03,0.01-0.05c0.61-2.97,1.21-6.09,1.78-9.27
			c0.57-3.21,1.09-6.37,1.55-9.4c0-0.01,0-0.03,0.01-0.04c0.45-2.92,0.88-6.01,1.32-9.44c0.39-3.06,0.75-6.19,1.09-9.55
			c0.34-3.39,0.62-6.54,0.85-9.62c0.25-3.25,0.45-6.51,0.61-9.69c0.16-3.13,0.29-6.41,0.37-9.75c0.08-3.17,0.12-6.47,0.12-9.81
			C881.01,409.65,880.97,406.41,880.88,403.3z"/>
		<path class="st0" d="M796.98,443.78c0.01-0.25,0.01-0.49-0.02-0.74c-0.01-0.14-0.03-0.27-0.05-0.41
			c-0.04-0.24-0.11-0.47-0.21-0.79c-0.03-0.1-0.07-0.21-0.1-0.29l-0.06-0.17c-0.08-0.17-0.17-0.33-0.27-0.48l-0.09-0.15
			c-0.04-0.07-0.08-0.15-0.13-0.21c-0.21-0.3-0.46-0.57-0.71-0.81l-0.02-0.02L593.48,261.66L751.1,14.51c1.36-2.14,0.95-5-0.97-6.67
			c-1.92-1.66-4.81-1.67-6.74-0.01l-218.8,188.3l-21.03-74.63c-0.42-1.48-1.47-2.69-2.87-3.31c-1.41-0.63-3.01-0.59-4.39,0.1
			l-44.7,22.28l-0.09,0.05l0.27,0.7h0l-0.37-0.65l0,0c-0.06,0.03-0.12,0.07-0.2,0.13l-0.26,0.16c-0.11,0.06-0.22,0.12-0.35,0.23
			c-0.04,0.03-0.08,0.07-0.14,0.12c-0.07,0.06-0.14,0.13-0.27,0.26l-0.12,0.12c-0.08,0.07-0.15,0.14-0.21,0.21
			c-0.05,0.06-0.1,0.13-0.18,0.24c-0.08,0.1-0.15,0.2-0.26,0.37c-0.05,0.07-0.1,0.14-0.14,0.22c-0.05,0.08-0.09,0.17-0.15,0.33
			l-0.05,0.1c-0.04,0.07-0.08,0.14-0.11,0.21l-16.55,41.67l-48.48,2.92c-1.89,0.11-3.57,1.26-4.36,2.98
			c-0.09,0.18-9.86,21.28-21.51,46.78l-56.18,3.62c-2,0.13-3.75,1.42-4.48,3.29c-0.65,1.68-7.99,20.67-15.91,41.25l-45.7,3.11
			c-1.98,0.14-3.73,1.42-4.45,3.27c-9.32,23.86-39.96,102.44-42.73,111.62l-0.13,0.47c-0.03,0.13-0.06,0.24-0.08,0.37
			c-0.03,0.2-0.04,0.4-0.05,0.65l-0.01,0.14c0,0.26,0.02,0.52,0.06,0.82c0.01,0.05,0.01,0.1,0.02,0.17c0.04,0.23,0.1,0.45,0.19,0.72
			c0.02,0.07,0.05,0.15,0.09,0.25c0.07,0.18,0.16,0.35,0.25,0.52c0.06,0.11,0.12,0.22,0.19,0.33l0.06,0.09
			c0.04,0.07,0.08,0.14,0.12,0.2l46.08,63.05l-29.44,46.81c-1.46,2.33-0.85,5.38,1.4,6.96l56.08,39.37l-19.91,43.31
			c-0.58,1.27-0.62,2.75-0.11,4.06c0.52,1.3,1.56,2.35,2.86,2.88l208.94,84.25c0.06,0.02,0.12,0.04,0.16,0.05
			c0.21,0.08,0.42,0.14,0.55,0.16l0.18,0.05c0.38,0.08,0.71,0.11,0.93,0.11l0.11,0.01c0.29,0,0.6-0.04,0.97-0.11
			c0.18-0.03,0.35-0.08,0.53-0.14l0.23-0.07c0.12-0.04,0.24-0.07,0.36-0.12c0.06-0.03,0.11-0.06,0.13-0.07
			c0.08-0.04,0.16-0.08,0.23-0.13c0.07-0.03,0.15-0.06,0.21-0.1c0.06-0.04,0.11-0.08,0.14-0.1c0.06-0.04,0.12-0.09,0.21-0.16
			c0.17-0.13,0.34-0.25,0.47-0.38c0.06-0.05,0.13-0.11,0.18-0.16c0.08-0.08,0.15-0.17,0.22-0.26l0.12-0.14
			c0.08-0.08,0.15-0.15,0.21-0.24c0.03-0.05,0.06-0.1,0.06-0.1l0.08-0.11c0.05-0.07,0.08-0.15,0.13-0.27
			c0.11-0.21,0.22-0.42,0.28-0.58l0.06-0.13c0.03-0.08,0.05-0.16,0.09-0.3c0.07-0.24,0.12-0.48,0.17-0.75l0.03-0.13l24.3-241.92
			l209.12,37.87l29.51,40.35c0.97,1.32,2.52,2.11,4.16,2.11c0.75,0,1.47-0.16,2.15-0.47l56.92-26.14c0.07-0.03,0.13-0.07,0.13-0.08
			c0.31-0.15,0.6-0.34,0.88-0.56c0.1-0.07,0.19-0.15,0.28-0.24c0.23-0.2,0.44-0.43,0.67-0.72c0.05-0.06,0.1-0.12,0.14-0.18
			c0.23-0.34,0.42-0.7,0.56-1.06c0.03-0.07,0.04-0.13,0.06-0.2l-0.73-0.18l0.76,0.08c0.07-0.2,0.13-0.41,0.17-0.63
			c0.01-0.08,0.02-0.15,0.02-0.22l0.04-0.14l5.54-58.7C796.99,443.95,796.99,443.88,796.98,443.78z M723.6,38.47L585.66,254.76
			l-55.99-49.4L723.6,38.47z M628.9,306.66l-45.36,30.04l-14.45-47.29c-0.07-0.23-0.16-0.44-0.24-0.61l-0.05-0.11
			c-0.12-0.26-0.28-0.52-0.46-0.75l-0.05-0.08l-79.3-104.61L628.9,306.66z M672.93,463.51l-132.46-85.92l39.16-25.94L672.93,463.51z
			 M570.24,328.44l-38.57-34.94l28.59,2.27L570.24,328.44z M495.33,130.3l16.79,59.59l-49.22-43.43L495.33,130.3z M451.5,141.49
			C451.5,141.49,451.5,141.49,451.5,141.49L451.5,141.49L451.5,141.49z M455.16,155.65l97.95,129.21l-35.7-2.83
			c-2.2-0.17-4.26,1.07-5.14,3.09c-0.87,2.03-0.36,4.38,1.27,5.86l58.71,53.19l-39.21,25.97l-91.41-180.43L455.16,155.65z
			 M434.96,213.5l38.59,215.56l-73.37-86.96L434.96,213.5z M387.62,198.05l33.81-2.04l-55.56,49.39
			C375.81,223.61,384.75,204.25,387.62,198.05z M426.5,205.29l-35.12,129.87l-63.93-41.82L426.5,205.29z M320.1,405.55l21.94,194.51
			l-99.62-136.3L320.1,405.55z M249.49,445.58l65.39-131.74l4.21,79.59L249.49,445.58z M324.67,303.84l60.85,39.81l-56.5,42.34
			L324.67,303.84z M389.66,353.43L395.44,543l-64.67-145.44L389.66,353.43z M305.82,251.4l47.38-3.05
			c-2.11,4.63-4.23,9.3-6.32,13.93l-68.8,61.16C285.5,304.05,297.09,273.98,305.82,251.4z M239.74,299.03l37.65-2.56
			c-8.94,23.24-14.31,37.29-15.96,41.77l-56.14,49.9C213.94,365.34,229.03,326.46,239.74,299.03z M234.4,452.8l-34-46.52
			l102.17-90.82L234.4,452.8z M217.28,519.78l24.65-39.2l84.83,116.06L217.28,519.78z M255.14,607.47l16.86-36.68L417.5,672.93
			L255.14,607.47z M354.19,615.9l-21.2-187.96l111.9,251.64L354.19,615.9z M453.98,674.64l-46.73-105.09l67.56-102.21L453.98,674.64
			z M406.05,552.67l-5.94-194.68l75.49,89.46L406.05,552.67z M484.92,434.04l-37.68-210.45l77.83,153.61L484.92,434.04z
			 M490.89,443.45l41.53-58.79l141.82,91.99L490.89,443.45z M588.28,345.93l46.36-30.71l50.15,146.42L588.28,345.93z M648.53,323.98
			l133.97,118.19l-80.77,37.14L648.53,323.98z M731.06,521.88l-20.63-28.2l58.85,10.66L731.06,521.88z M781.72,496.11l-65.89-11.93
			l70.05-32.21L781.72,496.11z"/>
	</g>
	<g>
		<path class="st0" d="M5,904.22v-23.49h122.22v23.49H79.83v146.33H52.39V904.22H5z"/>
		<path class="st0" d="M133.87,1050.55V930.62h25.36v12.89c2.63-4.43,6.41-8.31,11.33-11.64c4.92-3.33,10.77-4.99,17.56-4.99
			c6.37,0,11.57,0.9,15.59,2.7v23.9c-5.27-1.66-10.46-2.49-15.59-2.49c-9.01,0-15.9,3.5-20.68,10.5c-4.78,7-7.17,16.32-7.17,27.96
			v61.11H133.87z"/>
		<path class="st0" d="M215.97,1007.11v-76.49h26.4v73.16c0,18.71,6.58,28.06,19.75,28.06c7.9,0,14.06-3.36,18.5-10.08
			c4.43-6.72,6.65-14.72,6.65-24.01v-67.14h26.19v119.93h-25.36v-13.93h-0.21c-1.94,4.3-5.65,8.31-11.12,12.06
			c-5.48,3.74-12.3,5.61-20.47,5.61c-4.85,0-9.46-0.73-13.82-2.18c-4.36-1.45-8.63-3.81-12.78-7.07c-4.16-3.25-7.48-8.14-9.98-14.65
			C217.22,1023.88,215.97,1016.12,215.97,1007.11z"/>
		<path class="st0" d="M333.2,1025.61l18.91-11.02c8.31,12.2,19.12,18.29,32.42,18.29c6.51,0,11.67-1.28,15.48-3.85
			c3.81-2.56,5.72-5.99,5.72-10.29c0-3.46-1.56-6.51-4.68-9.15c-3.12-2.63-6.41-4.61-9.87-5.92c-3.47-1.32-8.66-3.08-15.59-5.3
			c-1.25-0.42-2.15-0.69-2.7-0.83c-4.99-1.66-9.18-3.29-12.58-4.88c-3.4-1.59-6.96-3.74-10.7-6.44s-6.58-6.1-8.52-10.18
			c-1.94-4.09-2.91-8.83-2.91-14.24c0-10.53,4.43-18.98,13.3-25.36c8.87-6.37,19.88-9.56,33.05-9.56c9.84,0,19.12,2.6,27.85,7.79
			c8.73,5.2,15.24,11.81,19.54,19.85l-17.46,10.6c-8.18-11.22-18.08-16.84-29.72-16.84c-6.38,0-11.26,1.28-14.65,3.85
			c-3.4,2.57-5.09,5.92-5.09,10.08c0,3.47,1.49,6.55,4.47,9.25c2.98,2.7,6.06,4.68,9.25,5.92c3.19,1.25,7.69,2.84,13.51,4.78
			c1.52,0.42,2.63,0.76,3.33,1.04c24.66,7.9,37,19.82,37,35.75c0,9.84-4.12,18.19-12.37,25.05c-8.25,6.86-19.92,10.29-35.02,10.29
			c-11.64,0-22-2.57-31.07-7.69C345.01,1041.48,338.05,1034.48,333.2,1025.61z"/>
		<path class="st0" d="M442.53,935.19v-22.45h18.5v-32.01h26.19v32.01h27.44v22.45h-27.44v76.91c0,5.68,1.14,9.77,3.43,12.26
			c2.29,2.49,5.78,3.74,10.5,3.74h13.72v22.45h-17.04c-24.53,0-36.79-12.19-36.79-36.58v-78.78H442.53z"/>
		<path class="st0" d="M537.73,1050.55V880.74h26.19v169.82H537.73z"/>
		<rect x="596.13" y="880.74" class="st0" width="28.27" height="28.89"/>
		<rect x="597.38" y="927.5" class="st0" width="25.98" height="123.05"/>
		<path class="st0" d="M654.54,1050.55V930.62h25.57v15.17h0.21c2.08-4.43,5.92-8.69,11.54-12.78c5.61-4.09,12.85-6.13,21.72-6.13
			c11.91,0,21.41,3.67,28.48,11.02c7.07,7.35,10.6,19.19,10.6,35.54v77.11h-26.4v-73.58c0-18.43-6.24-27.64-18.71-27.64
			c-7.62,0-13.96,3.05-19.02,9.15c-5.06,6.1-7.59,13.65-7.59,22.66v69.42H654.54z"/>
		<path class="st0" d="M772.81,990.07c0-19.26,5.3-34.61,15.9-46.04s23.94-17.15,40.01-17.15c15.8,0,28.82,5.75,39.08,17.25
			c10.25,11.5,15.38,26.47,15.38,44.9c0,3.6-0.21,7.14-0.62,10.6h-83.14c0,9.15,2.73,17.01,8.21,23.59
			c5.47,6.58,12.99,9.87,22.55,9.87c6.65,0,12.5-1.63,17.56-4.88c5.06-3.25,8.9-7.45,11.54-12.58l22.03,7.48
			c-3.88,8.87-10.18,16.28-18.91,22.24c-8.73,5.96-19.61,8.94-32.63,8.94c-16.77,0-30.45-5.82-41.05-17.46
			C778.11,1025.19,772.81,1009.61,772.81,990.07z M799.83,981.13h56.54c0-9.15-2.43-16.94-7.27-23.38
			c-4.85-6.44-11.64-9.67-20.37-9.67s-15.69,3.29-20.89,9.87C802.63,964.54,799.96,972.26,799.83,981.13z"/>
		<path class="st0" d="M895.65,1025.61l18.91-11.02c8.31,12.2,19.12,18.29,32.42,18.29c6.51,0,11.67-1.28,15.48-3.85
			c3.81-2.56,5.72-5.99,5.72-10.29c0-3.46-1.56-6.51-4.68-9.15c-3.12-2.63-6.41-4.61-9.87-5.92c-3.47-1.32-8.66-3.08-15.59-5.3
			c-1.25-0.42-2.15-0.69-2.7-0.83c-4.99-1.66-9.18-3.29-12.58-4.88c-3.4-1.59-6.96-3.74-10.7-6.44s-6.58-6.1-8.52-10.18
			c-1.94-4.09-2.91-8.83-2.91-14.24c0-10.53,4.43-18.98,13.3-25.36c8.87-6.37,19.88-9.56,33.05-9.56c9.84,0,19.12,2.6,27.85,7.79
			c8.73,5.2,15.24,11.81,19.54,19.85l-17.46,10.6c-8.18-11.22-18.08-16.84-29.72-16.84c-6.38,0-11.26,1.28-14.65,3.85
			c-3.4,2.57-5.09,5.92-5.09,10.08c0,3.47,1.49,6.55,4.47,9.25c2.98,2.7,6.06,4.68,9.25,5.92c3.19,1.25,7.69,2.84,13.51,4.78
			c1.52,0.42,2.63,0.76,3.33,1.04c24.66,7.9,37,19.82,37,35.75c0,9.84-4.12,18.19-12.37,25.05c-8.25,6.86-19.92,10.29-35.02,10.29
			c-11.64,0-22-2.57-31.07-7.69C907.46,1041.48,900.49,1034.48,895.65,1025.61z"/>
		<g>
			<path class="st0" d="M187.29,1180.98v-71.09h9.97l24.6,43.23l8.29,14.72h0.56c-0.81-5.78-1.21-12.52-1.21-20.22v-37.74h9.04
				v71.09h-9.97l-24.6-43.14l-8.29-14.72h-0.37c0.68,6.46,1.02,13.2,1.02,20.22v37.64H187.29z"/>
			<path class="st0" d="M285.61,1180.98v-71.09h45.19v7.73h-36.15v22.83h32.61v7.55h-32.61v25.25h36.99v7.73H285.61z"/>
			<path class="st0" d="M366.13,1117.62v-7.73h51.53v7.73h-21.24v63.36h-9.04v-63.36H366.13z"/>
			<path class="st0" d="M450.75,1109.89h9.78l9.04,45c1.37,8.01,2.27,13.36,2.7,16.03h0.56c0.19-0.93,0.67-3.37,1.44-7.31
				c0.78-3.94,1.35-6.85,1.72-8.71l10.44-45h9.41l10.62,45c0.62,2.67,1.68,8.01,3.17,16.03h0.37c0.12-0.75,1.06-6.09,2.8-16.03
				l9.13-45h9.78l-16.49,71.09H504.7l-10.25-44.44c-0.25-1.12-0.59-2.72-1.02-4.8c-0.44-2.08-0.82-3.97-1.16-5.68
				c-0.34-1.71-0.64-3.34-0.89-4.89h-0.37c-0.19,1.12-1.21,6.24-3.07,15.37l-10.25,44.44h-10.44L450.75,1109.89z"/>
			<path class="st0" d="M565.84,1145.48c0-11.18,2.72-20.19,8.15-27.02c5.43-6.83,12.69-10.25,21.76-10.25
				c9.13,0,16.38,3.42,21.76,10.25c5.37,6.83,8.06,15.87,8.06,27.11c0,11.31-2.72,20.31-8.15,27.02
				c-5.44,6.71-12.66,10.06-21.66,10.06c-9.07,0-16.32-3.37-21.76-10.11C568.56,1165.81,565.84,1156.79,565.84,1145.48z
				 M575.16,1145.48c0,9.01,1.85,16.15,5.54,21.43c3.7,5.28,8.71,7.92,15.05,7.92c6.27,0,11.26-2.59,14.95-7.78
				c3.7-5.19,5.54-12.35,5.54-21.48c0-9.01-1.8-16.2-5.4-21.57c-3.6-5.37-8.63-8.06-15.09-8.06c-6.34,0-11.35,2.67-15.05,8.01
				C577.01,1129.3,575.16,1136.48,575.16,1145.48z"/>
			<path class="st0" d="M667.89,1180.98v-71.09h28.05c7.08,0,12.53,1.9,16.35,5.68c3.82,3.79,5.73,8.48,5.73,14.07
				c0,4.97-1.2,9.01-3.59,12.11c-2.39,3.11-5.08,5.09-8.06,5.96c2.48,1.43,4.29,3.11,5.4,5.03c1.12,1.93,2.05,4.69,2.8,8.29
				c0.68,2.92,1.23,5.17,1.63,6.76c0.4,1.58,1.09,3.57,2.05,5.96c0.96,2.39,2.16,4.8,3.59,7.22h-10.16
				c-2.55-4.53-4.75-10.96-6.62-19.29c-0.81-3.42-1.97-6.04-3.49-7.87c-1.52-1.83-3.96-2.75-7.31-2.75h-17.33v29.91H667.89z
				 M676.93,1143.34h17.7c4.53,0,8.01-1.16,10.44-3.49s3.63-5.51,3.63-9.55c0-3.79-1.27-6.85-3.82-9.18
				c-2.55-2.33-6.15-3.49-10.81-3.49h-17.14V1143.34z"/>
			<path class="st0" d="M760.8,1180.98v-71.09h9.04v35.69h0.19l30.65-35.69h11.83l-27.21,30.84l28.42,40.25h-11.18l-23.01-33.73
				l-9.69,10.99v22.73H760.8z"/>
		</g>
		<path class="st0" d="M5,904.22v-23.49h122.22v23.49H79.83v146.33H52.39V904.22H5z"/>
		<path class="st0" d="M133.87,1050.55V930.62h25.36v12.89c2.63-4.43,6.41-8.31,11.33-11.64c4.92-3.33,10.77-4.99,17.56-4.99
			c6.37,0,11.57,0.9,15.59,2.7v23.9c-5.27-1.66-10.46-2.49-15.59-2.49c-9.01,0-15.9,3.5-20.68,10.5c-4.78,7-7.17,16.32-7.17,27.96
			v61.11H133.87z"/>
		<path class="st0" d="M215.97,1007.11v-76.49h26.4v73.16c0,18.71,6.58,28.06,19.75,28.06c7.9,0,14.06-3.36,18.5-10.08
			c4.43-6.72,6.65-14.72,6.65-24.01v-67.14h26.19v119.93h-25.36v-13.93h-0.21c-1.94,4.3-5.65,8.31-11.12,12.06
			c-5.48,3.74-12.3,5.61-20.47,5.61c-4.85,0-9.46-0.73-13.82-2.18c-4.36-1.45-8.63-3.81-12.78-7.07c-4.16-3.25-7.48-8.14-9.98-14.65
			C217.22,1023.88,215.97,1016.12,215.97,1007.11z"/>
		<path class="st0" d="M333.2,1025.61l18.91-11.02c8.31,12.2,19.12,18.29,32.42,18.29c6.51,0,11.67-1.28,15.48-3.85
			c3.81-2.56,5.72-5.99,5.72-10.29c0-3.46-1.56-6.51-4.68-9.15c-3.12-2.63-6.41-4.61-9.87-5.92c-3.47-1.32-8.66-3.08-15.59-5.3
			c-1.25-0.42-2.15-0.69-2.7-0.83c-4.99-1.66-9.18-3.29-12.58-4.88c-3.4-1.59-6.96-3.74-10.7-6.44s-6.58-6.1-8.52-10.18
			c-1.94-4.09-2.91-8.83-2.91-14.24c0-10.53,4.43-18.98,13.3-25.36c8.87-6.37,19.88-9.56,33.05-9.56c9.84,0,19.12,2.6,27.85,7.79
			c8.73,5.2,15.24,11.81,19.54,19.85l-17.46,10.6c-8.18-11.22-18.08-16.84-29.72-16.84c-6.38,0-11.26,1.28-14.65,3.85
			c-3.4,2.57-5.09,5.92-5.09,10.08c0,3.47,1.49,6.55,4.47,9.25c2.98,2.7,6.06,4.68,9.25,5.92c3.19,1.25,7.69,2.84,13.51,4.78
			c1.52,0.42,2.63,0.76,3.33,1.04c24.66,7.9,37,19.82,37,35.75c0,9.84-4.12,18.19-12.37,25.05c-8.25,6.86-19.92,10.29-35.02,10.29
			c-11.64,0-22-2.57-31.07-7.69C345.01,1041.48,338.05,1034.48,333.2,1025.61z"/>
		<path class="st0" d="M442.53,935.19v-22.45h18.5v-32.01h26.19v32.01h27.44v22.45h-27.44v76.91c0,5.68,1.14,9.77,3.43,12.26
			c2.29,2.49,5.78,3.74,10.5,3.74h13.72v22.45h-17.04c-24.53,0-36.79-12.19-36.79-36.58v-78.78H442.53z"/>
		<path class="st0" d="M537.73,1050.55V880.74h26.19v169.82H537.73z"/>
		<rect x="596.13" y="880.74" class="st0" width="28.27" height="28.89"/>
		<rect x="597.38" y="927.5" class="st0" width="25.98" height="123.05"/>
		<path class="st0" d="M654.54,1050.55V930.62h25.57v15.17h0.21c2.08-4.43,5.92-8.69,11.54-12.78c5.61-4.09,12.85-6.13,21.72-6.13
			c11.91,0,21.41,3.67,28.48,11.02c7.07,7.35,10.6,19.19,10.6,35.54v77.11h-26.4v-73.58c0-18.43-6.24-27.64-18.71-27.64
			c-7.62,0-13.96,3.05-19.02,9.15c-5.06,6.1-7.59,13.65-7.59,22.66v69.42H654.54z"/>
		<path class="st0" d="M772.81,990.07c0-19.26,5.3-34.61,15.9-46.04s23.94-17.15,40.01-17.15c15.8,0,28.82,5.75,39.08,17.25
			c10.25,11.5,15.38,26.47,15.38,44.9c0,3.6-0.21,7.14-0.62,10.6h-83.14c0,9.15,2.73,17.01,8.21,23.59
			c5.47,6.58,12.99,9.87,22.55,9.87c6.65,0,12.5-1.63,17.56-4.88c5.06-3.25,8.9-7.45,11.54-12.58l22.03,7.48
			c-3.88,8.87-10.18,16.28-18.91,22.24c-8.73,5.96-19.61,8.94-32.63,8.94c-16.77,0-30.45-5.82-41.05-17.46
			C778.11,1025.19,772.81,1009.61,772.81,990.07z M799.83,981.13h56.54c0-9.15-2.43-16.94-7.27-23.38
			c-4.85-6.44-11.64-9.67-20.37-9.67s-15.69,3.29-20.89,9.87C802.63,964.54,799.96,972.26,799.83,981.13z"/>
		<path class="st0" d="M895.65,1025.61l18.91-11.02c8.31,12.2,19.12,18.29,32.42,18.29c6.51,0,11.67-1.28,15.48-3.85
			c3.81-2.56,5.72-5.99,5.72-10.29c0-3.46-1.56-6.51-4.68-9.15c-3.12-2.63-6.41-4.61-9.87-5.92c-3.47-1.32-8.66-3.08-15.59-5.3
			c-1.25-0.42-2.15-0.69-2.7-0.83c-4.99-1.66-9.18-3.29-12.58-4.88c-3.4-1.59-6.96-3.74-10.7-6.44s-6.58-6.1-8.52-10.18
			c-1.94-4.09-2.91-8.83-2.91-14.24c0-10.53,4.43-18.98,13.3-25.36c8.87-6.37,19.88-9.56,33.05-9.56c9.84,0,19.12,2.6,27.85,7.79
			c8.73,5.2,15.24,11.81,19.54,19.85l-17.46,10.6c-8.18-11.22-18.08-16.84-29.72-16.84c-6.38,0-11.26,1.28-14.65,3.85
			c-3.4,2.57-5.09,5.92-5.09,10.08c0,3.47,1.49,6.55,4.47,9.25c2.98,2.7,6.06,4.68,9.25,5.92c3.19,1.25,7.69,2.84,13.51,4.78
			c1.52,0.42,2.63,0.76,3.33,1.04c24.66,7.9,37,19.82,37,35.75c0,9.84-4.12,18.19-12.37,25.05c-8.25,6.86-19.92,10.29-35.02,10.29
			c-11.64,0-22-2.57-31.07-7.69C907.46,1041.48,900.49,1034.48,895.65,1025.61z"/>
	</g>
</g>
</svg>
