<svg id="Layer_2" data-name="Layer 2" xmlns="http://www.w3.org/2000/svg" viewBox="0 0 1155.98 1190"><defs><style>.cls-1{fill:#fff;}</style></defs><path class="cls-1" d="M775.57,364.12V364c0-1.63-.11-3.26-.19-4.84v-.27c-.08-1.52-.17-3.07-.3-4.73l0-.32c-.11-1.47-.25-3-.41-4.64l0-.4c-.16-1.51-.33-3-.52-4.53l-.06-.46c-.19-1.5-.4-3-.62-4.43l-.08-.53c-.22-1.46-.46-2.91-.72-4.36l-.09-.54c-.26-1.44-.54-2.86-.82-4.29l-.12-.6c-.3-1.41-.6-2.81-.92-4.21l-.14-.6c-.33-1.4-.67-2.8-1-4.2l-.14-.54c-.36-1.4-.73-2.78-1.12-4.16l-.17-.59c-.39-1.37-.8-2.74-1.22-4.1l-.17-.57c-.47-1.47-.9-2.79-1.32-4l-.2-.61c-.46-1.33-.92-2.66-1.4-4l-.22-.58c-.49-1.33-1-2.65-1.51-4l-.21-.53c-.53-1.35-1.07-2.67-1.6-3.92l-.24-.57c-.56-1.3-1.12-2.6-1.71-3.89l-.22-.48c-.58-1.31-1.19-2.6-1.81-3.89l-.22-.45c-.63-1.3-1.26-2.59-1.92-3.87l-.21-.4c-.66-1.28-1.33-2.56-2-3.83l-.23-.42c-.69-1.27-1.4-2.53-2.12-3.79l-.19-.33c-.73-1.27-1.48-2.54-2.24-3.79l-.19-.3q-1.15-1.92-2.36-3.79l-.09-.15c-.83-1.28-1.68-2.56-2.53-3.83l-.1-.15c-.93-1.37-1.77-2.59-2.57-3.71l-.05-.07-.06-.08c-.88-1.23-1.76-2.45-2.67-3.66l-.12-.17c-.89-1.18-1.78-2.34-2.69-3.5l-.24-.31c-.92-1.16-1.84-2.31-2.78-3.45l-.18-.22q-1.4-1.69-2.82-3.34l-.29-.33q-1.4-1.6-2.82-3.18l-.36-.4c-.94-1-1.89-2.06-2.86-3.07l-.38-.41c-1-1-1.93-2-2.9-3l-.45-.45c-1-1-2.11-2.08-3.2-3.11l-.05-.06c-2.5-2.38-5.18-4.79-8-7.18a.74.74,0,0,0-.78-.13.76.76,0,0,0-.47.63c-.56,5.73.92,7.12,4.17,10.17l.84.79a190.87,190.87,0,1,1-89.57-48.08c5.53,1.26,8.3,1.89,13.33-1.42a.76.76,0,0,0,.34-.75.8.8,0,0,0-.54-.62c-3.74-1.09-7.43-2.06-11-2.88l-.12,0c-1.49-.34-3-.67-4.67-1l-.16,0c-1.39-.28-2.93-.58-4.68-.9l-.15,0c-1.57-.28-3.16-.55-4.74-.79l-.16,0c-1.52-.24-3.14-.46-4.77-.67l-.1,0c-1.67-.2-3.31-.39-4.88-.55h-.1c-1.44-.15-3-.29-5-.44-5-.38-10.11-.58-15.19-.58-1.8,0-3.47,0-5.1.07s-3.44.11-5.07.19-3.33.19-5,.32-3.28.27-5,.44-3.3.36-5,.57-3.29.44-4.93.69c-1.81.28-3.41.54-4.88.81-1.65.29-3.28.61-4.85.93s-3.24.68-4.8,1-3.16.75-4.76,1.17-3.18.84-4.71,1.27-3,.88-4.63,1.38h0c-1.44.45-3,.94-4.62,1.5s-3.09,1.07-4.56,1.61-2.94,1.09-4.52,1.71-3,1.23-4.46,1.83l0,0c-1.45.61-2.92,1.25-4.36,1.9s-3,1.36-4.35,2-2.92,1.43-4.29,2.13c-2.76,1.41-5.59,2.94-8.4,4.56-1.33.76-2.7,1.57-4.08,2.41l0,0c-1.39.84-2.73,1.69-4,2.5l0,0a201.6,201.6,0,0,0-19.2,14c-1.31,1.09-2.49,2.09-3.62,3.07s-2.36,2.06-3.55,3.14c-4.65,4.23-9.16,8.74-13.41,13.41-1,1.14-2.09,2.33-3.14,3.55s-1.95,2.28-3,3.59l0,0a199.09,199.09,0,0,0-14,19.2c-.86,1.35-1.71,2.71-2.52,4l0,0c-.84,1.39-1.65,2.76-2.41,4.07-1.59,2.78-3.13,5.6-4.56,8.41-.74,1.45-1.46,2.89-2.13,4.29s-1.36,2.87-2,4.35-1.29,2.92-1.9,4.35l0,.05c-.68,1.59-1.27,3.05-1.83,4.46s-1.16,3-1.71,4.52-1.1,3.05-1.61,4.57-1,3.14-1.5,4.61-1,3.17-1.39,4.67-.84,3-1.28,4.71-.8,3.23-1.16,4.76-.72,3.23-1,4.8-.64,3.2-.93,4.85-.56,3.21-.81,4.88v0c-.24,1.54-.46,3.14-.69,4.9-.2,1.59-.39,3.26-.57,5s-.31,3.32-.44,5-.24,3.44-.32,5-.15,3.37-.19,5.07-.07,3.28-.07,5.1,0,3.48.07,5.1.11,3.4.19,5.06.18,3.26.32,5,.28,3.36.44,5,.37,3.38.57,5,.45,3.34.69,4.9v0c.27,1.73.53,3.33.81,4.88s.61,3.28.92,4.82v0c.31,1.55.67,3.16,1,4.8s.73,3.08,1.17,4.77.85,3.24,1.27,4.71.89,3.06,1.39,4.67.94,3,1.5,4.61,1,3.05,1.61,4.57,1.13,3,1.71,4.51c1.14,2.9,2.4,5.87,3.74,8.82,0,0,0,0,0,.05,1.3,2.87,2.7,5.76,4.15,8.59,0,0,0,0,0,0,2.16,4.21,4.5,8.4,7,12.47,0,0,0,0,0,0,.82,1.34,1.67,2.7,2.52,4a199.2,199.2,0,0,0,17.07,22.81c1,1.18,2.06,2.36,3.1,3.51l0,.05a202.17,202.17,0,0,0,17,16.55c1.16,1,2.38,2,3.62,3.06a197.86,197.86,0,0,0,19.2,14l0,0c2.57,1.65,5.28,3.3,8.05,4.9l.07,0c2.85,1.63,5.68,3.17,8.4,4.56,1.4.72,2.82,1.42,4.23,2.1l.06,0c1.42.69,2.88,1.37,4.35,2,1.27.58,2.63,1.18,4.4,1.93,1.57.66,3,1.26,4.46,1.82s2.85,1.1,4.52,1.72,3.08,1.1,4.57,1.61,3.08,1,4.61,1.5h0c1.64.51,3.16,1,4.63,1.37s3.16.88,4.71,1.28,3.24.81,4.76,1.16,3.14.71,4.8,1c1.47.3,3.06.6,4.85.93,1.63.29,3.27.56,4.88.81s3.17.46,4.93.69,3.44.41,5,.56c1.71.18,3.4.33,5,.45,1.79.13,3.43.24,5,.32s3.37.15,5.07.19,3.35.06,5.1.06,3.46,0,5.1-.06,3.41-.11,5.07-.19,3.24-.19,5-.32c1.6-.12,3.28-.27,5-.45,1.52-.15,3.15-.34,5-.56s3.36-.46,4.9-.69h0c1.64-.25,3.28-.53,4.89-.81,1.79-.33,3.37-.63,4.84-.93,1.86-.38,3.38-.72,4.81-1s3.08-.73,4.76-1.16,3.12-.82,4.71-1.28,3-.86,4.67-1.38c1.52-.48,3.07-1,4.61-1.5s3-1,4.57-1.61,3.13-1.17,4.51-1.72,2.89-1.15,4.47-1.82c1.76-.75,3.12-1.35,4.4-1.93,2.89-1.31,5.8-2.71,8.64-4.16,5.64-2.9,11.21-6.1,16.55-9.52,1.28-.82,2.62-1.7,4-2.62a197.34,197.34,0,0,0,18.8-14.41l0,0c1.16-1,2.35-2.06,3.54-3.15l0,0c1.09-1,2.21-2,3.42-3.19s2.3-2.21,3.4-3.31,2.31-2.35,3.31-3.4c2.18-2.28,4.33-4.64,6.38-7,1-1.19,2.07-2.41,3.07-3.62a199.64,199.64,0,0,0,14-19.19c3.42-5.34,6.63-10.9,9.52-16.55,0,0,0,0,0,0,1.46-2.86,2.86-5.75,4.14-8.59l0-.05c1.32-2.92,2.57-5.88,3.73-8.82.58-1.47,1.16-3,1.72-4.51s1.09-3,1.61-4.57,1-3.12,1.5-4.62,1-3.15,1.38-4.66.87-3.14,1.28-4.71.77-3.06,1.16-4.77.73-3.24,1-4.8v0c.32-1.55.63-3.17.93-4.82s.57-3.31.81-4.89v0c.23-1.52.46-3.12.69-4.9.2-1.6.38-3.22.56-5s.33-3.4.45-5,.23-3.38.32-5,.14-3.33.19-5.07.06-3.37.06-5.1S775.61,365.73,775.57,364.12Z"/><path class="cls-1" d="M552.3,227.58l.05,0h0Z"/><path class="cls-1" d="M732,385.16a2.54,2.54,0,0,0,0-.39,1.52,1.52,0,0,0,0-.21,2,2,0,0,0-.11-.4.53.53,0,0,0,0-.15l0-.09a2,2,0,0,0-.14-.25l-.05-.08-.07-.11a2.93,2.93,0,0,0-.37-.42h0L626.15,290.48,708.1,162a2.68,2.68,0,0,0-4-3.47l-113.75,97.9-10.93-38.8a2.71,2.71,0,0,0-1.49-1.73,2.68,2.68,0,0,0-2.28.06L552.4,227.53l0,0,.14.37-.19-.34-.11.06-.08.05-.05,0-.18.12-.08.07-.1.1-.1.09a1.14,1.14,0,0,0-.11.11l-.1.13-.13.19a1,1,0,0,0-.08.11l-.08.18,0,.05L551,229l-8.6,21.66-25.21,1.52a2.68,2.68,0,0,0-2.27,1.55c-.21.46-5.27,11.39-11.18,24.32l-29.21,1.88a2.7,2.7,0,0,0-2.33,1.71c-.33.87-4.15,10.74-8.27,21.44l-23.75,1.62a2.7,2.7,0,0,0-2.32,1.69c-4.84,12.41-20.77,53.26-22.21,58l-.07.24a1.18,1.18,0,0,0,0,.2,2.88,2.88,0,0,0,0,.33v.08a3.19,3.19,0,0,0,0,.42s0,.05,0,.09a3.61,3.61,0,0,0,.1.38,1,1,0,0,0,.05.12,1.69,1.69,0,0,0,.12.27,1.62,1.62,0,0,1,.1.18l0,0a.41.41,0,0,0,.07.11L440,399.64,424.69,424a2.68,2.68,0,0,0,.73,3.62l29.15,20.47-10.35,22.51a2.7,2.7,0,0,0,1.43,3.61L554.28,518l.08,0a1.32,1.32,0,0,0,.3.09h0l.08,0a2.67,2.67,0,0,0,.49.06h.06a2.41,2.41,0,0,0,.5-.06l.28-.07.11,0,.19-.07.07,0,.12-.07.11-.05a.22.22,0,0,0,.07-.06.38.38,0,0,0,.11-.08,1.69,1.69,0,0,0,.25-.2.24.24,0,0,0,.09-.08,1.42,1.42,0,0,0,.12-.13l.06-.08.11-.12,0-.06,0-.06a.46.46,0,0,0,.07-.14,2.09,2.09,0,0,0,.15-.3l0-.07a.76.76,0,0,0,.05-.16,3.82,3.82,0,0,0,.08-.39l0-.06L570.58,390,679.3,409.71l15.35,21a2.68,2.68,0,0,0,2.16,1.1,2.58,2.58,0,0,0,1.12-.25L727.52,418l.07,0a3.21,3.21,0,0,0,.46-.29l.14-.13a2.52,2.52,0,0,0,.35-.37.86.86,0,0,0,.07-.1,2.42,2.42,0,0,0,.29-.55.42.42,0,0,0,0-.1l-.38-.1.39,0A1.68,1.68,0,0,0,729,416a.49.49,0,0,0,0-.12l0-.07L732,385.29A.28.28,0,0,0,732,385.16ZM507.83,282c5.17-11.34,9.81-21.4,11.3-24.62l17.58-1.06ZM593,261.21,693.8,174.45,622.09,286.89Zm80.64,133.23-50.17-60.15,24.1-16Zm-5.48,7.81L572.82,385l21.59-30.57ZM558.27,230.59l16.86-8.4,8.73,31ZM598.6,350.75,619,337.26l48.5,58.16Zm14.47-46.66-41.23-54.38,72.73,64.16L621,329.49l-7.51-24.59a2.37,2.37,0,0,0-.13-.32l0-.05a2,2,0,0,0-.24-.39ZM594,307l14.87,1.18,5.19,17Zm-7.41-6a2.68,2.68,0,0,0-2,4.66l30.52,27.65-20.38,13.5-47.53-93.8,7-17.71,50.92,67.17Zm-21.74,86-36.16,54.7-3.09-101.21Zm-30.2,117.22-84.41-34L459,451.19ZM421.8,365.66l53.12-47.21-35.44,71.4Zm2.55-9.43c4.5-11.86,12.34-32.07,17.91-46.32l19.57-1.33c-4.65,12.08-7.44,19.39-8.3,21.71Zm37.83-33.63c3.86-10.06,9.88-25.7,14.43-37.45l24.63-1.59c-1.1,2.4-2.2,4.84-3.29,7.24Zm-14.86,63.49,34-68.49L483.51,359Zm-3.68,9.46L484,365.29l11.4,101.12Zm45-40.44-2.26-42.7,31.64,20.69Zm34.53,81.63-33.62-75.61,30.61-22.94ZM487.85,307l51.5-45.77-18.26,67.51ZM443.4,404.29l44.1,60.34-56.92-40ZM548.91,507.74l-47.16-33.1-11-97.72ZM525.66,332.3l18.09-66.86,20.06,112.07Zm38.8,65.11L553.63,505.18l-24.29-54.64Zm26.13-46.87L569.72,380.1,550.13,270.69Zm133.83,33.78-42,19.31-27.66-80.75Zm1.76,5.09L724,412.36l-34.25-6.2Zm-8.63,27.23-19.87,9.12L687,411.1ZM552.34,228ZM416,365.68Z"/><polygon class="cls-1" points="74.04 693.54 122.93 693.54 122.93 827.68 151.35 827.68 151.35 693.54 200.23 693.54 200.23 669.52 74.04 669.52 74.04 693.54"/><path class="cls-1" d="M261.74,707.36a30.53,30.53,0,0,0-18.11,5.6,29.66,29.66,0,0,0-11.16,15.87h-1.24V709.06h-27.1V827.68h28V758a25.44,25.44,0,0,1,3.48-13.36,24.42,24.42,0,0,1,9.53-9.08,28.33,28.33,0,0,1,13.71-3.29,57.61,57.61,0,0,1,7.38.51,29.79,29.79,0,0,1,5.6,1.13V708.13a40.27,40.27,0,0,0-4.83-.57C265,707.43,263.28,707.36,261.74,707.36Z"/><path class="cls-1" d="M365.91,806.6h1.24v21.08h27.1V709.06H366.3v68.73q0,9-3.75,15a24.6,24.6,0,0,1-9.54,9,25.55,25.55,0,0,1-12,3c-6.7,0-12.1-2.2-16.23-6.65s-6.17-10.39-6.17-17.9V709.06H290.7v75.52q0,14.22,5,24.21A35.65,35.65,0,0,0,309.65,824a40.17,40.17,0,0,0,20.58,5.21q13.36,0,22.51-6.34A35.71,35.71,0,0,0,365.91,806.6Z"/><path class="cls-1" d="M507.32,811.9a32.24,32.24,0,0,0,6.52-19.74q-.08-12.74-8.3-20.61T480.48,760l-20.23-4.33c-6-1.39-10.34-3.15-12.94-5.33a10.22,10.22,0,0,1-3.82-8.41q-.08-6,5.83-9.8T464,728.37a25.85,25.85,0,0,1,11,2.09,19.29,19.29,0,0,1,7.15,5.47,20.91,20.91,0,0,1,3.74,7.27l25.48-2.79a37.46,37.46,0,0,0-14.86-24q-12-8.86-32.86-8.87-14.2,0-25.06,4.43T421.6,724.46a30.51,30.51,0,0,0-6,19q-.08,13,8.11,21.42t25.26,12l20.23,4.24q8.19,1.8,12.08,5.1a10.62,10.62,0,0,1,3.91,8.43c0,4-2,7.39-6.06,10.11s-9.39,4.1-16,4.1q-9.66,0-15.68-4.1t-7.88-12.12l-27.25,2.63q2.55,16.36,15.83,25.52T463.18,830q14.83,0,26.26-4.79A42.22,42.22,0,0,0,507.32,811.9Z"/><path class="cls-1" d="M542.64,796.64q-.07,11.13,4.82,18.52a28.83,28.83,0,0,0,13.33,10.93,45,45,0,0,0,18.91,3.22,53.42,53.42,0,0,0,10.08-1.09,59.07,59.07,0,0,0,6.37-1.7l-4.71-21.84c-.77.19-1.89.42-3.36.68a27.76,27.76,0,0,1-4.82.39,17.74,17.74,0,0,1-6.33-1.07,9,9,0,0,1-4.6-4.07q-1.74-3-1.74-8.61V730.69H594V709.06h-23.4V680.65h-28v28.41H525.8v21.63h16.84Z"/><rect class="cls-1" x="615.78" y="669.53" width="27.95" height="158.15"/><rect class="cls-1" x="672.81" y="709.06" width="27.95" height="118.62"/><path class="cls-1" d="M686.79,692.23a16.22,16.22,0,0,0,11.47-4.44,14.48,14.48,0,0,0,0-21.43,16,16,0,0,0-11.4-4.48,16.21,16.21,0,0,0-11.43,4.44A14.06,14.06,0,0,0,670.65,677a14.2,14.2,0,0,0,4.74,10.73A16,16,0,0,0,686.79,692.23Z"/><path class="cls-1" d="M814.75,712.77q-9.15-5.25-21.43-5.25-13.29,0-22.28,5.87A33.72,33.72,0,0,0,758,729.22h-1.39V709.06H729.84V827.68h27.95v-69.5a30.72,30.72,0,0,1,3.21-14.6,22.4,22.4,0,0,1,8.88-9.23,26.09,26.09,0,0,1,13-3.2q10.8,0,16.94,6.71c4.1,4.49,6.15,10.68,6.15,18.62v71.2h28V752.15q.07-14.21-5-24.17A35.61,35.61,0,0,0,814.75,712.77Z"/><path class="cls-1" d="M951.26,721.88A47.58,47.58,0,0,0,934,711a60.44,60.44,0,0,0-20.74-3.52q-17,0-29.58,7.76a52.68,52.68,0,0,0-19.58,21.62q-7,13.86-7,32.16,0,18.63,6.94,32.33a49.91,49.91,0,0,0,19.89,21.16Q896.87,830,914.7,830a66.77,66.77,0,0,0,24.55-4.22,45.45,45.45,0,0,0,17.65-11.89,40.5,40.5,0,0,0,9.38-18l-26.1-2.94a21.33,21.33,0,0,1-5.49,8.41,23.94,23.94,0,0,1-8.56,5.15,33.15,33.15,0,0,1-11,1.73,31.5,31.5,0,0,1-15.91-3.9A26.74,26.74,0,0,1,888.59,793c-2.43-4.73-3.62-10.43-3.71-17h82.56v-8.57q0-15.62-4.32-26.91A50.94,50.94,0,0,0,951.26,721.88ZM885,757.17a31,31,0,0,1,3.46-12.94,28.77,28.77,0,0,1,10.08-10.8,27.35,27.35,0,0,1,15.05-4.13,26.91,26.91,0,0,1,14.1,3.63,25.54,25.54,0,0,1,9.46,9.91,30.42,30.42,0,0,1,3.47,14.33Z"/><path class="cls-1" d="M1073.63,771.55q-8.22-7.89-25.06-11.52l-20.23-4.33c-6-1.39-10.34-3.15-12.94-5.33a10.22,10.22,0,0,1-3.82-8.41q-.08-6,5.83-9.8t14.64-3.79a25.85,25.85,0,0,1,11,2.09,19.29,19.29,0,0,1,7.15,5.47,20.91,20.91,0,0,1,3.74,7.27l25.49-2.79a37.51,37.51,0,0,0-14.87-24q-12-8.86-32.86-8.87-14.21,0-25.06,4.43t-16.91,12.51a30.51,30.51,0,0,0-6,19q-.08,13,8.11,21.42t25.26,12l20.23,4.24q8.19,1.8,12.08,5.1a10.62,10.62,0,0,1,3.91,8.43c0,4-2,7.39-6.06,10.11s-9.39,4.1-16,4.1q-9.66,0-15.68-4.1t-7.88-12.12l-27.25,2.63q2.55,16.36,15.83,25.52t35,9.15q14.84,0,26.27-4.79a42.25,42.25,0,0,0,17.87-13.31,32.24,32.24,0,0,0,6.52-19.74Q1081.86,779.43,1073.63,771.55Z"/><polygon class="cls-1" points="320.06 908.22 282.55 908.37 282.79 968.86 291.91 968.83 291.81 942.45 317.51 942.35 317.48 934.52 291.78 934.62 291.71 916.19 320.09 916.08 320.06 908.22"/><path class="cls-1" d="M361.75,907.23c-15.71.06-27.22,11.83-27.14,31.18s11.67,31,27.39,31,27.18-11.83,27.1-31.18S377.4,907.17,361.75,907.23ZM362,961c-10.42.05-18.22-7.93-18.28-22.67s7.68-22.77,18.1-22.81,18.23,7.93,18.29,22.67S372.36,961,362,961Z"/><path class="cls-1" d="M445.72,907.72l.16,39c0,8.21-5.62,14.14-14.83,14.18s-14.91-5.85-14.95-14.06l-.15-39-9.13,0,.16,39.78c0,12.7,9.6,21.67,24.1,21.62s24-9.11,24-21.81l-.16-39.78Z"/><polygon class="cls-1" points="515.23 907.45 515.41 951.87 514.85 951.87 483.9 907.57 475.45 907.61 475.69 968.1 484.81 968.06 484.64 923.7 485.2 923.69 516.12 967.94 524.51 967.9 524.27 907.41 515.23 907.45"/><path class="cls-1" d="M565.24,907.25l-20.2.08.24,60.49,19.58-.08c18.43-.07,29-11.54,29-30.45S583.05,907.18,565.24,907.25Zm-.91,52.52-10,0-.18-44.54,10.51,0c13.24-.06,20.09,7.83,20.15,22.1S578.12,959.72,564.33,959.77Z"/><path class="cls-1" d="M624.33,907,602.8,967.59l9.69,0,5.49-16,23.63-.09,5.58,16,9.69,0-22-60.41Zm-3.73,36.82L629.42,918h.47l9,25.78Z"/><polygon class="cls-1" points="707.62 906.68 660.81 906.87 660.84 914.73 679.68 914.65 679.89 967.29 688.99 967.25 688.78 914.62 707.65 914.54 707.62 906.68"/><rect class="cls-1" x="724.07" y="906.6" width="9.13" height="60.49" transform="translate(-3.71 2.9) rotate(-0.23)"/><path class="cls-1" d="M778.93,905.57c-15.72.07-27.22,11.84-27.14,31.19s11.67,31,27.38,31,27.19-11.83,27.11-31.18S794.58,905.51,778.93,905.57Zm.21,53.82c-10.43,0-18.23-7.93-18.29-22.67S768.53,914,779,913.9s18.22,7.94,18.28,22.67S789.54,959.35,779.14,959.39Z"/><polygon class="cls-1" points="873.19 906.03 864.15 906.06 864.33 950.49 863.77 950.49 832.81 906.19 824.37 906.22 824.61 966.71 833.73 966.68 833.56 922.31 834.12 922.31 865.04 966.55 873.43 966.52 873.19 906.03"/></svg>