<svg id="Layer_2" data-name="Layer 2" xmlns="http://www.w3.org/2000/svg" viewBox="0 0 1155.98 1190"><defs><style>.cls-1{fill:#ededed;}</style></defs><path class="cls-1" d="M774.52,364.12V364c0-1.63-.1-3.26-.18-4.84v-.27c-.08-1.52-.18-3.07-.3-4.73l0-.32c-.12-1.47-.25-3-.41-4.64l0-.4c-.16-1.51-.33-3-.52-4.53l-.06-.46c-.19-1.5-.4-3-.62-4.43l-.08-.53c-.22-1.46-.46-2.91-.72-4.36l-.09-.54c-.26-1.44-.54-2.86-.83-4.29l-.12-.6c-.29-1.41-.59-2.81-.92-4.21l-.13-.6c-.33-1.4-.67-2.8-1-4.2l-.14-.54c-.36-1.4-.73-2.78-1.12-4.16l-.17-.59c-.39-1.37-.8-2.74-1.22-4.1l-.18-.57c-.46-1.47-.89-2.79-1.31-4l-.21-.61c-.45-1.33-.92-2.66-1.4-4l-.21-.58c-.49-1.33-1-2.65-1.51-4l-.21-.53c-.53-1.35-1.07-2.67-1.6-3.92l-.24-.57c-.56-1.3-1.13-2.6-1.71-3.89l-.22-.48c-.59-1.31-1.19-2.6-1.81-3.89l-.22-.45q-.94-1.95-1.92-3.87l-.21-.4c-.66-1.28-1.33-2.56-2-3.83l-.23-.42c-.7-1.27-1.4-2.53-2.12-3.79l-.2-.33c-.73-1.27-1.47-2.54-2.23-3.79l-.19-.3q-1.17-1.92-2.37-3.79l-.09-.15q-1.25-1.92-2.52-3.83l-.1-.15c-.93-1.37-1.78-2.59-2.58-3.71l0-.07a.35.35,0,0,0,0-.08q-1.32-1.85-2.67-3.66l-.13-.17c-.88-1.18-1.78-2.34-2.68-3.5l-.24-.31c-.92-1.16-1.84-2.31-2.78-3.45l-.18-.22c-.93-1.13-1.88-2.24-2.82-3.34l-.29-.33q-1.39-1.6-2.82-3.18l-.36-.4c-.94-1-1.9-2.06-2.86-3.07l-.39-.41c-1-1-1.92-2-2.9-3l-.45-.45q-1.56-1.56-3.19-3.11l0-.06c-2.5-2.38-5.19-4.79-8-7.18a.76.76,0,0,0-1.25.5c-.56,5.73.92,7.12,4.17,10.17l.84.79a190.91,190.91,0,1,1-89.58-48.08c5.54,1.26,8.31,1.89,13.34-1.42a.74.74,0,0,0,.33-.75.76.76,0,0,0-.54-.62c-3.73-1.09-7.42-2.06-11-2.88l-.12,0c-1.49-.34-3-.67-4.67-1l-.16,0c-1.4-.28-2.93-.58-4.69-.9l-.15,0c-1.56-.28-3.15-.55-4.73-.79l-.16,0c-1.52-.24-3.14-.46-4.78-.67l-.1,0c-1.66-.2-3.3-.39-4.87-.55h-.11c-1.43-.15-3-.29-5-.44-5-.38-10.11-.58-15.19-.58-1.81,0-3.47,0-5.1.07s-3.44.11-5.07.19-3.33.19-5,.32-3.27.27-5,.44-3.3.36-5,.57-3.29.44-4.93.69c-1.81.28-3.41.54-4.89.81-1.64.29-3.27.61-4.84.93s-3.24.68-4.8,1-3.16.75-4.76,1.17-3.18.84-4.71,1.27-3,.88-4.63,1.38h0c-1.44.45-2.95.94-4.62,1.5s-3.09,1.07-4.56,1.61-2.94,1.09-4.52,1.71-3,1.23-4.46,1.83l-.05,0c-1.45.61-2.91,1.25-4.36,1.9s-3,1.36-4.34,2-2.93,1.43-4.29,2.13c-2.76,1.41-5.59,2.94-8.41,4.56-1.32.76-2.69,1.57-4.07,2.41l0,0c-1.39.84-2.74,1.69-4,2.5l0,0a201.46,201.46,0,0,0-19.19,14c-1.31,1.09-2.49,2.09-3.62,3.07s-2.36,2.06-3.55,3.14c-4.65,4.23-9.16,8.74-13.41,13.41-1,1.14-2.09,2.33-3.15,3.55s-1.95,2.28-3,3.59l0,0a199.09,199.09,0,0,0-14,19.2c-.87,1.35-1.72,2.71-2.52,4l0,0c-.84,1.39-1.65,2.76-2.41,4.07-1.59,2.78-3.13,5.6-4.56,8.41-.75,1.45-1.47,2.89-2.14,4.29s-1.36,2.87-2,4.35-1.29,2.92-1.9,4.35l0,.05c-.67,1.59-1.26,3.05-1.82,4.46s-1.16,3-1.72,4.52-1.09,3.05-1.61,4.57-1,3.14-1.49,4.61-1,3.17-1.39,4.67-.84,3-1.28,4.71-.81,3.23-1.16,4.76-.72,3.23-1,4.8-.64,3.2-.93,4.85-.56,3.21-.81,4.88v0c-.23,1.54-.45,3.14-.68,4.9-.21,1.59-.4,3.26-.57,5s-.32,3.32-.44,5-.24,3.44-.32,5-.15,3.37-.2,5.07-.06,3.28-.06,5.1,0,3.48.06,5.1.11,3.4.2,5.06.18,3.26.32,5,.27,3.36.44,5,.36,3.38.57,5,.45,3.34.68,4.9v0c.26,1.73.53,3.33.81,4.88s.61,3.28.92,4.82v0c.31,1.55.66,3.16,1,4.8s.73,3.08,1.16,4.77.86,3.24,1.28,4.71.89,3.06,1.39,4.67.94,3,1.5,4.61,1.05,3.05,1.6,4.57,1.14,3,1.72,4.51c1.14,2.9,2.4,5.87,3.73,8.82l0,.05c1.3,2.87,2.69,5.76,4.15,8.59a.08.08,0,0,0,0,0c2.15,4.21,4.5,8.4,7,12.47a.08.08,0,0,0,0,0c.82,1.34,1.67,2.7,2.52,4a200.3,200.3,0,0,0,17.06,22.81c1,1.18,2.07,2.36,3.11,3.51l0,.05a200.66,200.66,0,0,0,17,16.55c1.16,1,2.38,2,3.62,3.06a199,199,0,0,0,19.19,14l0,0c2.57,1.65,5.28,3.3,8.05,4.9l.06,0c2.86,1.63,5.69,3.17,8.4,4.56,1.41.72,2.83,1.42,4.23,2.1l.07,0c1.42.69,2.88,1.37,4.34,2,1.28.58,2.64,1.18,4.41,1.93,1.57.66,3,1.26,4.46,1.82s2.85,1.1,4.52,1.72,3.08,1.1,4.56,1.61,3.09,1,4.62,1.5h0c1.64.51,3.15,1,4.63,1.37s3.16.88,4.71,1.28,3.24.81,4.75,1.16,3.15.71,4.81,1c1.47.3,3,.6,4.84.93,1.63.29,3.28.56,4.89.81s3.16.46,4.93.69,3.43.41,5,.56c1.71.18,3.39.33,5,.45,1.79.13,3.44.24,5,.32s3.36.15,5.07.19,3.35.06,5.1.06,3.46,0,5.1-.06,3.41-.11,5.06-.19,3.24-.19,5-.32c1.6-.12,3.28-.27,5-.45,1.52-.15,3.14-.34,5-.56s3.37-.46,4.91-.69h0c1.63-.25,3.28-.53,4.89-.81,1.79-.33,3.37-.63,4.84-.93,1.85-.38,3.38-.72,4.8-1s3.09-.73,4.76-1.16,3.13-.82,4.71-1.28,3-.86,4.67-1.38c1.52-.48,3.08-1,4.62-1.5s3-1,4.57-1.61,3.13-1.17,4.51-1.72,2.88-1.15,4.46-1.82c1.77-.75,3.13-1.35,4.4-1.93,2.9-1.31,5.81-2.71,8.65-4.16,5.64-2.9,11.21-6.1,16.55-9.52,1.27-.82,2.61-1.7,4-2.62a197.47,197.47,0,0,0,18.81-14.41l0,0c1.17-1,2.36-2.06,3.55-3.15l0,0c1.08-1,2.21-2,3.42-3.19s2.29-2.21,3.4-3.31,2.31-2.35,3.31-3.4c2.18-2.28,4.32-4.64,6.38-7,1-1.19,2.07-2.41,3.06-3.62a201.46,201.46,0,0,0,14-19.19c3.42-5.34,6.62-10.9,9.52-16.55l0,0c1.46-2.86,2.85-5.75,4.14-8.59,0,0,0,0,0-.05,1.32-2.92,2.57-5.88,3.73-8.82.58-1.47,1.16-3,1.72-4.51s1.08-3,1.6-4.57,1-3.12,1.5-4.62,1-3.15,1.39-4.66.87-3.14,1.28-4.71.76-3.06,1.16-4.77.73-3.24,1.05-4.8v0c.32-1.55.63-3.17.93-4.82s.56-3.31.8-4.89v0c.23-1.52.45-3.12.68-4.9.21-1.6.39-3.22.57-5s.32-3.4.44-5,.24-3.38.32-5,.15-3.33.2-5.07.06-3.37.06-5.1S774.56,365.73,774.52,364.12Z"/><path class="cls-1" d="M551.25,227.58l0,0h0Z"/><path class="cls-1" d="M730.9,385.16c0-.13,0-.26,0-.39l0-.21a3.11,3.11,0,0,0-.11-.4,1.31,1.31,0,0,0,0-.15l0-.09a1.28,1.28,0,0,0-.15-.25l0-.08-.07-.11a2.93,2.93,0,0,0-.37-.42h0L625.1,290.48,707.05,162a2.68,2.68,0,0,0-4-3.47l-113.75,97.9-10.93-38.8a2.67,2.67,0,0,0-3.78-1.67l-23.24,11.58,0,0,.14.37-.19-.34a.3.3,0,0,0-.11.06l-.08.05,0,0a1.88,1.88,0,0,0-.18.12l-.08.07a.47.47,0,0,0-.1.1l-.1.09a1.14,1.14,0,0,0-.11.11l-.1.13a1.22,1.22,0,0,0-.13.19.44.44,0,0,0-.08.11l-.08.18,0,.05a.39.39,0,0,0-.06.11l-8.61,21.66-25.2,1.52a2.68,2.68,0,0,0-2.27,1.55c-.21.46-5.28,11.39-11.18,24.32l-29.21,1.88a2.7,2.7,0,0,0-2.33,1.71c-.34.87-4.15,10.74-8.27,21.44l-23.76,1.62a2.68,2.68,0,0,0-2.31,1.69c-4.85,12.41-20.77,53.26-22.21,58l-.07.24a1.18,1.18,0,0,0,0,.2,2.88,2.88,0,0,0,0,.33v.08a2.08,2.08,0,0,0,0,.42.31.31,0,0,0,0,.09,2.15,2.15,0,0,0,.1.38.84.84,0,0,0,0,.12c0,.1.09.19.13.27a1.62,1.62,0,0,0,.1.18l0,0,.06.11,24,32.78L423.63,424a2.68,2.68,0,0,0,.73,3.62l29.16,20.47-10.35,22.51a2.67,2.67,0,0,0-.06,2.11,2.71,2.71,0,0,0,1.49,1.5L553.23,518l.08,0a1.18,1.18,0,0,0,.3.09h0l.08,0a2.67,2.67,0,0,0,.49.06h.06a2.41,2.41,0,0,0,.5-.06l.27-.07.12,0,.19-.07.07,0,.12-.07.11-.05a.22.22,0,0,0,.07-.06l.11-.08a1.69,1.69,0,0,0,.25-.2l.09-.08.12-.13.06-.08.1-.12,0-.06,0-.06a.91.91,0,0,0,.07-.14,2.09,2.09,0,0,0,.15-.3l0-.07,0-.16a2.23,2.23,0,0,0,.09-.39l0-.06L569.53,390l108.72,19.68,15.35,21a2.68,2.68,0,0,0,2.16,1.1,2.58,2.58,0,0,0,1.12-.25L726.47,418l.07,0a2.66,2.66,0,0,0,.45-.29l.15-.13a2.52,2.52,0,0,0,.35-.37.86.86,0,0,0,.07-.1,2.42,2.42,0,0,0,.29-.55.19.19,0,0,0,0-.1l-.37-.1.39,0A1.68,1.68,0,0,0,728,416a.49.49,0,0,0,0-.12l0-.07,2.88-30.52ZM506.77,282c5.18-11.34,9.82-21.4,11.31-24.62l17.58-1.06Zm85.16-20.82,100.82-86.76L621,286.89Zm80.64,133.23L622.4,334.29l24.1-16Zm-5.48,7.81L571.77,385l21.59-30.57ZM557.22,230.59l16.86-8.4,8.73,31Zm40.32,120.16,20.36-13.49,48.5,58.16ZM612,304.09l-41.22-54.38,72.73,64.16-23.58,15.62-7.52-24.59a2.38,2.38,0,0,0-.12-.32l0-.05a2.55,2.55,0,0,0-.24-.39ZM593,307l14.86,1.18,5.19,17Zm-7.41-6a2.68,2.68,0,0,0-2,4.66l30.52,27.65-20.39,13.5-47.52-93.8,7-17.71,50.93,67.17Zm-21.74,86-36.16,54.7-3.09-101.21ZM533.61,504.29l-84.4-34L458,451.19ZM420.75,365.66l53.12-47.21-35.44,71.4Zm2.54-9.43c4.5-11.86,12.35-32.07,17.91-46.32l19.58-1.33c-4.66,12.08-7.45,19.39-8.3,21.71Zm37.84-33.63c3.85-10.06,9.88-25.7,14.42-37.45l24.64-1.59c-1.1,2.4-2.2,4.84-3.29,7.24Zm-14.86,63.49,34-68.49L482.46,359Zm-3.68,9.46L483,365.29l11.4,101.12Zm45-40.44-2.26-42.7L517,333.1Zm34.53,81.63-33.63-75.61,30.62-22.94ZM486.8,307l51.49-45.77L520,328.69Zm-44.46,97.34,44.1,60.34-56.91-40ZM547.85,507.74l-47.15-33.1-11-97.72ZM524.61,332.3l18.08-66.86,20.07,112.07Zm38.79,65.11L552.58,505.18l-24.3-54.64Zm26.14-46.87L568.66,380.1,549.08,270.69Zm133.83,33.78-42,19.31-27.66-80.75Zm1.76,5.09L723,412.36l-34.25-6.2Zm-8.63,27.23-19.87,9.12L685.9,411.1ZM551.29,228ZM414.9,365.68Z"/><polygon class="cls-1" points="72.99 693.54 121.88 693.54 121.88 827.68 150.29 827.68 150.29 693.54 199.18 693.54 199.18 669.52 72.99 669.52 72.99 693.54"/><path class="cls-1" d="M260.69,707.36a30.53,30.53,0,0,0-18.11,5.6,29.67,29.67,0,0,0-11.17,15.87h-1.23V709.06h-27.1V827.68H231V758a25.44,25.44,0,0,1,3.48-13.36,24.42,24.42,0,0,1,9.53-9.08,28.3,28.3,0,0,1,13.71-3.29,57.46,57.46,0,0,1,7.37.51,29.76,29.76,0,0,1,5.61,1.13V708.13a40.27,40.27,0,0,0-4.83-.57C264,707.43,262.23,707.36,260.69,707.36Z"/><path class="cls-1" d="M364.86,806.6h1.24v21.08h27.1V709.06H365.25v68.73q0,9-3.75,15a24.67,24.67,0,0,1-9.54,9,25.59,25.59,0,0,1-12,3c-6.7,0-12.09-2.2-16.22-6.65s-6.17-10.39-6.17-17.9V709.06h-28v75.52q0,14.22,5,24.21A35.65,35.65,0,0,0,308.6,824a40.17,40.17,0,0,0,20.58,5.21q13.36,0,22.51-6.34A35.71,35.71,0,0,0,364.86,806.6Z"/><path class="cls-1" d="M506.26,811.9a32.18,32.18,0,0,0,6.53-19.74q-.07-12.74-8.3-20.61T479.43,760L459.2,755.7c-6-1.39-10.34-3.15-12.94-5.33a10.19,10.19,0,0,1-3.82-8.41q-.07-6,5.83-9.8t14.64-3.79a25.85,25.85,0,0,1,11,2.09,19.29,19.29,0,0,1,7.15,5.47,20.91,20.91,0,0,1,3.74,7.27l25.48-2.79a37.46,37.46,0,0,0-14.86-24q-12-8.86-32.86-8.87-14.2,0-25.06,4.43t-16.91,12.51a30.45,30.45,0,0,0-6,19q-.07,13,8.11,21.42t25.26,12l20.23,4.24q8.19,1.8,12.08,5.1a10.61,10.61,0,0,1,3.9,8.43q0,6-6.06,10.11t-16,4.1q-9.66,0-15.68-4.1a19.12,19.12,0,0,1-7.88-12.12l-27.26,2.63q2.55,16.36,15.83,25.52T462.13,830q14.83,0,26.26-4.79T506.26,811.9Z"/><path class="cls-1" d="M541.58,796.64q-.08,11.13,4.83,18.52a28.85,28.85,0,0,0,13.32,10.93,45,45,0,0,0,18.92,3.22,53.51,53.51,0,0,0,10.08-1.09,59.73,59.73,0,0,0,6.37-1.7l-4.71-21.84c-.77.19-1.89.42-3.36.68a27.79,27.79,0,0,1-4.83.39,17.78,17.78,0,0,1-6.33-1.07,9,9,0,0,1-4.59-4.07q-1.74-3-1.74-8.61V730.69h23.4V709.06h-23.4V680.65h-28v28.41H524.75v21.63h16.83Z"/><rect class="cls-1" x="614.73" y="669.53" width="27.95" height="158.15"/><rect class="cls-1" x="671.76" y="709.06" width="27.95" height="118.62"/><path class="cls-1" d="M685.74,692.23a16.19,16.19,0,0,0,11.46-4.44,14.46,14.46,0,0,0,0-21.43,16,16,0,0,0-11.39-4.48,16.2,16.2,0,0,0-11.43,4.44A14.06,14.06,0,0,0,669.6,677a14.2,14.2,0,0,0,4.74,10.73A16,16,0,0,0,685.74,692.23Z"/><path class="cls-1" d="M813.7,712.77q-9.15-5.25-21.43-5.25-13.29,0-22.28,5.87a33.72,33.72,0,0,0-13.09,15.83h-1.39V709.06H728.79V827.68h28v-69.5a30.84,30.84,0,0,1,3.2-14.6,22.43,22.43,0,0,1,8.89-9.23,26.05,26.05,0,0,1,13-3.2q10.81,0,16.95,6.71c4.09,4.49,6.14,10.68,6.14,18.62v71.2h28V752.15q.08-14.21-5-24.17A35.53,35.53,0,0,0,813.7,712.77Z"/><path class="cls-1" d="M950.21,721.88A47.62,47.62,0,0,0,932.91,711a60.36,60.36,0,0,0-20.74-3.52q-17,0-29.57,7.76A52.61,52.61,0,0,0,863,736.9q-7,13.86-7,32.16,0,18.63,7,32.33a49.91,49.91,0,0,0,19.89,21.16Q895.8,830,913.65,830a66.81,66.81,0,0,0,24.55-4.22,45.53,45.53,0,0,0,17.65-11.89,40.5,40.5,0,0,0,9.38-18l-26.1-2.94a21.33,21.33,0,0,1-5.49,8.41,24.07,24.07,0,0,1-8.57,5.15,33.09,33.09,0,0,1-11,1.73,31.5,31.5,0,0,1-15.91-3.9A26.68,26.68,0,0,1,887.54,793c-2.43-4.73-3.62-10.43-3.71-17h82.56v-8.57q0-15.62-4.32-26.91A51.07,51.07,0,0,0,950.21,721.88ZM884,757.17a31,31,0,0,1,3.46-12.94,28.83,28.83,0,0,1,10.07-10.8,27.4,27.4,0,0,1,15.06-4.13,26.93,26.93,0,0,1,14.1,3.63,25.54,25.54,0,0,1,9.46,9.91,30.42,30.42,0,0,1,3.47,14.33Z"/><path class="cls-1" d="M1072.58,771.55q-8.22-7.89-25.06-11.52l-20.23-4.33c-6-1.39-10.34-3.15-12.94-5.33a10.19,10.19,0,0,1-3.82-8.41q-.07-6,5.83-9.8t14.64-3.79a25.85,25.85,0,0,1,11,2.09,19.29,19.29,0,0,1,7.15,5.47,20.91,20.91,0,0,1,3.74,7.27l25.48-2.79a37.46,37.46,0,0,0-14.86-24q-12-8.86-32.86-8.87-14.2,0-25.06,4.43t-16.91,12.51a30.45,30.45,0,0,0-6,19q-.07,13,8.11,21.42t25.26,12l20.23,4.24q8.19,1.8,12.08,5.1a10.61,10.61,0,0,1,3.9,8.43q0,6-6.06,10.11t-16,4.1q-9.66,0-15.68-4.1a19.12,19.12,0,0,1-7.88-12.12l-27.26,2.63q2.55,16.36,15.83,25.52t35.06,9.15q14.83,0,26.26-4.79t17.87-13.31a32.18,32.18,0,0,0,6.53-19.74Q1080.8,779.43,1072.58,771.55Z"/><path class="cls-1" d="M330.16,908.37h21.52c14,0,20.9,8.44,20.9,19.55s-6.93,19.6-20.93,19.6H339.27v21.23h-9.11Zm20.66,31.43c8.91,0,12.59-5,12.59-11.88s-3.68-11.73-12.7-11.73H339.27V939.8Z"/><path class="cls-1" d="M389,908.37h21.52c14,0,20.9,7.82,20.9,18.93,0,8.11-3.68,14.27-11.08,17l13.38,24.44H423.38L411.11,945.9h-13v22.85H389Zm20.67,29.69c8.87,0,12.58-3.95,12.58-10.76s-3.71-11.11-12.7-11.11H398.14v21.87Z"/><path class="cls-1" d="M474.12,969.57c-15.68,0-27.21-11.73-27.21-31s11.53-31,27.21-31,27.18,11.7,27.18,31S489.74,969.57,474.12,969.57Zm0-53.71c-10.41,0-18.16,8-18.16,22.7s7.75,22.7,18.16,22.7,18.16-8,18.16-22.7S484.5,915.86,474.12,915.86Z"/><path class="cls-1" d="M513.22,908.37h46.72v7.85H541.11v52.53H532V916.22H513.22Z"/><path class="cls-1" d="M599.13,969.57c-15.68,0-27.21-11.73-27.21-31s11.53-31,27.21-31,27.18,11.7,27.18,31S614.75,969.57,599.13,969.57Zm0-53.71c-10.41,0-18.16,8-18.16,22.7s7.75,22.7,18.16,22.7,18.16-8,18.16-22.7S609.51,915.86,599.13,915.86Z"/><path class="cls-1" d="M685,928c-1.5-7.81-8-12.15-15.65-12.15-10.41,0-18.19,8-18.19,22.7s7.81,22.7,18.16,22.7c7.64,0,14.12-4.24,15.68-12l9.2,0c-2,11.94-11.67,20.25-24.94,20.25-15.68,0-27.15-11.7-27.15-31s11.53-31,27.15-31c12.77,0,22.88,7.55,24.94,20.46Z"/><path class="cls-1" d="M736.51,969.57c-15.69,0-27.21-11.73-27.21-31s11.52-31,27.21-31,27.18,11.7,27.18,31S752.13,969.57,736.51,969.57Zm0-53.71c-10.41,0-18.16,8-18.16,22.7s7.75,22.7,18.16,22.7,18.16-8,18.16-22.7S746.88,915.86,736.51,915.86Z"/><path class="cls-1" d="M781.84,908.37H791v52.54h27.36v7.84H781.84Z"/></svg>