<svg id="Layer_2" data-name="Layer 2" xmlns="http://www.w3.org/2000/svg" viewBox="0 0 2150 850"><defs><style>.cls-1{fill:#98989d;}</style></defs><path class="cls-1" d="M605.26,453.31c0-2.05-.13-4.09-.23-6.08l0-.33c-.09-1.92-.21-3.86-.37-5.95l0-.4c-.14-1.83-.31-3.74-.52-5.81l0-.5q-.3-2.85-.65-5.69l-.08-.57c-.24-1.88-.5-3.75-.77-5.56l-.1-.67q-.44-2.75-.91-5.46l-.11-.69q-.49-2.7-1-5.37l-.15-.76q-.56-2.66-1.15-5.28l-.17-.76q-.61-2.64-1.29-5.26l-.18-.69q-.68-2.61-1.41-5.21l-.21-.74c-.49-1.72-1-3.44-1.53-5.14l-.22-.72c-.58-1.85-1.12-3.51-1.65-5.07l-.26-.77c-.56-1.66-1.15-3.33-1.75-5l-.27-.72q-.92-2.5-1.89-5l-.27-.66c-.67-1.7-1.35-3.35-2-4.92l-.3-.72q-1-2.44-2.14-4.88l-.28-.6c-.73-1.64-1.49-3.26-2.27-4.88l-.27-.56c-.79-1.63-1.59-3.25-2.42-4.85l-.26-.51c-.83-1.61-1.67-3.22-2.54-4.81l-.29-.53q-1.31-2.38-2.65-4.75l-.25-.42c-.91-1.59-1.85-3.17-2.8-4.75l-.23-.38q-1.47-2.4-3-4.75l-.11-.18c-1-1.61-2.1-3.22-3.17-4.81l-.12-.19c-1.17-1.72-2.23-3.25-3.23-4.65l-.07-.1-.07-.09c-1.1-1.55-2.21-3.07-3.34-4.59l-.16-.21q-1.66-2.22-3.37-4.4l-.3-.39c-1.15-1.45-2.31-2.9-3.49-4.33l-.23-.28c-1.16-1.41-2.35-2.8-3.54-4.18l-.35-.42q-1.75-2-3.54-4l-.45-.51c-1.19-1.3-2.38-2.58-3.6-3.86l-.48-.5q-1.8-1.89-3.64-3.73l-.56-.57c-1.32-1.31-2.64-2.61-4-3.9a.46.46,0,0,0-.07-.07c-3.13-3-6.5-6-10-9a1,1,0,0,0-1-.16,1,1,0,0,0-.6.8c-.7,7.18,1.16,8.93,5.24,12.76l1.05,1a239.68,239.68,0,1,1-112.38-60.32c6.94,1.57,10.42,2.36,16.73-1.78a1,1,0,0,0,.42-1,1,1,0,0,0-.68-.77c-4.68-1.37-9.31-2.59-13.75-3.62l-.16,0c-1.86-.43-3.77-.84-5.85-1.27l-.21,0c-1.74-.36-3.67-.73-5.87-1.13l-.19,0c-2-.35-4-.69-5.94-1l-.2,0c-1.91-.29-3.94-.57-6-.84l-.13,0c-2.08-.26-4.14-.49-6.11-.69h-.14c-1.8-.19-3.77-.37-6.22-.56-6.28-.48-12.69-.72-19.07-.72-2.26,0-4.35,0-6.39.08s-4.32.14-6.37.24-4.17.24-6.31.4-4.1.34-6.28.56-4.14.45-6.23.71-4.12.55-6.18.87c-2.27.35-4.28.68-6.13,1-2.06.37-4.1.76-6.07,1.17s-4.07.86-6,1.31-4,.94-6,1.46-4,1-5.91,1.6-3.78,1.1-5.81,1.72l-.05,0c-1.8.56-3.7,1.17-5.79,1.88s-3.88,1.34-5.73,2-3.68,1.38-5.66,2.15-3.82,1.54-5.6,2.29l-.06,0c-1.82.76-3.66,1.57-5.47,2.39s-3.71,1.7-5.45,2.55-3.67,1.79-5.39,2.67c-3.45,1.77-7,3.7-10.54,5.73-1.66,1-3.38,2-5.11,3l0,0c-1.74,1.05-3.43,2.11-5,3.13l0,0a251.44,251.44,0,0,0-24.08,17.56c-1.65,1.36-3.13,2.62-4.55,3.85s-2.95,2.59-4.45,3.94c-5.83,5.31-11.49,11-16.82,16.83-1.3,1.42-2.62,2.92-4,4.45-1.2,1.38-2.45,2.86-3.81,4.5l0,0a247.73,247.73,0,0,0-17.56,24.08c-1.09,1.69-2.15,3.4-3.16,5.07l0,0c-1.05,1.74-2.07,3.46-3,5.11-2,3.48-3.93,7-5.72,10.54-.94,1.83-1.84,3.64-2.68,5.39s-1.71,3.59-2.55,5.45-1.63,3.66-2.39,5.46l0,.07c-.84,2-1.59,3.82-2.29,5.59s-1.46,3.79-2.15,5.67-1.38,3.83-2,5.73-1.31,3.95-1.88,5.79c-.62,2-1.21,4-1.74,5.86s-1,3.79-1.6,5.91-1,4-1.46,6-.91,4.06-1.31,6-.8,4-1.17,6.08-.69,4-1,6.13v0c-.29,1.93-.57,3.94-.86,6.15-.25,2-.49,4.09-.71,6.23s-.4,4.16-.56,6.28-.3,4.31-.39,6.32-.19,4.22-.25,6.35-.08,4.12-.08,6.4,0,4.37.08,6.4.14,4.27.24,6.36.23,4.09.4,6.32.35,4.2.56,6.27.46,4.24.71,6.23c.29,2.19.57,4.2.86,6.15v0c.33,2.19.66,4.19,1,6.13s.77,4.12,1.16,6.05v0c.4,1.93.84,4,1.31,6,.44,1.91.92,3.86,1.46,6s1.08,4.07,1.6,5.91,1.12,3.84,1.74,5.85c.57,1.84,1.19,3.73,1.88,5.79.64,1.9,1.32,3.83,2,5.73s1.42,3.81,2.15,5.67c1.43,3.63,3,7.35,4.68,11.06l0,.06c1.63,3.6,3.38,7.23,5.2,10.79l0,.06c2.7,5.28,5.64,10.54,8.74,15.64l0,.05c1,1.69,2.09,3.39,3.16,5.07A249.35,249.35,0,0,0,169.88,622c1.28,1.47,2.59,3,3.89,4.39l.06.07a251,251,0,0,0,21.27,20.76c1.46,1.27,3,2.56,4.55,3.85a249.41,249.41,0,0,0,24.08,17.56l0,0c3.23,2.08,6.63,4.15,10.1,6.15l.08,0c3.58,2,7.13,4,10.54,5.72,1.76.9,3.55,1.79,5.31,2.63l.08,0c1.78.86,3.61,1.71,5.45,2.54,1.6.73,3.31,1.48,5.53,2.43,2,.83,3.8,1.58,5.6,2.28s3.57,1.38,5.66,2.16c1.94.7,3.87,1.38,5.73,2s3.87,1.29,5.79,1.88l.05,0c2.06.64,4,1.2,5.81,1.72s4,1.11,5.91,1.61,4.07,1,6,1.45,3.94.89,6,1.32c1.85.38,3.84.76,6.09,1.16,2,.36,4.1.71,6.12,1s4,.58,6.19.86,4.31.52,6.22.71c2.15.22,4.26.41,6.28.56,2.25.17,4.31.3,6.31.4s4.23.19,6.37.24,4.2.08,6.39.08,4.34,0,6.4-.08,4.29-.14,6.36-.24,4.07-.23,6.32-.4c2-.15,4.12-.34,6.27-.56,1.91-.19,3.95-.42,6.23-.71s4.22-.57,6.15-.86h0c2.05-.32,4.11-.66,6.13-1,2.25-.4,4.23-.78,6.08-1.16,2.32-.48,4.24-.9,6-1.32s3.88-.91,6-1.45c1.92-.5,3.91-1,5.91-1.61,1.83-.51,3.74-1.08,5.85-1.74,1.91-.59,3.86-1.22,5.8-1.88s3.77-1.3,5.73-2,3.93-1.47,5.66-2.15,3.62-1.45,5.6-2.29c2.21-.94,3.92-1.69,5.52-2.42,3.63-1.64,7.28-3.4,10.84-5.22,7.09-3.63,14.07-7.65,20.77-11.94,1.6-1,3.28-2.13,5-3.28a251,251,0,0,0,23.59-18.09l0,0c1.45-1.26,3-2.58,4.44-3.94l.06-.06c1.37-1.24,2.77-2.55,4.3-4s2.87-2.77,4.26-4.16c1.54-1.54,2.9-2.94,4.15-4.25,2.74-2.87,5.43-5.83,8-8.81,1.3-1.5,2.6-3,3.84-4.54a251,251,0,0,0,17.56-24.08c4.3-6.7,8.31-13.68,11.94-20.76l0-.06c1.84-3.6,3.59-7.23,5.19-10.79l0,0c1.65-3.67,3.23-7.39,4.68-11.07.73-1.84,1.45-3.75,2.16-5.67s1.36-3.8,2-5.73,1.3-3.91,1.89-5.79,1.2-4,1.74-5.85,1.09-3.94,1.59-5.91,1-3.83,1.47-6,.91-4.07,1.31-6v0c.4-1.93.79-4,1.16-6s.72-4.16,1-6.13v0c.29-1.9.57-3.92.86-6.15.26-2,.49-4,.71-6.23s.41-4.27.56-6.27.3-4.25.4-6.32.19-4.18.24-6.36.08-4.22.08-6.4,0-4.24-.08-6.27Z"/><path class="cls-1" d="M359.16,269.68a3.36,3.36,0,0,0-4.74-2.1l-29.21,14.56-.07,0-.13.08-.17.11a1.76,1.76,0,0,0-.23.15l-.09.08a1.72,1.72,0,0,0-.18.16l-.08.08a.86.86,0,0,0-.13.14.82.82,0,0,0-.12.16l-.17.23a.8.8,0,0,0-.09.14,1.25,1.25,0,0,0-.11.23l0,.06s-.05.09-.07.14l-10.8,27.17L281.12,313a3.38,3.38,0,0,0-2.86,2c-.68,1.48-6.86,14.82-14,30.49l-36.65,2.36a3.36,3.36,0,0,0-2.92,2.14c-.42,1.1-5.21,13.48-10.38,26.9l-29.81,2a3.39,3.39,0,0,0-2.9,2.13c-6.08,15.57-26.06,66.81-27.87,72.8l-.08.31a.93.93,0,0,0,0,.24,2.63,2.63,0,0,0,0,.43v.08a3.32,3.32,0,0,0,0,.53.53.53,0,0,0,0,.12,3.78,3.78,0,0,0,.13.47c0,.05,0,.09.05.16a2.81,2.81,0,0,0,.17.35,1.13,1.13,0,0,0,.12.21l0,.06.08.13L184.24,498,165,528.57a3.36,3.36,0,0,0,.91,4.54l36.58,25.68-13,28.25a3.43,3.43,0,0,0-.07,2.65,3.37,3.37,0,0,0,1.87,1.87l136.29,55,.1,0a3.31,3.31,0,0,0,.42.12l.06,0a2.57,2.57,0,0,0,.61.07h.07a3,3,0,0,0,.63-.07,2.25,2.25,0,0,0,.35-.09l.15-.05a.9.9,0,0,0,.23-.08l.09,0,.15-.09.14-.06.09-.07.13-.1a3,3,0,0,0,.32-.25l.11-.11a1.22,1.22,0,0,0,.15-.17l.07-.09a1.07,1.07,0,0,0,.14-.16l0-.06.06-.08a1.38,1.38,0,0,0,.08-.17,2.74,2.74,0,0,0,.19-.39l0-.08s0-.1.05-.2a3.22,3.22,0,0,0,.11-.49l0-.08L348.08,486l136.41,24.7L503.74,537a3.34,3.34,0,0,0,4.11,1.07L545,521c.06,0,.1,0,.09,0a3.41,3.41,0,0,0,.57-.36l.18-.15a3.37,3.37,0,0,0,.44-.47l.09-.12a3.83,3.83,0,0,0,.37-.69s0-.09,0-.14l-.48-.12.5.06a3.11,3.11,0,0,0,.11-.41.76.76,0,0,0,0-.15l0-.09L550.54,480a.85.85,0,0,0,0-.16,4,4,0,0,0,0-.49c0-.08,0-.17,0-.26a4.07,4.07,0,0,0-.14-.51c0-.07,0-.14-.06-.19l0-.11a3.14,3.14,0,0,0-.18-.31l-.06-.1s0-.09-.08-.14a3.35,3.35,0,0,0-.47-.52v0L417.8,361.09l102.81-161.2a3.36,3.36,0,0,0-5-4.36L372.87,318.35ZM154.08,455.44Zm199.71-180,10.95,38.87L332.63,286Zm-28.59,7.3Zm2.39,9.24,63.89,84.28-23.29-1.85a3.36,3.36,0,0,0-2.52,5.84L404,414.91l-25.57,16.94L318.76,314.16Zm68.55,91.39,6.51,21.31-25.16-22.79Zm12.63,36.45,60.86,73-86.4-56Zm-94.36-90.12,25.17,140.61-47.85-56.72ZM283.53,319.6l22.06-1.33-36.25,32.22C275.84,336.24,281.66,323.64,283.53,319.6Zm25.36,4.72L286,409l-41.71-27.28Zm-69.4,130.62L253.8,581.82l-65-88.91Zm-46.05,26.11,42.65-85.93L238.84,447Zm49-92.45,39.7,26-36.86,27.61ZM284.86,421l3.77,123.65-42.18-94.87ZM230.18,354.4l30.9-2c-1.37,3-2.76,6.06-4.12,9.09l-44.88,39.89C216.88,388.85,224.46,369.2,230.18,354.4Zm-43.1,31.06,24.56-1.67C205.8,399,202.29,408.14,201.22,411l-36.61,32.54C170.25,428.71,180.09,403.35,187.08,385.46Zm-3.49,100.3-22.18-30.34,66.65-59.24Zm-11.16,43.69,16.08-25.57,55.33,75.71Zm24.69,57.2,11-23.93L303,629.35Zm64.61,5.49L247.9,469.54l73,164.14Zm65.08,38.32-30.48-68.55,44.07-66.67Zm-31.26-79.55-3.87-127,49.23,58.35ZM347,473.53,322.42,336.25l50.76,100.2Zm3.9,6.13L378,441.31l92.5,60Zm156.65,51.16-13.45-18.4,38.38,7Zm33-16.81-43-7.78,45.7-21Zm.52-35.18-52.69,24.22-34.7-101.32Zm-63.74,12.7-62.95-75.48,30.24-20ZM440.91,390.44,411.32,410l-9.42-30.85c0-.14-.11-.28-.16-.39l0-.08a4.19,4.19,0,0,0-.29-.49l0-.05-51.72-68.24Zm61.77-174.93-90,141.08-36.52-32.22Z"/><polygon class="cls-1" points="722.39 269.43 786.89 269.43 786.89 446.42 824.38 446.42 824.38 269.43 888.88 269.43 888.88 237.75 722.39 237.75 722.39 269.43"/><path class="cls-1" d="M970,287.68a40.28,40.28,0,0,0-23.89,7.38Q935.67,302.44,931.4,316h-1.62V289.92H894V446.41H930.9v-92a33.61,33.61,0,0,1,4.59-17.63,32.32,32.32,0,0,1,12.57-12,37.36,37.36,0,0,1,18.09-4.33,75.1,75.1,0,0,1,9.73.67,40.07,40.07,0,0,1,7.39,1.47V288.69a52.17,52.17,0,0,0-6.37-.77Q973.08,287.68,970,287.68Z"/><path class="cls-1" d="M1108,380.59q0,11.93-5,19.82a32.49,32.49,0,0,1-12.58,11.88,33.79,33.79,0,0,1-15.79,4q-13.26,0-21.4-8.76t-8.15-23.63V289.92h-36.88v99.64q0,18.75,6.62,31.94a47,47,0,0,0,18.39,20.08q11.77,6.87,27.15,6.87,17.64,0,29.7-8.35a47.16,47.16,0,0,0,17.37-21.5h1.64v27.81h35.76V289.92H1108Z"/><path class="cls-1" d="M1258.63,357.16l-26.7-5.71q-11.92-2.74-17.07-7a13.5,13.5,0,0,1-5-11.12q-.1-7.94,7.69-12.93t19.31-5a34.2,34.2,0,0,1,14.47,2.76,25.36,25.36,0,0,1,9.43,7.23,27.7,27.7,0,0,1,4.93,9.58l33.62-3.67q-3.76-20-19.61-31.69t-43.35-11.71q-18.74,0-33.07,5.85t-22.3,16.51q-8,10.65-7.9,25.12-.11,17.1,10.7,28.27t33.32,15.84l26.69,5.6q10.8,2.35,15.94,6.73a14,14,0,0,1,5.15,11.11q0,7.95-8,13.34t-21.15,5.41q-12.73,0-20.69-5.41t-10.39-16l-36,3.47q3.36,21.6,20.89,33.66t46.25,12.09q19.56,0,34.65-6.33T1294,425.58a42.47,42.47,0,0,0,8.61-26q-.11-16.82-11-27.2T1258.63,357.16Z"/><path class="cls-1" d="M1400.59,417a37,37,0,0,1-6.37.51,23.51,23.51,0,0,1-8.36-1.42,11.83,11.83,0,0,1-6.06-5.36q-2.29-3.92-2.3-11.36v-80.9h30.88V289.92H1377.5V252.43h-36.88v37.49h-22.21v28.52h22.21v87q-.09,14.69,6.37,24.46a38.21,38.21,0,0,0,17.58,14.41,59.45,59.45,0,0,0,25,4.24,70.06,70.06,0,0,0,13.3-1.43,81.34,81.34,0,0,0,8.4-2.25L1405,416.06C1404,416.33,1402.53,416.63,1400.59,417Z"/><rect class="cls-1" x="1437.13" y="237.75" width="36.88" height="208.67"/><path class="cls-1" d="M1530.91,227.66a21.4,21.4,0,0,0-15.08,5.86,18.55,18.55,0,0,0-6.31,14.11,18.78,18.78,0,0,0,6.26,14.16,22.24,22.24,0,0,0,30.16,0,19.09,19.09,0,0,0,0-28.27A21.14,21.14,0,0,0,1530.91,227.66Z"/><rect class="cls-1" x="1512.37" y="289.92" width="36.88" height="156.5"/><path class="cls-1" d="M1699.64,294.81q-12.08-6.93-28.28-6.93-17.52,0-29.39,7.74a44.58,44.58,0,0,0-17.27,20.88h-1.84V289.92h-35.25V446.41h36.88V354.72q0-11.33,4.23-19.26a29.56,29.56,0,0,1,11.72-12.18,34.38,34.38,0,0,1,17.17-4.22q14.25,0,22.36,8.86t8.1,24.56v93.93H1725V346.76q.1-18.74-6.57-31.88A46.9,46.9,0,0,0,1699.64,294.81Z"/><path class="cls-1" d="M1879.74,306.83a63,63,0,0,0-22.82-14.32,80.25,80.25,0,0,0-27.36-4.63q-22.43,0-39,10.24a69.4,69.4,0,0,0-25.83,28.52q-9.23,18.3-9.22,42.44,0,24.56,9.16,42.65a65.85,65.85,0,0,0,26.24,27.91q17.07,9.84,40.61,9.84,18.24,0,32.39-5.57a60.17,60.17,0,0,0,23.29-15.69,53.45,53.45,0,0,0,12.37-23.78l-34.43-3.88a28.28,28.28,0,0,1-7.24,11.11,31.74,31.74,0,0,1-11.3,6.78,43.76,43.76,0,0,1-14.57,2.28q-12,0-21-5.14a35.17,35.17,0,0,1-14-14.87c-3.22-6.26-4.86-13.76-5-22.47h109V366.94q0-20.58-5.7-35.5A67.2,67.2,0,0,0,1879.74,306.83Zm-87.59,46.56a40.66,40.66,0,0,1,4.76-17.07,37.91,37.91,0,0,1,13.3-14.26,36.17,36.17,0,0,1,19.86-5.45,35.55,35.55,0,0,1,18.6,4.79,33.79,33.79,0,0,1,12.48,13.09,40.13,40.13,0,0,1,4.58,18.9Z"/><path class="cls-1" d="M2041.19,372.35q-10.85-10.39-33.06-15.19l-26.69-5.71q-11.94-2.74-17.08-7a13.56,13.56,0,0,1-5-11.12q-.09-7.94,7.7-12.93t19.31-5a34.16,34.16,0,0,1,14.46,2.76,25.36,25.36,0,0,1,9.43,7.23,27.55,27.55,0,0,1,4.94,9.58l33.62-3.67q-3.77-20-19.62-31.69t-43.35-11.71q-18.74,0-33.06,5.85t-22.31,16.51q-8,10.65-7.9,25.12-.09,17.1,10.7,28.27t33.32,15.84l26.7,5.6q10.8,2.35,15.94,6.73a14,14,0,0,1,5.15,11.11c0,5.3-2.68,9.74-8,13.34s-12.38,5.41-21.14,5.41q-12.74,0-20.69-5.41t-10.39-16l-36,3.47q3.36,21.6,20.88,33.66t46.25,12.09q19.56,0,34.65-6.33t23.58-17.57a42.41,42.41,0,0,0,8.61-26Q2052.05,382.73,2041.19,372.35Z"/><path class="cls-1" d="M775.88,551.89h28.51c18.59,0,27.7,11.17,27.7,25.9s-9.18,26-27.74,26H788v28.12H775.88Zm27.38,41.64c11.79,0,16.68-6.68,16.68-15.74s-4.89-15.55-16.84-15.55H788v31.29Z"/><path class="cls-1" d="M853.9,551.89h28.51c18.56,0,27.7,10.35,27.7,25.08,0,10.74-4.88,18.9-14.69,22.54l17.74,32.38H899.41l-16.25-30.27H866v30.27H853.9Zm27.38,39.34C893,591.23,898,586,898,577s-4.92-14.73-16.83-14.73H866v29Z"/><path class="cls-1" d="M966.66,633c-20.78,0-36-15.54-36-41.09s15.27-41.09,36-41.09,36,15.5,36,41.09S987.36,633,966.66,633Zm0-71.17c-13.79,0-24.06,10.59-24.06,30.08S952.87,622,966.66,622s24.06-10.59,24.06-30.08S980.41,561.81,966.66,561.81Z"/><path class="cls-1" d="M1016.48,551.89h61.92v10.39h-25v69.61h-12V562.28h-24.92Z"/><path class="cls-1" d="M1128.26,633c-20.79,0-36.06-15.54-36.06-41.09s15.27-41.09,36.06-41.09,36,15.5,36,41.09S1149,633,1128.26,633Zm0-71.17c-13.79,0-24.07,10.59-24.07,30.08S1114.47,622,1128.26,622s24.06-10.59,24.06-30.08S1142,561.81,1128.26,561.81Z"/><path class="cls-1" d="M1242.09,577.91c-2-10.36-10.55-16.1-20.75-16.1-13.78,0-24.1,10.67-24.1,30.08,0,19.57,10.35,30.08,24.07,30.08,10.11,0,18.71-5.63,20.78-15.86l12.18,0c-2.61,15.82-15.46,26.83-33,26.83-20.78,0-36-15.5-36-41.09s15.27-41.09,36-41.09c16.91,0,30.31,10,33,27.11Z"/><path class="cls-1" d="M1310.32,633c-20.78,0-36-15.54-36-41.09s15.27-41.09,36-41.09,36,15.5,36,41.09S1331,633,1310.32,633Zm0-71.17c-13.79,0-24.06,10.59-24.06,30.08S1296.53,622,1310.32,622s24.07-10.59,24.07-30.08S1324.07,561.81,1310.32,561.81Z"/><path class="cls-1" d="M1370.41,551.89h12.07V621.5h36.25v10.39h-48.32Z"/></svg>