<svg id="Layer_2" data-name="Layer 2" xmlns="http://www.w3.org/2000/svg" viewBox="0 0 1493.15 582.36"><defs><style>.cls-1{fill:#12121f;}</style></defs><path class="cls-1" d="M474.68,402H498.8c15.73,0,23.43,9.45,23.43,21.91s-7.76,22-23.46,22H484.89v23.79H474.68Zm23.17,35.22c10,0,14.1-5.65,14.1-13.31s-4.13-13.16-14.24-13.16H484.89v26.47Z"/><path class="cls-1" d="M540.68,402H564.8c15.7,0,23.43,8.75,23.43,21.21,0,9.09-4.13,16-12.42,19.07l15,27.39H579.18l-13.75-25.61H550.89v25.61H540.68Zm23.16,33.27c9.95,0,14.11-4.43,14.11-12.06s-4.16-12.46-14.24-12.46H550.89v24.52Z"/><path class="cls-1" d="M636.07,470.61c-17.58,0-30.5-13.16-30.5-34.77s12.92-34.76,30.5-34.76,30.46,13.12,30.46,34.76S653.58,470.61,636.07,470.61Zm0-60.21c-11.67,0-20.36,9-20.36,25.44s8.69,25.45,20.36,25.45,20.35-9,20.35-25.45S647.7,410.4,636.07,410.4Z"/><path class="cls-1" d="M678.21,402h52.37v8.79H709.47v58.88H699.29V410.8H678.21Z"/><path class="cls-1" d="M772.76,470.61c-17.58,0-30.5-13.16-30.5-34.77s12.92-34.76,30.5-34.76,30.46,13.12,30.46,34.76S790.27,470.61,772.76,470.61Zm0-60.21c-11.67,0-20.36,9-20.36,25.44s8.69,25.45,20.36,25.45,20.35-9,20.35-25.45S784.39,410.4,772.76,410.4Z"/><path class="cls-1" d="M869.05,424c-1.69-8.76-8.93-13.62-17.55-13.62-11.66,0-20.39,9-20.39,25.44s8.76,25.45,20.36,25.45c8.56,0,15.82-4.76,17.58-13.42l10.31,0c-2.22,13.39-13.09,22.71-28,22.71-17.58,0-30.43-13.12-30.43-34.77s12.92-34.76,30.43-34.76c14.31,0,25.64,8.46,28,22.94Z"/><path class="cls-1" d="M926.77,470.61c-17.58,0-30.5-13.16-30.5-34.77s12.92-34.76,30.5-34.76,30.46,13.12,30.46,34.76S944.28,470.61,926.77,470.61Zm0-60.21c-11.67,0-20.36,9-20.36,25.44s8.69,25.45,20.36,25.45,20.35-9,20.35-25.45S938.4,410.4,926.77,410.4Z"/><path class="cls-1" d="M977.6,402h10.21v58.88h30.66v8.79H977.6Z"/><polygon class="cls-1" points="126.91 134.17 187.03 134.17 187.03 299.13 221.97 299.13 221.97 134.17 282.08 134.17 282.08 104.64 126.91 104.64 126.91 134.17"/><path class="cls-1" d="M357.71,151.19a37.53,37.53,0,0,0-22.27,6.88q-9.75,6.87-13.73,19.51H320.2V153.27H286.87V299.13h34.37V213.4A31.28,31.28,0,0,1,325.52,197a30,30,0,0,1,11.72-11.16,34.72,34.72,0,0,1,16.85-4,71.65,71.65,0,0,1,9.07.62,36.54,36.54,0,0,1,6.89,1.37V152.13a46.44,46.44,0,0,0-5.93-.72C361.74,151.27,359.61,151.19,357.71,151.19Z"/><path class="cls-1" d="M486.28,237.78q0,11.11-4.61,18.48a30,30,0,0,1-11.73,11.05,31.23,31.23,0,0,1-14.71,3.7c-8.24,0-14.88-2.69-20-8.16s-7.59-12.77-7.59-22V153.27H393.32v92.87q0,17.48,6.16,29.77a44.06,44.06,0,0,0,17.15,18.72q11,6.39,25.3,6.39c11,0,20.18-2.57,27.68-7.78a44.11,44.11,0,0,0,16.19-20h1.53v25.91h33.32V153.27H486.28Z"/><path class="cls-1" d="M626.68,216l-24.88-5.33q-11.12-2.55-15.9-6.54a12.59,12.59,0,0,1-4.71-10.37q-.09-7.38,7.18-12.05t18-4.66a32.06,32.06,0,0,1,13.48,2.57,23.93,23.93,0,0,1,8.79,6.75,25.41,25.41,0,0,1,4.6,8.92l31.34-3.42q-3.51-18.62-18.28-29.53t-40.41-10.92q-17.46,0-30.81,5.46c-8.89,3.66-15.82,8.76-20.79,15.39a37.42,37.42,0,0,0-7.36,23.42q-.1,15.92,10,26.33c6.71,6.93,17.05,11.88,31.05,14.77L612.82,242q10.06,2.17,14.86,6.27a13.07,13.07,0,0,1,4.8,10.36q0,7.41-7.45,12.42t-19.71,5.06q-11.87,0-19.28-5.06t-9.69-14.91l-33.51,3.26q3.13,20.11,19.46,31.37T605.41,302q18.23,0,32.29-5.9t22-16.35a39.68,39.68,0,0,0,8-24.27c-.06-10.45-3.46-18.92-10.2-25.35S640.48,218.92,626.68,216Z"/><path class="cls-1" d="M759,271.69a34.19,34.19,0,0,1-5.94.48,21.94,21.94,0,0,1-7.78-1.32,11.11,11.11,0,0,1-5.65-5q-2.14-3.64-2.14-10.58V179.85h28.77V153.27H737.48V118.34H703.11v34.93h-20.7v26.58h20.7V261Q703,274.64,709,283.74a35.6,35.6,0,0,0,16.38,13.44,56,56,0,0,0,23.27,4,65.51,65.51,0,0,0,12.39-1.35,73.17,73.17,0,0,0,7.83-2.09l-5.79-26.85C762.17,271.09,760.8,271.37,759,271.69Z"/><rect class="cls-1" x="793.05" y="104.64" width="34.37" height="194.49"/><rect class="cls-1" x="863.17" y="153.27" width="34.37" height="145.86"/><path class="cls-1" d="M880.45,95.24a20,20,0,0,0-14.05,5.46,17.74,17.74,0,0,0,0,26.36,20.76,20.76,0,0,0,28.11,0A17.33,17.33,0,0,0,900.3,114a17.59,17.59,0,0,0-5.84-13.22A19.81,19.81,0,0,0,880.45,95.24Z"/><path class="cls-1" d="M1037.71,157.83q-11.26-6.44-26.36-6.46-16.33,0-27.39,7.23A41.57,41.57,0,0,0,967.86,178h-1.71V153.27H933.3V299.13h34.37V213.68q0-10.55,3.94-18a27.52,27.52,0,0,1,10.93-11.35,31.92,31.92,0,0,1,16-3.94q13.28,0,20.84,8.26t7.55,22.9v87.54h34.37V206.25q.09-17.46-6.13-29.71A43.72,43.72,0,0,0,1037.71,157.83Z"/><path class="cls-1" d="M1205.56,169a58.49,58.49,0,0,0-21.26-13.34,74.66,74.66,0,0,0-25.51-4.33q-20.89,0-36.36,9.56a64.61,64.61,0,0,0-24.08,26.57q-8.58,17.06-8.59,39.56,0,22.89,8.54,39.73a61.25,61.25,0,0,0,24.46,26q15.9,9.17,37.84,9.16,17,0,30.19-5.18a56.44,56.44,0,0,0,21.71-14.62A50.13,50.13,0,0,0,1224,260l-32.09-3.62a26.36,26.36,0,0,1-6.75,10.37,29.54,29.54,0,0,1-10.54,6.31,40.32,40.32,0,0,1-13.58,2.13,38.58,38.58,0,0,1-19.56-4.79,32.81,32.81,0,0,1-13-13.86q-4.49-8.75-4.63-20.93h101.59V225.05q0-19.17-5.32-33.07A62.64,62.64,0,0,0,1205.56,169Zm-81.63,43.39a37.93,37.93,0,0,1,4.43-15.91,35.55,35.55,0,0,1,12.4-13.3,33.82,33.82,0,0,1,18.51-5.06,33.14,33.14,0,0,1,17.33,4.46,31.28,31.28,0,0,1,11.63,12.19,37.32,37.32,0,0,1,4.27,17.62Z"/><path class="cls-1" d="M1356,230.11q-10.11-9.71-30.81-14.16l-24.88-5.33q-11.11-2.55-15.91-6.54a12.61,12.61,0,0,1-4.7-10.37q-.09-7.38,7.17-12.05t18-4.66a32.12,32.12,0,0,1,13.48,2.57,23.93,23.93,0,0,1,8.79,6.75,25.57,25.57,0,0,1,4.6,8.92l31.34-3.42q-3.51-18.62-18.28-29.53t-40.41-10.92q-17.46,0-30.82,5.46c-8.88,3.66-15.81,8.76-20.79,15.39a37.48,37.48,0,0,0-7.36,23.42q-.09,15.92,10,26.33c6.7,6.93,17,11.88,31,14.77l24.88,5.22q10.07,2.17,14.85,6.27a13.05,13.05,0,0,1,4.81,10.36c0,4.94-2.5,9.08-7.46,12.42s-11.54,5.06-19.7,5.06q-11.88,0-19.29-5.06t-9.68-14.91l-33.52,3.26q3.14,20.11,19.47,31.37T1304,302q18.22,0,32.29-5.9t22-16.35a39.63,39.63,0,0,0,8-24.27C1366.18,245,1362.77,236.54,1356,230.11Z"/></svg>