<svg id="Layer_2" data-name="Layer 2" xmlns="http://www.w3.org/2000/svg" viewBox="0 0 2150 850"><defs><style>.cls-1{fill:#1e8cc3;}</style></defs><path class="cls-1" d="M598.37,453.31c0-2.05-.13-4.09-.23-6.08v-.33c-.1-1.92-.22-3.86-.38-5.95l0-.4c-.14-1.83-.31-3.74-.51-5.81l-.05-.5q-.3-2.85-.65-5.69l-.07-.57c-.25-1.88-.51-3.75-.78-5.56l-.1-.67c-.28-1.83-.59-3.65-.91-5.46l-.11-.69q-.49-2.7-1-5.37l-.15-.76c-.36-1.77-.75-3.53-1.15-5.28l-.17-.76q-.62-2.64-1.29-5.26l-.18-.69q-.67-2.61-1.41-5.21l-.21-.74c-.49-1.72-1-3.44-1.53-5.14l-.22-.72c-.58-1.85-1.12-3.51-1.65-5.07l-.26-.77c-.56-1.66-1.15-3.33-1.75-5l-.27-.72q-.91-2.5-1.89-5l-.27-.66c-.67-1.7-1.34-3.35-2-4.92l-.3-.72q-1-2.44-2.14-4.88l-.27-.6c-.74-1.64-1.5-3.26-2.28-4.88l-.27-.56c-.79-1.63-1.59-3.25-2.42-4.85l-.26-.51c-.83-1.61-1.67-3.22-2.53-4.81l-.3-.53q-1.29-2.38-2.65-4.75l-.24-.42q-1.38-2.39-2.81-4.75l-.23-.38q-1.47-2.4-3-4.75l-.11-.18c-1-1.61-2.1-3.22-3.17-4.81L556,321c-1.17-1.72-2.23-3.25-3.23-4.65l-.07-.1a.28.28,0,0,0-.07-.09c-1.1-1.55-2.21-3.07-3.34-4.59l-.16-.21q-1.67-2.22-3.37-4.4l-.3-.39c-1.15-1.45-2.31-2.9-3.49-4.33l-.23-.28c-1.16-1.41-2.35-2.8-3.54-4.18l-.35-.42q-1.75-2-3.54-4l-.45-.51c-1.19-1.3-2.38-2.58-3.6-3.86l-.48-.5q-1.8-1.89-3.64-3.73l-.56-.57c-1.31-1.31-2.64-2.61-4-3.9a.46.46,0,0,0-.07-.07c-3.13-3-6.5-6-10-9a1,1,0,0,0-1-.16,1,1,0,0,0-.59.8c-.71,7.18,1.15,8.93,5.23,12.76l1.05,1a239.68,239.68,0,1,1-112.38-60.32c6.94,1.57,10.42,2.36,16.73-1.78a1,1,0,0,0,.42-1,1,1,0,0,0-.68-.77c-4.68-1.37-9.31-2.59-13.75-3.62l-.16,0c-1.86-.43-3.77-.84-5.85-1.27l-.21,0c-1.74-.36-3.67-.73-5.87-1.13l-.19,0c-2-.35-4-.69-5.94-1l-.2,0c-1.91-.29-3.94-.57-6-.84l-.13,0c-2.08-.26-4.14-.49-6.11-.69h-.14c-1.8-.19-3.77-.37-6.22-.56-6.28-.48-12.69-.72-19.07-.72-2.26,0-4.35,0-6.39.08s-4.32.14-6.37.24-4.17.24-6.31.4-4.1.34-6.28.56-4.14.45-6.23.71-4.12.55-6.18.87c-2.27.35-4.28.68-6.13,1-2.06.37-4.1.76-6.07,1.17s-4.07.86-6,1.31-4,.94-6,1.46-4,1-5.91,1.6-3.78,1.1-5.81,1.72l-.05,0c-1.8.56-3.7,1.17-5.79,1.88s-3.88,1.34-5.73,2-3.68,1.38-5.66,2.15-3.82,1.54-5.6,2.29l-.06,0c-1.82.76-3.66,1.57-5.47,2.39s-3.7,1.7-5.45,2.55-3.67,1.79-5.38,2.67c-3.46,1.77-7,3.7-10.55,5.73-1.66,1-3.38,2-5.11,3l0,0c-1.74,1.05-3.43,2.11-5,3.13l0,0a252.7,252.7,0,0,0-24.08,17.56c-1.64,1.36-3.13,2.62-4.55,3.85s-3,2.59-4.45,3.94c-5.83,5.31-11.49,11-16.82,16.83-1.3,1.42-2.62,2.92-3.95,4.45-1.2,1.38-2.45,2.86-3.81,4.5l0,0a249.41,249.41,0,0,0-17.56,24.08c-1.09,1.69-2.15,3.4-3.16,5.07a.05.05,0,0,0,0,0c-1.06,1.74-2.08,3.46-3,5.11-2,3.48-3.93,7-5.72,10.54-.94,1.83-1.84,3.64-2.68,5.39s-1.71,3.59-2.55,5.45-1.63,3.66-2.39,5.46l0,.07c-.84,2-1.59,3.82-2.29,5.59s-1.46,3.79-2.15,5.67-1.38,3.83-2,5.73-1.31,3.95-1.88,5.79c-.62,2-1.21,4-1.74,5.86s-1,3.79-1.6,5.91-1,4-1.46,6-.91,4.06-1.31,6-.79,4-1.17,6.08-.69,4-1,6.13v0c-.29,1.93-.57,3.94-.86,6.15-.25,2-.49,4.09-.71,6.23s-.39,4.16-.56,6.28-.3,4.31-.39,6.32-.19,4.22-.25,6.35-.08,4.12-.08,6.4,0,4.37.08,6.4.14,4.27.25,6.36.22,4.09.39,6.32.35,4.2.56,6.27.46,4.24.71,6.23c.29,2.19.57,4.2.86,6.15v0c.33,2.19.67,4.19,1,6.13s.77,4.12,1.16,6.05v0c.4,1.93.84,4,1.31,6,.44,1.91.92,3.86,1.46,6s1.08,4.07,1.6,5.91,1.12,3.84,1.74,5.85c.57,1.84,1.19,3.73,1.88,5.79.64,1.9,1.32,3.83,2,5.73s1.42,3.81,2.15,5.67c1.44,3.63,3,7.35,4.69,11.06a.14.14,0,0,0,0,.06c1.63,3.6,3.38,7.23,5.2,10.79l0,.06c2.7,5.28,5.64,10.54,8.74,15.64l0,.05c1,1.69,2.09,3.39,3.16,5.07A249.35,249.35,0,0,0,163,622c1.28,1.47,2.59,3,3.9,4.39a.18.18,0,0,0,.05.07,251,251,0,0,0,21.27,20.76c1.46,1.27,3,2.56,4.55,3.85a249.41,249.41,0,0,0,24.08,17.56l0,0c3.23,2.08,6.63,4.15,10.11,6.15l.07,0c3.59,2,7.13,4,10.54,5.72,1.76.9,3.55,1.79,5.31,2.63l.08,0c1.78.86,3.61,1.71,5.45,2.54,1.6.73,3.31,1.48,5.53,2.43,2,.83,3.8,1.58,5.6,2.28s3.57,1.38,5.66,2.16c1.94.7,3.87,1.38,5.73,2s3.87,1.29,5.79,1.88l.05,0c2.06.64,4,1.2,5.81,1.72s4,1.11,5.91,1.61,4.07,1,6,1.45,3.94.89,6,1.32c1.85.38,3.84.76,6.09,1.16,2,.36,4.1.71,6.13,1s4,.58,6.18.86,4.31.52,6.22.71c2.15.22,4.26.41,6.28.56,2.25.17,4.31.3,6.31.4s4.23.19,6.37.24,4.2.08,6.39.08,4.34,0,6.4-.08,4.29-.14,6.36-.24,4.07-.23,6.32-.4c2-.15,4.12-.34,6.27-.56,1.91-.19,3.95-.42,6.23-.71s4.22-.57,6.15-.86h0c2.05-.32,4.11-.66,6.13-1,2.25-.4,4.23-.78,6.08-1.16,2.33-.48,4.24-.9,6-1.32s3.87-.91,6-1.45c1.93-.5,3.91-1,5.91-1.61,1.83-.51,3.74-1.08,5.86-1.74,1.9-.59,3.85-1.22,5.79-1.88s3.77-1.3,5.73-2,3.93-1.47,5.66-2.15,3.62-1.45,5.6-2.29c2.22-.94,3.92-1.69,5.52-2.42,3.63-1.64,7.28-3.4,10.84-5.22,7.09-3.63,14.07-7.65,20.77-11.94,1.6-1,3.28-2.13,5-3.28a249.67,249.67,0,0,0,23.59-18.09l0,0c1.45-1.26,3-2.58,4.45-3.94l0-.06c1.37-1.24,2.77-2.55,4.3-4s2.87-2.77,4.26-4.16c1.54-1.54,2.9-2.94,4.15-4.25,2.74-2.87,5.43-5.83,8-8.81,1.3-1.5,2.6-3,3.84-4.54a251,251,0,0,0,17.56-24.08c4.3-6.7,8.31-13.68,11.94-20.76l0-.06c1.84-3.6,3.59-7.23,5.2-10.79a.08.08,0,0,1,0,0c1.65-3.67,3.23-7.39,4.68-11.07.73-1.84,1.45-3.75,2.16-5.67s1.36-3.8,2-5.73,1.3-3.91,1.89-5.79,1.2-4,1.74-5.85,1.09-3.94,1.59-5.91,1-3.83,1.47-6,.91-4.07,1.31-6v0c.4-1.93.79-4,1.17-6s.71-4.16,1-6.13v0c.29-1.9.58-3.92.86-6.15.26-2,.49-4,.72-6.23s.4-4.27.55-6.27.3-4.25.4-6.32.19-4.18.25-6.36.08-4.22.08-6.4,0-4.24-.08-6.27Z"/><path class="cls-1" d="M352.27,269.68a3.36,3.36,0,0,0-4.74-2.1l-29.21,14.56-.07,0-.13.08-.17.11a1.23,1.23,0,0,0-.22.15l-.1.08a1.72,1.72,0,0,0-.18.16l-.08.08-.13.14a.82.82,0,0,0-.12.16l-.17.23a.8.8,0,0,0-.09.14,1.25,1.25,0,0,0-.11.23l0,.06-.07.14-10.8,27.17L274.23,313a3.35,3.35,0,0,0-2.85,2c-.69,1.48-6.87,14.82-14,30.49l-36.65,2.36a3.36,3.36,0,0,0-2.92,2.14c-.42,1.1-5.21,13.48-10.38,26.9l-29.8,2A3.39,3.39,0,0,0,174.7,381c-6.08,15.57-26.06,66.81-27.87,72.8l-.08.31a1.69,1.69,0,0,0-.05.24c0,.13,0,.26,0,.43v.08a3.32,3.32,0,0,0,0,.53.53.53,0,0,0,0,.12,3.78,3.78,0,0,0,.13.47c0,.05,0,.09,0,.16s.11.23.17.35a2.25,2.25,0,0,0,.12.21l0,.06.08.13,30,41.12-19.2,30.53a3.36,3.36,0,0,0,.91,4.54l36.58,25.68-13,28.25a3.39,3.39,0,0,0-.06,2.65,3.32,3.32,0,0,0,1.86,1.87l136.29,55,.1,0a3.31,3.31,0,0,0,.42.12l.06,0a2.57,2.57,0,0,0,.61.07H322a3,3,0,0,0,.63-.07,2,2,0,0,0,.35-.09l.15-.05a.9.9,0,0,0,.23-.08l.09,0,.15-.09a.42.42,0,0,0,.14-.06l.09-.07.13-.1a3,3,0,0,0,.32-.25l.11-.11a1.22,1.22,0,0,0,.15-.17l.07-.09a1.07,1.07,0,0,0,.14-.16l0-.06.06-.08a1.38,1.38,0,0,0,.08-.17,2.74,2.74,0,0,0,.19-.39l0-.08s0-.1,0-.2a3.22,3.22,0,0,0,.11-.49l0-.08L341.19,486l136.41,24.7L496.85,537a3.34,3.34,0,0,0,4.11,1.07L538.09,521c.06,0,.1,0,.09,0a3.41,3.41,0,0,0,.57-.36l.18-.15a3.37,3.37,0,0,0,.44-.47l.09-.12a3.83,3.83,0,0,0,.37-.69s0-.09,0-.14l-.48-.12.5.06a3.11,3.11,0,0,0,.11-.41.76.76,0,0,0,0-.15l0-.09L543.65,480a.85.85,0,0,0,0-.16,4,4,0,0,0,0-.49c0-.08,0-.17,0-.26a4.07,4.07,0,0,0-.14-.51c0-.07,0-.14-.06-.19l0-.11a1.92,1.92,0,0,0-.18-.31l-.06-.1-.08-.14a3.35,3.35,0,0,0-.47-.52v0L410.91,361.09l102.81-161.2a3.36,3.36,0,0,0-5-4.36L366,318.35ZM147.19,455.44Zm199.71-180,11,38.87L325.74,286Zm-28.59,7.3ZM320.7,292l63.89,84.28-23.29-1.85a3.36,3.36,0,0,0-2.52,5.84l38.29,34.69L371.5,431.85,311.87,314.16Zm68.55,91.39,6.51,21.31L370.6,381.86Zm12.63,36.45,60.86,73-86.4-56Zm-94.36-90.12L332.7,470.28l-47.86-56.72ZM276.64,319.6l22.06-1.33-36.25,32.22C269,336.24,274.78,323.64,276.64,319.6ZM302,324.32,279.1,409l-41.7-27.28ZM232.6,454.94l14.31,126.88-65-88.91Zm-46,26.11,42.65-85.93L232,447Zm49-92.45,39.69,26-36.86,27.61ZM278,421l3.77,123.65-42.18-94.87ZM223.29,354.4l30.9-2c-1.37,3-2.76,6.06-4.12,9.09l-44.88,39.89C210,388.85,217.57,369.2,223.29,354.4Zm-43.1,31.06,24.56-1.67C198.91,399,195.4,408.14,194.34,411l-36.62,32.54C163.36,428.71,173.2,403.35,180.19,385.46Zm-3.48,100.3-22.19-30.34,66.65-59.24Zm-11.17,43.69,16.08-25.57L237,579.59Zm24.69,57.2,11-23.93,94.9,66.63Zm64.61,5.49L241,469.54l73,164.14Zm65.08,38.32-30.48-68.55,44.07-66.67Zm-31.26-79.55-3.87-127L334,482.27Zm51.45-77.38L315.53,336.25l50.76,100.2Zm3.89,6.13,27.09-38.35,92.5,60Zm156.65,51.16-13.45-18.4,38.38,7Zm33-16.81-43-7.78,45.7-21Zm.52-35.18-52.68,24.22L446.82,401.73Zm-63.74,12.7-63-75.48,30.24-20ZM434,390.44,404.43,410,395,379.18a2.87,2.87,0,0,0-.16-.39l0-.08a4.19,4.19,0,0,0-.29-.49l0-.05-51.72-68.24Zm61.77-174.93-90,141.08-36.52-32.22Z"/><polygon class="cls-1" points="715.5 269.43 780 269.43 780 446.42 817.49 446.42 817.49 269.43 881.99 269.43 881.99 237.75 715.5 237.75 715.5 269.43"/><path class="cls-1" d="M963.14,287.68a40.28,40.28,0,0,0-23.89,7.38q-10.47,7.38-14.74,20.94h-1.62V289.92H887.13V446.41H924v-92a33.61,33.61,0,0,1,4.59-17.63,32.28,32.28,0,0,1,12.58-12,37.29,37.29,0,0,1,18.08-4.33,75.1,75.1,0,0,1,9.73.67,40.07,40.07,0,0,1,7.39,1.47V288.69a52.17,52.17,0,0,0-6.37-.77Q966.19,287.68,963.14,287.68Z"/><path class="cls-1" d="M1101.09,380.59q0,11.93-4.95,19.82a32.42,32.42,0,0,1-12.58,11.88,33.79,33.79,0,0,1-15.79,4q-13.26,0-21.4-8.76t-8.15-23.63V289.92h-36.88v99.64q0,18.75,6.62,31.94a47,47,0,0,0,18.39,20.08q11.78,6.87,27.15,6.87,17.64,0,29.7-8.35a47.16,47.16,0,0,0,17.37-21.5h1.64v27.81H1138V289.92h-36.88Z"/><path class="cls-1" d="M1251.74,357.16l-26.7-5.71q-11.93-2.74-17.07-7a13.53,13.53,0,0,1-5-11.12q-.11-7.94,7.69-12.93t19.31-5a34.2,34.2,0,0,1,14.47,2.76,25.36,25.36,0,0,1,9.43,7.23,27.52,27.52,0,0,1,4.93,9.58l33.63-3.67q-3.78-20-19.62-31.69t-43.35-11.71q-18.74,0-33.06,5.85t-22.31,16.51q-8,10.65-7.9,25.12-.11,17.1,10.7,28.27t33.32,15.84l26.69,5.6q10.8,2.35,15.94,6.73a14,14,0,0,1,5.15,11.11q0,7.95-8,13.34t-21.15,5.41q-12.74,0-20.69-5.41t-10.39-16l-36,3.47q3.36,21.6,20.89,33.66t46.25,12.09q19.56,0,34.65-6.33t23.58-17.57a42.47,42.47,0,0,0,8.61-26q-.11-16.82-11-27.2T1251.74,357.16Z"/><path class="cls-1" d="M1393.7,417a37,37,0,0,1-6.37.51,23.41,23.41,0,0,1-8.35-1.42,11.81,11.81,0,0,1-6.07-5.36q-2.29-3.92-2.3-11.36v-80.9h30.88V289.92h-30.88V252.43h-36.87v37.49h-22.22v28.52h22.22v87q-.1,14.69,6.36,24.46a38.26,38.26,0,0,0,17.58,14.41,59.45,59.45,0,0,0,25,4.24,70.06,70.06,0,0,0,13.3-1.43,81.34,81.34,0,0,0,8.4-2.25l-6.21-28.82C1397.11,416.33,1395.64,416.63,1393.7,417Z"/><rect class="cls-1" x="1430.24" y="237.75" width="36.88" height="208.67"/><path class="cls-1" d="M1524,227.66a21.41,21.41,0,0,0-15.08,5.86,18.55,18.55,0,0,0-6.31,14.11,18.78,18.78,0,0,0,6.26,14.16,22.24,22.24,0,0,0,30.16,0,19.09,19.09,0,0,0,0-28.27A21.14,21.14,0,0,0,1524,227.66Z"/><rect class="cls-1" x="1505.48" y="289.92" width="36.88" height="156.5"/><path class="cls-1" d="M1692.75,294.81q-12.07-6.93-28.28-6.93-17.52,0-29.39,7.74a44.58,44.58,0,0,0-17.27,20.88H1616V289.92h-35.26V446.41h36.88V354.72q0-11.33,4.23-19.26a29.56,29.56,0,0,1,11.72-12.18,34.38,34.38,0,0,1,17.17-4.22q14.25,0,22.36,8.86t8.1,24.56v93.93h36.88V346.76q.11-18.74-6.57-31.88A46.9,46.9,0,0,0,1692.75,294.81Z"/><path class="cls-1" d="M1872.85,306.83A63,63,0,0,0,1850,292.51a80.25,80.25,0,0,0-27.36-4.63q-22.43,0-39,10.24a69.4,69.4,0,0,0-25.83,28.52q-9.22,18.3-9.22,42.44,0,24.56,9.16,42.65A65.85,65.85,0,0,0,1784,439.64q17.07,9.84,40.61,9.84,18.24,0,32.4-5.57a60.14,60.14,0,0,0,23.28-15.69,53.57,53.57,0,0,0,12.38-23.78l-34.44-3.88a28.28,28.28,0,0,1-7.24,11.11,31.74,31.74,0,0,1-11.3,6.78,43.76,43.76,0,0,1-14.57,2.28,41.5,41.5,0,0,1-21-5.14,35.17,35.17,0,0,1-13.95-14.87c-3.22-6.26-4.86-13.76-5-22.47h109V366.94q0-20.58-5.71-35.5A67.2,67.2,0,0,0,1872.85,306.83Zm-87.59,46.56a40.66,40.66,0,0,1,4.76-17.07,38,38,0,0,1,13.3-14.26,36.17,36.17,0,0,1,19.86-5.45,35.55,35.55,0,0,1,18.6,4.79,33.79,33.79,0,0,1,12.48,13.09,40.13,40.13,0,0,1,4.58,18.9Z"/><path class="cls-1" d="M2034.3,372.35q-10.85-10.39-33.06-15.19l-26.69-5.71q-11.94-2.74-17.07-7a13.54,13.54,0,0,1-5-11.12q-.09-7.94,7.7-12.93t19.31-5a34.16,34.16,0,0,1,14.46,2.76,25.36,25.36,0,0,1,9.43,7.23,27.55,27.55,0,0,1,4.94,9.58l33.62-3.67q-3.77-20-19.61-31.69t-43.36-11.71q-18.74,0-33.06,5.85t-22.31,16.51q-8,10.65-7.9,25.12-.09,17.1,10.7,28.27t33.32,15.84l26.7,5.6q10.8,2.35,15.94,6.73a14,14,0,0,1,5.15,11.11c0,5.3-2.68,9.74-8,13.34s-12.38,5.41-21.14,5.41q-12.73,0-20.69-5.41t-10.39-16l-36,3.47q3.36,21.6,20.88,33.66t46.25,12.09q19.56,0,34.65-6.33t23.58-17.57a42.41,42.41,0,0,0,8.61-26Q2045.16,382.73,2034.3,372.35Z"/><polygon class="cls-1" points="818.37 551.55 768.76 551.75 769.07 631.75 781.14 631.7 781 596.82 814.99 596.68 814.95 586.33 780.96 586.47 780.87 562.09 818.41 561.94 818.37 551.55"/><path class="cls-1" d="M873.5,550.24c-20.78.08-36,15.65-35.89,41.24s15.44,41,36.22,40.95,35.95-15.65,35.85-41.24S894.2,550.16,873.5,550.24Zm.28,71.17c-13.79.06-24.1-10.49-24.18-30s10.16-30.12,23.94-30.18,24.11,10.5,24.19,30S887.53,621.36,873.78,621.41Z"/><path class="cls-1" d="M984.56,550.89l.2,51.64c0,10.86-7.42,18.71-19.61,18.75s-19.72-7.73-19.76-18.59l-.21-51.64-12.07.05.21,52.61c.07,16.8,12.69,28.66,31.87,28.59s31.75-12,31.68-28.84l-.2-52.62Z"/><polygon class="cls-1" points="1076.49 550.53 1076.72 609.28 1075.98 609.28 1035.04 550.69 1023.87 550.74 1024.19 630.74 1036.26 630.69 1036.02 572.02 1036.77 572.01 1077.66 630.52 1088.76 630.48 1088.44 550.48 1076.49 550.53"/><path class="cls-1" d="M1142.63,550.27l-26.72.1.31,80,25.9-.1c24.38-.1,38.42-15.27,38.32-40.27S1166.18,550.17,1142.63,550.27Zm-1.21,69.46-13.17,0-.23-58.91,13.9,0c17.5-.07,26.57,10.36,26.64,29.23S1159.66,619.65,1141.42,619.73Z"/><path class="cls-1" d="M1220.76,550l-28.47,80.11,12.82-.05,7.26-21.2,31.24-.13,7.39,21.15,12.82-.05-29.11-79.89Zm-4.92,48.69,11.66-34.19h.63l11.93,34.09Z"/><polygon class="cls-1" points="1330.92 549.52 1269.01 549.76 1269.05 560.15 1293.97 560.06 1294.25 629.67 1306.28 629.62 1306 560.01 1330.96 559.91 1330.92 549.52"/><rect class="cls-1" x="1352.68" y="549.41" width="12.07" height="80" transform="translate(-2.33 5.4) rotate(-0.23)"/><path class="cls-1" d="M1425.22,548.05c-20.78.08-36,15.65-35.89,41.24s15.44,41,36.22,41,36-15.65,35.85-41.24S1445.92,548,1425.22,548.05Zm.28,71.17c-13.79.06-24.1-10.49-24.18-30s10.16-30.12,23.94-30.17,24.11,10.49,24.19,30S1439.25,619.17,1425.5,619.22Z"/><polygon class="cls-1" points="1549.88 548.65 1537.93 548.7 1538.17 607.45 1537.42 607.45 1496.49 548.86 1485.32 548.91 1485.63 628.91 1497.7 628.86 1497.47 570.19 1498.21 570.18 1539.11 628.7 1550.2 628.65 1549.88 548.65"/></svg>