<svg id="Layer_2" data-name="Layer 2" xmlns="http://www.w3.org/2000/svg" viewBox="0 0 1493.15 582.36"><defs><style>.cls-1{fill:#1e8cc3;}</style></defs><polygon class="cls-1" points="127.88 134.17 187.99 134.17 187.99 299.13 222.93 299.13 222.93 134.17 283.05 134.17 283.05 104.64 127.88 104.64 127.88 134.17"/><path class="cls-1" d="M358.68,151.19a37.53,37.53,0,0,0-22.27,6.88q-9.75,6.87-13.73,19.51h-1.52V153.27H287.84V299.13h34.37V213.4A31.19,31.19,0,0,1,326.49,197a30,30,0,0,1,11.72-11.16,34.7,34.7,0,0,1,16.85-4,71.77,71.77,0,0,1,9.07.62,36.9,36.9,0,0,1,6.89,1.37V152.13a46.85,46.85,0,0,0-5.94-.72C362.7,151.27,360.57,151.19,358.68,151.19Z"/><path class="cls-1" d="M487.25,237.78q0,11.11-4.61,18.48a30.1,30.1,0,0,1-11.73,11.05,31.26,31.26,0,0,1-14.72,3.7c-8.23,0-14.87-2.69-19.95-8.16s-7.59-12.77-7.59-22V153.27H394.28v92.87q0,17.48,6.17,29.77a44,44,0,0,0,17.14,18.72q11,6.39,25.3,6.39c11,0,20.18-2.57,27.68-7.78a44,44,0,0,0,16.19-20h1.53v25.91h33.33V153.27H487.25Z"/><path class="cls-1" d="M627.65,216l-24.88-5.33q-11.12-2.55-15.91-6.54a12.61,12.61,0,0,1-4.7-10.37q-.09-7.38,7.17-12.05t18-4.66a32.12,32.12,0,0,1,13.48,2.57,23.93,23.93,0,0,1,8.79,6.75,25.57,25.57,0,0,1,4.6,8.92l31.33-3.42q-3.51-18.62-18.28-29.53t-40.4-10.92q-17.46,0-30.82,5.46c-8.88,3.66-15.81,8.76-20.79,15.39a37.48,37.48,0,0,0-7.36,23.42q-.09,15.92,10,26.33c6.7,6.93,17,11.88,31,14.77L613.79,242q10.07,2.17,14.85,6.27a13,13,0,0,1,4.8,10.36q0,7.41-7.45,12.42t-19.7,5.06q-11.88,0-19.29-5.06t-9.68-14.91l-33.52,3.26q3.13,20.11,19.47,31.37T606.38,302q18.23,0,32.29-5.9t22-16.35a39.63,39.63,0,0,0,8-24.27c-.06-10.45-3.47-18.92-10.21-25.35S641.45,218.92,627.65,216Z"/><path class="cls-1" d="M760,271.69a34.19,34.19,0,0,1-5.94.48,21.94,21.94,0,0,1-7.78-1.32,11.17,11.17,0,0,1-5.66-5q-2.13-3.64-2.14-10.58V179.85h28.78V153.27H738.44V118.34H704.07v34.93h-20.7v26.58h20.7V261Q704,274.64,710,283.74a35.6,35.6,0,0,0,16.38,13.44,55.9,55.9,0,0,0,23.26,4,65.62,65.62,0,0,0,12.4-1.35,73.84,73.84,0,0,0,7.83-2.09l-5.8-26.85C763.14,271.09,761.76,271.37,760,271.69Z"/><rect class="cls-1" x="794.01" y="104.64" width="34.37" height="194.49"/><rect class="cls-1" x="864.14" y="153.27" width="34.37" height="145.86"/><path class="cls-1" d="M881.42,95.24a20,20,0,0,0-14.06,5.46,17.76,17.76,0,0,0-.05,26.36,20.78,20.78,0,0,0,28.12,0A17.36,17.36,0,0,0,901.26,114a17.62,17.62,0,0,0-5.83-13.22A19.81,19.81,0,0,0,881.42,95.24Z"/><path class="cls-1" d="M1038.67,157.83q-11.25-6.44-26.35-6.46-16.34,0-27.39,7.23A41.51,41.51,0,0,0,968.83,178h-1.71V153.27H934.27V299.13h34.37V213.68q0-10.55,3.93-18a27.64,27.64,0,0,1,10.93-11.35,32,32,0,0,1,16-3.94q13.29,0,20.84,8.26t7.56,22.9v87.54h34.36V206.25q.1-17.46-6.12-29.71A43.74,43.74,0,0,0,1038.67,157.83Z"/><path class="cls-1" d="M1206.52,169a58.32,58.32,0,0,0-21.26-13.34,74.56,74.56,0,0,0-25.5-4.33q-20.9,0-36.37,9.56a64.59,64.59,0,0,0-24.07,26.57q-8.6,17.06-8.59,39.56,0,22.89,8.54,39.73a61.22,61.22,0,0,0,24.45,26q15.91,9.17,37.85,9.16,17,0,30.19-5.18a56.33,56.33,0,0,0,21.7-14.62A49.93,49.93,0,0,0,1225,260l-32.08-3.62a26.36,26.36,0,0,1-6.75,10.37,29.62,29.62,0,0,1-10.54,6.31,40.4,40.4,0,0,1-13.58,2.13,38.64,38.64,0,0,1-19.57-4.79,32.79,32.79,0,0,1-13-13.86q-4.5-8.75-4.63-20.93h101.58V225.05q0-19.17-5.31-33.07A62.66,62.66,0,0,0,1206.52,169Zm-81.62,43.39a37.78,37.78,0,0,1,4.43-15.91,35.6,35.6,0,0,1,12.39-13.3,33.82,33.82,0,0,1,18.51-5.06,33.16,33.16,0,0,1,17.34,4.46,31.28,31.28,0,0,1,11.63,12.19,37.32,37.32,0,0,1,4.27,17.62Z"/><path class="cls-1" d="M1357,230.11q-10.11-9.71-30.81-14.16l-24.88-5.33q-11.11-2.55-15.91-6.54a12.58,12.58,0,0,1-4.7-10.37q-.09-7.38,7.17-12.05t18-4.66a32.12,32.12,0,0,1,13.48,2.57,23.89,23.89,0,0,1,8.78,6.75,25.41,25.41,0,0,1,4.6,8.92l31.34-3.42q-3.51-18.62-18.28-29.53t-40.4-10.92q-17.48,0-30.82,5.46c-8.89,3.66-15.82,8.76-20.79,15.39a37.48,37.48,0,0,0-7.36,23.42q-.09,15.92,10,26.33c6.71,6.93,17.06,11.88,31.06,14.77l24.88,5.22q10.05,2.17,14.85,6.27a13.07,13.07,0,0,1,4.8,10.36q0,7.41-7.45,12.42t-19.71,5.06q-11.86,0-19.28-5.06t-9.68-14.91l-33.52,3.26q3.14,20.11,19.47,31.37t43.1,11.25q18.24,0,32.29-5.9t22-16.35a39.68,39.68,0,0,0,8-24.27C1367.14,245,1363.74,236.54,1357,230.11Z"/><polygon class="cls-1" points="457.1 401.63 415 401.8 415.27 469.69 425.52 469.65 425.4 440.05 454.24 439.93 454.2 431.15 425.37 431.26 425.28 410.58 457.14 410.45 457.1 401.63"/><path class="cls-1" d="M503.89,400.52c-17.63.07-30.54,13.28-30.46,35s13.1,34.82,30.74,34.75,30.51-13.28,30.42-35S521.46,400.45,503.89,400.52Zm.24,60.4c-11.7,0-20.45-8.91-20.52-25.45s8.62-25.56,20.32-25.6,20.45,8.9,20.52,25.44S515.8,460.87,504.13,460.92Z"/><path class="cls-1" d="M598.14,401.07l.17,43.83c0,9.21-6.3,15.87-16.65,15.91S564.93,454.24,564.9,445l-.18-43.82-10.24,0,.18,44.65c.05,14.25,10.77,24.32,27,24.25s26.94-10.21,26.89-24.47L608.41,401Z"/><polygon class="cls-1" points="676.15 400.76 676.35 450.62 675.72 450.62 640.98 400.9 631.5 400.94 631.77 468.83 642.01 468.79 641.81 419 642.44 419 677.15 468.65 686.56 468.61 686.29 400.72 676.15 400.76"/><path class="cls-1" d="M732.27,400.54l-22.67.09.27,67.89,22-.09c20.68-.08,32.6-13,32.51-34.17S752.26,400.46,732.27,400.54Zm-1,58.95-11.17,0-.2-50,11.8-.05c14.85-.05,22.54,8.8,22.61,24.81S746.73,459.42,731.25,459.49Z"/><path class="cls-1" d="M798.58,400.28l-24.16,68,10.87,0,6.17-18,26.51-.11,6.27,17.95,10.88-.05-24.7-67.79ZM794.4,441.6l9.9-29h.53L815,441.52Z"/><polygon class="cls-1" points="892.07 399.91 839.52 400.12 839.56 408.93 860.71 408.85 860.94 467.92 871.15 467.88 870.92 408.81 892.1 408.73 892.07 399.91"/><rect class="cls-1" x="910.53" y="399.81" width="10.24" height="67.89" transform="translate(-1.71 3.64) rotate(-0.23)"/><path class="cls-1" d="M972.09,398.66c-17.64.07-30.55,13.28-30.46,35s13.1,34.82,30.73,34.75,30.51-13.28,30.43-35S989.66,398.59,972.09,398.66Zm.24,60.4c-11.71.05-20.46-8.9-20.52-25.44s8.61-25.56,20.31-25.61,20.46,8.9,20.52,25.44S984,459,972.33,459.06Z"/><polygon class="cls-1" points="1077.88 399.17 1067.73 399.21 1067.93 449.07 1067.3 449.07 1032.56 399.35 1023.08 399.39 1023.35 467.28 1033.6 467.24 1033.4 417.45 1034.03 417.44 1068.73 467.1 1078.15 467.06 1077.88 399.17"/></svg>