<?xml version="1.0" encoding="utf-8"?>
<!-- Generator: Adobe Illustrator 23.0.4, SVG Export Plug-In . SVG Version: 6.00 Build 0)  -->
<svg version="1.1" xmlns="http://www.w3.org/2000/svg" xmlns:xlink="http://www.w3.org/1999/xlink" x="0px" y="0px"
	 viewBox="0 0 1250 400" style="enable-background:new 0 0 1250 400;" xml:space="preserve">
<style type="text/css">
	.st0{display:none;}
	.st1{display:inline;fill-rule:evenodd;clip-rule:evenodd;fill:none;stroke:#E80A89;stroke-miterlimit:10;}
	.st2{display:inline;fill-rule:evenodd;clip-rule:evenodd;fill:none;stroke:#60C6D1;stroke-miterlimit:10;}
	.st3{display:inline;fill:#231F20;}
	.st4{display:inline;fill-rule:evenodd;clip-rule:evenodd;fill:none;stroke:#46B449;stroke-miterlimit:10;}
	.st5{fill:url(#SVGID_1_);}
	.st6{fill:#FFFFFF;}
	.st7{fill:#1E8CC3;}
	.st8{fill:url(#SVGID_2_);}
	.st9{display:inline;fill:none;stroke:#221F1F;stroke-width:8;stroke-miterlimit:10;}
	.st10{display:inline;fill-rule:evenodd;clip-rule:evenodd;fill:none;stroke:#221F1F;stroke-width:8;stroke-miterlimit:10;}
	.st11{display:inline;}
	.st12{fill:#221F1F;}
	.st13{display:inline;fill-rule:evenodd;clip-rule:evenodd;fill:#00A04A;}
	.st14{fill:url(#SVGID_3_);}
	.st15{fill:url(#SVGID_4_);}
	.st16{fill:url(#SVGID_5_);}
</style>
<g id="L_CIRCLES" class="st0">
	<path id="XMLID_630_" class="st3" d="M119.03,230.56c-0.41,4.15,0.67,4.78,3.42,7.39c26.34,25.07,42.76,60.47,42.76,99.7
		c0,76-61.63,137.63-137.63,137.63s-137.64-61.63-137.64-137.63c0-76,61.63-137.64,137.64-137.64c10.49,0,20.7,1.17,30.52,3.4
		c4,0.91,5.73,1.31,9.14-0.93c-2.58-0.76-5.18-1.44-7.82-2.06l-0.08-0.02c-1.1-0.26-2.21-0.5-3.32-0.72l-0.12-0.02
		c-1.11-0.23-2.22-0.44-3.34-0.64l-0.1-0.02c-1.12-0.2-2.24-0.39-3.37-0.56l-0.12-0.02c-1.14-0.17-2.28-0.33-3.43-0.48l-0.05-0.01
		c-1.16-0.15-2.31-0.28-3.48-0.4l-0.07-0.01c-1.17-0.12-2.34-0.22-3.52-0.31l-0.02,0c-3.57-0.27-7.18-0.41-10.83-0.41
		c-1.22,0-2.43,0.01-3.63,0.05c-1.21,0.03-2.41,0.08-3.61,0.14c-1.2,0.06-2.39,0.14-3.59,0.23c-1.19,0.09-2.38,0.2-3.56,0.32
		c-1.18,0.12-2.36,0.26-3.54,0.4c-1.18,0.15-2.34,0.31-3.51,0.49h0c-1.17,0.18-2.33,0.37-3.48,0.58c-1.16,0.21-2.31,0.43-3.45,0.66
		c-1.15,0.23-2.29,0.48-3.42,0.74c-1.13,0.26-2.27,0.54-3.39,0.83c-1.13,0.29-2.25,0.59-3.36,0.91c-1.12,0.32-2.22,0.65-3.32,0.99h0
		c-1.1,0.34-2.2,0.7-3.29,1.07c-1.09,0.37-2.18,0.75-3.25,1.15c-1.08,0.4-2.15,0.8-3.22,1.22c-1.07,0.42-2.12,0.85-3.18,1.3v0
		c-1.05,0.44-2.1,0.9-3.14,1.37c-1.04,0.47-2.07,0.95-3.1,1.45c-1.03,0.5-2.05,1-3.06,1.52c-2.03,1.04-4.02,2.12-5.99,3.25
		c-0.98,0.57-1.96,1.14-2.93,1.73h0c-0.97,0.59-1.93,1.19-2.88,1.8h0c-4.76,3.05-9.33,6.39-13.68,9.98
		c-0.87,0.72-1.73,1.44-2.58,2.18c-0.85,0.74-1.69,1.49-2.53,2.24c-3.34,3.03-6.53,6.22-9.56,9.56c-0.76,0.83-1.5,1.68-2.24,2.53
		c-0.74,0.85-1.46,1.71-2.18,2.58h0c-3.59,4.35-6.92,8.91-9.97,13.68c-0.61,0.95-1.21,1.91-1.8,2.88v0
		c-0.59,0.97-1.17,1.94-1.73,2.93h0c-1.13,1.97-2.22,3.96-3.25,5.99c-0.52,1.01-1.03,2.03-1.52,3.06c-0.49,1.03-0.98,2.06-1.45,3.1
		c-0.47,1.04-0.93,2.09-1.37,3.14h0c-0.45,1.05-0.88,2.11-1.3,3.18c-0.42,1.07-0.83,2.14-1.22,3.22c-0.39,1.08-0.78,2.16-1.15,3.26
		c-0.37,1.09-0.73,2.19-1.07,3.29l0,0c-0.34,1.1-0.67,2.21-0.99,3.33c-0.32,1.11-0.62,2.23-0.91,3.36
		c-0.29,1.12-0.57,2.25-0.83,3.39c-0.26,1.13-0.51,2.28-0.74,3.42c-0.23,1.15-0.45,2.3-0.66,3.45c-0.21,1.16-0.4,2.32-0.58,3.48v0
		c-0.18,1.17-0.34,2.33-0.49,3.51c-0.15,1.18-0.28,2.35-0.4,3.54c-0.12,1.18-0.23,2.37-0.32,3.56c-0.09,1.19-0.17,2.39-0.23,3.59
		c-0.06,1.2-0.11,2.4-0.14,3.61c-0.03,1.21-0.05,2.42-0.05,3.63l0,0c0,1.22,0.01,2.43,0.05,3.63c0.03,1.21,0.08,2.41,0.14,3.61l0,0
		c0.06,1.2,0.14,2.4,0.23,3.59c0.09,1.19,0.2,2.38,0.32,3.56l0,0c0.12,1.18,0.25,2.36,0.4,3.54c0.15,1.18,0.31,2.34,0.49,3.51v0
		c0.18,1.16,0.37,2.32,0.58,3.48c0.21,1.15,0.43,2.31,0.66,3.45v0c0.23,1.15,0.48,2.28,0.74,3.42c0.26,1.14,0.54,2.27,0.83,3.39v0
		c0.29,1.13,0.59,2.24,0.91,3.36c0.32,1.11,0.65,2.22,0.99,3.33v0c0.34,1.1,0.7,2.2,1.07,3.29l0,0c0.37,1.09,0.75,2.18,1.15,3.26
		c0.4,1.08,0.8,2.15,1.22,3.22v0c0.84,2.13,1.73,4.24,2.67,6.32v0c0.94,2.08,1.93,4.13,2.97,6.16v0c1.55,3.03,3.22,6.01,4.98,8.91v0
		c0.59,0.97,1.19,1.93,1.8,2.88l0,0c3.67,5.72,7.73,11.15,12.16,16.26l0,0c0.74,0.85,1.49,1.69,2.24,2.53v0
		c3.79,4.17,7.83,8.11,12.08,11.8c0.85,0.74,1.71,1.47,2.58,2.18l0,0c4.35,3.59,8.91,6.92,13.68,9.97h0c1.9,1.22,3.84,2.4,5.81,3.53
		v0c1.97,1.13,3.96,2.22,5.99,3.25c1.01,0.52,2.03,1.03,3.06,1.52v0c1.02,0.49,2.06,0.98,3.1,1.45c1.04,0.47,2.09,0.93,3.14,1.38
		l0,0c1.05,0.44,2.11,0.88,3.18,1.3c1.07,0.42,2.14,0.83,3.22,1.22c1.08,0.39,2.16,0.78,3.25,1.15c1.09,0.37,2.19,0.72,3.29,1.07h0
		c1.1,0.34,2.21,0.67,3.32,0.99c1.11,0.32,2.23,0.62,3.36,0.91c1.12,0.29,2.26,0.57,3.39,0.83c1.14,0.26,2.28,0.51,3.42,0.75
		c1.15,0.23,2.3,0.45,3.45,0.66c1.16,0.21,2.32,0.4,3.48,0.58h0c1.17,0.18,2.33,0.34,3.51,0.49c1.18,0.15,2.35,0.28,3.54,0.4
		c1.18,0.12,2.37,0.23,3.56,0.32c1.19,0.09,2.39,0.17,3.59,0.23c1.2,0.06,2.41,0.11,3.61,0.14c1.2,0.03,2.42,0.05,3.63,0.05
		c1.22,0,2.43-0.01,3.63-0.05h0c1.21-0.03,2.41-0.08,3.61-0.14h0c1.2-0.06,2.39-0.14,3.59-0.23l0,0c1.19-0.09,2.38-0.2,3.56-0.32
		l0,0c1.18-0.12,2.36-0.26,3.54-0.4l0,0c1.18-0.15,2.34-0.31,3.51-0.49h0c1.17-0.18,2.33-0.37,3.48-0.58l0,0
		c1.16-0.21,2.31-0.43,3.45-0.66l0,0c1.15-0.24,2.29-0.48,3.42-0.75h0c1.14-0.26,2.27-0.54,3.39-0.83h0
		c1.13-0.29,2.24-0.59,3.36-0.91l0,0c1.12-0.31,2.22-0.65,3.33-0.99c1.1-0.34,2.2-0.7,3.29-1.07l0,0c1.09-0.37,2.18-0.75,3.25-1.15
		c1.08-0.4,2.15-0.8,3.22-1.22c1.07-0.42,2.13-0.85,3.18-1.3l0,0c1.05-0.45,2.1-0.9,3.14-1.38l0,0c2.08-0.94,4.13-1.93,6.16-2.97h0
		c4.05-2.07,7.98-4.34,11.79-6.78l0,0c0.95-0.61,1.9-1.23,2.83-1.86c4.68-3.16,9.17-6.6,13.43-10.29h0
		c0.85-0.74,1.69-1.48,2.53-2.24v0c0.83-0.76,1.66-1.52,2.47-2.3c0.81-0.78,1.62-1.56,2.42-2.36c0.8-0.8,1.58-1.6,2.36-2.42l0,0
		c1.55-1.63,3.07-3.3,4.55-5l0,0c0.74-0.85,1.47-1.71,2.18-2.58c3.59-4.35,6.92-8.92,9.97-13.68l0,0c2.44-3.81,4.71-7.74,6.78-11.79
		v0c1.04-2.02,2.03-4.08,2.97-6.16v0c0.94-2.08,1.83-4.19,2.67-6.32v0c0.42-1.07,0.83-2.14,1.22-3.22c0.39-1.08,0.78-2.16,1.15-3.26
		l0,0c0.37-1.09,0.73-2.19,1.07-3.29v0c0.34-1.1,0.67-2.21,0.99-3.33c0.32-1.11,0.62-2.23,0.91-3.36v0
		c0.29-1.13,0.57-2.26,0.83-3.39c0.26-1.14,0.51-2.27,0.75-3.42v0c0.23-1.15,0.45-2.3,0.66-3.45c0.21-1.16,0.4-2.32,0.58-3.48v0
		c0.18-1.17,0.34-2.33,0.49-3.51c0.15-1.17,0.28-2.35,0.4-3.54l0,0c0.12-1.18,0.23-2.37,0.32-3.56c0.09-1.19,0.17-2.39,0.23-3.59
		l0,0c0.06-1.2,0.11-2.41,0.14-3.61c0.03-1.21,0.05-2.42,0.05-3.63l0,0c0-1.19-0.01-2.38-0.05-3.56l0-0.1
		c-0.03-1.15-0.07-2.3-0.13-3.45l-0.01-0.19c-0.06-1.13-0.13-2.26-0.21-3.38l-0.01-0.22c-0.09-1.11-0.18-2.21-0.29-3.31l-0.03-0.28
		c-0.11-1.08-0.24-2.16-0.37-3.23l-0.04-0.33c-0.14-1.06-0.28-2.11-0.44-3.16l-0.06-0.38c-0.16-1.04-0.33-2.07-0.51-3.1l-0.07-0.39
		c-0.18-1.02-0.38-2.04-0.59-3.06l-0.09-0.43c-0.21-1-0.43-2-0.66-3l-0.1-0.43c-0.23-1-0.48-2-0.73-2.99l-0.1-0.39
		c-0.26-0.99-0.52-1.98-0.8-2.96l-0.12-0.42c-0.28-0.98-0.57-1.95-0.87-2.92l-0.13-0.41c-0.3-0.97-0.61-1.93-0.94-2.88l-0.15-0.44
		c-0.32-0.95-0.66-1.89-1-2.83l-0.15-0.42c-0.35-0.95-0.71-1.89-1.07-2.83l-0.15-0.38c-0.37-0.94-0.75-1.87-1.14-2.79l-0.17-0.41
		c-0.4-0.93-0.8-1.85-1.21-2.77l-0.16-0.35c-0.42-0.93-0.85-1.85-1.29-2.77l-0.16-0.32c-0.45-0.92-0.9-1.84-1.37-2.76l-0.15-0.29
		c-0.47-0.92-0.95-1.83-1.44-2.73l-0.17-0.3c-0.49-0.9-0.99-1.8-1.51-2.69l-0.14-0.24c-0.52-0.9-1.05-1.8-1.59-2.7l-0.13-0.22
		c-0.55-0.91-1.12-1.81-1.69-2.7l-0.06-0.1c-0.59-0.92-1.19-1.83-1.8-2.74l-0.07-0.1c-0.6-0.89-1.21-1.77-1.84-2.65l-0.04-0.06
		l-0.01-0.02l-0.01-0.01c-0.63-0.88-1.26-1.75-1.91-2.62l-0.09-0.12c-0.63-0.84-1.27-1.67-1.92-2.5l-0.17-0.22
		c-0.65-0.83-1.31-1.65-1.98-2.46l-0.13-0.16c-0.66-0.8-1.33-1.59-2.01-2.38l-0.2-0.23c-0.66-0.76-1.33-1.52-2.01-2.26l-0.26-0.29
		c-0.67-0.74-1.35-1.47-2.04-2.19l-0.27-0.29c-0.68-0.71-1.37-1.42-2.07-2.12l-0.32-0.32c-0.75-0.74-1.5-1.48-2.26-2.21l0,0
		l-0.02-0.02l-0.02-0.02l-0.01-0.01C122.86,233.92,120.96,232.22,119.03,230.56"/>
	<path id="XMLID_629_" class="st3" d="M49.57,230.38c-0.41,4.15,0.67,4.78,3.42,7.39c26.34,25.07,42.76,60.47,42.76,99.7
		c0,76-61.63,137.63-137.63,137.63s-137.64-61.63-137.64-137.63c0-76,61.63-137.64,137.64-137.64c10.49,0,20.7,1.17,30.52,3.4
		c4,0.91,5.73,1.31,9.14-0.93c-2.58-0.76-5.18-1.44-7.82-2.06l-0.08-0.02c-1.1-0.26-2.21-0.5-3.32-0.72l-0.12-0.02
		c-1.11-0.23-2.22-0.44-3.34-0.64l-0.1-0.02c-1.12-0.2-2.24-0.39-3.37-0.56l-0.12-0.02c-1.14-0.17-2.28-0.33-3.43-0.48l-0.05-0.01
		c-1.16-0.15-2.31-0.28-3.48-0.4l-0.07-0.01c-1.17-0.12-2.34-0.22-3.52-0.31l-0.02,0c-3.57-0.27-7.18-0.41-10.83-0.41
		c-1.22,0-2.43,0.01-3.63,0.05c-1.21,0.03-2.41,0.08-3.61,0.14c-1.2,0.06-2.39,0.14-3.59,0.23c-1.19,0.09-2.38,0.2-3.56,0.32
		c-1.18,0.12-2.36,0.26-3.54,0.4c-1.18,0.15-2.34,0.31-3.51,0.49h0c-1.17,0.18-2.33,0.37-3.48,0.58c-1.16,0.21-2.31,0.43-3.45,0.66
		c-1.15,0.23-2.29,0.48-3.42,0.74c-1.13,0.26-2.27,0.54-3.39,0.83c-1.13,0.29-2.25,0.59-3.36,0.91c-1.12,0.32-2.22,0.65-3.32,0.99h0
		c-1.1,0.34-2.2,0.7-3.29,1.07c-1.09,0.37-2.18,0.75-3.25,1.15c-1.08,0.4-2.15,0.8-3.22,1.22c-1.07,0.42-2.12,0.85-3.18,1.3v0
		c-1.05,0.44-2.1,0.9-3.14,1.37c-1.04,0.47-2.07,0.95-3.1,1.45c-1.03,0.5-2.05,1-3.06,1.52c-2.03,1.04-4.02,2.12-5.99,3.25
		c-0.98,0.57-1.96,1.14-2.93,1.73h0c-0.97,0.59-1.93,1.19-2.88,1.8h0c-4.76,3.05-9.33,6.39-13.68,9.98
		c-0.87,0.72-1.73,1.44-2.58,2.18c-0.85,0.74-1.69,1.49-2.53,2.24c-3.34,3.03-6.53,6.22-9.56,9.56c-0.76,0.83-1.5,1.68-2.24,2.53
		c-0.74,0.85-1.46,1.71-2.18,2.58h0c-3.59,4.35-6.92,8.91-9.97,13.68c-0.61,0.95-1.21,1.91-1.8,2.88v0
		c-0.59,0.97-1.17,1.94-1.73,2.93h0c-1.13,1.97-2.22,3.96-3.25,5.99c-0.52,1.01-1.03,2.03-1.52,3.06c-0.49,1.03-0.98,2.06-1.45,3.1
		c-0.47,1.04-0.93,2.09-1.37,3.14h0c-0.45,1.05-0.88,2.11-1.3,3.18c-0.42,1.07-0.83,2.14-1.22,3.22c-0.39,1.08-0.78,2.16-1.15,3.26
		c-0.37,1.09-0.73,2.19-1.07,3.29l0,0c-0.34,1.1-0.67,2.21-0.99,3.33c-0.32,1.11-0.62,2.23-0.91,3.36
		c-0.29,1.12-0.57,2.25-0.83,3.39c-0.26,1.13-0.51,2.28-0.74,3.42c-0.23,1.15-0.45,2.3-0.66,3.45c-0.21,1.16-0.4,2.32-0.58,3.48v0
		c-0.18,1.17-0.34,2.33-0.49,3.51c-0.15,1.18-0.28,2.35-0.4,3.54c-0.12,1.18-0.23,2.37-0.32,3.56c-0.09,1.19-0.17,2.39-0.23,3.59
		c-0.06,1.2-0.11,2.4-0.14,3.61c-0.03,1.21-0.05,2.42-0.05,3.63l0,0c0,1.22,0.01,2.43,0.05,3.63c0.03,1.21,0.08,2.41,0.14,3.61l0,0
		c0.06,1.2,0.14,2.4,0.23,3.59c0.09,1.19,0.2,2.38,0.32,3.56l0,0c0.12,1.18,0.25,2.36,0.4,3.54c0.15,1.18,0.31,2.34,0.49,3.51v0
		c0.18,1.16,0.37,2.32,0.58,3.48c0.21,1.15,0.43,2.31,0.66,3.45v0c0.23,1.15,0.48,2.28,0.74,3.42c0.26,1.14,0.54,2.27,0.83,3.39v0
		c0.29,1.13,0.59,2.24,0.91,3.36c0.32,1.11,0.65,2.22,0.99,3.33v0c0.34,1.1,0.7,2.2,1.07,3.29l0,0c0.37,1.09,0.75,2.18,1.15,3.26
		c0.4,1.08,0.8,2.15,1.22,3.22v0c0.84,2.13,1.73,4.24,2.67,6.32v0c0.94,2.08,1.93,4.13,2.97,6.16v0c1.55,3.03,3.22,6.01,4.98,8.91v0
		c0.59,0.97,1.19,1.93,1.8,2.88l0,0c3.67,5.72,7.73,11.15,12.16,16.26l0,0c0.74,0.85,1.49,1.69,2.24,2.53v0
		c3.79,4.17,7.83,8.11,12.08,11.8c0.85,0.74,1.71,1.47,2.58,2.18l0,0c4.35,3.59,8.91,6.92,13.68,9.97h0c1.9,1.22,3.84,2.4,5.81,3.53
		v0c1.97,1.13,3.96,2.22,5.99,3.25c1.01,0.52,2.03,1.03,3.06,1.52v0c1.02,0.49,2.06,0.98,3.1,1.45c1.04,0.47,2.09,0.93,3.14,1.38
		l0,0c1.05,0.44,2.11,0.88,3.18,1.3c1.07,0.42,2.14,0.83,3.22,1.22c1.08,0.39,2.16,0.78,3.25,1.15c1.09,0.37,2.19,0.72,3.29,1.07h0
		c1.1,0.34,2.21,0.67,3.32,0.99c1.11,0.32,2.23,0.62,3.36,0.91c1.12,0.29,2.26,0.57,3.39,0.83c1.14,0.26,2.28,0.51,3.42,0.75
		c1.15,0.23,2.3,0.45,3.45,0.66c1.16,0.21,2.32,0.4,3.48,0.58h0c1.17,0.18,2.33,0.34,3.51,0.49c1.18,0.15,2.35,0.28,3.54,0.4
		c1.18,0.12,2.37,0.23,3.56,0.32c1.19,0.09,2.39,0.17,3.59,0.23c1.2,0.06,2.41,0.11,3.61,0.14c1.2,0.03,2.42,0.05,3.63,0.05
		c1.22,0,2.43-0.01,3.63-0.05h0c1.21-0.03,2.41-0.08,3.61-0.14h0c1.2-0.06,2.39-0.14,3.59-0.23l0,0c1.19-0.09,2.38-0.2,3.56-0.32
		l0,0c1.18-0.12,2.36-0.26,3.54-0.4l0,0c1.18-0.15,2.34-0.31,3.51-0.49h0c1.17-0.18,2.33-0.37,3.48-0.58l0,0
		c1.16-0.21,2.31-0.43,3.45-0.66l0,0c1.15-0.24,2.29-0.48,3.42-0.75h0c1.14-0.26,2.27-0.54,3.39-0.83h0
		c1.13-0.29,2.24-0.59,3.36-0.91l0,0c1.12-0.32,2.22-0.65,3.33-0.99c1.1-0.34,2.2-0.7,3.29-1.07l0,0c1.09-0.37,2.18-0.75,3.25-1.15
		c1.08-0.4,2.15-0.8,3.22-1.22c1.07-0.42,2.13-0.85,3.18-1.3l0,0c1.05-0.45,2.1-0.9,3.14-1.38l0,0c2.08-0.94,4.13-1.93,6.16-2.97h0
		c4.05-2.07,7.98-4.34,11.79-6.78l0,0c0.95-0.61,1.9-1.23,2.83-1.86c4.68-3.16,9.17-6.6,13.43-10.29h0
		c0.85-0.74,1.69-1.48,2.53-2.24v0c0.83-0.76,1.66-1.52,2.47-2.3c0.81-0.78,1.62-1.56,2.42-2.36c0.8-0.8,1.58-1.6,2.36-2.42l0,0
		c1.55-1.63,3.07-3.3,4.55-5l0,0c0.74-0.85,1.47-1.71,2.18-2.58c3.59-4.35,6.92-8.92,9.97-13.68l0,0c2.44-3.81,4.71-7.74,6.78-11.79
		v0c1.04-2.02,2.03-4.08,2.97-6.16v0c0.94-2.08,1.83-4.19,2.67-6.32v0c0.42-1.07,0.83-2.14,1.22-3.22c0.39-1.08,0.78-2.16,1.15-3.26
		l0,0c0.37-1.09,0.73-2.19,1.07-3.29v0c0.34-1.1,0.67-2.21,0.99-3.33c0.32-1.11,0.62-2.23,0.91-3.36v0
		c0.29-1.13,0.57-2.26,0.83-3.39c0.26-1.14,0.51-2.27,0.75-3.42v0c0.23-1.15,0.45-2.3,0.66-3.45c0.21-1.16,0.4-2.32,0.58-3.48v0
		c0.18-1.17,0.34-2.33,0.49-3.51c0.15-1.17,0.28-2.35,0.4-3.54l0,0c0.12-1.18,0.23-2.37,0.32-3.56c0.09-1.19,0.17-2.39,0.23-3.59
		l0,0c0.06-1.2,0.11-2.41,0.14-3.61c0.03-1.21,0.05-2.42,0.05-3.63l0,0c0-1.19-0.01-2.38-0.05-3.56l0-0.1
		c-0.03-1.15-0.07-2.3-0.13-3.45l-0.01-0.19c-0.06-1.13-0.13-2.26-0.21-3.38l-0.01-0.22c-0.09-1.11-0.18-2.21-0.29-3.31l-0.03-0.28
		c-0.11-1.08-0.24-2.16-0.37-3.23l-0.04-0.33c-0.14-1.06-0.28-2.11-0.44-3.16l-0.06-0.38c-0.16-1.04-0.33-2.07-0.51-3.1l-0.07-0.39
		c-0.18-1.02-0.38-2.04-0.59-3.06l-0.09-0.43c-0.21-1-0.43-2-0.66-3l-0.1-0.43c-0.23-1-0.48-2-0.73-2.99l-0.1-0.39
		c-0.26-0.99-0.52-1.98-0.8-2.96l-0.12-0.42c-0.28-0.98-0.57-1.95-0.87-2.92l-0.13-0.41c-0.3-0.97-0.61-1.93-0.94-2.88l-0.15-0.44
		c-0.32-0.95-0.66-1.89-1-2.83l-0.15-0.42c-0.35-0.95-0.71-1.89-1.07-2.83l-0.15-0.38c-0.37-0.94-0.75-1.87-1.14-2.79l-0.17-0.41
		c-0.4-0.93-0.8-1.85-1.21-2.77l-0.16-0.35c-0.42-0.93-0.85-1.85-1.29-2.77l-0.16-0.32c-0.45-0.92-0.9-1.84-1.37-2.76l-0.15-0.29
		c-0.47-0.92-0.95-1.83-1.44-2.73l-0.17-0.3c-0.49-0.9-0.99-1.8-1.51-2.69l-0.14-0.24c-0.52-0.9-1.05-1.8-1.59-2.7l-0.13-0.22
		c-0.55-0.91-1.12-1.81-1.69-2.7l-0.06-0.1c-0.59-0.92-1.19-1.83-1.8-2.74l-0.07-0.1c-0.6-0.89-1.21-1.77-1.84-2.65l-0.04-0.06
		l-0.01-0.02l-0.01-0.01c-0.63-0.88-1.26-1.75-1.91-2.62l-0.09-0.12c-0.63-0.84-1.27-1.67-1.92-2.5l-0.17-0.22
		c-0.65-0.83-1.31-1.65-1.98-2.46l-0.13-0.16c-0.66-0.8-1.33-1.59-2.01-2.38l-0.2-0.23c-0.66-0.76-1.33-1.52-2.01-2.26l-0.26-0.29
		c-0.67-0.74-1.35-1.47-2.04-2.19l-0.27-0.29c-0.68-0.71-1.37-1.42-2.07-2.12l-0.32-0.32c-0.75-0.74-1.5-1.48-2.26-2.21l0,0
		l-0.02-0.02l-0.02-0.02l-0.01-0.01C53.41,233.74,51.51,232.04,49.57,230.38"/>
</g>
<g id="M_CIRCLES" class="st0">
</g>
<g id="S_CIRCLES" class="st0">
</g>
<g id="TEXT">
	<linearGradient id="SVGID_1_" gradientUnits="userSpaceOnUse" x1="-1023.1973" y1="919.7803" x2="2415.5952" y2="-671.8893">
		<stop  offset="0" style="stop-color:#1E8CC3;stop-opacity:0.94"/>
		<stop  offset="1" style="stop-color:#874BA0"/>
	</linearGradient>
	<path class="st5" d="M5,40.34V10.92h153.08v29.42H98.72v183.28H64.36V40.34H5z M166.41,223.61V73.4h31.76v16.14
		c3.29-5.55,8.03-10.41,14.19-14.58c6.16-4.17,13.49-6.25,22-6.25c7.98,0,14.49,1.13,19.53,3.38v29.94
		c-6.6-2.08-13.11-3.12-19.53-3.12c-11.28,0-19.92,4.38-25.9,13.15c-5.99,8.77-8.98,20.44-8.98,35.02v76.54H166.41z M269.24,169.2
		V73.4h33.06v91.64c0,23.43,8.24,35.15,24.73,35.15c9.89,0,17.61-4.21,23.17-12.63c5.55-8.42,8.33-18.44,8.33-30.07V73.4h32.8
		v150.22h-31.76v-17.44h-0.26c-2.43,5.38-7.07,10.41-13.93,15.1c-6.86,4.69-15.4,7.03-25.64,7.03c-6.08,0-11.85-0.91-17.31-2.73
		c-5.47-1.82-10.8-4.77-16.01-8.85c-5.21-4.08-9.37-10.19-12.5-18.35C270.81,190.21,269.24,180.49,269.24,169.2z M416.08,192.37
		l23.69-13.8c10.41,15.27,23.95,22.91,40.61,22.91c8.15,0,14.62-1.6,19.39-4.82c4.77-3.21,7.16-7.5,7.16-12.89
		c0-4.34-1.95-8.16-5.86-11.45c-3.91-3.3-8.03-5.77-12.37-7.42c-4.34-1.65-10.85-3.86-19.53-6.64c-1.56-0.52-2.69-0.87-3.38-1.04
		c-6.25-2.08-11.5-4.12-15.75-6.12c-4.25-1.99-8.72-4.69-13.41-8.07c-4.69-3.38-8.25-7.64-10.67-12.76
		c-2.43-5.12-3.64-11.06-3.64-17.83c0-13.19,5.55-23.78,16.66-31.76c11.1-7.98,24.9-11.98,41.39-11.98
		c12.32,0,23.95,3.25,34.89,9.76c10.93,6.51,19.09,14.8,24.47,24.86l-21.87,13.28c-10.24-14.06-22.65-21.09-37.23-21.09
		c-7.99,0-14.1,1.61-18.35,4.82c-4.25,3.21-6.38,7.42-6.38,12.63c0,4.34,1.86,8.2,5.6,11.59c3.73,3.38,7.59,5.86,11.59,7.42
		c3.99,1.56,9.63,3.56,16.92,5.99c1.91,0.52,3.29,0.96,4.17,1.3c30.89,9.89,46.34,24.82,46.34,44.78c0,12.33-5.17,22.78-15.49,31.37
		c-10.33,8.59-24.95,12.89-43.87,12.89c-14.58,0-27.56-3.21-38.92-9.63C430.87,212.25,422.15,203.48,416.08,192.37z M553.02,79.13
		V51.01h23.17V10.92h32.8v40.09h34.36v28.12h-34.36v96.33c0,7.12,1.43,12.24,4.29,15.36c2.86,3.12,7.24,4.69,13.15,4.69h17.18v28.12
		h-21.35c-30.72,0-46.08-15.27-46.08-45.82V79.13H553.02z M672.25,223.61V10.92h32.8v212.7H672.25z M780.81,47.1V10.92h-35.41V47.1
		H780.81z M779.51,223.61V69.49h-32.54v154.12H779.51z M818.56,223.61V73.4h32.02v19h0.26c2.6-5.55,7.42-10.89,14.45-16.01
		c7.03-5.12,16.1-7.68,27.21-7.68c14.92,0,26.82,4.6,35.67,13.8c8.85,9.2,13.28,24.04,13.28,44.52v96.59h-33.06v-92.16
		c0-23.08-7.81-34.63-23.43-34.63c-9.55,0-17.49,3.82-23.82,11.45c-6.34,7.64-9.5,17.1-9.5,28.38v86.95H818.56z M966.7,147.86
		c0-24.12,6.64-43.35,19.92-57.67s29.98-21.48,50.12-21.48c19.79,0,36.1,7.2,48.94,21.61c12.84,14.41,19.27,33.15,19.27,56.23
		c0,4.52-0.26,8.94-0.78,13.28h-104.14c0,11.45,3.42,21.31,10.28,29.55c6.86,8.25,16.27,12.37,28.25,12.37
		c8.33,0,15.66-2.04,22-6.12c6.33-4.08,11.15-9.33,14.45-15.75l27.6,9.37c-4.86,11.11-12.76,20.4-23.69,27.86
		c-10.93,7.46-24.56,11.19-40.87,11.19c-21,0-38.14-7.29-51.42-21.87C973.33,191.85,966.7,172.33,966.7,147.86z M1000.54,136.66
		h70.81c0-11.45-3.04-21.22-9.11-29.29c-6.08-8.07-14.58-12.11-25.51-12.11c-10.93,0-19.66,4.12-26.17,12.37
		C1004.05,115.88,1000.71,125.56,1000.54,136.66z M1120.56,192.37l23.69-13.8c10.41,15.27,23.95,22.91,40.61,22.91
		c8.15,0,14.62-1.6,19.39-4.82c4.77-3.21,7.16-7.5,7.16-12.89c0-4.34-1.95-8.16-5.86-11.45c-3.91-3.3-8.03-5.77-12.37-7.42
		c-4.34-1.65-10.85-3.86-19.53-6.64c-1.56-0.52-2.69-0.87-3.38-1.04c-6.25-2.08-11.5-4.12-15.75-6.12
		c-4.25-1.99-8.72-4.69-13.41-8.07c-4.69-3.38-8.25-7.64-10.67-12.76c-2.43-5.12-3.64-11.06-3.64-17.83
		c0-13.19,5.55-23.78,16.66-31.76c11.1-7.98,24.9-11.98,41.39-11.98c12.32,0,23.95,3.25,34.89,9.76s19.09,14.8,24.47,24.86
		l-21.87,13.28c-10.24-14.06-22.65-21.09-37.23-21.09c-7.99,0-14.1,1.61-18.35,4.82c-4.25,3.21-6.38,7.42-6.38,12.63
		c0,4.34,1.86,8.2,5.6,11.59c3.73,3.38,7.59,5.86,11.59,7.42c3.99,1.56,9.63,3.56,16.92,5.99c1.91,0.52,3.29,0.96,4.17,1.3
		c30.89,9.89,46.34,24.82,46.34,44.78c0,12.33-5.17,22.78-15.49,31.37c-10.33,8.59-24.95,12.89-43.87,12.89
		c-14.58,0-27.56-3.21-38.92-9.63C1135.35,212.25,1126.63,203.48,1120.56,192.37z M5,40.34V10.92h153.08v29.42H98.72v183.28H64.36
		V40.34H5z M166.41,223.61V73.4h31.76v16.14c3.29-5.55,8.03-10.41,14.19-14.58c6.16-4.17,13.49-6.25,22-6.25
		c7.98,0,14.49,1.13,19.53,3.38v29.94c-6.6-2.08-13.11-3.12-19.53-3.12c-11.28,0-19.92,4.38-25.9,13.15
		c-5.99,8.77-8.98,20.44-8.98,35.02v76.54H166.41z M269.24,169.2V73.4h33.06v91.64c0,23.43,8.24,35.15,24.73,35.15
		c9.89,0,17.61-4.21,23.17-12.63c5.55-8.42,8.33-18.44,8.33-30.07V73.4h32.8v150.22h-31.76v-17.44h-0.26
		c-2.43,5.38-7.07,10.41-13.93,15.1c-6.86,4.69-15.4,7.03-25.64,7.03c-6.08,0-11.85-0.91-17.31-2.73
		c-5.47-1.82-10.8-4.77-16.01-8.85c-5.21-4.08-9.37-10.19-12.5-18.35C270.81,190.21,269.24,180.49,269.24,169.2z M416.08,192.37
		l23.69-13.8c10.41,15.27,23.95,22.91,40.61,22.91c8.15,0,14.62-1.6,19.39-4.82c4.77-3.21,7.16-7.5,7.16-12.89
		c0-4.34-1.95-8.16-5.86-11.45c-3.91-3.3-8.03-5.77-12.37-7.42c-4.34-1.65-10.85-3.86-19.53-6.64c-1.56-0.52-2.69-0.87-3.38-1.04
		c-6.25-2.08-11.5-4.12-15.75-6.12c-4.25-1.99-8.72-4.69-13.41-8.07c-4.69-3.38-8.25-7.64-10.67-12.76
		c-2.43-5.12-3.64-11.06-3.64-17.83c0-13.19,5.55-23.78,16.66-31.76c11.1-7.98,24.9-11.98,41.39-11.98
		c12.32,0,23.95,3.25,34.89,9.76c10.93,6.51,19.09,14.8,24.47,24.86l-21.87,13.28c-10.24-14.06-22.65-21.09-37.23-21.09
		c-7.99,0-14.1,1.61-18.35,4.82c-4.25,3.21-6.38,7.42-6.38,12.63c0,4.34,1.86,8.2,5.6,11.59c3.73,3.38,7.59,5.86,11.59,7.42
		c3.99,1.56,9.63,3.56,16.92,5.99c1.91,0.52,3.29,0.96,4.17,1.3c30.89,9.89,46.34,24.82,46.34,44.78c0,12.33-5.17,22.78-15.49,31.37
		c-10.33,8.59-24.95,12.89-43.87,12.89c-14.58,0-27.56-3.21-38.92-9.63C430.87,212.25,422.15,203.48,416.08,192.37z M553.02,79.13
		V51.01h23.17V10.92h32.8v40.09h34.36v28.12h-34.36v96.33c0,7.12,1.43,12.24,4.29,15.36c2.86,3.12,7.24,4.69,13.15,4.69h17.18v28.12
		h-21.35c-30.72,0-46.08-15.27-46.08-45.82V79.13H553.02z M672.25,223.61V10.92h32.8v212.7H672.25z M780.81,47.1V10.92h-35.41V47.1
		H780.81z M779.51,223.61V69.49h-32.54v154.12H779.51z M818.56,223.61V73.4h32.02v19h0.26c2.6-5.55,7.42-10.89,14.45-16.01
		c7.03-5.12,16.1-7.68,27.21-7.68c14.92,0,26.82,4.6,35.67,13.8c8.85,9.2,13.28,24.04,13.28,44.52v96.59h-33.06v-92.16
		c0-23.08-7.81-34.63-23.43-34.63c-9.55,0-17.49,3.82-23.82,11.45c-6.34,7.64-9.5,17.1-9.5,28.38v86.95H818.56z M966.7,147.86
		c0-24.12,6.64-43.35,19.92-57.67s29.98-21.48,50.12-21.48c19.79,0,36.1,7.2,48.94,21.61c12.84,14.41,19.27,33.15,19.27,56.23
		c0,4.52-0.26,8.94-0.78,13.28h-104.14c0,11.45,3.42,21.31,10.28,29.55c6.86,8.25,16.27,12.37,28.25,12.37
		c8.33,0,15.66-2.04,22-6.12c6.33-4.08,11.15-9.33,14.45-15.75l27.6,9.37c-4.86,11.11-12.76,20.4-23.69,27.86
		c-10.93,7.46-24.56,11.19-40.87,11.19c-21,0-38.14-7.29-51.42-21.87C973.33,191.85,966.7,172.33,966.7,147.86z M1000.54,136.66
		h70.81c0-11.45-3.04-21.22-9.11-29.29c-6.08-8.07-14.58-12.11-25.51-12.11c-10.93,0-19.66,4.12-26.17,12.37
		C1004.05,115.88,1000.71,125.56,1000.54,136.66z M1120.56,192.37l23.69-13.8c10.41,15.27,23.95,22.91,40.61,22.91
		c8.15,0,14.62-1.6,19.39-4.82c4.77-3.21,7.16-7.5,7.16-12.89c0-4.34-1.95-8.16-5.86-11.45c-3.91-3.3-8.03-5.77-12.37-7.42
		c-4.34-1.65-10.85-3.86-19.53-6.64c-1.56-0.52-2.69-0.87-3.38-1.04c-6.25-2.08-11.5-4.12-15.75-6.12
		c-4.25-1.99-8.72-4.69-13.41-8.07c-4.69-3.38-8.25-7.64-10.67-12.76c-2.43-5.12-3.64-11.06-3.64-17.83
		c0-13.19,5.55-23.78,16.66-31.76c11.1-7.98,24.9-11.98,41.39-11.98c12.32,0,23.95,3.25,34.89,9.76s19.09,14.8,24.47,24.86
		l-21.87,13.28c-10.24-14.06-22.65-21.09-37.23-21.09c-7.99,0-14.1,1.61-18.35,4.82c-4.25,3.21-6.38,7.42-6.38,12.63
		c0,4.34,1.86,8.2,5.6,11.59c3.73,3.38,7.59,5.86,11.59,7.42c3.99,1.56,9.63,3.56,16.92,5.99c1.91,0.52,3.29,0.96,4.17,1.3
		c30.89,9.89,46.34,24.82,46.34,44.78c0,12.33-5.17,22.78-15.49,31.37c-10.33,8.59-24.95,12.89-43.87,12.89
		c-14.58,0-27.56-3.21-38.92-9.63C1135.35,212.25,1126.63,203.48,1120.56,192.37z M186.69,386.98V296.3h35.01
		c9.26,0,16.51,2.49,21.76,7.47c5.25,4.98,7.88,11.59,7.88,19.84c0,8.48-2.68,15.17-8.05,20.07c-5.37,4.9-12.49,7.35-21.36,7.35H200
		v35.94H186.69z M200,339.72h19.96c5.6,0,9.94-1.36,13.01-4.08c3.07-2.72,4.61-6.73,4.61-12.02c0-5.21-1.52-9.16-4.55-11.85
		c-3.03-2.68-7.43-4.03-13.19-4.03H200V339.72z M302.37,386.98V296.3h36.3c9.18,0,16.24,2.43,21.18,7.29
		c4.94,4.86,7.41,10.91,7.41,18.15c0,6.22-1.48,11.32-4.43,15.29c-2.96,3.97-6.26,6.57-9.92,7.82c3.03,1.95,5.21,4.08,6.54,6.42
		c1.32,2.33,2.45,5.76,3.38,10.27c1.01,4.82,2.18,9.1,3.5,12.84c1.32,3.73,3.34,7.94,6.07,12.6h-14.94
		c-3.42-5.76-6.3-13.93-8.64-24.51c-0.86-4.12-2.2-7.27-4.03-9.45c-1.83-2.18-4.69-3.27-8.58-3.27h-20.54v37.23H302.37z
		 M315.68,338.43h20.89c5.44,0,9.63-1.38,12.54-4.14c2.92-2.76,4.38-6.59,4.38-11.49c0-4.51-1.52-8.15-4.55-10.91
		c-3.03-2.76-7.35-4.14-12.95-4.14h-20.31V338.43z M414.66,341.7c0-14.24,3.52-25.71,10.56-34.43c7.04-8.71,16.4-13.07,28.07-13.07
		s20.99,4.36,27.95,13.07c6.96,8.72,10.45,20.23,10.45,34.54c0,14.39-3.5,25.87-10.5,34.43c-7,8.56-16.3,12.84-27.89,12.84
		c-11.67,0-21.03-4.3-28.07-12.9C418.18,367.59,414.66,356.1,414.66,341.7z M428.55,341.7c0,11.05,2.2,19.8,6.59,26.26
		c4.4,6.46,10.45,9.69,18.15,9.69c7.62,0,13.63-3.19,18.03-9.57c4.4-6.38,6.59-15.13,6.59-26.26c0-10.97-2.16-19.74-6.48-26.32
		c-4.32-6.57-10.37-9.86-18.15-9.86c-7.7,0-13.75,3.25-18.15,9.74C430.75,321.88,428.55,330.65,428.55,341.7z M531.51,307.74V296.3
		h66.64v11.44h-26.61v79.24h-13.3v-79.24H531.51z M638.67,341.7c0-14.24,3.52-25.71,10.56-34.43c7.04-8.71,16.4-13.07,28.07-13.07
		c11.67,0,20.99,4.36,27.95,13.07c6.96,8.72,10.45,20.23,10.45,34.54c0,14.39-3.5,25.87-10.5,34.43c-7,8.56-16.3,12.84-27.89,12.84
		c-11.67,0-21.03-4.3-28.07-12.9C642.19,367.59,638.67,356.1,638.67,341.7z M652.55,341.7c0,11.05,2.2,19.8,6.59,26.26
		c4.4,6.46,10.45,9.69,18.15,9.69c7.62,0,13.63-3.19,18.03-9.57c4.4-6.38,6.59-15.13,6.59-26.26c0-10.97-2.16-19.74-6.48-26.32
		c-4.32-6.57-10.37-9.86-18.15-9.86c-7.7,0-13.75,3.25-18.15,9.74C654.75,321.88,652.55,330.65,652.55,341.7z M762.05,341.7
		c0-14.63,3.69-26.2,11.09-34.72c7.39-8.52,16.96-12.78,28.71-12.78c7.55,0,13.96,2.06,19.26,6.19c5.29,4.12,9.22,9.14,11.79,15.05
		l-11.44,3.85c-5.13-9.1-11.75-13.65-19.84-13.65c-7.86,0-14.12,3.29-18.79,9.86c-4.67,6.57-7,15.31-7,26.2
		c0,11.05,2.37,19.8,7.12,26.26c4.74,6.46,10.97,9.69,18.67,9.69c5.06,0,9.47-1.48,13.25-4.43c3.77-2.96,6.55-6.57,8.35-10.85
		l12.02,3.73c-1.17,2.8-2.65,5.43-4.43,7.88c-1.79,2.45-4.01,4.88-6.65,7.29c-2.65,2.41-5.89,4.32-9.75,5.72
		c-3.85,1.4-8.03,2.1-12.54,2.1c-11.52,0-21.03-4.2-28.54-12.6C765.8,368.08,762.05,356.48,762.05,341.7z M879.12,341.7
		c0-14.24,3.52-25.71,10.56-34.43c7.04-8.71,16.4-13.07,28.07-13.07c11.67,0,20.99,4.36,27.95,13.07
		c6.96,8.72,10.45,20.23,10.45,34.54c0,14.39-3.5,25.87-10.5,34.43c-7,8.56-16.3,12.84-27.89,12.84c-11.67,0-21.03-4.3-28.07-12.9
		C882.64,367.59,879.12,356.1,879.12,341.7z M893.01,341.7c0,11.05,2.2,19.8,6.59,26.26c4.4,6.46,10.45,9.69,18.15,9.69
		c7.62,0,13.63-3.19,18.03-9.57c4.4-6.38,6.59-15.13,6.59-26.26c0-10.97-2.16-19.74-6.48-26.32c-4.32-6.57-10.37-9.86-18.15-9.86
		c-7.7,0-13.75,3.25-18.15,9.74C895.21,321.88,893.01,330.65,893.01,341.7z M1008.22,386.98V296.3h13.3v79.24h41.78v11.44H1008.22z"
		/>
</g>
<g id="OUTLINE" class="st0">
</g>
<g id="INLINE" class="st0">
</g>
<g id="HORSE" class="st0">
</g>
<g id="ALL">
</g>
<g id="Layer_9">
</g>
<g id="Layer_10">
</g>
</svg>
