<?xml version="1.0" encoding="utf-8"?>
<!-- Generator: Adobe Illustrator 23.0.4, SVG Export Plug-In . SVG Version: 6.00 Build 0)  -->
<svg version="1.1" xmlns="http://www.w3.org/2000/svg" xmlns:xlink="http://www.w3.org/1999/xlink" x="0px" y="0px"
	 viewBox="0 0 2150 850" style="enable-background:new 0 0 2150 850;" xml:space="preserve">
<style type="text/css">
	.st0{display:none;}
	.st1{display:inline;fill-rule:evenodd;clip-rule:evenodd;fill:none;stroke:#E80A89;stroke-miterlimit:10;}
	.st2{display:inline;fill-rule:evenodd;clip-rule:evenodd;fill:none;stroke:#60C6D1;stroke-miterlimit:10;}
	.st3{display:inline;fill:#231F20;}
	.st4{display:inline;fill-rule:evenodd;clip-rule:evenodd;fill:none;stroke:#46B449;stroke-miterlimit:10;}
	.st5{fill:url(#SVGID_1_);}
	.st6{fill:#FFFFFF;}
	.st7{fill:#1E8CC3;}
	.st8{fill:url(#SVGID_2_);}
	.st9{display:inline;fill:none;stroke:#221F1F;stroke-width:8;stroke-miterlimit:10;}
	.st10{display:inline;fill-rule:evenodd;clip-rule:evenodd;fill:none;stroke:#221F1F;stroke-width:8;stroke-miterlimit:10;}
	.st11{display:inline;}
	.st12{fill:#221F1F;}
	.st13{display:inline;fill-rule:evenodd;clip-rule:evenodd;fill:#00A04A;}
	.st14{fill:url(#SVGID_3_);}
	.st15{fill:url(#SVGID_4_);}
	.st16{fill:url(#SVGID_5_);}
</style>
<g id="L_CIRCLES" class="st0">
</g>
<g id="M_CIRCLES" class="st0">
</g>
<g id="S_CIRCLES" class="st0">
</g>
<g id="TEXT">
	<linearGradient id="SVGID_1_" gradientUnits="userSpaceOnUse" x1="-291.4323" y1="1363.4185" x2="2794.4619" y2="-898.069">
		<stop  offset="0" style="stop-color:#1E8CC3;stop-opacity:0.94"/>
		<stop  offset="1" style="stop-color:#874BA0"/>
	</linearGradient>
	<path class="st5" d="M787.05,437.72c0,3.34-0.04,6.65-0.12,9.82c-0.09,3.35-0.21,6.63-0.37,9.76c-0.16,3.18-0.36,6.44-0.61,9.7
		c-0.23,3.08-0.51,6.23-0.85,9.63c-0.34,3.36-0.7,6.49-1.09,9.56c-0.44,3.43-0.88,6.53-1.33,9.45c0,0.01,0,0.03-0.01,0.04
		c-0.46,3.03-0.98,6.19-1.55,9.41c-0.57,3.18-1.17,6.3-1.78,9.28c0,0.02-0.01,0.03-0.01,0.05c-0.61,2.99-1.29,6.1-2.01,9.25
		c-0.76,3.29-1.49,6.29-2.24,9.17c-0.78,3.03-1.61,6.09-2.45,9.07c-0.83,2.91-1.73,5.93-2.67,8.99c-0.9,2.89-1.87,5.88-2.89,8.89
		c-1.01,2.97-2.05,5.93-3.1,8.8c-1.08,2.94-2.19,5.87-3.31,8.69c-2.23,5.65-4.65,11.37-7.19,16.99c-0.01,0.03-0.02,0.06-0.04,0.09
		c-2.47,5.47-5.15,11.04-7.97,16.56c-0.01,0.03-0.03,0.06-0.04,0.09c-5.57,10.87-11.74,21.59-18.33,31.87
		c-8.2,12.78-17.27,25.22-26.96,36.97c-1.91,2.32-3.9,4.67-5.91,6.97c-3.96,4.57-8.09,9.12-12.28,13.52
		c-1.92,2.02-4.01,4.16-6.38,6.53c-2.13,2.12-4.33,4.27-6.54,6.39c-2.34,2.23-4.5,4.23-6.59,6.13c-0.03,0.03-0.06,0.06-0.09,0.09
		c-2.3,2.09-4.6,4.13-6.83,6.06c-0.02,0.02-0.04,0.04-0.06,0.05c-11.42,9.9-23.61,19.25-36.23,27.77c-2.62,1.77-5.2,3.47-7.66,5.04
		c-10.28,6.59-21,12.76-31.88,18.33c-5.47,2.8-11.07,5.5-16.65,8.02c-2.46,1.12-5.08,2.27-8.48,3.72c-3.04,1.29-5.85,2.43-8.6,3.51
		c-2.65,1.05-5.5,2.13-8.69,3.3c-3,1.09-5.96,2.13-8.8,3.1c-2.97,1-5.97,1.98-8.89,2.89c-3.24,1-6.18,1.87-8.99,2.67
		c-3.06,0.87-6.11,1.7-9.07,2.46c-3.23,0.83-6.23,1.56-9.17,2.23c-2.74,0.64-5.68,1.28-9.25,2.02c-2.84,0.58-5.89,1.17-9.33,1.79
		c-3.1,0.55-6.26,1.08-9.41,1.56c-0.01,0-0.03,0-0.04,0.01c-2.97,0.45-6.06,0.89-9.45,1.33c-3.51,0.44-6.63,0.79-9.56,1.09
		c-3.31,0.33-6.55,0.62-9.63,0.86c-3.46,0.26-6.63,0.46-9.7,0.61c-3.18,0.16-6.47,0.29-9.76,0.37c-3.16,0.08-6.47,0.12-9.82,0.12
		c-3.37,0-6.67-0.04-9.82-0.12c-3.28-0.09-6.57-0.21-9.77-0.37c-3.07-0.15-6.24-0.35-9.69-0.61c-3.1-0.24-6.34-0.52-9.63-0.86
		c-2.94-0.3-6.07-0.66-9.56-1.09c-3.4-0.44-6.5-0.88-9.49-1.33c-3.1-0.48-6.27-1-9.41-1.56c-3.45-0.62-6.5-1.21-9.34-1.79
		c-3.2-0.65-6.32-1.33-9.25-2.02c-2.92-0.67-6-1.42-9.16-2.23c-2.98-0.77-6.03-1.6-9.08-2.47c-2.84-0.8-5.75-1.67-8.91-2.64
		c-0.03-0.01-0.06-0.02-0.08-0.02c-2.94-0.92-5.93-1.89-8.89-2.89c-2.86-0.97-5.82-2.01-8.79-3.1c-3.22-1.18-6.06-2.27-8.7-3.31
		c-2.75-1.08-5.56-2.23-8.59-3.51c-3.41-1.45-6.03-2.6-8.49-3.72c-2.82-1.27-5.64-2.59-8.37-3.91c-0.04-0.02-0.08-0.04-0.12-0.07
		c-2.7-1.3-5.44-2.66-8.14-4.05c-5.24-2.67-10.68-5.63-16.18-8.78c-0.04-0.02-0.08-0.05-0.12-0.08c-5.34-3.07-10.56-6.25-15.52-9.43
		c-0.02-0.01-0.04-0.03-0.06-0.04c-12.8-8.2-25.24-17.27-36.97-26.96c-2.39-1.97-4.74-3.96-6.98-5.9
		c-11.45-9.91-22.44-20.64-32.66-31.88c-0.03-0.03-0.05-0.06-0.08-0.09c-2.01-2.22-4.02-4.48-5.98-6.74
		c-11.94-13.77-22.99-28.56-32.86-43.95c-1.65-2.57-3.28-5.19-4.86-7.78c-0.02-0.03-0.03-0.05-0.04-0.08
		c-4.75-7.83-9.27-15.91-13.42-24.01c-0.02-0.03-0.03-0.06-0.04-0.09c-2.8-5.46-5.48-11.03-7.98-16.56
		c-0.01-0.03-0.03-0.06-0.04-0.09c-2.57-5.7-4.99-11.41-7.19-16.99c-1.12-2.85-2.23-5.77-3.31-8.69c-1.07-2.93-2.11-5.89-3.1-8.8
		c-1.07-3.17-2.01-6.08-2.89-8.89c-0.96-3.09-1.85-6.11-2.67-8.99c-0.8-2.83-1.61-5.79-2.46-9.07c-0.83-3.25-1.56-6.25-2.24-9.18
		c-0.73-3.16-1.41-6.27-2.01-9.24c0-0.02-0.01-0.03-0.01-0.05c-0.61-2.96-1.21-6.08-1.78-9.28c-0.54-2.98-1.05-6.06-1.56-9.41
		c0-0.02-0.01-0.03-0.01-0.05c-0.45-2.99-0.89-6.08-1.32-9.44c-0.39-3.05-0.75-6.27-1.09-9.56c-0.32-3.17-0.61-6.42-0.86-9.63
		c-0.26-3.42-0.46-6.6-0.61-9.7c-0.16-3.2-0.29-6.49-0.37-9.76c-0.08-3.12-0.12-6.33-0.12-9.83c0-3.5,0.04-6.71,0.12-9.83
		c0.09-3.27,0.21-6.55,0.38-9.76c0.15-3.08,0.36-6.35,0.61-9.7c0.25-3.24,0.54-6.49,0.86-9.63c0.33-3.29,0.7-6.5,1.09-9.56
		c0.44-3.39,0.87-6.48,1.32-9.44c0-0.01,0-0.03,0.01-0.04c0.49-3.22,1.02-6.39,1.56-9.42c0.57-3.17,1.17-6.31,1.79-9.33
		c0.62-3.02,1.29-6.13,2.01-9.25c0.68-2.95,1.41-5.95,2.23-9.16c0.84-3.26,1.65-6.23,2.46-9.08c0.82-2.88,1.72-5.91,2.67-8.99
		c0.88-2.83,1.85-5.82,2.89-8.89c0.99-2.91,2.03-5.87,3.1-8.8c1.06-2.89,2.17-5.82,3.31-8.7c1.07-2.72,2.22-5.53,3.51-8.59
		c0.01-0.03,0.03-0.07,0.05-0.1c1.17-2.77,2.41-5.59,3.67-8.39c1.29-2.85,2.61-5.67,3.91-8.38c1.29-2.68,2.67-5.47,4.11-8.27
		c2.76-5.4,5.72-10.85,8.79-16.18c1.45-2.53,3.02-5.17,4.64-7.85c0.01-0.02,0.02-0.04,0.04-0.06c1.55-2.56,3.19-5.18,4.86-7.78
		c8.2-12.79,17.27-25.23,26.96-36.97c0.02-0.02,0.04-0.05,0.06-0.07c2.09-2.53,4-4.79,5.84-6.91c2.04-2.35,4.08-4.65,6.06-6.84
		c8.18-8.99,16.87-17.68,25.83-25.83c2.3-2.08,4.6-4.12,6.84-6.06c2.17-1.88,4.45-3.81,6.98-5.9c11.76-9.7,24.19-18.77,36.97-26.96
		c0.02-0.01,0.04-0.03,0.06-0.04c2.46-1.58,5.05-3.2,7.72-4.82c0.02-0.01,0.04-0.03,0.06-0.04c2.66-1.61,5.3-3.17,7.85-4.64
		c5.43-3.12,10.87-6.08,16.18-8.8c2.63-1.35,5.41-2.73,8.26-4.1c2.68-1.3,5.5-2.61,8.37-3.91c2.78-1.26,5.61-2.49,8.4-3.67
		c0.03-0.02,0.06-0.03,0.09-0.04c2.73-1.16,5.54-2.3,8.59-3.51c3.04-1.19,5.88-2.27,8.7-3.31c2.84-1.04,5.8-2.08,8.79-3.1
		c3.22-1.08,6.12-2.03,8.89-2.89c0.03-0.01,0.06-0.02,0.08-0.02c3.1-0.96,6.02-1.83,8.91-2.65c2.95-0.84,6-1.66,9.07-2.46
		c3.08-0.79,6.16-1.55,9.16-2.24c3.01-0.7,6.12-1.37,9.25-2.01c3.02-0.62,6.16-1.22,9.33-1.79c2.84-0.51,5.92-1.02,9.41-1.56
		c3.16-0.48,6.35-0.93,9.49-1.33c3.2-0.4,6.42-0.77,9.56-1.09c3.33-0.34,6.57-0.63,9.64-0.86c3.28-0.25,6.54-0.46,9.69-0.61
		c3.14-0.16,6.43-0.29,9.77-0.37c3.14-0.08,6.35-0.12,9.82-0.12c9.78,0,19.63,0.37,29.26,1.11c3.77,0.3,6.79,0.57,9.56,0.85
		l0.21,0.02c3.02,0.3,6.18,0.66,9.38,1.06c0.02,0,0.17,0.03,0.19,0.03c3.14,0.4,6.26,0.84,9.2,1.29l0.31,0.05
		c3.04,0.46,6.1,0.97,9.12,1.51l0.28,0.05c3.39,0.61,6.34,1.18,9.02,1.73l0.32,0.06c3.19,0.66,6.13,1.3,8.98,1.96l0.24,0.06
		c6.82,1.58,13.93,3.45,21.12,5.55c0.55,0.16,0.96,0.63,1.04,1.19c0.08,0.57-0.17,1.13-0.65,1.45c-9.68,6.36-15.03,5.15-25.68,2.73
		c-26.75-6.06-54.29-9.12-81.91-9.12c-98.58,0-191.27,38.4-260.99,108.12S37.25,339.14,37.25,437.72
		c0,98.58,38.4,191.26,108.12,260.99s162.41,108.12,260.99,108.12c98.58,0,191.26-38.4,260.99-108.12
		c69.72-69.72,108.12-162.41,108.12-260.99c0-51.42-10.38-101.19-30.84-147.91c-19.77-45.14-47.97-85.33-83.82-119.46l-1.62-1.53
		c-6.26-5.88-9.11-8.56-8.03-19.59c0.05-0.55,0.41-1.02,0.91-1.22c0.51-0.2,1.09-0.11,1.51,0.25c5.38,4.6,10.55,9.26,15.36,13.84
		c0.03,0.03,0.08,0.08,0.11,0.11c2.09,1.99,4.13,3.98,6.15,5.99l0.87,0.87c1.88,1.89,3.74,3.8,5.58,5.72l0.74,0.78
		c1.86,1.96,3.7,3.93,5.52,5.92l0.7,0.77c1.83,2.02,3.64,4.06,5.43,6.12l0.55,0.64c1.83,2.12,3.65,4.26,5.44,6.43l0.35,0.42
		c1.81,2.2,3.59,4.42,5.36,6.65l0.47,0.6c1.74,2.23,3.47,4.47,5.17,6.74l0.25,0.33c1.74,2.33,3.44,4.67,5.13,7.04
		c0.04,0.05,0.08,0.1,0.11,0.15l0.1,0.14c1.54,2.16,3.16,4.5,4.96,7.14l0.19,0.28c1.65,2.44,3.27,4.91,4.87,7.39l0.17,0.27
		c1.54,2.41,3.06,4.85,4.56,7.3l0.36,0.59c1.46,2.41,2.9,4.84,4.31,7.29l0.38,0.65c1.39,2.42,2.74,4.85,4.07,7.29l0.45,0.81
		c1.33,2.45,2.62,4.91,3.9,7.38l0.4,0.78c1.27,2.46,2.49,4.95,3.71,7.45l0.42,0.86c1.19,2.49,2.36,4.98,3.49,7.49l0.42,0.93
		c1.12,2.48,2.21,4.98,3.28,7.49l0.46,1.1c1.02,2.41,2.06,4.95,3.09,7.55l0.41,1.02c1,2.54,1.97,5.09,2.91,7.65l0.41,1.12
		c0.92,2.54,1.82,5.1,2.7,7.66l0.4,1.19c0.81,2.39,1.64,4.94,2.53,7.78l0.34,1.1c0.81,2.61,1.6,5.25,2.35,7.88l0.33,1.14
		c0.75,2.66,1.47,5.32,2.16,8l0.27,1.05c0.69,2.69,1.35,5.38,1.97,8.08l0.26,1.16c0.62,2.7,1.21,5.4,1.77,8.12l0.23,1.16
		c0.56,2.74,1.09,5.49,1.59,8.25l0.18,1.05c0.49,2.78,0.96,5.57,1.39,8.38l0.16,1.03c0.42,2.77,0.82,5.65,1.19,8.53l0.11,0.88
		c0.36,2.9,0.7,5.81,1,8.73l0.07,0.77c0.32,3.19,0.57,6.11,0.79,8.93l0.04,0.61c0.24,3.2,0.43,6.19,0.58,9.12l0.03,0.51
		c0.16,3.05,0.27,6.19,0.35,9.33l0.01,0.26C787.01,431.2,787.05,434.44,787.05,437.72z M702.16,468.8l-5.54,58.71
		c0,0.05-0.03,0.09-0.03,0.14c-0.01,0.08,0,0.15-0.02,0.23c-0.04,0.21-0.11,0.4-0.17,0.59c-0.02,0.07-0.03,0.14-0.06,0.2
		c-0.13,0.33-0.29,0.63-0.48,0.91c-0.05,0.07-0.1,0.12-0.15,0.19c-0.16,0.21-0.34,0.41-0.54,0.58c-0.08,0.07-0.16,0.14-0.24,0.2
		c-0.24,0.18-0.49,0.34-0.75,0.48c-0.04,0.02-0.06,0.05-0.1,0.06l-57.01,26.18c-0.59,0.27-1.22,0.4-1.84,0.4
		c-1.37,0-2.71-0.64-3.56-1.81l-29.73-40.65l-210.5-38.12L367.02,720.1c0,0.05-0.02,0.09-0.03,0.13c0,0.02-0.01,0.04-0.01,0.06
		c-0.03,0.21-0.08,0.41-0.14,0.62c-0.02,0.08-0.04,0.17-0.07,0.25c-0.01,0.02-0.02,0.05-0.03,0.07c-0.07,0.19-0.16,0.37-0.26,0.54
		c-0.04,0.08-0.07,0.16-0.11,0.23c-0.01,0.02-0.03,0.03-0.04,0.05c-0.01,0.01-0.02,0.02-0.02,0.03c-0.02,0.03-0.03,0.07-0.06,0.1
		c-0.07,0.1-0.16,0.16-0.23,0.25c-0.08,0.1-0.15,0.21-0.24,0.3c-0.04,0.04-0.09,0.08-0.14,0.12c-0.13,0.13-0.28,0.23-0.43,0.34
		c-0.06,0.04-0.11,0.1-0.18,0.14c-0.04,0.03-0.07,0.06-0.12,0.09c-0.04,0.02-0.09,0.04-0.13,0.06c-0.09,0.05-0.17,0.1-0.26,0.14
		c-0.04,0.02-0.07,0.04-0.11,0.06c-0.14,0.06-0.28,0.09-0.41,0.13c-0.03,0.01-0.06,0.02-0.09,0.03c-0.15,0.05-0.3,0.09-0.45,0.12
		c-0.28,0.06-0.55,0.1-0.83,0.1c-0.01,0-0.01,0-0.02,0c-0.29,0-0.58-0.04-0.87-0.1c-0.02-0.01-0.05-0.01-0.07-0.02
		c0,0-0.01,0-0.01,0c-0.18-0.04-0.37-0.09-0.55-0.16c-0.04-0.02-0.09-0.02-0.13-0.04l-209.24-84.37c-1.12-0.45-2-1.34-2.45-2.46
		c-0.45-1.12-0.41-2.37,0.09-3.47l20.19-43.94l-56.66-39.78c-1.92-1.35-2.45-3.97-1.2-5.96l29.75-47.3l-46.45-63.55
		c-0.05-0.06-0.07-0.13-0.12-0.2c-0.01-0.02-0.02-0.03-0.04-0.05c-0.06-0.09-0.11-0.19-0.16-0.28c-0.08-0.15-0.15-0.3-0.21-0.45
		c0-0.01-0.01-0.02-0.01-0.02c-0.03-0.07-0.05-0.15-0.07-0.23c-0.06-0.19-0.12-0.38-0.15-0.58c0-0.01,0-0.01,0-0.02
		c-0.01-0.05-0.01-0.11-0.02-0.16c-0.03-0.22-0.05-0.44-0.05-0.66c0-0.01,0-0.01,0-0.02c0-0.03,0.01-0.07,0.01-0.1
		c0.01-0.19,0.01-0.37,0.04-0.56c0-0.02,0-0.03,0-0.05c0.01-0.07,0.03-0.15,0.06-0.26c0.01-0.05,0.03-0.1,0.04-0.16
		c0.02-0.08,0.05-0.18,0.08-0.28c0-0.01,0.01-0.02,0.01-0.03c2.75-9.13,33.21-87.25,42.76-111.68c0.62-1.59,2.11-2.68,3.81-2.79
		l46.24-3.15c8-20.78,15.45-40.05,16.11-41.75c0.62-1.6,2.11-2.7,3.83-2.81l56.71-3.65c11.62-25.44,21.6-46.97,21.73-47.25
		c0.68-1.47,2.12-2.45,3.73-2.55l49.02-2.96l16.75-42.17c0.03-0.06,0.07-0.12,0.1-0.18c0.01-0.03,0.02-0.06,0.04-0.08
		c0.05-0.1,0.08-0.2,0.13-0.29c0.05-0.08,0.11-0.15,0.16-0.23c0.06-0.09,0.12-0.18,0.18-0.26c0.05-0.07,0.1-0.14,0.15-0.21
		c0.07-0.08,0.16-0.15,0.24-0.23c0.02-0.02,0.04-0.04,0.06-0.06c0.07-0.07,0.14-0.15,0.22-0.21c0.04-0.04,0.08-0.07,0.12-0.11
		c0.01-0.01,0.02-0.02,0.02-0.02c0.12-0.09,0.24-0.15,0.36-0.22c0.04-0.03,0.08-0.06,0.13-0.08c0.06-0.04,0.11-0.08,0.18-0.11
		c0.01,0,0.02-0.01,0.03-0.02l0.06-0.03c0,0,0.01,0,0.01,0l44.85-22.35c1.17-0.59,2.55-0.62,3.75-0.09c1.2,0.53,2.1,1.57,2.46,2.84
		l21.38,75.86L649.74,32.65c1.66-1.43,4.11-1.42,5.76,0.01c1.65,1.43,2.01,3.86,0.83,5.7L498.15,286.39l202.54,178.69
		c0.01,0.01,0.01,0.01,0.02,0.02c0.24,0.21,0.46,0.46,0.65,0.72c0.05,0.07,0.09,0.16,0.14,0.23c0.1,0.16,0.21,0.31,0.29,0.49
		c0.02,0.04,0.03,0.08,0.04,0.12c0.05,0.11,0.08,0.23,0.12,0.34c0.07,0.2,0.12,0.4,0.16,0.6c0.02,0.11,0.03,0.23,0.04,0.34
		c0.02,0.22,0.03,0.43,0.02,0.65C702.16,468.67,702.17,468.73,702.16,468.8z M434.09,229.87l57.37,50.61L632.8,58.87L434.09,229.87z
		 M389.38,202.19l83.91,110.69c0.02,0.02,0.03,0.05,0.04,0.07c0.16,0.21,0.3,0.44,0.42,0.68c0.01,0.02,0.01,0.04,0.02,0.06
		c0.08,0.18,0.16,0.37,0.22,0.56l14.76,48.32l47.08-31.18L389.38,202.19z M485.41,375.37l-40.73,26.98l137.77,89.36L485.41,375.37z
		 M466.44,319.7l-31.33-2.49l42.28,38.3L466.44,319.7z M367.04,170.72l52.04,45.91l-17.75-63L367.04,170.72z M346.26,214.24
		l92.07,181.73l40.77-27l-59.51-53.91c-1.4-1.27-1.84-3.28-1.09-5.02c0.75-1.73,2.52-2.8,4.4-2.65l37.42,2.97l-99.9-131.78
		L346.26,214.24z M304.75,366.98l75.53,89.52l-39.73-221.91L304.75,366.98z M269.05,272.89l59.92-53.26l-36.47,2.2
		C289.29,228.76,279.56,249.84,269.05,272.89z M259.31,293.35C259.31,293.35,259.31,293.35,259.31,293.35l-27.8,24.71l65.71,42.98
		l36.09-133.47L259.31,293.35z M139.69,479.09l70.53-142.11l-105.71,93.97L139.69,479.09z M152.6,472.91l72.55-54.36l-4.39-82.95
		L152.6,472.91z M248.41,627.84l-22.43-198.89l-79.44,59.52L248.41,627.84z M233.64,412.19l58.56-43.88l-63.07-41.26L233.64,412.19z
		 M235.13,422.09l66.56,149.68l-5.95-195.09L235.13,422.09z M181.5,350.72l39.89-35.46c0,0,0.01-0.01,0.01-0.01l31.41-27.92
		c2.29-5.07,4.62-10.19,6.92-15.24l-49.18,3.17C202.13,297.05,189.18,330.64,181.5,350.72z M108.64,415.49l58.64-52.12
		c1.87-5.1,9.02-23.73,16.47-43.09l-39.35,2.68C132.59,353.17,116.95,393.48,108.64,415.49z M235.35,624.91l-88.28-120.78
		l-25.66,40.79L235.35,624.91z M328.69,701.22L176.91,594.67l-17.59,38.27L328.69,701.22z M352.13,706.91l-49.37-111.01
		c0-0.01-0.01-0.01-0.01-0.02L237,448l21.81,193.39L352.13,706.91z M381.35,489.26l-69.55,105.23l48.11,108.19L381.35,489.26z
		 M382.02,472.24l-77.34-91.66l6.09,199.47L382.02,472.24z M431.5,402.01l-80.45-158.78L390,460.76L431.5,402.01z M583.55,502.93
		l-145.76-94.54l-42.68,60.42L583.55,502.93z M592.59,490.11l-51.85-151.38l-47.94,31.75L592.59,490.11z M607.09,505.23l82.68-38.02
		L552.63,346.22L607.09,505.23z M677.65,528.94l-63.13-11.43l22.13,30.25L677.65,528.94z M692.67,475.59l-73.5,33.8l69.13,12.52
		L692.67,475.59z M932.49,263.82v185.02h34.69V263.82h59.92v-29.7H872.57v29.7H932.49z M1068.89,448.84v-77.27
		c0-14.72,3.02-26.5,9.07-35.35c6.04-8.85,14.76-13.27,26.15-13.27c6.48,0,13.05,1.05,19.71,3.15v-30.22
		c-5.08-2.28-11.65-3.42-19.71-3.42c-8.59,0-15.99,2.1-22.21,6.31c-6.22,4.2-11,9.11-14.32,14.72V297.2h-32.06v151.64H1068.89z
		 M1144.06,423.35c3.15,8.24,7.36,14.41,12.61,18.53c5.26,4.12,10.64,7.1,16.16,8.94c5.52,1.84,11.34,2.76,17.48,2.76
		c10.33,0,18.96-2.37,25.89-7.1c6.92-4.73,11.61-9.81,14.06-15.24h0.26v17.61h32.06V297.2h-33.11v84.89
		c0,11.74-2.81,21.86-8.41,30.35c-5.61,8.5-13.4,12.75-23.39,12.75c-16.65,0-24.97-11.83-24.97-35.48V297.2h-33.38v96.71
		C1139.33,405.3,1140.9,415.11,1144.06,423.35z M1313.96,443.85c11.47,6.48,24.57,9.72,39.29,9.72c19.09,0,33.86-4.34,44.28-13.01
		c10.42-8.67,15.64-19.23,15.64-31.67c0-20.15-15.6-35.22-46.78-45.2c-0.88-0.35-2.28-0.79-4.2-1.31
		c-7.36-2.45-13.06-4.47-17.08-6.04c-4.03-1.58-7.93-4.07-11.7-7.49c-3.77-3.42-5.65-7.31-5.65-11.7c0-5.26,2.14-9.5,6.44-12.75
		c4.29-3.24,10.47-4.86,18.53-4.86c14.72,0,27.24,7.1,37.58,21.29l22.08-13.4c-5.43-10.16-13.67-18.53-24.7-25.1
		c-11.04-6.57-22.78-9.86-35.22-9.86c-16.65,0-30.58,4.03-41.79,12.09c-11.22,8.06-16.82,18.75-16.82,32.06
		c0,6.83,1.22,12.84,3.68,18c2.45,5.17,6.04,9.46,10.78,12.88c4.73,3.42,9.24,6.13,13.53,8.15c4.29,2.02,9.59,4.07,15.9,6.18
		c0.7,0.18,1.84,0.53,3.42,1.05c8.76,2.8,15.33,5.04,19.71,6.7c4.38,1.67,8.54,4.16,12.48,7.49c3.94,3.33,5.91,7.19,5.91,11.56
		c0,5.43-2.41,9.77-7.23,13.01c-4.82,3.24-11.35,4.86-19.58,4.86c-16.82,0-30.49-7.71-41-23.13l-23.92,13.93
		C1293.68,428.52,1302.48,437.37,1313.96,443.85z M1449.18,302.98v99.61c0,30.84,15.51,46.25,46.52,46.25h21.55v-28.38h-17.35
		c-5.96,0-10.38-1.58-13.27-4.73c-2.89-3.15-4.34-8.32-4.34-15.51v-97.24h34.69V274.6h-34.69v-40.47h-33.11v40.47h-23.39v28.38
		H1449.18z M1579.27,448.84V234.12h-33.11v214.72H1579.27z M1655.75,270.65v-36.53H1620v36.53H1655.75z M1654.43,448.84V293.26
		h-32.85v155.58H1654.43z M1727.23,448.84v-87.78c0-11.39,3.19-20.93,9.59-28.65c6.39-7.71,14.41-11.56,24.05-11.56
		c15.77,0,23.65,11.65,23.65,34.95v93.03h33.38v-97.5c0-20.67-4.47-35.65-13.4-44.94c-8.94-9.28-20.94-13.93-36.01-13.93
		c-11.22,0-20.37,2.59-27.46,7.75c-7.1,5.17-11.96,10.56-14.59,16.16h-0.26V297.2h-32.33v151.64H1727.23z M1863.5,431.49
		c13.4,14.72,30.7,22.08,51.91,22.08c16.47,0,30.22-3.77,41.26-11.3c11.04-7.53,19.01-16.91,23.92-28.12l-27.86-9.46
		c-3.33,6.48-8.19,11.79-14.59,15.9c-6.4,4.12-13.8,6.18-22.21,6.18c-12.09,0-21.6-4.16-28.52-12.48
		c-6.92-8.32-10.38-18.27-10.38-29.83h105.12c0.53-4.38,0.79-8.85,0.79-13.4c0-23.3-6.49-42.22-19.45-56.77
		c-12.97-14.54-29.43-21.81-49.41-21.81c-20.33,0-37.19,7.23-50.59,21.68s-20.1,33.86-20.1,58.21
		C1843.39,397.07,1850.09,416.78,1863.5,431.49z M1887.68,331.76c6.57-8.32,15.38-12.48,26.41-12.48c11.04,0,19.62,4.07,25.76,12.22
		c6.13,8.15,9.2,18,9.2,29.57h-71.48C1877.73,349.85,1881.11,340.08,1887.68,331.76z M2025.13,443.85
		c11.47,6.48,24.57,9.72,39.29,9.72c19.09,0,33.86-4.34,44.28-13.01c10.42-8.67,15.64-19.23,15.64-31.67
		c0-20.15-15.6-35.22-46.78-45.2c-0.88-0.35-2.28-0.79-4.2-1.31c-7.36-2.45-13.06-4.47-17.08-6.04c-4.03-1.58-7.93-4.07-11.7-7.49
		c-3.77-3.42-5.65-7.31-5.65-11.7c0-5.26,2.14-9.5,6.44-12.75c4.29-3.24,10.47-4.86,18.53-4.86c14.72,0,27.24,7.1,37.58,21.29
		l22.08-13.4c-5.43-10.16-13.67-18.53-24.7-25.1c-11.04-6.57-22.78-9.86-35.22-9.86c-16.65,0-30.58,4.03-41.79,12.09
		c-11.22,8.06-16.82,18.75-16.82,32.06c0,6.83,1.22,12.84,3.68,18c2.45,5.17,6.04,9.46,10.78,12.88c4.73,3.42,9.24,6.13,13.53,8.15
		c4.29,2.02,9.59,4.07,15.9,6.18c0.7,0.18,1.84,0.53,3.42,1.05c8.76,2.8,15.33,5.04,19.71,6.7c4.38,1.67,8.54,4.16,12.48,7.49
		c3.94,3.33,5.91,7.19,5.91,11.56c0,5.43-2.41,9.77-7.23,13.01c-4.82,3.24-11.35,4.86-19.58,4.86c-16.82,0-30.49-7.71-41-23.13
		l-23.92,13.93C2004.84,428.52,2013.65,437.37,2025.13,443.85z M932.49,263.82v185.02h34.69V263.82h59.92v-29.7H872.57v29.7H932.49z
		 M1068.89,448.84v-77.27c0-14.72,3.02-26.5,9.07-35.35c6.04-8.85,14.76-13.27,26.15-13.27c6.48,0,13.05,1.05,19.71,3.15v-30.22
		c-5.08-2.28-11.65-3.42-19.71-3.42c-8.59,0-15.99,2.1-22.21,6.31c-6.22,4.2-11,9.11-14.32,14.72V297.2h-32.06v151.64H1068.89z
		 M1144.06,423.35c3.15,8.24,7.36,14.41,12.61,18.53c5.26,4.12,10.64,7.1,16.16,8.94c5.52,1.84,11.34,2.76,17.48,2.76
		c10.33,0,18.96-2.37,25.89-7.1c6.92-4.73,11.61-9.81,14.06-15.24h0.26v17.61h32.06V297.2h-33.11v84.89
		c0,11.74-2.81,21.86-8.41,30.35c-5.61,8.5-13.4,12.75-23.39,12.75c-16.65,0-24.97-11.83-24.97-35.48V297.2h-33.38v96.71
		C1139.33,405.3,1140.9,415.11,1144.06,423.35z M1313.96,443.85c11.47,6.48,24.57,9.72,39.29,9.72c19.09,0,33.86-4.34,44.28-13.01
		c10.42-8.67,15.64-19.23,15.64-31.67c0-20.15-15.6-35.22-46.78-45.2c-0.88-0.35-2.28-0.79-4.2-1.31
		c-7.36-2.45-13.06-4.47-17.08-6.04c-4.03-1.58-7.93-4.07-11.7-7.49c-3.77-3.42-5.65-7.31-5.65-11.7c0-5.26,2.14-9.5,6.44-12.75
		c4.29-3.24,10.47-4.86,18.53-4.86c14.72,0,27.24,7.1,37.58,21.29l22.08-13.4c-5.43-10.16-13.67-18.53-24.7-25.1
		c-11.04-6.57-22.78-9.86-35.22-9.86c-16.65,0-30.58,4.03-41.79,12.09c-11.22,8.06-16.82,18.75-16.82,32.06
		c0,6.83,1.22,12.84,3.68,18c2.45,5.17,6.04,9.46,10.78,12.88c4.73,3.42,9.24,6.13,13.53,8.15c4.29,2.02,9.59,4.07,15.9,6.18
		c0.7,0.18,1.84,0.53,3.42,1.05c8.76,2.8,15.33,5.04,19.71,6.7c4.38,1.67,8.54,4.16,12.48,7.49c3.94,3.33,5.91,7.19,5.91,11.56
		c0,5.43-2.41,9.77-7.23,13.01c-4.82,3.24-11.35,4.86-19.58,4.86c-16.82,0-30.49-7.71-41-23.13l-23.92,13.93
		C1293.68,428.52,1302.48,437.37,1313.96,443.85z M1449.18,302.98v99.61c0,30.84,15.51,46.25,46.52,46.25h21.55v-28.38h-17.35
		c-5.96,0-10.38-1.58-13.27-4.73c-2.89-3.15-4.34-8.32-4.34-15.51v-97.24h34.69V274.6h-34.69v-40.47h-33.11v40.47h-23.39v28.38
		H1449.18z M1579.27,448.84V234.12h-33.11v214.72H1579.27z M1655.75,270.65v-36.53H1620v36.53H1655.75z M1654.43,448.84V293.26
		h-32.85v155.58H1654.43z M1727.23,448.84v-87.78c0-11.39,3.19-20.93,9.59-28.65c6.39-7.71,14.41-11.56,24.05-11.56
		c15.77,0,23.65,11.65,23.65,34.95v93.03h33.38v-97.5c0-20.67-4.47-35.65-13.4-44.94c-8.94-9.28-20.94-13.93-36.01-13.93
		c-11.22,0-20.37,2.59-27.46,7.75c-7.1,5.17-11.96,10.56-14.59,16.16h-0.26V297.2h-32.33v151.64H1727.23z M1863.5,431.49
		c13.4,14.72,30.7,22.08,51.91,22.08c16.47,0,30.22-3.77,41.26-11.3c11.04-7.53,19.01-16.91,23.92-28.12l-27.86-9.46
		c-3.33,6.48-8.19,11.79-14.59,15.9c-6.4,4.12-13.8,6.18-22.21,6.18c-12.09,0-21.6-4.16-28.52-12.48
		c-6.92-8.32-10.38-18.27-10.38-29.83h105.12c0.53-4.38,0.79-8.85,0.79-13.4c0-23.3-6.49-42.22-19.45-56.77
		c-12.97-14.54-29.43-21.81-49.41-21.81c-20.33,0-37.19,7.23-50.59,21.68s-20.1,33.86-20.1,58.21
		C1843.39,397.07,1850.09,416.78,1863.5,431.49z M1887.68,331.76c6.57-8.32,15.38-12.48,26.41-12.48c11.04,0,19.62,4.07,25.76,12.22
		c6.13,8.15,9.2,18,9.2,29.57h-71.48C1877.73,349.85,1881.11,340.08,1887.68,331.76z M2025.13,443.85
		c11.47,6.48,24.57,9.72,39.29,9.72c19.09,0,33.86-4.34,44.28-13.01c10.42-8.67,15.64-19.23,15.64-31.67
		c0-20.15-15.6-35.22-46.78-45.2c-0.88-0.35-2.28-0.79-4.2-1.31c-7.36-2.45-13.06-4.47-17.08-6.04c-4.03-1.58-7.93-4.07-11.7-7.49
		c-3.77-3.42-5.65-7.31-5.65-11.7c0-5.26,2.14-9.5,6.44-12.75c4.29-3.24,10.47-4.86,18.53-4.86c14.72,0,27.24,7.1,37.58,21.29
		l22.08-13.4c-5.43-10.16-13.67-18.53-24.7-25.1c-11.04-6.57-22.78-9.86-35.22-9.86c-16.65,0-30.58,4.03-41.79,12.09
		c-11.22,8.06-16.82,18.75-16.82,32.06c0,6.83,1.22,12.84,3.68,18c2.45,5.17,6.04,9.46,10.78,12.88c4.73,3.42,9.24,6.13,13.53,8.15
		c4.29,2.02,9.59,4.07,15.9,6.18c0.7,0.18,1.84,0.53,3.42,1.05c8.76,2.8,15.33,5.04,19.71,6.7c4.38,1.67,8.54,4.16,12.48,7.49
		c3.94,3.33,5.91,7.19,5.91,11.56c0,5.43-2.41,9.77-7.23,13.01c-4.82,3.24-11.35,4.86-19.58,4.86c-16.82,0-30.49-7.71-41-23.13
		l-23.92,13.93C2004.84,428.52,2013.65,437.37,2025.13,443.85z M1069.42,613.76v-36.29h22.15c8.95,0,16.14-2.47,21.56-7.42
		c5.42-4.95,8.13-11.7,8.13-20.26c0-8.32-2.65-15-7.95-20.03c-5.3-5.03-12.63-7.54-21.97-7.54h-35.34v91.54H1069.42z
		 M1069.42,533.76h20.03c5.81,0,10.25,1.35,13.31,4.06c3.06,2.71,4.59,6.7,4.59,11.96c0,5.34-1.55,9.39-4.65,12.13
		c-3.1,2.75-7.48,4.12-13.14,4.12h-20.15V533.76z M1186.2,613.76v-37.58h20.73c3.93,0,6.81,1.1,8.66,3.3
		c1.85,2.2,3.2,5.38,4.07,9.54c2.36,10.68,5.26,18.93,8.72,24.74h15.08c-2.75-4.71-4.79-8.95-6.13-12.72
		c-1.34-3.77-2.51-8.09-3.53-12.96c-0.94-4.55-2.08-8.01-3.42-10.37c-1.34-2.36-3.53-4.51-6.6-6.48c3.69-1.26,7.03-3.89,10.01-7.89
		c2.98-4.01,4.48-9.15,4.48-15.43c0-7.3-2.49-13.41-7.48-18.32c-4.99-4.91-12.12-7.36-21.38-7.36h-36.64v91.54H1186.2z
		 M1186.2,533.76h20.5c5.65,0,10.01,1.4,13.08,4.18c3.06,2.79,4.59,6.46,4.59,11.02c0,4.95-1.47,8.82-4.42,11.6
		c-2.95,2.79-7.17,4.18-12.66,4.18h-21.09V533.76z M1296.78,602.86c7.11,8.68,16.55,13.02,28.33,13.02
		c11.7,0,21.09-4.32,28.16-12.96c7.07-8.64,10.6-20.22,10.6-34.75c0-14.45-3.52-26.07-10.54-34.87
		c-7.03-8.8-16.43-13.19-28.21-13.19s-21.23,4.4-28.33,13.19c-7.11,8.8-10.66,20.38-10.66,34.75
		C1286.12,582.58,1289.68,594.18,1296.78,602.86z M1306.8,541.48c4.44-6.56,10.55-9.84,18.32-9.84c7.85,0,13.96,3.32,18.32,9.95
		c4.36,6.64,6.54,15.49,6.54,26.57c0,11.23-2.22,20.07-6.66,26.51c-4.44,6.44-10.51,9.66-18.2,9.66c-7.78,0-13.88-3.26-18.32-9.78
		c-4.44-6.52-6.66-15.36-6.66-26.51S1302.36,548.04,1306.8,541.48z M1431.06,533.76v79.99h13.43v-79.99h26.86v-11.55h-67.27v11.55
		H1431.06z M1522.91,602.86c7.11,8.68,16.55,13.02,28.33,13.02c11.7,0,21.09-4.32,28.16-12.96c7.07-8.64,10.6-20.22,10.6-34.75
		c0-14.45-3.52-26.07-10.55-34.87c-7.03-8.8-16.43-13.19-28.21-13.19c-11.78,0-21.23,4.4-28.33,13.19
		c-7.11,8.8-10.66,20.38-10.66,34.75C1512.25,582.58,1515.8,594.18,1522.91,602.86z M1532.93,541.48
		c4.44-6.56,10.55-9.84,18.32-9.84c7.85,0,13.96,3.32,18.32,9.95c4.36,6.64,6.54,15.49,6.54,26.57c0,11.23-2.22,20.07-6.66,26.51
		c-4.44,6.44-10.51,9.66-18.2,9.66c-7.78,0-13.88-3.26-18.32-9.78c-4.44-6.52-6.66-15.36-6.66-26.51S1528.49,548.04,1532.93,541.48z
		 M1648.17,603.15c7.58,8.48,17.18,12.72,28.81,12.72c4.55,0,8.78-0.71,12.66-2.12c3.89-1.41,7.17-3.34,9.84-5.77
		c2.67-2.43,4.91-4.89,6.72-7.36c1.81-2.47,3.3-5.12,4.48-7.95l-12.13-3.77c-1.81,4.32-4.62,7.97-8.42,10.96
		c-3.81,2.99-8.27,4.48-13.37,4.48c-7.78,0-14.06-3.26-18.85-9.78c-4.79-6.52-7.19-15.36-7.19-26.51c0-11,2.36-19.81,7.07-26.45
		c4.71-6.64,11.03-9.95,18.97-9.95c8.17,0,14.84,4.59,20.03,13.78l11.55-3.89c-2.59-5.97-6.56-11.03-11.9-15.2
		c-5.34-4.16-11.82-6.24-19.44-6.24c-11.86,0-21.52,4.3-28.98,12.9c-7.46,8.6-11.19,20.28-11.19,35.05
		C1636.8,582.97,1640.59,594.67,1648.17,603.15z M1765.65,602.86c7.11,8.68,16.55,13.02,28.33,13.02c11.7,0,21.09-4.32,28.16-12.96
		c7.07-8.64,10.6-20.22,10.6-34.75c0-14.45-3.52-26.07-10.55-34.87c-7.03-8.8-16.43-13.19-28.21-13.19s-21.23,4.4-28.33,13.19
		c-7.11,8.8-10.66,20.38-10.66,34.75C1754.99,582.58,1758.54,594.18,1765.65,602.86z M1775.66,541.48
		c4.44-6.56,10.55-9.84,18.32-9.84c7.85,0,13.96,3.32,18.32,9.95c4.36,6.64,6.54,15.49,6.54,26.57c0,11.23-2.22,20.07-6.66,26.51
		c-4.44,6.44-10.51,9.66-18.2,9.66c-7.78,0-13.88-3.26-18.32-9.78c-4.44-6.52-6.66-15.36-6.66-26.51S1771.23,548.04,1775.66,541.48z
		 M1940.92,613.76v-11.55h-42.18v-79.99h-13.43v91.54H1940.92z"/>
</g>
<g id="OUTLINE" class="st0">
</g>
<g id="INLINE" class="st0">
</g>
<g id="HORSE" class="st0">
</g>
<g id="ALL">
</g>
<g id="Layer_9">
</g>
<g id="Layer_10">
</g>
</svg>
