<?xml version="1.0" encoding="utf-8"?>
<!-- Generator: Adobe Illustrator 23.0.4, SVG Export Plug-In . SVG Version: 6.00 Build 0)  -->
<svg version="1.1" xmlns="http://www.w3.org/2000/svg" xmlns:xlink="http://www.w3.org/1999/xlink" x="0px" y="0px"
	 viewBox="0 0 1000 1190" style="enable-background:new 0 0 1000 1190;" xml:space="preserve">
<style type="text/css">
	.st0{display:none;}
	.st1{display:inline;fill-rule:evenodd;clip-rule:evenodd;fill:none;stroke:#E80A89;stroke-miterlimit:10;}
	.st2{display:inline;fill-rule:evenodd;clip-rule:evenodd;fill:none;stroke:#60C6D1;stroke-miterlimit:10;}
	.st3{display:inline;fill:#231F20;}
	.st4{display:inline;fill-rule:evenodd;clip-rule:evenodd;fill:none;stroke:#46B449;stroke-miterlimit:10;}
	.st5{fill:url(#SVGID_1_);}
	.st6{fill:#FFFFFF;}
	.st7{fill:#1E8CC3;}
	.st8{fill:url(#SVGID_2_);}
	.st9{display:inline;fill:none;stroke:#221F1F;stroke-width:8;stroke-miterlimit:10;}
	.st10{display:inline;fill-rule:evenodd;clip-rule:evenodd;fill:none;stroke:#221F1F;stroke-width:8;stroke-miterlimit:10;}
	.st11{display:inline;}
	.st12{fill:#221F1F;}
	.st13{display:inline;fill-rule:evenodd;clip-rule:evenodd;fill:#00A04A;}
	.st14{fill:url(#SVGID_3_);}
	.st15{fill:url(#SVGID_4_);}
	.st16{fill:url(#SVGID_5_);}
</style>
<g id="L_CIRCLES" class="st0">
</g>
<g id="M_CIRCLES" class="st0">
</g>
<g id="S_CIRCLES" class="st0">
</g>
<g id="TEXT">
</g>
<g id="OUTLINE" class="st0">
</g>
<g id="INLINE" class="st0">
</g>
<g id="HORSE" class="st0">
</g>
<g id="ALL">
</g>
<g id="Layer_9">
</g>
<g id="Layer_10">
	<g>
		<g>
			<path class="st6" d="M880.88,403.3l-0.01-0.26c-0.08-3.13-0.19-6.26-0.35-9.31l-0.03-0.51c-0.15-2.93-0.34-5.92-0.58-9.11
				l-0.04-0.61c-0.22-2.82-0.48-5.74-0.79-8.92l-0.07-0.76c-0.3-2.91-0.64-5.82-1-8.72l-0.11-0.88c-0.37-2.88-0.77-5.75-1.19-8.52
				l-0.15-1.03c-0.43-2.81-0.9-5.59-1.39-8.37l-0.18-1.05c-0.5-2.76-1.03-5.51-1.59-8.24l-0.23-1.16c-0.56-2.71-1.15-5.41-1.77-8.1
				l-0.26-1.16c-0.63-2.7-1.29-5.39-1.97-8.07l-0.27-1.05c-0.69-2.68-1.41-5.34-2.16-7.99l-0.32-1.14
				c-0.75-2.63-1.54-5.27-2.35-7.87l-0.34-1.1c-0.89-2.83-1.71-5.38-2.53-7.77l-0.4-1.18c-0.87-2.55-1.77-5.1-2.69-7.64l-0.41-1.12
				c-0.94-2.56-1.91-5.1-2.9-7.64l-0.41-1.02c-1.02-2.59-2.06-5.13-3.08-7.54l-0.46-1.1c-1.07-2.5-2.16-5-3.28-7.48l-0.42-0.93
				c-1.13-2.51-2.3-5-3.49-7.48l-0.42-0.86c-1.21-2.5-2.44-4.98-3.7-7.44l-0.4-0.78c-1.27-2.47-2.56-4.92-3.89-7.37l-0.45-0.81
				c-1.33-2.44-2.68-4.87-4.07-7.28l-0.38-0.65c-1.41-2.44-2.84-4.87-4.3-7.28l-0.36-0.59c-1.5-2.45-3.01-4.89-4.56-7.29l-0.17-0.27
				c-1.59-2.47-3.22-4.94-4.86-7.38l-0.19-0.28c-1.79-2.64-3.41-4.98-4.95-7.13l-0.1-0.14c-0.03-0.05-0.07-0.1-0.11-0.15
				c-1.68-2.37-3.39-4.7-5.12-7.03l-0.25-0.33c-1.7-2.27-3.42-4.51-5.16-6.73l-0.46-0.6c-1.76-2.23-3.54-4.45-5.35-6.64l-0.35-0.42
				c-1.78-2.16-3.6-4.3-5.43-6.42l-0.55-0.64c-1.79-2.05-3.6-4.09-5.42-6.11l-0.7-0.77c-1.81-1.99-3.65-3.96-5.51-5.92l-0.74-0.78
				c-1.84-1.92-3.7-3.83-5.58-5.71l-0.87-0.87c-2.01-2.01-4.05-4-6.14-5.98c-0.03-0.03-0.08-0.08-0.11-0.11
				c-4.8-4.57-9.97-9.22-15.34-13.82c-0.42-0.36-1-0.45-1.5-0.25c-0.51,0.2-0.86,0.67-0.91,1.22c-1.08,11.01,1.78,13.69,8.02,19.56
				l1.62,1.53c35.8,34.09,63.96,74.22,83.71,119.3c20.44,46.66,30.8,96.36,30.8,147.71c0,98.44-38.35,191-107.98,260.63
				c-69.63,69.63-162.19,107.98-260.63,107.98c-98.44,0-191.01-38.35-260.64-107.98S132.22,511.37,132.22,412.92
				c0-98.44,38.35-191.01,107.98-260.64S402.39,44.31,500.83,44.31c27.59,0,55.09,3.06,81.8,9.11c10.64,2.41,15.98,3.63,25.65-2.73
				c0.48-0.31,0.73-0.88,0.65-1.44c-0.08-0.57-0.49-1.03-1.04-1.19c-7.18-2.1-14.28-3.97-21.09-5.54l-0.24-0.06
				c-2.85-0.66-5.79-1.3-8.97-1.95l-0.32-0.06c-2.68-0.55-5.62-1.11-9.01-1.73l-0.28-0.05c-3.01-0.54-6.08-1.05-9.11-1.51
				l-0.31-0.05c-2.93-0.45-6.04-0.89-9.18-1.29c-0.02,0-0.17-0.03-0.19-0.03c-3.2-0.4-6.36-0.76-9.37-1.06l-0.21-0.02
				c-2.77-0.28-5.78-0.55-9.55-0.85c-9.62-0.74-19.45-1.11-29.22-1.11c-3.47,0-6.68,0.04-9.81,0.12c-3.33,0.09-6.62,0.21-9.75,0.37
				c-3.15,0.16-6.4,0.36-9.68,0.61c-3.06,0.23-6.29,0.52-9.62,0.86c-3.14,0.32-6.35,0.69-9.55,1.09c-3.14,0.4-6.32,0.85-9.48,1.33
				c-3.49,0.54-6.56,1.05-9.4,1.56c-3.16,0.57-6.3,1.17-9.32,1.79c-3.12,0.64-6.23,1.32-9.24,2.01c-3,0.69-6.08,1.44-9.15,2.23
				c-3.07,0.79-6.12,1.62-9.06,2.45c-2.89,0.82-5.8,1.68-8.9,2.65c-0.03,0.01-0.06,0.02-0.08,0.02c-2.76,0.86-5.67,1.8-8.88,2.88
				c-2.99,1.02-5.94,2.06-8.78,3.1c-2.81,1.03-5.65,2.11-8.69,3.3c-3.04,1.2-5.85,2.35-8.58,3.5c-0.03,0.01-0.06,0.03-0.09,0.04
				c-2.79,1.18-5.61,2.41-8.39,3.67c-2.87,1.3-5.68,2.61-8.36,3.91c-2.85,1.38-5.62,2.75-8.25,4.1c-5.3,2.71-10.74,5.67-16.16,8.79
				c-2.55,1.46-5.19,3.02-7.84,4.63c-0.02,0.01-0.04,0.02-0.06,0.04c-2.66,1.62-5.26,3.24-7.71,4.81c-0.02,0.01-0.04,0.03-0.06,0.04
				c-12.76,8.18-25.18,17.24-36.92,26.93c-2.52,2.08-4.8,4.01-6.97,5.89c-2.24,1.94-4.53,3.97-6.83,6.05
				c-8.94,8.13-17.62,16.81-25.79,25.79c-1.98,2.18-4.02,4.48-6.05,6.83c-1.84,2.12-3.75,4.38-5.83,6.9
				c-0.02,0.02-0.04,0.05-0.06,0.07c-9.67,11.72-18.73,24.14-26.92,36.92c-1.67,2.6-3.3,5.22-4.85,7.77
				c-0.01,0.02-0.03,0.04-0.04,0.06c-1.62,2.67-3.18,5.31-4.64,7.84c-3.07,5.33-6.02,10.77-8.78,16.16
				c-1.43,2.8-2.82,5.57-4.11,8.25c-1.3,2.7-2.62,5.52-3.91,8.36c-1.26,2.8-2.49,5.61-3.66,8.38c-0.02,0.03-0.03,0.07-0.05,0.1
				c-1.29,3.06-2.44,5.86-3.5,8.58c-1.13,2.87-2.24,5.8-3.3,8.69c-1.07,2.92-2.11,5.88-3.1,8.79c-1.03,3.06-2,6.05-2.88,8.88
				c-0.95,3.08-1.85,6.1-2.67,8.97c-0.81,2.85-1.61,5.81-2.46,9.07c-0.82,3.21-1.55,6.2-2.23,9.15c-0.72,3.12-1.39,6.22-2.01,9.24
				c-0.62,3.02-1.22,6.15-1.79,9.32c-0.54,3.02-1.07,6.19-1.56,9.4c0,0.01,0,0.03-0.01,0.04c-0.45,2.96-0.88,6.04-1.32,9.43
				c-0.39,3.05-0.75,6.27-1.09,9.55c-0.32,3.14-0.61,6.38-0.86,9.62c-0.26,3.35-0.46,6.61-0.61,9.69c-0.16,3.2-0.29,6.48-0.37,9.74
				c-0.08,3.11-0.12,6.32-0.12,9.81c0,3.49,0.04,6.7,0.12,9.81c0.09,3.27,0.21,6.55,0.37,9.74c0.15,3.1,0.35,6.27,0.61,9.69
				c0.24,3.21,0.53,6.45,0.86,9.62c0.33,3.29,0.7,6.5,1.09,9.55c0.44,3.35,0.87,6.44,1.32,9.43c0,0.02,0,0.03,0.01,0.05
				c0.51,3.35,1.02,6.42,1.56,9.4c0.57,3.19,1.17,6.31,1.78,9.26c0,0.02,0.01,0.03,0.01,0.05c0.61,2.97,1.28,6.07,2.01,9.23
				c0.67,2.92,1.4,5.92,2.23,9.16c0.85,3.27,1.65,6.24,2.46,9.06c0.82,2.88,1.71,5.9,2.67,8.98c0.88,2.81,1.82,5.71,2.88,8.88
				c0.98,2.91,2.03,5.86,3.1,8.79c1.07,2.92,2.18,5.84,3.3,8.68c2.19,5.57,4.61,11.28,7.18,16.97c0.01,0.03,0.02,0.06,0.04,0.09
				c2.49,5.52,5.18,11.08,7.97,16.53c0.01,0.03,0.03,0.06,0.04,0.09c4.15,8.1,8.66,16.16,13.41,23.98c0.01,0.03,0.03,0.05,0.04,0.08
				c1.57,2.59,3.21,5.21,4.85,7.77c9.86,15.37,20.9,30.13,32.82,43.89c1.96,2.26,3.97,4.52,5.97,6.74c0.03,0.03,0.05,0.06,0.08,0.09
				c10.21,11.23,21.19,21.94,32.62,31.84c2.24,1.94,4.58,3.92,6.97,5.89c11.71,9.67,24.13,18.73,36.92,26.92
				c0.02,0.01,0.04,0.03,0.06,0.04c4.95,3.18,10.17,6.35,15.5,9.42c0.04,0.03,0.08,0.05,0.12,0.08c5.49,3.15,10.93,6.1,16.16,8.77
				c2.7,1.39,5.43,2.75,8.13,4.04c0.04,0.02,0.08,0.05,0.12,0.07c2.73,1.32,5.54,2.63,8.36,3.9c2.46,1.12,5.07,2.26,8.48,3.72
				c3.02,1.28,5.83,2.42,8.58,3.5c2.63,1.04,5.48,2.12,8.69,3.3c2.97,1.08,5.93,2.12,8.78,3.09c2.95,1,5.94,1.97,8.87,2.88
				c0.03,0.01,0.06,0.02,0.08,0.02c3.15,0.97,6.07,1.84,8.9,2.64c3.04,0.87,6.09,1.7,9.07,2.46c3.16,0.81,6.23,1.56,9.15,2.23
				c2.93,0.68,6.04,1.36,9.24,2.01c2.83,0.58,5.88,1.17,9.32,1.79c3.14,0.56,6.3,1.08,9.4,1.55c2.99,0.46,6.08,0.89,9.48,1.33
				c3.49,0.43,6.61,0.79,9.54,1.09c3.29,0.33,6.53,0.62,9.62,0.86c3.44,0.26,6.61,0.46,9.68,0.61c3.2,0.16,6.48,0.29,9.75,0.37
				c3.15,0.08,6.45,0.12,9.81,0.12c3.35,0,6.65-0.04,9.81-0.12c3.29-0.09,6.57-0.21,9.75-0.37c3.06-0.15,6.23-0.35,9.68-0.61
				c3.08-0.23,6.31-0.52,9.62-0.86c2.92-0.3,6.05-0.65,9.55-1.09c3.39-0.44,6.47-0.87,9.43-1.32c0.01,0,0.03,0,0.04-0.01
				c3.14-0.48,6.3-1,9.4-1.56c3.44-0.62,6.49-1.2,9.32-1.79c3.56-0.74,6.5-1.38,9.24-2.01c2.94-0.68,5.94-1.4,9.16-2.23
				c2.96-0.76,6-1.59,9.06-2.46c2.81-0.79,5.74-1.66,8.98-2.66c2.92-0.91,5.91-1.88,8.88-2.89c2.84-0.96,5.79-2,8.78-3.09
				c3.19-1.17,6.03-2.25,8.68-3.3c2.74-1.08,5.55-2.22,8.59-3.51c3.4-1.45,6.01-2.59,8.47-3.71c5.57-2.52,11.16-5.21,16.62-8.01
				c10.86-5.56,21.57-11.72,31.83-18.31c2.46-1.57,5.03-3.26,7.65-5.03c12.6-8.51,24.77-17.84,36.18-27.73
				c0.02-0.02,0.04-0.03,0.06-0.05c2.23-1.93,4.53-3.97,6.82-6.05c0.03-0.03,0.06-0.06,0.09-0.09c2.09-1.9,4.25-3.9,6.58-6.13
				c2.21-2.11,4.41-4.26,6.53-6.38c2.37-2.37,4.45-4.51,6.37-6.53c4.19-4.39,8.32-8.93,12.27-13.5c2-2.3,3.99-4.65,5.9-6.97
				c9.68-11.74,18.73-24.16,26.92-36.92c6.58-10.27,12.74-20.97,18.31-31.83c0.02-0.03,0.03-0.06,0.04-0.09
				c2.82-5.51,5.5-11.07,7.96-16.54c0.01-0.03,0.02-0.06,0.04-0.09c2.54-5.62,4.95-11.33,7.18-16.97c1.11-2.82,2.22-5.74,3.3-8.68
				c1.05-2.87,2.09-5.82,3.1-8.79c1.02-3.01,1.99-5.99,2.88-8.88c0.94-3.05,1.84-6.07,2.67-8.97c0.85-2.98,1.67-6.03,2.45-9.06
				c0.75-2.88,1.48-5.87,2.24-9.16c0.72-3.14,1.4-6.24,2.01-9.23c0-0.02,0.01-0.03,0.01-0.05c0.61-2.97,1.21-6.09,1.78-9.27
				c0.57-3.21,1.09-6.37,1.55-9.4c0-0.01,0-0.03,0.01-0.04c0.45-2.92,0.88-6.01,1.32-9.44c0.39-3.06,0.75-6.19,1.09-9.55
				c0.34-3.39,0.62-6.54,0.85-9.62c0.25-3.25,0.45-6.51,0.61-9.69c0.16-3.13,0.29-6.41,0.37-9.75c0.08-3.17,0.12-6.47,0.12-9.81
				C881.01,409.65,880.97,406.41,880.88,403.3z"/>
			<path class="st6" d="M796.23,443.76c0.01-0.22,0.01-0.43-0.02-0.65c-0.01-0.12-0.02-0.23-0.04-0.34c-0.04-0.2-0.09-0.4-0.16-0.6
				c-0.04-0.11-0.07-0.23-0.12-0.34c-0.02-0.04-0.02-0.08-0.04-0.12c-0.08-0.17-0.19-0.33-0.29-0.49c-0.05-0.08-0.08-0.16-0.14-0.23
				c-0.19-0.27-0.41-0.51-0.65-0.72c-0.01-0.01-0.01-0.01-0.02-0.02L592.5,261.8L750.47,14.11c1.17-1.84,0.82-4.27-0.83-5.7
				c-1.65-1.43-4.1-1.43-5.76-0.01L524.19,197.47l-21.35-75.76c-0.36-1.26-1.26-2.3-2.46-2.83c-1.2-0.53-2.57-0.5-3.75,0.09
				l-44.79,22.32c0,0-0.01,0-0.01,0l-0.06,0.03c-0.01,0.01-0.02,0.01-0.03,0.02c-0.06,0.03-0.12,0.08-0.18,0.11
				c-0.04,0.03-0.09,0.05-0.13,0.08c-0.12,0.07-0.25,0.13-0.36,0.22c-0.01,0.01-0.02,0.02-0.02,0.02c-0.04,0.03-0.08,0.07-0.12,0.11
				c-0.08,0.07-0.15,0.14-0.22,0.21c-0.02,0.02-0.04,0.04-0.06,0.06c-0.08,0.08-0.17,0.15-0.24,0.23c-0.06,0.07-0.1,0.14-0.15,0.21
				c-0.07,0.08-0.13,0.17-0.18,0.26c-0.05,0.08-0.12,0.15-0.16,0.23c-0.05,0.09-0.09,0.2-0.13,0.29c-0.01,0.03-0.02,0.05-0.04,0.08
				c-0.03,0.06-0.07,0.11-0.1,0.18l-16.73,42.11l-48.95,2.95c-1.62,0.1-3.05,1.07-3.73,2.54c-0.13,0.28-10.1,21.79-21.7,47.19
				l-56.63,3.65c-1.71,0.11-3.21,1.21-3.82,2.81c-0.65,1.69-8.09,20.94-16.08,41.69l-46.17,3.14c-1.7,0.12-3.18,1.2-3.8,2.79
				c-9.53,24.4-39.95,102.41-42.7,111.53c0,0.01-0.01,0.02-0.01,0.03c-0.03,0.1-0.06,0.2-0.08,0.28c-0.01,0.05-0.03,0.1-0.04,0.15
				c-0.03,0.11-0.05,0.19-0.06,0.26c0,0.02,0,0.03,0,0.05c-0.03,0.18-0.04,0.37-0.04,0.56c0,0.03-0.01,0.07-0.01,0.1
				c0,0.01,0,0.01,0,0.02c0,0.22,0.02,0.44,0.05,0.66c0.01,0.05,0.01,0.11,0.02,0.16c0,0.01,0,0.01,0,0.02
				c0.04,0.19,0.09,0.39,0.15,0.58c0.02,0.08,0.05,0.15,0.07,0.23c0,0.01,0.01,0.02,0.01,0.02c0.06,0.15,0.13,0.3,0.21,0.45
				c0.05,0.1,0.1,0.19,0.16,0.28c0.01,0.02,0.02,0.03,0.04,0.05c0.04,0.07,0.07,0.14,0.12,0.2l46.38,63.46l-29.71,47.24
				c-1.25,1.99-0.72,4.6,1.2,5.95l56.59,39.73l-20.17,43.88c-0.5,1.09-0.54,2.35-0.09,3.47c0.44,1.12,1.33,2.01,2.44,2.46
				l208.96,84.26c0.04,0.02,0.09,0.02,0.13,0.04c0.18,0.07,0.36,0.12,0.54,0.16c0,0,0.01,0,0.01,0c0.02,0.01,0.05,0.01,0.07,0.02
				c0.29,0.06,0.58,0.1,0.87,0.1c0.01,0,0.01,0,0.02,0c0.28,0,0.55-0.04,0.83-0.1c0.15-0.03,0.3-0.07,0.45-0.12
				c0.03-0.01,0.06-0.02,0.09-0.03c0.14-0.05,0.28-0.07,0.41-0.13c0.04-0.02,0.07-0.04,0.11-0.06c0.09-0.04,0.17-0.09,0.25-0.14
				c0.04-0.02,0.09-0.03,0.13-0.06c0.04-0.03,0.07-0.06,0.12-0.09c0.06-0.04,0.12-0.09,0.18-0.14c0.15-0.11,0.29-0.21,0.43-0.34
				c0.05-0.04,0.1-0.08,0.14-0.12c0.09-0.09,0.16-0.2,0.24-0.3c0.07-0.09,0.16-0.16,0.23-0.25c0.02-0.03,0.03-0.07,0.06-0.1
				c0.01-0.01,0.02-0.02,0.02-0.03c0.01-0.02,0.03-0.03,0.04-0.05c0.05-0.07,0.07-0.16,0.11-0.23c0.1-0.18,0.19-0.36,0.26-0.54
				c0.01-0.02,0.02-0.05,0.03-0.07c0.03-0.08,0.05-0.17,0.07-0.25c0.06-0.21,0.11-0.41,0.14-0.62c0-0.02,0.01-0.04,0.01-0.06
				c0.01-0.05,0.02-0.09,0.03-0.13l24.38-242.66l210.22,38.06l29.69,40.59c0.85,1.16,2.19,1.8,3.56,1.8c0.62,0,1.24-0.13,1.84-0.4
				l56.93-26.14c0.04-0.02,0.07-0.05,0.1-0.06c0.27-0.13,0.52-0.29,0.75-0.48c0.08-0.06,0.16-0.13,0.24-0.2
				c0.2-0.18,0.38-0.37,0.54-0.58c0.05-0.06,0.11-0.12,0.15-0.19c0.19-0.28,0.36-0.58,0.48-0.91c0.03-0.07,0.04-0.14,0.06-0.2
				c0.06-0.19,0.13-0.39,0.17-0.59c0.01-0.08,0.01-0.15,0.02-0.23c0.01-0.05,0.03-0.09,0.03-0.14l5.53-58.63
				C796.24,443.89,796.23,443.83,796.23,443.76z M726.97,34.58L585.82,255.9l-57.29-50.54L726.97,34.58z M630.13,306.74
				l-47.01,31.13l-14.74-48.25c-0.06-0.19-0.13-0.38-0.22-0.56c-0.01-0.02-0.01-0.04-0.02-0.06c-0.12-0.24-0.26-0.47-0.42-0.68
				c-0.02-0.02-0.03-0.05-0.04-0.07l-83.8-110.54L630.13,306.74z M676.68,466.84L539.1,377.6l40.68-26.94L676.68,466.84z
				 M571.76,330.82l-42.22-38.24l31.29,2.48L571.76,330.82z M495.81,129.22l17.73,62.91l-51.97-45.85L495.81,129.22z M454.96,154.14
				l99.76,131.6l-37.37-2.97c-1.88-0.15-3.64,0.91-4.39,2.64c-0.75,1.73-0.31,3.74,1.09,5.01l59.43,53.83l-40.72,26.97
				l-91.95-181.48L454.96,154.14z M435.11,210.07l39.68,221.61l-75.43-89.4L435.11,210.07z M387.13,197.33l36.42-2.2l-59.84,53.19
				C374.2,225.3,383.93,204.25,387.13,197.33z M427.88,203.06l-36.05,133.29l-65.62-42.92l27.76-24.68c0,0,0,0,0,0L427.88,203.06z
				 M199.39,406.17l105.57-93.84l-70.44,141.91L199.39,406.17z M315.48,310.94l4.39,82.84l-72.45,54.28L315.48,310.94z
				 M241.37,463.61l79.33-59.44l22.4,198.62L241.37,463.61z M323.85,302.4l62.99,41.2l-58.48,43.82L323.85,302.4z M390.36,351.97
				l5.94,194.82l-66.47-149.47L390.36,351.97z M305.29,250.68l49.11-3.16c-2.3,5.04-4.62,10.16-6.91,15.22l-31.37,27.89
				c0,0-0.01,0.01-0.01,0.01l-39.84,35.41C283.95,305.99,296.89,272.44,305.29,250.68z M239.22,298.31l39.3-2.67
				c-7.44,19.33-14.58,37.94-16.45,43.03l-58.56,52.05C211.82,368.75,227.43,328.49,239.22,298.31z M216.27,519.98l25.62-40.73
				l88.16,120.62L216.27,519.98z M254.14,607.87l17.56-38.21l151.57,106.41L254.14,607.87z M353.48,616.32L331.7,423.19
				l65.67,147.67c0,0.01,0.01,0.01,0.01,0.02l49.3,110.86L353.48,616.32z M454.44,677.53L406.4,569.48l69.46-105.09L454.44,677.53z
				 M405.37,555.06l-6.08-199.19l77.24,91.54L405.37,555.06z M484.5,435.94L445.6,218.69l80.34,158.57L484.5,435.94z M489.6,443.98
				l42.62-60.34l145.56,94.42L489.6,443.98z M587.17,345.76l47.87-31.7l51.78,151.18L587.17,345.76z M646.91,321.54l136.96,120.83
				l-82.57,37.97L646.91,321.54z M730.82,522.81l-22.1-30.21l63.04,11.41L730.82,522.81z M782.39,496.99l-69.04-12.5l73.4-33.75
				L782.39,496.99z"/>
		</g>
		<g>
			<g>
				<path class="st6" d="M5,904.22v-23.49h122.22v23.49H79.83v146.33H52.39V904.22H5z"/>
				<path class="st6" d="M133.87,1050.55V930.62h25.36v12.89c2.63-4.43,6.41-8.31,11.33-11.64c4.92-3.33,10.77-4.99,17.56-4.99
					c6.37,0,11.57,0.9,15.59,2.7v23.9c-5.27-1.66-10.46-2.49-15.59-2.49c-9.01,0-15.9,3.5-20.68,10.5c-4.78,7-7.17,16.32-7.17,27.96
					v61.11H133.87z"/>
				<path class="st6" d="M215.97,1007.11v-76.49h26.4v73.16c0,18.71,6.58,28.06,19.75,28.06c7.9,0,14.06-3.36,18.5-10.08
					c4.43-6.72,6.65-14.72,6.65-24.01v-67.14h26.19v119.93h-25.36v-13.93h-0.21c-1.94,4.3-5.65,8.31-11.12,12.06
					c-5.48,3.74-12.3,5.61-20.47,5.61c-4.85,0-9.46-0.73-13.82-2.18c-4.36-1.45-8.63-3.81-12.78-7.07
					c-4.16-3.25-7.48-8.14-9.98-14.65C217.22,1023.88,215.97,1016.12,215.97,1007.11z"/>
				<path class="st6" d="M333.2,1025.61l18.91-11.02c8.31,12.2,19.12,18.29,32.42,18.29c6.51,0,11.67-1.28,15.48-3.85
					c3.81-2.56,5.72-5.99,5.72-10.29c0-3.46-1.56-6.51-4.68-9.15c-3.12-2.63-6.41-4.61-9.87-5.92c-3.47-1.32-8.66-3.08-15.59-5.3
					c-1.25-0.42-2.15-0.69-2.7-0.83c-4.99-1.66-9.18-3.29-12.58-4.88c-3.4-1.59-6.96-3.74-10.7-6.44s-6.58-6.1-8.52-10.18
					c-1.94-4.09-2.91-8.83-2.91-14.24c0-10.53,4.43-18.98,13.3-25.36c8.87-6.37,19.88-9.56,33.05-9.56c9.84,0,19.12,2.6,27.85,7.79
					c8.73,5.2,15.24,11.81,19.54,19.85l-17.46,10.6c-8.18-11.22-18.08-16.84-29.72-16.84c-6.38,0-11.26,1.28-14.65,3.85
					c-3.4,2.57-5.09,5.92-5.09,10.08c0,3.47,1.49,6.55,4.47,9.25c2.98,2.7,6.06,4.68,9.25,5.92c3.19,1.25,7.69,2.84,13.51,4.78
					c1.52,0.42,2.63,0.76,3.33,1.04c24.66,7.9,37,19.82,37,35.75c0,9.84-4.12,18.19-12.37,25.05c-8.25,6.86-19.92,10.29-35.02,10.29
					c-11.64,0-22-2.57-31.07-7.69C345.01,1041.48,338.05,1034.48,333.2,1025.61z"/>
				<path class="st6" d="M442.53,935.19v-22.45h18.5v-32.01h26.19v32.01h27.44v22.45h-27.44v76.91c0,5.68,1.14,9.77,3.43,12.26
					c2.29,2.49,5.78,3.74,10.5,3.74h13.72v22.45h-17.04c-24.53,0-36.79-12.19-36.79-36.58v-78.78H442.53z"/>
				<path class="st6" d="M537.73,1050.55V880.74h26.19v169.82H537.73z"/>
				<rect x="596.13" y="880.74" class="st6" width="28.27" height="28.89"/>
				<rect x="597.38" y="927.5" class="st6" width="25.98" height="123.05"/>
				<path class="st6" d="M654.54,1050.55V930.62h25.57v15.17h0.21c2.08-4.43,5.92-8.69,11.54-12.78c5.61-4.09,12.85-6.13,21.72-6.13
					c11.91,0,21.41,3.67,28.48,11.02c7.07,7.35,10.6,19.19,10.6,35.54v77.11h-26.4v-73.58c0-18.43-6.24-27.64-18.71-27.64
					c-7.62,0-13.96,3.05-19.02,9.15c-5.06,6.1-7.59,13.65-7.59,22.66v69.42H654.54z"/>
				<path class="st6" d="M772.81,990.07c0-19.26,5.3-34.61,15.9-46.04s23.94-17.15,40.01-17.15c15.8,0,28.82,5.75,39.08,17.25
					c10.25,11.5,15.38,26.47,15.38,44.9c0,3.6-0.21,7.14-0.62,10.6h-83.14c0,9.15,2.73,17.01,8.21,23.59
					c5.47,6.58,12.99,9.87,22.55,9.87c6.65,0,12.5-1.63,17.56-4.88c5.06-3.25,8.9-7.45,11.54-12.58l22.03,7.48
					c-3.88,8.87-10.18,16.28-18.91,22.24c-8.73,5.96-19.61,8.94-32.63,8.94c-16.77,0-30.45-5.82-41.05-17.46
					C778.11,1025.19,772.81,1009.61,772.81,990.07z M799.83,981.13h56.54c0-9.15-2.43-16.94-7.27-23.38
					c-4.85-6.44-11.64-9.67-20.37-9.67s-15.69,3.29-20.89,9.87C802.63,964.54,799.96,972.26,799.83,981.13z"/>
				<path class="st6" d="M895.65,1025.61l18.91-11.02c8.31,12.2,19.12,18.29,32.42,18.29c6.51,0,11.67-1.28,15.48-3.85
					c3.81-2.56,5.72-5.99,5.72-10.29c0-3.46-1.56-6.51-4.68-9.15c-3.12-2.63-6.41-4.61-9.87-5.92c-3.47-1.32-8.66-3.08-15.59-5.3
					c-1.25-0.42-2.15-0.69-2.7-0.83c-4.99-1.66-9.18-3.29-12.58-4.88c-3.4-1.59-6.96-3.74-10.7-6.44s-6.58-6.1-8.52-10.18
					c-1.94-4.09-2.91-8.83-2.91-14.24c0-10.53,4.43-18.98,13.3-25.36c8.87-6.37,19.88-9.56,33.05-9.56c9.84,0,19.12,2.6,27.85,7.79
					c8.73,5.2,15.24,11.81,19.54,19.85l-17.46,10.6c-8.18-11.22-18.08-16.84-29.72-16.84c-6.38,0-11.26,1.28-14.65,3.85
					c-3.4,2.57-5.09,5.92-5.09,10.08c0,3.47,1.49,6.55,4.47,9.25c2.98,2.7,6.06,4.68,9.25,5.92c3.19,1.25,7.69,2.84,13.51,4.78
					c1.52,0.42,2.63,0.76,3.33,1.04c24.66,7.9,37,19.82,37,35.75c0,9.84-4.12,18.19-12.37,25.05c-8.25,6.86-19.92,10.29-35.02,10.29
					c-11.64,0-22-2.57-31.07-7.69C907.46,1041.48,900.49,1034.48,895.65,1025.61z"/>
				<path class="st6" d="M5,904.22v-23.49h122.22v23.49H79.83v146.33H52.39V904.22H5z"/>
				<path class="st6" d="M133.87,1050.55V930.62h25.36v12.89c2.63-4.43,6.41-8.31,11.33-11.64c4.92-3.33,10.77-4.99,17.56-4.99
					c6.37,0,11.57,0.9,15.59,2.7v23.9c-5.27-1.66-10.46-2.49-15.59-2.49c-9.01,0-15.9,3.5-20.68,10.5c-4.78,7-7.17,16.32-7.17,27.96
					v61.11H133.87z"/>
				<path class="st6" d="M215.97,1007.11v-76.49h26.4v73.16c0,18.71,6.58,28.06,19.75,28.06c7.9,0,14.06-3.36,18.5-10.08
					c4.43-6.72,6.65-14.72,6.65-24.01v-67.14h26.19v119.93h-25.36v-13.93h-0.21c-1.94,4.3-5.65,8.31-11.12,12.06
					c-5.48,3.74-12.3,5.61-20.47,5.61c-4.85,0-9.46-0.73-13.82-2.18c-4.36-1.45-8.63-3.81-12.78-7.07
					c-4.16-3.25-7.48-8.14-9.98-14.65C217.22,1023.88,215.97,1016.12,215.97,1007.11z"/>
				<path class="st6" d="M333.2,1025.61l18.91-11.02c8.31,12.2,19.12,18.29,32.42,18.29c6.51,0,11.67-1.28,15.48-3.85
					c3.81-2.56,5.72-5.99,5.72-10.29c0-3.46-1.56-6.51-4.68-9.15c-3.12-2.63-6.41-4.61-9.87-5.92c-3.47-1.32-8.66-3.08-15.59-5.3
					c-1.25-0.42-2.15-0.69-2.7-0.83c-4.99-1.66-9.18-3.29-12.58-4.88c-3.4-1.59-6.96-3.74-10.7-6.44s-6.58-6.1-8.52-10.18
					c-1.94-4.09-2.91-8.83-2.91-14.24c0-10.53,4.43-18.98,13.3-25.36c8.87-6.37,19.88-9.56,33.05-9.56c9.84,0,19.12,2.6,27.85,7.79
					c8.73,5.2,15.24,11.81,19.54,19.85l-17.46,10.6c-8.18-11.22-18.08-16.84-29.72-16.84c-6.38,0-11.26,1.28-14.65,3.85
					c-3.4,2.57-5.09,5.92-5.09,10.08c0,3.47,1.49,6.55,4.47,9.25c2.98,2.7,6.06,4.68,9.25,5.92c3.19,1.25,7.69,2.84,13.51,4.78
					c1.52,0.42,2.63,0.76,3.33,1.04c24.66,7.9,37,19.82,37,35.75c0,9.84-4.12,18.19-12.37,25.05c-8.25,6.86-19.92,10.29-35.02,10.29
					c-11.64,0-22-2.57-31.07-7.69C345.01,1041.48,338.05,1034.48,333.2,1025.61z"/>
				<path class="st6" d="M442.53,935.19v-22.45h18.5v-32.01h26.19v32.01h27.44v22.45h-27.44v76.91c0,5.68,1.14,9.77,3.43,12.26
					c2.29,2.49,5.78,3.74,10.5,3.74h13.72v22.45h-17.04c-24.53,0-36.79-12.19-36.79-36.58v-78.78H442.53z"/>
				<path class="st6" d="M537.73,1050.55V880.74h26.19v169.82H537.73z"/>
				<rect x="596.13" y="880.74" class="st6" width="28.27" height="28.89"/>
				<rect x="597.38" y="927.5" class="st6" width="25.98" height="123.05"/>
				<path class="st6" d="M654.54,1050.55V930.62h25.57v15.17h0.21c2.08-4.43,5.92-8.69,11.54-12.78c5.61-4.09,12.85-6.13,21.72-6.13
					c11.91,0,21.41,3.67,28.48,11.02c7.07,7.35,10.6,19.19,10.6,35.54v77.11h-26.4v-73.58c0-18.43-6.24-27.64-18.71-27.64
					c-7.62,0-13.96,3.05-19.02,9.15c-5.06,6.1-7.59,13.65-7.59,22.66v69.42H654.54z"/>
				<path class="st6" d="M772.81,990.07c0-19.26,5.3-34.61,15.9-46.04s23.94-17.15,40.01-17.15c15.8,0,28.82,5.75,39.08,17.25
					c10.25,11.5,15.38,26.47,15.38,44.9c0,3.6-0.21,7.14-0.62,10.6h-83.14c0,9.15,2.73,17.01,8.21,23.59
					c5.47,6.58,12.99,9.87,22.55,9.87c6.65,0,12.5-1.63,17.56-4.88c5.06-3.25,8.9-7.45,11.54-12.58l22.03,7.48
					c-3.88,8.87-10.18,16.28-18.91,22.24c-8.73,5.96-19.61,8.94-32.63,8.94c-16.77,0-30.45-5.82-41.05-17.46
					C778.11,1025.19,772.81,1009.61,772.81,990.07z M799.83,981.13h56.54c0-9.15-2.43-16.94-7.27-23.38
					c-4.85-6.44-11.64-9.67-20.37-9.67s-15.69,3.29-20.89,9.87C802.63,964.54,799.96,972.26,799.83,981.13z"/>
				<path class="st6" d="M895.65,1025.61l18.91-11.02c8.31,12.2,19.12,18.29,32.42,18.29c6.51,0,11.67-1.28,15.48-3.85
					c3.81-2.56,5.72-5.99,5.72-10.29c0-3.46-1.56-6.51-4.68-9.15c-3.12-2.63-6.41-4.61-9.87-5.92c-3.47-1.32-8.66-3.08-15.59-5.3
					c-1.25-0.42-2.15-0.69-2.7-0.83c-4.99-1.66-9.18-3.29-12.58-4.88c-3.4-1.59-6.96-3.74-10.7-6.44s-6.58-6.1-8.52-10.18
					c-1.94-4.09-2.91-8.83-2.91-14.24c0-10.53,4.43-18.98,13.3-25.36c8.87-6.37,19.88-9.56,33.05-9.56c9.84,0,19.12,2.6,27.85,7.79
					c8.73,5.2,15.24,11.81,19.54,19.85l-17.46,10.6c-8.18-11.22-18.08-16.84-29.72-16.84c-6.38,0-11.26,1.28-14.65,3.85
					c-3.4,2.57-5.09,5.92-5.09,10.08c0,3.47,1.49,6.55,4.47,9.25c2.98,2.7,6.06,4.68,9.25,5.92c3.19,1.25,7.69,2.84,13.51,4.78
					c1.52,0.42,2.63,0.76,3.33,1.04c24.66,7.9,37,19.82,37,35.75c0,9.84-4.12,18.19-12.37,25.05c-8.25,6.86-19.92,10.29-35.02,10.29
					c-11.64,0-22-2.57-31.07-7.69C907.46,1041.48,900.49,1034.48,895.65,1025.61z"/>
			</g>
			<g>
				<path class="st6" d="M150.06,1180.98v-72.4h27.95c7.39,0,13.18,1.99,17.38,5.96c4.19,3.98,6.29,9.26,6.29,15.84
					c0,6.77-2.14,12.11-6.43,16.03s-9.97,5.87-17.05,5.87h-17.52v28.7H150.06z M160.68,1143.25h15.93c4.47,0,7.93-1.09,10.39-3.26
					c2.45-2.17,3.68-5.37,3.68-9.6c0-4.16-1.21-7.31-3.63-9.46c-2.42-2.14-5.93-3.21-10.53-3.21h-15.84V1143.25z"/>
				<path class="st6" d="M242.42,1180.98v-72.4h28.98c7.33,0,12.97,1.94,16.91,5.82c3.94,3.88,5.92,8.71,5.92,14.49
					c0,4.97-1.18,9.04-3.54,12.21c-2.36,3.17-5,5.25-7.92,6.24c2.42,1.55,4.16,3.26,5.22,5.12c1.06,1.86,1.96,4.6,2.7,8.2
					c0.81,3.85,1.74,7.27,2.8,10.25c1.06,2.98,2.67,6.34,4.85,10.06H286.4c-2.73-4.6-5.03-11.12-6.89-19.57
					c-0.68-3.29-1.76-5.81-3.22-7.55c-1.46-1.74-3.74-2.61-6.85-2.61h-16.4v29.72H242.42z M253.04,1142.22h16.68
					c4.35,0,7.69-1.1,10.02-3.31c2.33-2.2,3.49-5.26,3.49-9.18c0-3.6-1.21-6.51-3.63-8.71c-2.42-2.2-5.87-3.31-10.34-3.31h-16.21
					V1142.22z"/>
				<path class="st6" d="M332.07,1144.83c0-11.37,2.81-20.53,8.43-27.49c5.62-6.96,13.09-10.44,22.41-10.44
					c9.32,0,16.76,3.48,22.31,10.44c5.56,6.96,8.34,16.15,8.34,27.58c0,11.49-2.8,20.65-8.39,27.49
					c-5.59,6.83-13.01,10.25-22.27,10.25c-9.32,0-16.79-3.43-22.41-10.3C334.88,1165.5,332.07,1156.32,332.07,1144.83z
					 M343.16,1144.83c0,8.82,1.75,15.81,5.26,20.96c3.51,5.16,8.34,7.73,14.49,7.73c6.09,0,10.88-2.55,14.39-7.64
					c3.51-5.09,5.27-12.08,5.27-20.96c0-8.76-1.72-15.76-5.17-21.01c-3.45-5.25-8.28-7.87-14.49-7.87c-6.15,0-10.98,2.59-14.49,7.78
					C344.91,1129.01,343.16,1136.01,343.16,1144.83z"/>
				<path class="st6" d="M425.36,1117.72v-9.13h53.2v9.13h-21.24v63.27h-10.62v-63.27H425.36z"/>
				<path class="st6" d="M510.91,1144.83c0-11.37,2.81-20.53,8.43-27.49c5.62-6.96,13.09-10.44,22.41-10.44s16.76,3.48,22.31,10.44
					c5.56,6.96,8.34,16.15,8.34,27.58c0,11.49-2.8,20.65-8.39,27.49c-5.59,6.83-13.01,10.25-22.27,10.25
					c-9.32,0-16.79-3.43-22.41-10.3C513.72,1165.5,510.91,1156.32,510.91,1144.83z M522,1144.83c0,8.82,1.75,15.81,5.26,20.96
					c3.51,5.16,8.34,7.73,14.49,7.73c6.09,0,10.89-2.55,14.39-7.64c3.51-5.09,5.27-12.08,5.27-20.96c0-8.76-1.72-15.76-5.17-21.01
					c-3.45-5.25-8.28-7.87-14.49-7.87c-6.15,0-10.98,2.59-14.49,7.78C523.75,1129.01,522,1136.01,522,1144.83z"/>
				<path class="st6" d="M609.42,1144.83c0-11.68,2.95-20.92,8.85-27.72c5.9-6.8,13.54-10.2,22.92-10.2
					c6.02,0,11.15,1.65,15.37,4.94c4.22,3.29,7.36,7.3,9.41,12.02l-9.13,3.07c-4.1-7.27-9.38-10.9-15.84-10.9
					c-6.27,0-11.27,2.62-15,7.87c-3.73,5.25-5.59,12.22-5.59,20.92c0,8.82,1.89,15.81,5.68,20.96c3.79,5.16,8.76,7.73,14.91,7.73
					c4.04,0,7.56-1.18,10.57-3.54c3.01-2.36,5.23-5.25,6.66-8.67l9.6,2.98c-0.93,2.24-2.11,4.33-3.54,6.29
					c-1.43,1.96-3.2,3.9-5.31,5.82c-2.11,1.93-4.71,3.45-7.78,4.57s-6.41,1.68-10.02,1.68c-9.19,0-16.79-3.35-22.78-10.06
					C612.41,1165.89,609.42,1156.63,609.42,1144.83z"/>
				<path class="st6" d="M702.89,1144.83c0-11.37,2.81-20.53,8.43-27.49c5.62-6.96,13.09-10.44,22.41-10.44
					c9.32,0,16.76,3.48,22.31,10.44c5.56,6.96,8.34,16.15,8.34,27.58c0,11.49-2.8,20.65-8.39,27.49
					c-5.59,6.83-13.01,10.25-22.27,10.25c-9.32,0-16.79-3.43-22.41-10.3C705.7,1165.5,702.89,1156.32,702.89,1144.83z
					 M713.98,1144.83c0,8.82,1.75,15.81,5.26,20.96c3.51,5.16,8.34,7.73,14.49,7.73c6.09,0,10.88-2.55,14.39-7.64
					c3.51-5.09,5.27-12.08,5.27-20.96c0-8.76-1.72-15.76-5.17-21.01c-3.45-5.25-8.28-7.87-14.49-7.87c-6.15,0-10.98,2.59-14.49,7.78
					C715.73,1129.01,713.98,1136.01,713.98,1144.83z"/>
				<path class="st6" d="M805.96,1180.98v-72.4h10.62v63.27h33.36v9.13H805.96z"/>
			</g>
		</g>
	</g>
</g>
</svg>
