<svg id="Layer_2" data-name="Layer 2" xmlns="http://www.w3.org/2000/svg" viewBox="0 0 2133.9 742.23"><defs><style>.cls-1{fill:#ededed;}</style></defs><polygon class="cls-1" points="639.51 278.71 705.07 278.71 705.07 458.66 743.2 458.66 743.2 278.71 808.77 278.71 808.77 246.5 639.51 246.5 639.51 278.71"/><path class="cls-1" d="M891.27,297.26A41,41,0,0,0,867,304.77c-7.1,5-12.07,12.11-15,21.29h-1.64V299.54H814V458.66H851.5V365.12a34.16,34.16,0,0,1,4.67-17.93A32.8,32.8,0,0,1,868.94,335a38,38,0,0,1,18.39-4.41,75.94,75.94,0,0,1,9.9.68,42,42,0,0,1,7.52,1.5v-34.5a54,54,0,0,0-6.49-.78C895.68,297.35,893.35,297.26,891.27,297.26Z"/><path class="cls-1" d="M1031.54,391.73q0,12.13-5,20.15A32.81,32.81,0,0,1,1013.7,424a34.31,34.31,0,0,1-16,4q-13.47,0-21.76-8.91t-8.28-24V299.54H930.13V400.85q0,19.06,6.72,32.47a47.78,47.78,0,0,0,18.7,20.42q12,7,27.61,7,17.91,0,30.19-8.5A48.06,48.06,0,0,0,1031,430.38h1.66v28.28H1069V299.54h-37.5Z"/><path class="cls-1" d="M1184.7,367.91l-27.13-5.81q-12.13-2.79-17.36-7.14a13.76,13.76,0,0,1-5.13-11.3q-.09-8.07,7.83-13.14t19.63-5.09a34.63,34.63,0,0,1,14.7,2.81,25.61,25.61,0,0,1,9.58,7.35,27.61,27.61,0,0,1,5,9.74l34.18-3.74q-3.81-20.29-19.94-32.21T1162,297.47q-19,0-33.61,5.95t-22.68,16.79q-8.16,10.83-8,25.54-.11,17.38,10.89,28.74t33.88,16.1l27.12,5.7c7.32,1.59,12.74,3.87,16.22,6.84a14.2,14.2,0,0,1,5.24,11.29q0,8.08-8.13,13.57t-21.5,5.5q-12.95,0-21-5.5t-10.56-16.26l-36.57,3.53q3.42,21.94,21.23,34.22t47,12.29q19.89,0,35.24-6.43t24-17.86a43.23,43.23,0,0,0,8.74-26.48q-.09-17.08-11.13-27.65T1184.7,367.91Z"/><path class="cls-1" d="M1329,428.72a38.27,38.27,0,0,1-6.49.52,23.88,23.88,0,0,1-8.48-1.45,12,12,0,0,1-6.18-5.45q-2.33-4-2.32-11.54V328.54H1337v-29h-31.38V261.42h-37.49v38.12h-22.6v29h22.6V417q-.11,14.92,6.46,24.86a38.78,38.78,0,0,0,17.88,14.66,60.53,60.53,0,0,0,25.38,4.31,72.35,72.35,0,0,0,13.52-1.46,84.79,84.79,0,0,0,8.55-2.28l-6.34-29.31C1332.5,428.06,1331,428.37,1329,428.72Z"/><rect class="cls-1" x="1366.18" y="246.5" width="37.49" height="212.16"/><path class="cls-1" d="M1461.53,236.24a21.73,21.73,0,0,0-15.32,6,18.85,18.85,0,0,0-6.42,14.35,19.12,19.12,0,0,0,6.36,14.39,22.64,22.64,0,0,0,30.68.06,19.45,19.45,0,0,0,0-28.75A21.58,21.58,0,0,0,1461.53,236.24Z"/><rect class="cls-1" x="1442.68" y="299.54" width="37.49" height="159.12"/><path class="cls-1" d="M1633.09,304.52q-12.28-7-28.75-7-17.82,0-29.89,7.87a45.38,45.38,0,0,0-17.55,21.23H1555v-27h-35.86V458.66h37.5V365.42c0-7.67,1.44-14.18,4.29-19.58a30.1,30.1,0,0,1,11.92-12.38,35,35,0,0,1,17.47-4.29q14.49,0,22.72,9t8.24,25v95.51h37.5V357.34q.09-19.05-6.69-32.42A47.7,47.7,0,0,0,1633.09,304.52Z"/><path class="cls-1" d="M1816.2,316.73A64,64,0,0,0,1793,302.18a81.61,81.61,0,0,0-27.8-4.71q-22.82,0-39.69,10.41a70.43,70.43,0,0,0-26.25,29q-9.37,18.62-9.38,43.15,0,25,9.31,43.36a66.9,66.9,0,0,0,26.69,28.37q17.36,10,41.29,10,18.54,0,32.93-5.66a61.05,61.05,0,0,0,23.67-15.95A54.46,54.46,0,0,0,1836.34,416l-35-4a28.9,28.9,0,0,1-7.36,11.3,32.14,32.14,0,0,1-11.5,6.89,44.36,44.36,0,0,1-14.82,2.33,42.24,42.24,0,0,1-21.34-5.23,35.78,35.78,0,0,1-14.18-15.12c-3.27-6.36-4.87-14-5-22.85H1837.9v-11.5q0-20.93-5.79-36.09T1816.2,316.73Zm-88.86,47.35a41.2,41.2,0,0,1,4.65-17.36,38.44,38.44,0,0,1,13.52-14.49,36.67,36.67,0,0,1,20.18-5.55,36,36,0,0,1,18.91,4.87,34.34,34.34,0,0,1,12.69,13.31,40.56,40.56,0,0,1,4.67,19.22Z"/><path class="cls-1" d="M1980.36,383.35q-11.05-10.58-33.62-15.44l-27.15-5.81q-12.13-2.79-17.36-7.14a13.72,13.72,0,0,1-5.12-11.3q-.1-8.07,7.82-13.14t19.63-5.09a34.56,34.56,0,0,1,14.71,2.81,25.69,25.69,0,0,1,9.6,7.35,28.09,28.09,0,0,1,5,9.74l34.19-3.74q-3.84-20.29-19.94-32.21T1924,297.47q-19,0-33.62,5.95t-22.68,16.79q-8.12,10.83-8,25.54-.09,17.38,10.87,28.74t33.88,16.1l27.15,5.7q11,2.38,16.19,6.84a14.2,14.2,0,0,1,5.24,11.29q0,8.08-8.13,13.57t-21.5,5.5q-12.95,0-21-5.5t-10.57-16.26l-36.55,3.53q3.42,21.94,21.24,34.22t47,12.29q19.89,0,35.22-6.43t24-17.86a43.13,43.13,0,0,0,8.77-26.48Q1991.39,393.92,1980.36,383.35Z"/><path class="cls-1" d="M543.4,358.93v-.14c0-1.6-.1-3.2-.18-4.76v-.26c-.08-1.5-.18-3-.3-4.66l0-.31c-.11-1.44-.24-2.94-.4-4.56l0-.39c-.16-1.49-.33-3-.51-4.46l-.06-.45c-.19-1.47-.39-2.94-.61-4.36l-.08-.52c-.22-1.44-.46-2.86-.71-4.28l-.09-.54c-.25-1.41-.52-2.81-.81-4.21l-.12-.59c-.28-1.39-.58-2.77-.9-4.15l-.13-.59c-.33-1.38-.66-2.75-1-4.13l-.14-.53c-.36-1.37-.72-2.73-1.11-4.09l-.16-.58c-.39-1.35-.79-2.7-1.2-4l-.17-.56c-.46-1.45-.88-2.75-1.3-4l-.2-.61c-.44-1.3-.9-2.61-1.38-3.91l-.21-.57c-.48-1.3-1-2.61-1.48-3.9l-.21-.53c-.52-1.32-1.05-2.62-1.58-3.85l-.23-.56c-.55-1.28-1.1-2.56-1.68-3.83l-.21-.47c-.58-1.28-1.18-2.55-1.79-3.82l-.21-.45c-.62-1.27-1.25-2.54-1.89-3.8l-.21-.4c-.65-1.26-1.31-2.51-2-3.77l-.22-.41c-.68-1.25-1.37-2.49-2.08-3.72l-.2-.33q-1.08-1.87-2.19-3.72l-.19-.3q-1.14-1.89-2.33-3.73l-.09-.14q-1.22-1.89-2.48-3.77l-.1-.15c-.91-1.35-1.74-2.54-2.53-3.64l-.05-.08-.05-.07q-1.31-1.82-2.62-3.6l-.13-.17c-.87-1.16-1.75-2.3-2.64-3.44l-.24-.31q-1.35-1.71-2.73-3.39l-.18-.22c-.91-1.1-1.84-2.2-2.77-3.28l-.28-.33c-.92-1-1.84-2.09-2.78-3.12l-.35-.39q-1.39-1.53-2.82-3l-.38-.4c-.94-1-1.89-1.95-2.85-2.92l-.44-.44c-1-1-2.07-2.05-3.14-3.06l0-.06c-2.46-2.34-5.1-4.71-7.84-7.06a.75.75,0,0,0-1.24.49c-.55,5.64.91,7,4.1,10l.83.78a188.42,188.42,0,1,1-129.91-52,189.77,189.77,0,0,1,41.82,4.66c5.44,1.23,8.17,1.85,13.11-1.4a.72.72,0,0,0,.33-.73.74.74,0,0,0-.53-.61c-3.67-1.08-7.3-2-10.78-2.84l-.12,0c-1.46-.33-3-.66-4.59-1l-.16,0c-1.37-.28-2.88-.57-4.61-.88l-.14,0c-1.54-.27-3.11-.53-4.66-.77l-.16,0c-1.5-.23-3.09-.46-4.69-.66l-.1,0c-1.64-.2-3.25-.38-4.79-.54h-.11c-1.41-.15-3-.28-4.88-.44-4.92-.37-10-.56-14.94-.56-1.78,0-3.42,0-5,.06s-3.38.11-5,.19-3.28.19-5,.31-3.22.27-4.92.44-3.25.35-4.89.56-3.23.43-4.84.68c-1.78.27-3.36.53-4.81.79-1.61.29-3.22.6-4.76.92s-3.19.67-4.72,1-3.11.73-4.68,1.14-3.13.83-4.63,1.25-3,.86-4.55,1.36h-.05c-1.41.44-2.89.92-4.54,1.47s-3,1.05-4.49,1.58-2.88,1.08-4.44,1.69-3,1.2-4.38,1.79l-.05,0c-1.42.6-2.87,1.23-4.29,1.87s-2.9,1.34-4.27,2-2.88,1.41-4.22,2.09c-2.71,1.39-5.49,2.9-8.26,4.5-1.31.74-2.65,1.54-4,2.36l0,0c-1.37.83-2.69,1.66-3.95,2.46l0,0a197.79,197.79,0,0,0-18.87,13.77c-1.29,1.07-2.46,2-3.56,3s-2.32,2-3.5,3.1c-4.57,4.15-9,8.59-13.18,13.18-1,1.12-2.06,2.29-3.1,3.49s-1.91,2.24-3,3.53l0,0a195.29,195.29,0,0,0-13.77,18.87c-.85,1.33-1.68,2.67-2.48,4v0c-.83,1.37-1.63,2.71-2.37,4-1.57,2.73-3.08,5.51-4.49,8.27-.73,1.43-1.44,2.85-2.1,4.22s-1.34,2.82-2,4.27-1.27,2.87-1.87,4.29l0,.05c-.66,1.56-1.24,3-1.79,4.38s-1.14,3-1.69,4.44-1.07,3-1.58,4.5-1,3.09-1.47,4.53-.95,3.12-1.37,4.59-.82,3-1.25,4.64-.8,3.17-1.14,4.68-.72,3.18-1,4.72-.62,3.14-.92,4.76-.54,3.17-.79,4.81v0c-.22,1.52-.45,3.09-.67,4.82-.2,1.57-.39,3.21-.56,4.89s-.31,3.26-.43,4.91-.24,3.38-.32,5-.14,3.31-.19,5-.06,3.23-.06,5,0,3.42.06,5,.11,3.35.19,5,.18,3.21.32,5,.27,3.3.43,4.92.36,3.32.56,4.88.44,3.29.67,4.82v0c.26,1.72.52,3.29.79,4.81s.6,3.22.91,4.74v0c.31,1.52.65,3.11,1,4.72s.71,3,1.14,4.69.84,3.19,1.25,4.63.88,3,1.37,4.59.93,2.92,1.47,4.54,1,3,1.58,4.49,1.12,3,1.69,4.44c1.12,2.85,2.36,5.76,3.67,8.67l0,.05c1.28,2.82,2.65,5.67,4.08,8.45,0,0,0,0,0,.05,2.12,4.14,4.42,8.26,6.85,12.26l0,0c.81,1.32,1.64,2.66,2.48,4A195.85,195.85,0,0,0,202.13,491c1,1.15,2,2.31,3.06,3.44l0,0a197,197,0,0,0,16.67,16.28c1.15,1,2.35,2,3.57,3a195.29,195.29,0,0,0,18.87,13.77h0c2.54,1.63,5.2,3.25,7.93,4.82l.06,0c2.8,1.61,5.58,3.12,8.26,4.48,1.38.71,2.78,1.41,4.16,2.07l.06,0c1.39.68,2.83,1.35,4.27,2,1.26.57,2.6,1.16,4.34,1.9,1.54.65,3,1.24,4.38,1.79s2.8,1.08,4.45,1.69,3,1.08,4.49,1.58,3,1,4.53,1.48h0c1.62.5,3.11.94,4.55,1.35s3.12.86,4.64,1.26,3.19.79,4.68,1.14,3.09.69,4.72,1c1.45.29,3,.59,4.77.91,1.6.28,3.22.55,4.8.79s3.11.46,4.85.68,3.38.41,4.88.56c1.68.17,3.33.32,4.92.44,1.76.13,3.38.23,5,.31s3.31.15,5,.19,3.3.06,5,.06,3.4,0,5-.06,3.36-.11,5-.19,3.18-.18,4.95-.31c1.57-.12,3.23-.27,4.92-.44,1.49-.15,3.09-.33,4.88-.56s3.31-.44,4.82-.67h0c1.61-.24,3.23-.51,4.81-.79,1.76-.32,3.32-.62,4.76-.91,1.83-.38,3.33-.71,4.72-1s3-.72,4.69-1.14,3.07-.82,4.63-1.26,2.93-.85,4.59-1.36c1.49-.47,3-1,4.54-1.48s3-1,4.49-1.58,3.08-1.15,4.44-1.69,2.84-1.14,4.39-1.79c1.74-.74,3.07-1.33,4.33-1.9,2.84-1.29,5.7-2.66,8.5-4.1,5.55-2.84,11-6,16.27-9.35,1.26-.81,2.57-1.67,3.91-2.58a195.52,195.52,0,0,0,18.5-14.17l0,0c1.14-1,2.32-2,3.49-3.1l0,0c1.07-1,2.18-2,3.37-3.13s2.25-2.18,3.34-3.26,2.28-2.31,3.26-3.34c2.14-2.24,4.25-4.57,6.27-6.9,1-1.18,2-2.38,3-3.56a198.3,198.3,0,0,0,13.76-18.88c3.36-5.25,6.51-10.72,9.36-16.27l0-.05c1.44-2.81,2.81-5.66,4.07-8.45l0-.05c1.3-2.87,2.53-5.79,3.67-8.67.57-1.44,1.14-2.94,1.69-4.44s1.07-3,1.58-4.49,1-3.07,1.48-4.54.94-3.11,1.36-4.59.85-3.09,1.25-4.63.76-3,1.15-4.69.71-3.19,1-4.72v0c.31-1.52.62-3.12.91-4.74s.56-3.26.79-4.81v0c.23-1.49.45-3.07.67-4.82.2-1.57.39-3.17.56-4.88s.32-3.35.44-4.92.23-3.33.31-4.95.15-3.28.19-5,.06-3.31.06-5S543.44,360.52,543.4,358.93Z"/><path class="cls-1" d="M500.51,379.62c0-.12,0-.25,0-.38l0-.2a3.11,3.11,0,0,0-.11-.4,1.31,1.31,0,0,0-.05-.15l0-.09a1.88,1.88,0,0,0-.14-.24l-.05-.08L500,378a2.41,2.41,0,0,0-.37-.41l-103.2-91.05,80.59-126.35a2.64,2.64,0,0,0-3.94-3.42L361.25,253,350.5,214.86a2.65,2.65,0,0,0-1.47-1.7,2.61,2.61,0,0,0-2.25.06l-22.89,11.41h0l.14.36h0l-.18-.33,0,0,0,0h0l-.1.07-.13.08-.16.1-.05,0,0,0-.11.09.28.27-.32-.22-.06,0-.1.11a.69.69,0,0,0-.1.12l-.13.19a.41.41,0,0,0-.07.11.54.54,0,0,0-.08.17l0,0a.37.37,0,0,0-.05.11l-8.47,21.3-24.78,1.5a2.62,2.62,0,0,0-2.24,1.54c-.54,1.16-5.39,11.63-11,23.9l-28.72,1.85a2.62,2.62,0,0,0-2.29,1.68c-.33.86-4.09,10.56-8.14,21.08l-23.36,1.59a2.67,2.67,0,0,0-2.28,1.67c-4.76,12.2-20.42,52.37-21.84,57.07l-.07.23a1.29,1.29,0,0,0,0,.19c0,.11,0,.21,0,.34V360a3.31,3.31,0,0,0,0,.42s0,.05,0,.08l.1.38a.73.73,0,0,1,.05.12,1.66,1.66,0,0,0,.13.27l.09.17,0,0,.06.1,23.56,32.24-15,23.93a2.63,2.63,0,0,0,.72,3.56l28.66,20.13-10.17,22.14a2.62,2.62,0,0,0,1.41,3.54l106.82,43.08.08,0,.3.09.08,0a2.24,2.24,0,0,0,.48.06h0a2.41,2.41,0,0,0,.5-.06,1.34,1.34,0,0,0,.27-.07l.12,0,.18-.07.07,0,.11-.06.12-.06.06-.05.11-.08.25-.2.09-.08.11-.13.06-.07a.69.69,0,0,0,.11-.13.15.15,0,0,0,0-.05l0-.06a.91.91,0,0,0,.07-.14,1.59,1.59,0,0,0,.14-.3l0-.07,0-.15a2.12,2.12,0,0,0,.08-.38l0-.07,12.43-123.68,106.91,19.36,15.09,20.63a2.7,2.7,0,0,0,3.23.84l29.1-13.37.07,0a2.11,2.11,0,0,0,.45-.28l.14-.12a3.17,3.17,0,0,0,.34-.37l.07-.09a2.42,2.42,0,0,0,.29-.55l0-.1-.37-.09.39,0c0-.11.07-.21.09-.32s0-.08,0-.11v-.08l2.84-30ZM280.1,278.2c5.09-11.16,9.65-21,11.12-24.21l17.28-1Zm83.74-20.47L463,172.41,392.47,283Zm79.31,131-49.34-59.16,23.7-15.69ZM329.7,227.61l16.59-8.26,8.58,30.47Zm39.66,118.17,20-13.26,47.69,57.19Zm68.39,50.65-93.73-17,21.23-30.06ZM383.59,299.9l-40.54-53.48,71.53,63.1-23.19,15.36L384,300.7c0-.12-.08-.23-.12-.32l0-.05a1.9,1.9,0,0,0-.23-.39Zm-18.72,2.89L379.48,304l5.11,16.7Zm-7.3-5.86a2.63,2.63,0,0,0-2,4.58l30,27.19-20,13.27-46.74-92.24,6.92-17.41,50.08,66.06ZM336.19,381.5l-35.55,53.79-3-99.53ZM195.5,360.45,247.74,314l-34.86,70.21Zm2.5-9.28c4.43-11.66,12.14-31.53,17.62-45.55l19.24-1.31c-4.57,11.89-7.32,19.07-8.16,21.35Zm37.21-33.07c3.79-9.88,9.72-25.26,14.19-36.83l24.22-1.56c-1.08,2.36-2.16,4.75-3.23,7.12Zm62.43,9.54,17.78-65.75L335.15,372.1Zm-77,52.9L254,313.19l2.16,40.69Zm-3.62,9.3,39.72-29.76,11.21,99.44Zm78.24,40.51L262.15,356l30.11-22.56Zm-34-80.28-2.22-42,31.11,20.35Zm-.8-47.36,50.64-45-18,66.4Zm-43.72,95.73,43.37,59.33-56-39.29Zm89.75,98.34-83-33.47,8.62-18.75Zm14,3.39-46.37-32.55-10.84-96.1Zm15.29-108.5-10.65,106-23.89-53.73Zm25.7-46.09L341,374.64,321.7,267.05ZM493.11,378.8l-41.3,19-27.2-79.42Zm1.72,5-2.13,22.56L459,400.27Zm-8.49,26.77-19.54,9-10.54-14.42ZM323.88,225.08Zm-.26.17ZM189.75,360.47ZM328.37,509.38Z"/></svg>