<svg id="Layer_2" data-name="Layer 2" xmlns="http://www.w3.org/2000/svg" viewBox="0 0 1493.15 582.36"><defs><style>.cls-1{fill:#98989d;}</style></defs><polygon class="cls-1" points="112.42 134.17 172.53 134.17 172.53 299.13 207.47 299.13 207.47 134.17 267.58 134.17 267.58 104.64 112.42 104.64 112.42 134.17"/><path class="cls-1" d="M343.21,151.19A37.5,37.5,0,0,0,321,158.07q-9.75,6.87-13.73,19.51H305.7V153.27H272.37V299.13h34.37V213.4A31.28,31.28,0,0,1,311,197a30,30,0,0,1,11.72-11.16,34.76,34.76,0,0,1,16.86-4,71.9,71.9,0,0,1,9.07.62,36.9,36.9,0,0,1,6.89,1.37V152.13a46.85,46.85,0,0,0-5.94-.72C347.24,151.27,345.11,151.19,343.21,151.19Z"/><path class="cls-1" d="M471.78,237.78q0,11.11-4.61,18.48a30,30,0,0,1-11.73,11.05,31.23,31.23,0,0,1-14.71,3.7c-8.24,0-14.88-2.69-20-8.16s-7.59-12.77-7.59-22V153.27H378.82v92.87q0,17.48,6.17,29.77a44,44,0,0,0,17.14,18.72q11,6.39,25.3,6.39c11,0,20.18-2.57,27.68-7.78a44,44,0,0,0,16.19-20h1.53v25.91h33.32V153.27H471.78Z"/><path class="cls-1" d="M612.19,216l-24.88-5.33q-11.12-2.55-15.91-6.54a12.58,12.58,0,0,1-4.7-10.37q-.09-7.38,7.17-12.05t18-4.66a32.12,32.12,0,0,1,13.48,2.57,23.89,23.89,0,0,1,8.78,6.75,25.41,25.41,0,0,1,4.6,8.92l31.34-3.42q-3.51-18.62-18.28-29.53t-40.4-10.92q-17.48,0-30.82,5.46c-8.89,3.66-15.82,8.76-20.79,15.39a37.48,37.48,0,0,0-7.36,23.42q-.09,15.92,10,26.33c6.71,6.93,17.06,11.88,31.06,14.77L598.33,242q10.06,2.17,14.85,6.27a13.07,13.07,0,0,1,4.8,10.36q0,7.41-7.45,12.42t-19.71,5.06q-11.87,0-19.28-5.06t-9.68-14.91l-33.52,3.26q3.13,20.11,19.47,31.37T590.91,302q18.24,0,32.29-5.9t22-16.35a39.69,39.69,0,0,0,8-24.27c-.06-10.45-3.47-18.92-10.21-25.35S626,218.92,612.19,216Z"/><path class="cls-1" d="M744.49,271.69a34,34,0,0,1-5.93.48,22,22,0,0,1-7.79-1.32,11.15,11.15,0,0,1-5.65-5Q723,262.2,723,255.26V179.85h28.78V153.27H723V118.34H688.61v34.93h-20.7v26.58h20.7V261q-.09,13.68,5.94,22.78a35.55,35.55,0,0,0,16.38,13.44,55.9,55.9,0,0,0,23.26,4,65.41,65.41,0,0,0,12.39-1.35,73.47,73.47,0,0,0,7.84-2.09l-5.8-26.85C747.68,271.09,746.3,271.37,744.49,271.69Z"/><rect class="cls-1" x="778.55" y="104.64" width="34.37" height="194.49"/><path class="cls-1" d="M866,95.24a20,20,0,0,0-14.05,5.46,17.76,17.76,0,0,0,0,26.36,20.76,20.76,0,0,0,28.11,0A17.33,17.33,0,0,0,885.8,114,17.59,17.59,0,0,0,880,100.74,19.77,19.77,0,0,0,866,95.24Z"/><rect class="cls-1" x="848.68" y="153.27" width="34.37" height="145.86"/><path class="cls-1" d="M1023.21,157.83q-11.25-6.44-26.36-6.46-16.32,0-27.39,7.23A41.57,41.57,0,0,0,953.36,178h-1.7V153.27H918.8V299.13h34.37V213.68q0-10.55,3.94-18A27.58,27.58,0,0,1,968,184.37a31.92,31.92,0,0,1,16-3.94q13.29,0,20.84,8.26t7.55,22.9v87.54h34.37V206.25q.09-17.46-6.12-29.71A43.74,43.74,0,0,0,1023.21,157.83Z"/><path class="cls-1" d="M1191.06,169a58.49,58.49,0,0,0-21.26-13.34,74.6,74.6,0,0,0-25.5-4.33q-20.9,0-36.37,9.56a64.61,64.61,0,0,0-24.08,26.57q-8.58,17.06-8.58,39.56,0,22.89,8.53,39.73a61.25,61.25,0,0,0,24.46,26q15.91,9.17,37.84,9.16,17,0,30.2-5.18a56.33,56.33,0,0,0,21.7-14.62A50,50,0,0,0,1209.53,260l-32.09-3.62a26.14,26.14,0,0,1-6.75,10.37,29.58,29.58,0,0,1-10.53,6.31,40.4,40.4,0,0,1-13.58,2.13A38.62,38.62,0,0,1,1127,270.4a32.79,32.79,0,0,1-13-13.86c-3-5.83-4.53-12.81-4.64-20.93H1211V225.05q0-19.17-5.32-33.07A62.51,62.51,0,0,0,1191.06,169Zm-81.63,43.39a38.08,38.08,0,0,1,4.43-15.91,35.71,35.71,0,0,1,12.4-13.3,33.82,33.82,0,0,1,18.51-5.06,33.12,33.12,0,0,1,17.33,4.46,31.3,31.3,0,0,1,11.64,12.19,37.31,37.31,0,0,1,4.26,17.62Z"/><path class="cls-1" d="M1341.54,230.11q-10.11-9.71-30.82-14.16l-24.88-5.33q-11.11-2.55-15.9-6.54a12.59,12.59,0,0,1-4.71-10.37q-.09-7.38,7.18-12.05t18-4.66a32.06,32.06,0,0,1,13.48,2.57,23.93,23.93,0,0,1,8.79,6.75,25.41,25.41,0,0,1,4.6,8.92l31.34-3.42q-3.51-18.62-18.28-29.53t-40.41-10.92q-17.46,0-30.81,5.46c-8.89,3.66-15.82,8.76-20.79,15.39a37.48,37.48,0,0,0-7.36,23.42q-.09,15.92,10,26.33c6.71,6.93,17,11.88,31,14.77l24.88,5.22q10.07,2.17,14.86,6.27a13.07,13.07,0,0,1,4.8,10.36q0,7.41-7.45,12.42t-19.71,5.06q-11.86,0-19.28-5.06t-9.69-14.91l-33.51,3.26q3.13,20.11,19.46,31.37T1289.45,302q18.22,0,32.29-5.9t22-16.35a39.68,39.68,0,0,0,8-24.27C1351.68,245,1348.28,236.54,1341.54,230.11Z"/><polygon class="cls-1" points="441.64 401.63 399.54 401.8 399.81 469.69 410.05 469.65 409.94 440.05 438.78 439.93 438.74 431.15 409.9 431.26 409.82 410.58 441.68 410.45 441.64 401.63"/><path class="cls-1" d="M488.43,400.52c-17.64.07-30.54,13.28-30.46,35s13.1,34.82,30.74,34.75,30.51-13.28,30.42-35S506,400.45,488.43,400.52Zm.24,60.4c-11.7,0-20.46-8.91-20.52-25.45s8.61-25.56,20.32-25.6,20.45,8.9,20.52,25.44S500.34,460.87,488.67,460.92Z"/><path class="cls-1" d="M582.67,401.07l.18,43.83c0,9.21-6.31,15.87-16.65,15.91s-16.73-6.57-16.77-15.78l-.17-43.82-10.24,0,.17,44.65c.06,14.25,10.77,24.32,27,24.25s26.94-10.21,26.88-24.47L593,401Z"/><polygon class="cls-1" points="660.68 400.76 660.88 450.62 660.25 450.62 625.51 400.9 616.03 400.94 616.3 468.83 626.54 468.79 626.35 419 626.98 419 661.68 468.65 671.1 468.61 670.83 400.72 660.68 400.76"/><path class="cls-1" d="M716.81,400.54l-22.67.09.27,67.89,22-.09c20.69-.08,32.6-13,32.52-34.17S736.8,400.46,716.81,400.54Zm-1,58.95-11.17,0-.19-50,11.8-.05c14.85-.05,22.54,8.8,22.6,24.81S731.26,459.42,715.78,459.49Z"/><path class="cls-1" d="M783.12,400.28l-24.16,68,10.87,0,6.16-18,26.52-.11,6.27,17.95,10.87-.05L795,400.23Zm-4.18,41.32,9.9-29h.53l10.12,28.93Z"/><polygon class="cls-1" points="876.6 399.91 824.06 400.12 824.1 408.93 845.25 408.85 845.48 467.92 855.69 467.88 855.46 408.81 876.64 408.73 876.6 399.91"/><rect class="cls-1" x="895.06" y="399.81" width="10.24" height="67.89" transform="translate(-1.71 3.57) rotate(-0.23)"/><path class="cls-1" d="M956.62,398.66c-17.63.07-30.54,13.28-30.45,35s13.1,34.82,30.73,34.75,30.51-13.28,30.42-35S974.19,398.59,956.62,398.66Zm.24,60.4c-11.7.05-20.45-8.9-20.52-25.44S945,408.06,956.66,408s20.46,8.9,20.52,25.44S968.53,459,956.86,459.06Z"/><polygon class="cls-1" points="1062.41 399.17 1052.27 399.21 1052.47 449.07 1051.84 449.07 1017.1 399.35 1007.62 399.39 1007.89 467.28 1018.13 467.24 1017.93 417.45 1018.56 417.44 1053.27 467.1 1062.68 467.06 1062.41 399.17"/></svg>